<?xml version="1.0" encoding="utf-8"?>
<!-- Generator: Adobe Illustrator 19.0.0, SVG Export Plug-In . SVG Version: 6.00 Build 0)  -->
<svg version="1.1" id="Illustration" xmlns="http://www.w3.org/2000/svg" xmlns:xlink="http://www.w3.org/1999/xlink" x="0px"
	 y="0px" viewBox="1355 -1355 3710 3710" style="enable-background:new 1355 -1355 3710 3710;" xml:space="preserve">
<style type="text/css">
	.st0{fill:url(#SVGID_1_);}
	.st1{fill:#BDE3E5;}
	.st2{opacity:0.28;fill:#FFFFFF;}
	.st3{fill:#02559C;}
	.st4{opacity:0.46;fill:#BFE2E1;}
	.st5{fill:#BDD0FB;}
	.st6{opacity:0.6;}
	.st7{fill:#FFFFFF;}
	.st8{opacity:0.6;fill:#FFFFFF;}
	.st9{fill:#7D97F4;}
	.st10{fill:url(#SVGID_2_);}
	.st11{opacity:0.6;fill:#BDE3E5;}
	.st12{fill:url(#SVGID_3_);}
	.st13{fill:url(#SVGID_4_);}
	.st14{opacity:0.39;fill:#FFFFFF;}
</style>
<linearGradient id="SVGID_1_" gradientUnits="userSpaceOnUse" x1="4899.1753" y1="2640.7969" x2="2469.9829" y2="-376.1078">
	<stop  offset="0" style="stop-color:#DAE3FE"/>
	<stop  offset="1" style="stop-color:#E9EFFD"/>
</linearGradient>
<path class="st0" d="M4230.9,1451c-55.8,58.7-108.6,96.6-150.3,126.6c-490.3,351.8-1070.5,249.3-1193.8,224.2
	c-182.1-37-534-108.5-788.5-407.7c-385-452.7-325-1166-26.4-1636.8c54.6-86.1,343.1-564.1,929.6-640.8
	c354.9-46.4,768.6,47.2,1068.2,298.2C4698.5-58.5,4653.7,1005.9,4230.9,1451z"/>
<path class="st1" d="M2686.6,820.4c0,0,8.9-372.3-162.6-472c-171.5-99.7-497.6-162-509.8-696.6c-7.2-313-14.9-449.8-20.1-509.5
	c-2-23.3,18.7-42.1,41.6-37.7c162.4,30.6,690,156.5,800.7,516.7C2967.6,48.1,2686.6,820.4,2686.6,820.4z"/>
<path class="st2" d="M2161.4-746.7c178.3,159,384.4,440.4,494.3,721.8c14.1,46.4,55.4,145,73.3,320.2c16,146.1,8,300.6-11.4,402.8
	c-1.2,6.5-7.5,10.7-13.9,9.5c-11.1-2.1-9.6-14.1-9.5-13.7c22.2-174.7,13-392-37.8-588.2c-64.9-240.8-209.6-474.4-359.2-672.4
	l-15.4-19.5c-115.9-148.9-140.4-150-129.5-160.4C2154.8-749,2158.8-749,2161.4-746.7z"/>
<path class="st1" d="M2962.2,1536.2c23.2,11.4-219.7-294-295.7-773.7c-35.8-226-36.3-509.2-165.1-618.3
	c-107.2-90.8-471.8-33.5-591.1-11.7c-14.9,2.7-19.9,21.6-8.3,31.3c57.2,48.1,179.6,161.4,211.5,275.6
	c42,150.6,185.2,246.3,313.3,272.2c128.1,25.9,199.4,51.1,261.9,256C2751.1,1172.6,2896.3,1503.9,2962.2,1536.2z"/>
<path class="st2" d="M2078.1,196.2c152.2,6.4,315.6,75.8,398.5,206.1l7.8,12.4c18.1,29.1,120.5,236.3,177.4,408.1
	c0.7,2.1-0.5,4.5-2.6,5.2c-3.6,1.2-5.5-2.8-5.1-2.4c-39.6-97-96.6-220-141.9-312c-48.6-100.4-82.7-168.3-193.6-233.5
	c-123.5-70.1-241.4-77.3-241-77.3c-1.8-0.2-3.1-1.8-2.9-3.6C2074.9,197.4,2076.4,196.1,2078.1,196.2z"/>
<path class="st3" d="M2533.2-396.8c0-94.4,76.5-171,171-171H4158c80.2,0,146.4,62.9,150.4,143l107.3,2107.9
	c3.2,62.7-46.2,115.6-108.9,116.7l-1666.4,30.3c-59,1.1-107.3-46.4-107.3-105.4V-396.8z"/>
<path class="st1" d="M2884.1,1794.2L2884.1,1794.2l-186.5-2.4c-62.3-0.8-113.1-52.2-113.1-114.5v-281.5c0-2.2,1.8-4,4-4
	c2.2,0,4,1.8,4,4v281.5c0,58,47.2,105.8,105.2,106.6l186.5,2.4c2.2,0,4,1.8,3.9,4C2888,1792.5,2886.2,1794.2,2884.1,1794.2z"/>
<path class="st1" d="M2588.5,1312.5c-2.2,0-4-1.8-4-4V1263c0-2.2,1.8-4,4-4c2.2,0,4,1.8,4,4v45.6
	C2592.4,1310.8,2590.7,1312.5,2588.5,1312.5z"/>
<path class="st4" d="M2652.3-535.3c-0.2-30.2,26.4-53.6,56.3-49.5c198.5,26.9,881.3,110.2,1445.8,66.9c25.7-2,48.1,17.5,49.5,43.3
	l112.5,2117.3c1.5,29-20.6,53.9-49.6,55.6c-237.4,14-1215.1,68.4-1563.9,31.8c-21.2-2.2-37.3-20.1-37.5-41.4L2652.3-535.3z"/>
<path class="st5" d="M2675.7-482.3c-0.2-29.1,25.4-51.6,54.2-47.7c191.1,25.9,848.1,106,1391.3,64.3c24.8-1.9,46.3,16.9,47.6,41.7
	l108.3,2037.6c1.5,27.9-19.8,51.8-47.8,53.5c-228.5,13.5-1169.4,65.8-1505,30.6c-20.4-2.1-35.9-19.3-36.1-39.9L2675.7-482.3z"/>
<g class="st6">
	<path class="st7" d="M4061.4-287.2c2.5,0,4.5-2,4.4-4.5l-0.6-20.3c-0.1-2.5-2.2-4.6-4.7-4.6l-549.4-9.8c-2.5,0-3.9,1.8-3,4.2
		l10.8,30.7c0.8,2.3,3.5,4.3,6,4.3H4061.4z"/>
</g>
<g class="st6">
	<path class="st7" d="M3511.2-244.9c-2.5,0-3.9,1.8-3,4.2L3519-210c0.8,2.3,3.5,4.3,6,4.3h536.4c2.5,0,4.5-2,4.4-4.5l-0.6-20.3
		c-0.1-2.5-2.2-4.6-4.7-4.6L3511.2-244.9z"/>
</g>
<g class="st6">
	<path class="st7" d="M3511.2-162.3c-2.5,0-3.9,1.8-3,4.2l10.8,30.7c0.8,2.3,3.5,4.3,6,4.3h536.4c2.5,0,4.5-2,4.4-4.5l-0.6-20.3
		c-0.1-2.5-2.2-4.6-4.7-4.6L3511.2-162.3z"/>
</g>
<g class="st6">
	<path class="st7" d="M4112.3,275.3c2.5,0,4.4-2,4.2-4.5l-1.3-20.3c-0.2-2.5-2.3-4.5-4.8-4.6l-1253.5-9.9c-2.5,0-3.3,1.6-1.7,3.5
		l25.6,32.2c1.6,1.9,4.9,3.5,7.4,3.5H4112.3z"/>
</g>
<g class="st6">
	<path class="st7" d="M2856.9,364.6c-2.5,0-3.3,1.6-1.7,3.5l25.6,32.2c1.6,1.9,4.9,3.5,7.4,3.5h1224.1c2.5,0,4.4-2,4.2-4.5
		l-1.3-20.3c-0.2-2.5-2.3-4.5-4.8-4.6L2856.9,364.6z"/>
</g>
<g class="st6">
	<path class="st7" d="M2862.2,525.9c-2.5,0-3.3,1.6-1.7,3.5l25.6,32.2c1.6,1.9,4.9,3.5,7.4,3.5h1224.1c2.5,0,4.4-2,4.2-4.5
		l-1.3-20.3c-0.2-2.5-2.3-4.5-4.8-4.6L2862.2,525.9z"/>
</g>
<path class="st7" d="M3022.4,873c-0.1,0-0.2,0-0.3,0l-103.7-1c-14.8-0.1-27-10.3-28.4-23.7l-9.1-87c-0.5-5.1,1.1-10.2,4.5-14.2
	c3.8-4.5,9.6-7.4,15.9-7.8l0,0c8.7-0.6,21-1.6,34.1-2.8c27.4-2.3,61.6-5.2,80.8-5.5c13.9-0.1,25.7,8.2,29,20.3
	c5.4,20,4.9,57.8,3.9,98C3048.6,862.4,3036.8,873,3022.4,873z M2901.8,747.2c-4.1,0.3-7.9,2.1-10.3,5c-2,2.4-2.9,5.3-2.6,8.3l9.1,87
	c1,9.3,9.8,16.5,20.6,16.6l103.7,1c0.1,0,0.1,0,0.2,0c10,0,18.4-7.1,18.6-15.9c1-39.7,1.5-76.8-3.6-95.8
	c-2.3-8.5-11.1-14.4-21.2-14.4c-18.9,0.2-52.9,3.1-80.2,5.5C2922.9,745.5,2910.6,746.6,2901.8,747.2L2901.8,747.2z"/>
<path class="st8" d="M2912.9,756.2c21.8-1.5,69.1-6.3,91.6-6.6c9.5-0.1,17.9,5.6,20.1,13.9c4.3,16,3.8,48,3,77.4
	c-0.2,8.8-8.3,15.9-18.2,15.8l-82.9-0.8c-10.2-0.1-18.6-7-19.6-16.1l-7.3-69.5C2898.9,763.1,2904.9,756.7,2912.9,756.2z"/>
<g class="st6">
	<path class="st7" d="M3113.5,815.2c3,11.4,13.3,19.3,25.1,19.2l959.3-8.2c10.9-0.1,19.5-9,19.3-19.9c-0.2-10.5-8.8-19-19.4-19
		l-959.3-4.4C3121.6,782.8,3109.2,798.8,3113.5,815.2z"/>
</g>
<path class="st7" d="M3022.4,1095.2c-0.1,0-0.2,0-0.3,0l-103.7-1c-14.8-0.1-27-10.3-28.4-23.7l-9.1-87c-0.5-5.1,1.1-10.2,4.5-14.2
	c3.8-4.5,9.6-7.4,15.9-7.8l0,0c8.7-0.6,21-1.6,34.1-2.8c27.4-2.3,61.6-5.2,80.8-5.5c0.1,0,0.3,0,0.4,0c13.6,0,25.4,8.3,28.6,20.3
	c5.4,20,4.9,57.8,3.9,98C3048.6,1084.6,3036.8,1095.2,3022.4,1095.2z M2901.8,969.4c-4.1,0.3-7.9,2.1-10.3,5c-2,2.4-2.9,5.3-2.6,8.3
	l9.1,87c1,9.3,9.8,16.5,20.6,16.6l103.7,1c0.1,0,0.1,0,0.2,0c10,0,18.4-7.1,18.6-15.9c1-39.7,1.5-76.8-3.6-95.8
	c-2.3-8.5-11.3-14.6-21.2-14.4c-18.9,0.2-52.9,3.1-80.2,5.5C2922.9,967.7,2910.6,968.8,2901.8,969.4L2901.8,969.4z"/>
<path class="st8" d="M2912.9,978.4c21.8-1.5,69.1-6.3,91.6-6.6c9.5-0.1,17.9,5.6,20.1,13.9c4.3,16,3.8,48,3,77.4
	c-0.2,8.8-8.3,15.9-18.2,15.8l-82.9-0.8c-10.2-0.1-18.6-7-19.6-16.1l-7.3-69.5C2898.9,985.3,2904.9,978.9,2912.9,978.4z"/>
<g class="st6">
	<path class="st7" d="M3113.5,1037.4c3,11.4,13.3,19.3,25.1,19.2l959.3-8.2c10.9-0.1,19.5-9,19.3-19.9c-0.2-10.5-8.8-19-19.4-19
		l-959.3-4.4C3121.6,1005,3109.2,1021,3113.5,1037.4z"/>
</g>
<path class="st7" d="M3022.4,1317.4c-0.1,0-0.2,0-0.3,0l-103.7-1c-14.8-0.1-27-10.3-28.4-23.7l-9.1-87c-0.5-5.1,1.1-10.2,4.5-14.2
	c3.8-4.5,9.6-7.4,15.9-7.8l0,0c8.7-0.6,21-1.6,34.1-2.8c27.4-2.3,61.6-5.2,80.8-5.5c0.1,0,0.3,0,0.4,0c13.6,0,25.4,8.3,28.6,20.3
	c5.4,20,4.9,57.8,3.9,98C3048.6,1306.9,3036.8,1317.4,3022.4,1317.4z M2901.8,1191.6c-4.1,0.3-7.9,2.1-10.3,5
	c-2,2.4-2.9,5.3-2.6,8.3l9.1,87c1,9.3,9.8,16.5,20.6,16.6l103.7,1c0.1,0,0.1,0,0.2,0c10,0,18.4-7.1,18.6-15.9
	c1-39.7,1.5-76.8-3.6-95.8c-2.3-8.5-11.3-14.6-21.2-14.4c-18.9,0.2-52.9,3.1-80.2,5.5C2922.9,1190,2910.6,1191,2901.8,1191.6
	L2901.8,1191.6z"/>
<path class="st8" d="M2912.9,1200.6c21.8-1.5,69.1-6.3,91.6-6.6c9.5-0.1,17.9,5.6,20.1,13.9c4.3,16,3.8,48,3,77.4
	c-0.2,8.8-8.3,15.9-18.2,15.8l-82.9-0.8c-10.2-0.1-18.6-7-19.6-16.1l-7.3-69.5C2898.9,1207.5,2904.9,1201.1,2912.9,1200.6z"/>
<g class="st6">
	<path class="st7" d="M3113.5,1259.6c3,11.4,13.3,19.3,25.1,19.2l959.3-8.2c10.9-0.1,19.5-9,19.3-19.9c-0.2-10.5-8.8-19-19.4-19
		l-959.3-4.4C3121.6,1227.2,3109.2,1243.3,3113.5,1259.6z"/>
</g>
<path class="st7" d="M3022.4,1539.6c-0.1,0-0.2,0-0.3,0l-103.7-1c-14.8-0.1-27-10.3-28.4-23.7l-9.1-87c-0.5-5.1,1.1-10.2,4.5-14.2
	c3.8-4.5,9.6-7.4,15.9-7.8l0,0c8.7-0.6,21-1.6,34.1-2.8c27.4-2.3,61.6-5.2,80.8-5.5c0.1,0,0.3,0,0.4,0c13.6,0,25.4,8.3,28.6,20.3
	c5.4,20,4.9,57.8,3.9,98C3048.6,1529.1,3036.8,1539.6,3022.4,1539.6z M2901.8,1413.8c-4.1,0.3-7.9,2.1-10.3,5
	c-2,2.4-2.9,5.3-2.6,8.3l9.1,87c1,9.3,9.8,16.5,20.6,16.6l103.7,1c0.1,0,0.1,0,0.2,0c10,0,18.4-7.1,18.6-15.9
	c1-39.7,1.5-76.8-3.6-95.8c-2.3-8.5-11.3-14.6-21.2-14.4c-18.9,0.2-52.9,3.1-80.2,5.5C2922.9,1412.2,2910.6,1413.2,2901.8,1413.8
	L2901.8,1413.8z"/>
<path class="st8" d="M2912.9,1422.8c21.8-1.5,69.1-6.3,91.6-6.6c9.5-0.1,17.9,5.6,20.1,13.9c4.3,16,3.8,48,3,77.4
	c-0.2,8.8-8.3,15.9-18.2,15.8l-82.9-0.8c-10.2-0.1-18.6-7-19.6-16.1l-7.3-69.5C2898.9,1429.7,2904.9,1423.3,2912.9,1422.8z"/>
<g class="st6">
	<path class="st7" d="M3113.5,1481.8L3113.5,1481.8c3,11.4,13.3,19.3,25.1,19.2l959.3-8.2c10.9-0.1,19.5-9,19.3-19.9
		c-0.2-10.5-8.8-19-19.4-19l-959.3-4.4C3121.6,1449.5,3109.2,1465.5,3113.5,1481.8z"/>
</g>
<path class="st3" d="M3521.3-855.2c-52.5-36.5-98.2-35.8-130.3-26.3c-29.3,8.7-48.3,37-45.5,67.4l13.9,151.3l165,14.6
	C3524.2-648.2,3624.3-783.5,3521.3-855.2z M3448.7-733.1c-22.7,0-41.1-18.4-41.1-41.1s18.4-41.1,41.1-41.1
	c22.7,0,41.1,18.4,41.1,41.1S3471.4-733.1,3448.7-733.1z"/>
<path class="st1" d="M3375.7-726.4c-2,0-3.8-1.6-4-3.6l-2.2-24.1c-0.2-2.2,1.4-4.1,3.6-4.3c2.2-0.2,4.1,1.4,4.3,3.6l2.2,24.1
	c0.2,2.2-1.4,4.1-3.6,4.3C3376-726.4,3375.9-726.4,3375.7-726.4z M3371.4-773.7c-2,0-3.8-1.6-4-3.6l-1.7-18.3
	c-2.7-29,15.6-56,43.4-64.2c19.7-5.8,40-6.6,60.3-2.5c2.2,0.4,3.5,2.5,3.1,4.7c-0.4,2.1-2.5,3.5-4.7,3.1c-19-3.9-38-3.1-56.4,2.3
	c-24.2,7.1-40,30.6-37.7,55.9l1.7,18.3c0.2,2.2-1.4,4.1-3.6,4.3C3371.7-773.7,3371.5-773.7,3371.4-773.7z"/>
<path class="st3" d="M3134.1-565v-76.1c0-26.3,21.8-47.3,48-46.4l524.5,18c23.3,0.8,42.1,19.2,43.5,42.4l4.4,73.1L3134.1-565z"/>
<path class="st1" d="M3329.7-658.8h-22.6c-2.2,0-4-1.8-4-4c0-2.2,1.8-4,4-4h22.6c2.2,0,4,1.8,4,4
	C3333.7-660.6,3331.9-658.8,3329.7-658.8z"/>
<path class="st1" d="M3162.5-588.9c-2.2,0-4-1.8-4-4v-30.8c0-23.8,19.3-43.1,43.1-43.1h82.9c2.2,0,4,1.8,4,4c0,2.2-1.8,4-4,4h-82.9
	c-19.4,0-35.2,15.8-35.2,35.2v30.8C3166.5-590.7,3164.7-588.9,3162.5-588.9z"/>
<path class="st9" d="M2920.4-545.8c1.3-26.3,23-47.1,49.4-47.1l917.2,0c33,0,61.2,23.7,66.8,56.2l0.8,4.5
	c6.2,35.6-21.2,68.2-57.4,68.2h-941c-21.6,0-38.8-18.1-37.8-39.7L2920.4-545.8z"/>
<circle class="st1" cx="3135.9" cy="-99.3" r="238"/>
<linearGradient id="SVGID_2_" gradientUnits="userSpaceOnUse" x1="2987.9739" y1="-102.0316" x2="3287.2339" y2="-102.0316">
	<stop  offset="0" style="stop-color:#FF928E"/>
	<stop  offset="1" style="stop-color:#FE7062"/>
</linearGradient>
<path class="st10" d="M3278.8-49.4l-55.9-55.9l48.2-48.2c11.3-11.3,11.3-29.6,0-40.9l-41-41c-11.3-11.3-29.6-11.3-40.9,0l-48.2,48.2
	l-55.9-55.9c-11.3-11.3-29.6-11.3-40.9,0l-47.6,47.6c-11.3,11.3-11.3,29.6,0,40.9l55.9,55.9l-48.2,48.2c-11.3,11.3-11.3,29.6,0,40.9
	l41,41c11.3,11.3,29.6,11.3,40.9,0l48.2-48.2l55.9,55.9c11.3,11.3,29.6,11.3,40.9,0l47.6-47.6C3290.1-19.8,3290.1-38.1,3278.8-49.4z
	"/>
<rect x="3892.1" y="633.5" class="st1" width="498.9" height="131.3"/>
<path class="st1" d="M3737.9,1814.4h807.4c20,0,36.2-16.2,36.2-36.2V743.6c0-20-16.2-36.2-36.2-36.2h-807.4
	c-20,0-36.2,16.2-36.2,36.2v1034.6C3701.7,1798.2,3717.9,1814.4,3737.9,1814.4z"/>
<path class="st2" d="M3825.1,1641.6h633c6.6,0,12-5.4,12-12v-680c0-6.6-5.4-12-12-12h-633c-6.6,0-12,5.4-12,12v680
	C3813.1,1636.2,3818.4,1641.6,3825.1,1641.6z"/>
<path class="st3" d="M3815.9,675.7h651.3c3.5,0,6.3-2.8,6.3-6.3V481.3c0-6.6-5.4-12-12-12h-640c-6.6,0-12,5.4-12,12v188.1
	C3809.6,672.9,3812.4,675.7,3815.9,675.7z"/>
<rect x="4399.4" y="498.8" class="st11" width="23.8" height="149.8"/>
<rect x="4350.4" y="498.8" class="st11" width="23.8" height="149.8"/>
<rect x="4301.3" y="498.8" class="st11" width="23.8" height="149.8"/>
<rect x="4252.3" y="498.8" class="st11" width="23.8" height="149.8"/>
<rect x="4203.2" y="498.8" class="st11" width="23.8" height="149.8"/>
<rect x="4154.2" y="498.8" class="st11" width="23.8" height="149.8"/>
<rect x="4105.1" y="498.8" class="st11" width="23.8" height="149.8"/>
<rect x="4056.1" y="498.8" class="st11" width="23.8" height="149.8"/>
<rect x="4007" y="498.8" class="st11" width="23.8" height="149.8"/>
<rect x="3958" y="498.8" class="st11" width="23.8" height="149.8"/>
<rect x="3908.9" y="498.8" class="st11" width="23.8" height="149.8"/>
<rect x="3859.9" y="498.8" class="st11" width="23.8" height="149.8"/>
<linearGradient id="SVGID_3_" gradientUnits="userSpaceOnUse" x1="3933.5676" y1="688.1785" x2="3107.2029" y2="2729.2043">
	<stop  offset="0" style="stop-color:#FF928E"/>
	<stop  offset="1" style="stop-color:#FE7062"/>
</linearGradient>
<path class="st12" d="M3519.7,1839.3c96.8,21.6,274.7,19.6,376.8-4.9c33.5-8,57.1-38.1,57.1-72.5V722.7h-494.8v1040.5
	C3458.9,1799.7,3484.1,1831.4,3519.7,1839.3z"/>
<linearGradient id="SVGID_4_" gradientUnits="userSpaceOnUse" x1="-1862.5726" y1="-125.9644" x2="-1918.9235" y2="1529.3772" gradientTransform="matrix(-1 0 0 1 1813.8657 0)">
	<stop  offset="0" style="stop-color:#E1473D"/>
	<stop  offset="1" style="stop-color:#E9605A"/>
</linearGradient>
<path class="st13" d="M3446.9,831.5h518.4c3.5,0,6.3-2.8,6.3-6.3V669.4c0-6.6-5.4-12-12-12h-507.1c-6.6,0-12,5.4-12,12v155.8
	C3440.6,828.7,3443.4,831.5,3446.9,831.5z"/>
<rect x="3912.4" y="682.2" class="st8" width="19.1" height="126.4"/>
<rect x="3873.2" y="682.2" class="st8" width="19.1" height="126.4"/>
<rect x="3833.9" y="682.2" class="st8" width="19.1" height="126.4"/>
<rect x="3794.7" y="682.2" class="st8" width="19.1" height="126.4"/>
<rect x="3755.5" y="682.2" class="st8" width="19.1" height="126.4"/>
<rect x="3716.2" y="682.2" class="st8" width="19.1" height="126.4"/>
<rect x="3677" y="682.2" class="st8" width="19.1" height="126.4"/>
<rect x="3637.8" y="682.2" class="st8" width="19.1" height="126.4"/>
<rect x="3598.6" y="682.2" class="st8" width="19.1" height="126.4"/>
<rect x="3559.3" y="682.2" class="st8" width="19.1" height="126.4"/>
<rect x="3520.1" y="682.2" class="st8" width="19.1" height="126.4"/>
<rect x="3480.9" y="682.2" class="st8" width="19.1" height="126.4"/>
<path class="st14" d="M3570,1598.7h281.8c17.1,0,30.9-13.8,30.9-30.9v-540c0-17.1-13.8-30.9-30.9-30.9H3570
	c-17.1,0-30.9,13.8-30.9,30.9v540C3539.2,1584.9,3553,1598.7,3570,1598.7z"/>
<path class="st7" d="M3104.1,1431l285.6,33.1c-59.2,110.5-84.8,232.9-82.7,357.8l-244.9-28.4c-99.7-11.5-171.8-102.6-160.3-202.2
	l0,0C2913.4,1491.5,3004.4,1419.4,3104.1,1431z"/>
<path class="st3" d="M3389.7,1464l238.4,27.6c99.7,11.5,171.8,102.6,160.3,202.2l0,0c-11.5,99.7-102.6,171.8-202.2,160.3
	l-279.1-32.3C3304.9,1697,3330.5,1574.5,3389.7,1464z"/>
</svg>
