<?xml version="1.0" encoding="utf-8"?>
<!-- Generator: Adobe Illustrator 19.0.0, SVG Export Plug-In . SVG Version: 6.00 Build 0)  -->
<svg version="1.1" id="Illustration" xmlns="http://www.w3.org/2000/svg" xmlns:xlink="http://www.w3.org/1999/xlink" x="0px"
	 y="0px" viewBox="1355 -1355 3710 3710" style="enable-background:new 1355 -1355 3710 3710;" xml:space="preserve">
<style type="text/css">
	.st0{fill:url(#SVGID_1_);}
	.st1{fill:#BDD0FB;}
	.st2{opacity:0.43;fill:#FFFFFF;enable-background:new    ;}
	.st3{fill:#91B3FA;}
	.st4{fill:#02559C;}
	.st5{fill:#FFFFFF;}
	.st6{fill:#FA9746;}
	.st7{fill:url(#SVGID_2_);}
	.st8{fill:url(#SVGID_3_);}
	.st9{fill:url(#SVGID_4_);}
	.st10{fill:url(#SVGID_5_);}
	.st11{fill:url(#SVGID_6_);}
	.st12{fill:url(#SVGID_7_);}
	.st13{fill:url(#SVGID_8_);}
	.st14{fill:url(#SVGID_9_);}
	.st15{fill:url(#SVGID_10_);}
	.st16{fill:url(#SVGID_11_);}
	.st17{fill:url(#SVGID_12_);}
	.st18{fill:url(#SVGID_13_);}
	.st19{fill:url(#SVGID_14_);}
	.st20{fill:url(#SVGID_15_);}
	.st21{fill:url(#SVGID_16_);}
	.st22{fill:url(#SVGID_17_);}
</style>
<linearGradient id="SVGID_1_" gradientUnits="userSpaceOnUse" x1="4926.2524" y1="-1726.3931" x2="2434.7778" y2="1367.8615" gradientTransform="matrix(1 0 0 -1 0 1000)">
	<stop  offset="0" style="stop-color:#DAE3FE"/>
	<stop  offset="1" style="stop-color:#E9EFFD"/>
</linearGradient>
<path class="st0" d="M4240.8,1506.1c-57.2,60.2-111.4,99.1-154.2,129.8c-502.9,360.8-1097.9,255.7-1224.4,230
	c-186.8-37.9-547.7-111.2-808.7-418.2C1658.6,983.4,1720.1,251.9,2026.4-231c56-88.3,351.9-578.6,953.4-657.2
	c364-47.6,788.3,48.4,1095.6,305.8C4720.4-42.1,4674.5,1049.6,4240.8,1506.1z"/>
<path class="st1" d="M4434.5-595c-5.5-15-27.4-12.6-29.6,3.2c-20.6,152.8-87.3,551.6-243.8,780.3
	c-254.9,372.3-380.2,936.4-148.4,1186.9C4012.8,1375.4,5032.8,1036,4434.5-595z"/>
<path class="st2" d="M4434.9-381.2c0.3,4.9,0.2,8.9,0.2,13.2l-0.2,12.8l-0.6,25.6c-0.5,17-1.3,34.1-2.1,51.1
	c-1.7,34-3.8,68.1-6.2,102.1c-4.9,68-11.7,135.9-19.5,203.6c-7.7,67.8-17.3,135.3-28.3,202.6c-11.1,67.3-23.1,134.5-37.3,201.2
	c-28.2,133.5-63.7,265.6-108.4,394.7c-23,64.3-47.7,128-76.1,190.1c-28.8,61.9-60.2,122.6-96,180.8c-0.8,1.3-2.4,1.7-3.7,0.9
	c-1.2-0.8-1.6-2.4-0.9-3.6l0,0c33.3-59.3,63.4-120.3,90.4-182.6c27.2-62.2,50.7-126,72.6-190.3c21.8-64.3,41.1-129.5,58.8-195.1
	c17.7-65.6,32.7-131.9,47.3-198.3c28.7-132.9,50.3-267.3,68.1-402.1c8.8-67.4,16.2-135.1,22.5-202.8c3.2-33.9,6-67.8,8.5-101.7
	l3.3-50.9l1.4-25.5l0.5-12.7c0.1-4.2,0.3-8.7,0.2-12.3v-0.6c0-1.5,1.2-2.7,2.6-2.7C4433.7-383.7,4434.8-382.6,4434.9-381.2z"/>
<path class="st3" d="M3768.7-878.9c-9.1-12.2-28.6-4.1-26.3,11c22.8,145.7,70.4,529.7-10.7,782.1
	c-132.2,410.9-93.2,962.4,187.7,1128.9C3919.4,1043.1,4762.2,453.6,3768.7-878.9z"/>
<path class="st2" d="M3827.4-683c1.6,4.4,2.6,8.1,3.8,12.1l3.4,11.8l6.4,23.6c4.2,15.8,8.1,31.6,12.1,47.4
	c7.8,31.7,15.1,63.4,22.2,95.3c14,63.7,26.3,127.8,37.7,192s21.1,128.8,29.3,193.5s15.5,129.6,20.7,194.7
	c10.6,130.1,14,261,8.3,391.5c-3.6,65.2-8.9,130.4-17.9,195.1c-9.5,64.6-21.8,128.9-38.7,192c-0.4,1.4-1.8,2.2-3.2,1.9
	c-1.4-0.4-2.2-1.7-1.9-3.1l0,0c14.4-63.5,25.3-127.6,33-192.1c7.9-64.5,12.1-129.4,14.6-194.3s2.3-130,0.7-194.9
	c-1.6-65-6-129.9-10.7-194.7c-9.9-129.7-26.8-258.8-47.2-387.3c-10.3-64.2-22-128.3-34.7-192.1c-6.3-31.9-12.9-63.8-20-95.6
	l-10.9-47.6l-5.7-23.7l-3-11.8c-1-3.9-2.1-8-3.1-11.3l-0.2-0.6c-0.4-1.4,0.3-2.8,1.7-3.3C3825.5-685,3827-684.3,3827.4-683z"/>
<circle class="st4" cx="2924.3" cy="480.9" r="1114.9"/>
<circle class="st5" cx="2998.9" cy="480.9" r="1114.9"/>
<circle class="st4" cx="2998.9" cy="480.9" r="951.5"/>
<path class="st5" d="M2998.9,1480.1c-550.9,0-999.2-448.2-999.2-999.2s448.2-999.2,999.2-999.2S3998.1-70,3998.1,480.9
	S3549.9,1480.1,2998.9,1480.1z M2998.9-470.6c-524.7,0-951.5,426.8-951.5,951.5s426.8,951.5,951.5,951.5s951.5-426.8,951.5-951.5
	C3950.5-43.8,3523.6-470.6,2998.9-470.6z"/>
<circle class="st4" cx="2998.9" cy="480.9" r="580.1"/>
<path class="st5" d="M2998.9,1108.7c-346.1,0-627.8-281.6-627.8-627.8s281.6-627.7,627.8-627.7c346.1,0,627.8,281.6,627.8,627.7
	S3345.1,1108.7,2998.9,1108.7z M2998.9-51.5c-293.6,0-532.4,238.8-532.4,532.4s238.9,532.4,532.4,532.4
	c293.6,0,532.4-238.9,532.4-532.4S3292.5-51.5,2998.9-51.5z"/>
<circle class="st6" cx="2998.9" cy="480.9" r="224.7"/>
<path class="st5" d="M2998.9,753.3c-150.2,0-272.4-122.2-272.4-272.4s122.2-272.4,272.4-272.4s272.4,122.2,272.4,272.4
	S3149.1,753.3,2998.9,753.3z M2998.9,303.8c-97.6,0-177.1,79.4-177.1,177.1S2901.2,658,2998.9,658c97.6,0,177.1-79.4,177.1-177.1
	C3176,383.3,3096.6,303.8,2998.9,303.8z"/>
<linearGradient id="SVGID_2_" gradientUnits="userSpaceOnUse" x1="3881.4795" y1="-4176.5376" x2="3782.7524" y2="-5235.6172" gradientTransform="matrix(0.2244 -0.9745 -0.9745 -0.2244 -567.6536 3653.1748)">
	<stop  offset="0" style="stop-color:#4F52FF"/>
	<stop  offset="1" style="stop-color:#4042E2"/>
</linearGradient>
<path class="st7" d="M4551.6,816l47.6,96.1l-201.9-46.5c-66.1-15.2-122-59.3-152.1-120.1l0,0L4551.6,816z"/>
<linearGradient id="SVGID_3_" gradientUnits="userSpaceOnUse" x1="4845.3467" y1="-4177.0288" x2="4746.6211" y2="-5236.0981" gradientTransform="matrix(-0.2244 0.9745 -0.9745 -0.2244 1411.2068 -4942.6021)">
	<stop  offset="0" style="stop-color:#4F52FF"/>
	<stop  offset="1" style="stop-color:#4042E2"/>
</linearGradient>
<path class="st8" d="M4558.3,787.2l84.8-65.6l-201.9-46.5c-66.1-15.2-135.6,0-189.3,41.5l0,0L4558.3,787.2z"/>
<linearGradient id="SVGID_4_" gradientUnits="userSpaceOnUse" x1="4191.2422" y1="-2623.3738" x2="3907.1787" y2="-3777.3757" gradientTransform="matrix(0.2244 -0.9745 -0.9745 -0.2244 -567.6536 3653.1748)">
	<stop  offset="0" style="stop-color:#09005D"/>
	<stop  offset="1" style="stop-color:#1A0F91"/>
</linearGradient>
<polygon class="st9" points="4562.9,783.2 4554.9,817.8 3244.6,516.1 3252.5,481.5 "/>
<linearGradient id="SVGID_5_" gradientUnits="userSpaceOnUse" x1="3949.0288" y1="-2865.9377" x2="3862.2278" y2="-3797.0833" gradientTransform="matrix(0.2244 -0.9745 -0.9745 -0.2244 -567.6536 3653.1748)">
	<stop  offset="0" style="stop-color:#09005D"/>
	<stop  offset="1" style="stop-color:#1A0F91"/>
</linearGradient>
<path class="st10" d="M3313.3,464.4c19.9,4.6-1.7,98.2-21.5,93.6l-301.5-108.5c-11.1-4-7.3-20.6,4.5-19.4L3313.3,464.4z"/>
<linearGradient id="SVGID_6_" gradientUnits="userSpaceOnUse" x1="8912.0469" y1="52.8343" x2="9056.1611" y2="52.8343" gradientTransform="matrix(-0.9994 3.490000e-002 -3.490000e-002 -0.9994 12557.9355 1590.7902)">
	<stop  offset="0" style="stop-color:#09005D"/>
	<stop  offset="1" style="stop-color:#1A0F91"/>
</linearGradient>
<path class="st11" d="M3633.2,1814.5c0,0,16.1,23.2,16.9,55.8c0.2,7.7-6,14-13.7,14.3l-123.9,4.3c-5.8,0.2-8.4-7.2-3.8-10.7
	c22.9-17.3,67.9-49.6,100.8-62.9L3633.2,1814.5z"/>
<linearGradient id="SVGID_7_" gradientUnits="userSpaceOnUse" x1="8874.7412" y1="947.022" x2="8911.7764" y2="947.022" gradientTransform="matrix(-0.9907 0.1362 -0.1362 -0.9907 12559.957 1522.5081)">
	<stop  offset="0" style="stop-color:#FEBBBA"/>
	<stop  offset="1" style="stop-color:#FF928E"/>
</linearGradient>
<path class="st12" d="M3636.3,1775l-3.2,47.6c-0.4,5.3-4.9,9.5-10.3,9.1c-3.2-0.3-7.1-1.1-11.4-3c-4.1-1.8-6.6-6-6.4-10.5l2.2-57.5
	L3636.3,1775z"/>
<linearGradient id="SVGID_8_" gradientUnits="userSpaceOnUse" x1="3886.8213" y1="7188.0166" x2="4030.9067" y2="7188.0166" gradientTransform="matrix(-0.1553 0.9879 -0.9879 -0.1553 12064.8496 -1126.0154)">
	<stop  offset="0" style="stop-color:#09005D"/>
	<stop  offset="1" style="stop-color:#1A0F91"/>
</linearGradient>
<path class="st13" d="M4323.2,1606.8c0,0,25.8-11.4,58-6c7.6,1.3,12.6,8.6,11.4,16.2l-19.3,122.4c-0.9,5.7-8.6,6.9-11.2,1.7
	c-12.6-25.7-35.9-76-42.6-110.9L4323.2,1606.8z"/>
<linearGradient id="SVGID_9_" gradientUnits="userSpaceOnUse" x1="3151.3286" y1="7534.7627" x2="3188.3674" y2="7534.7627" gradientTransform="matrix(-5.420000e-002 0.9985 -0.9985 -5.420000e-002 11997.4922 -1141.0393)">
	<stop  offset="0" style="stop-color:#FEBBBA"/>
	<stop  offset="1" style="stop-color:#FF928E"/>
</linearGradient>
<path class="st14" d="M4285,1596.2l46.1,12.1c5.2,1.4,8.4,6.7,7,11.8c-0.9,3.1-2.4,6.8-5.1,10.6c-2.6,3.7-7.2,5.3-11.5,4.3l-56-13
	L4285,1596.2z"/>
<linearGradient id="SVGID_10_" gradientUnits="userSpaceOnUse" x1="3672.8359" y1="-409.3457" x2="3733.7581" y2="-421.7725" gradientTransform="matrix(0.9932 0.1165 0.1165 -0.9932 -2.9582 -231.1481)">
	<stop  offset="0" style="stop-color:#FEBBBA"/>
	<stop  offset="1" style="stop-color:#FF928E"/>
</linearGradient>
<path class="st15" d="M3653,632.9c0,0-4.1-9.6-3.5-15.3c0.7-5.7,0.8-23.4-9.8-30.9c0,0-5.8,0.3-5.9,6.7c-6.8-7.3-7.1-13.5-14.1-9.1
	c-7,4.5-33.3,20.4-20.2,30.9s33.8,30.6,33.8,30.6L3653,632.9z"/>
<linearGradient id="SVGID_11_" gradientUnits="userSpaceOnUse" x1="4030.5576" y1="-414.8658" x2="4304.7681" y2="-944.2436" gradientTransform="matrix(1 0 0 -1 0 1000)">
	<stop  offset="0" style="stop-color:#09005D"/>
	<stop  offset="1" style="stop-color:#1A0F91"/>
</linearGradient>
<path class="st16" d="M3881,1398.9c0,0,23.4,187.1,90.6,194.2c67.1,7.1,324.2,44.3,324.2,44.3l7.1-38.6c0,0-148.5-90-237.1-88.5
	c-44.3-65.7-33.5-247.2-33.5-247.2L3881,1398.9z"/>
<path class="st6" d="M4157.2,745.7c-7.9,208.6-117.3,227-117.3,227v266.8h-154.3c0,0-74.8-182.2-72.9-243.1
	c-111.3-47.1-167.6-316.1-179.4-350.5c5.5-4.2,8.4-4,19.6-13c151.7,241.4,188.7,278.5,188.7,278.5h85.7
	C4092,896.6,4132.5,740,4132.5,740L4157.2,745.7z"/>
<linearGradient id="SVGID_12_" gradientUnits="userSpaceOnUse" x1="3646.498" y1="-488.7372" x2="3972.8953" y2="-555.315" gradientTransform="matrix(1 0 0 -1 0 1000)">
	<stop  offset="0" style="stop-color:#09005D"/>
	<stop  offset="1" style="stop-color:#1A0F91"/>
</linearGradient>
<path class="st17" d="M4035,1239c0,0,12.3,130.7-245.2,232.6c-62.8,117.1-145.3,335.4-145.3,335.4h-54.3c0,0,37.1-329.7,102.8-395.4
	c65.7-65.7,137.4-139.6,192.5-172C4013,1226.2,4035,1239,4035,1239z"/>
<linearGradient id="SVGID_13_" gradientUnits="userSpaceOnUse" x1="8745.9385" y1="-173.4203" x2="8477.1992" y2="-667.2015" gradientTransform="matrix(-0.9937 -0.112 0.112 -0.9937 12519.6729 1464.8228)">
	<stop  offset="0" style="stop-color:#FEBBBA"/>
	<stop  offset="1" style="stop-color:#FF928E"/>
</linearGradient>
<path class="st18" d="M3925.2,814.1l28.4,100c0,0-48.5,26.1-84.4,19l-9.9-88.2L3925.2,814.1z"/>
<linearGradient id="SVGID_14_" gradientUnits="userSpaceOnUse" x1="7137.3672" y1="-4770.3389" x2="7018.5947" y2="-4927.4648" gradientTransform="matrix(-0.7472 -0.6646 0.6646 -0.7472 12386.7402 1936.5703)">
	<stop  offset="0" style="stop-color:#FEBBBA"/>
	<stop  offset="1" style="stop-color:#FF928E"/>
</linearGradient>
<path class="st19" d="M3866.4,741.5c-1,1.2-39.7,97.2-39.7,97.2l55.3,20.9l50.1-85.6C3932.2,774,3883.8,721.9,3866.4,741.5z"/>
<linearGradient id="SVGID_15_" gradientUnits="userSpaceOnUse" x1="7046.5137" y1="-4808.3618" x2="7188.3906" y2="-4808.3618" gradientTransform="matrix(-0.7472 -0.6646 0.6646 -0.7472 12386.7402 1936.5703)">
	<stop  offset="0" style="stop-color:#09005D"/>
	<stop  offset="1" style="stop-color:#1A0F91"/>
</linearGradient>
<path class="st20" d="M3909.2,785.3l-22.9,47.1c-0.3,0.6-0.7,1.2-1.1,1.7c-2.7,3.1-12.9,13-22.4,2c-8.6-10-16.6-19-24.7-21.4
	c-3.6-1.1-7.5,0.8-8.9,4.3c-3.5,8.7-11,28.5-15,46.8c-0.8,3.7,1.4,7.4,5,8.5c10.9,3.4,34,9.8,53.9,10.7c2.7,0.1,5.2-1.2,6.6-3.5
	c6.8-11.2,27.4-45.3,34.7-54c6.8-8.1,21-6.2,26.9-5c1.9,0.4,3.9,0,5.6-1.1c5.7-4,17-14.5,4.6-30.1c-2.6-3.3-2-8,1.4-10.5
	c6.6-5,14.2-14.2,5.6-27.8c-8.7-13.8-22.4-13.3-30.9-11.2c-3.5,0.8-6.9-1-8.4-4.2c-0.8-1.8-2.5-3.4-5.6-3.4c-4.2-0.1-7.4-4-6.8-8.2
	c1.1-8.1-0.7-18.6-14.2-24.5c-24-10.5-42.2,11.7-45.8,29.5s23.1,27.7,39.4,28.3c12.4,0.5,20.1,13.7,23.1,20
	C3910.2,781,3910.2,783.3,3909.2,785.3z"/>
<linearGradient id="SVGID_16_" gradientUnits="userSpaceOnUse" x1="6963.3647" y1="-4894.7393" x2="7058.6318" y2="-4796.9985" gradientTransform="matrix(-0.7472 -0.6646 0.6646 -0.7472 12386.7402 1936.5703)">
	<stop  offset="0" style="stop-color:#FEBBBA"/>
	<stop  offset="1" style="stop-color:#FF928E"/>
</linearGradient>
<path class="st21" d="M3906,844.4c0,0,7.5-30.7,20.7-30.7c13.1-0.1,24.5,12,9.7,28C3917.9,861.6,3906,844.4,3906,844.4z"/>
<linearGradient id="SVGID_17_" gradientUnits="userSpaceOnUse" x1="4129.4292" y1="287.7472" x2="4165.6914" y2="280.3506" gradientTransform="matrix(1 0 0 -1 0 1000)">
	<stop  offset="0" style="stop-color:#FEBBBA"/>
	<stop  offset="1" style="stop-color:#FF928E"/>
</linearGradient>
<path class="st22" d="M4162.3,690.7c0,0-33.3-14.8-29,10s-4.7,42.8,14.3,44.7C4166.6,747.4,4168.8,707.8,4162.3,690.7z"/>
<path class="st3" d="M2189.4-401.3c-5.4,0.3-10.2-3.5-11-9c-1.9-11.9-3.2-24-4.1-36c-0.4-5.9,4-10.9,9.9-11.3c0.1,0,0.1,0,0.2,0
	c5.8-0.3,10.7,4.1,11.1,9.9c0.8,11.4,2.1,22.9,3.9,34.2c0.9,5.8-3.1,11.2-8.9,12.1C2190.1-401.3,2189.8-401.3,2189.4-401.3z
	 M2185.4-493.7c-0.4,0-0.8,0-1.3,0c-5.9-0.4-10.3-5.5-9.9-11.3c0.8-12,2.1-24.1,3.9-36c0.9-5.8,6.3-9.8,12.1-8.9
	c5.8,0.9,9.8,6.3,8.9,12.1c-1.7,11.3-3,22.8-3.7,34.2C2195-498.2,2190.7-494,2185.4-493.7z M2201.8-584.8c-1.2,0.1-2.4-0.1-3.6-0.4
	c-5.6-1.7-8.8-7.6-7.1-13.2c3.5-11.5,7.5-23,11.9-34.2c2.2-5.5,8.3-8.1,13.8-6c5.5,2.2,8.1,8.3,6,13.8c-4.2,10.6-8,21.6-11.3,32.5
	C2210.1-587.9,2206.2-585,2201.8-584.8z M2238.2-669.9c-2,0.1-4-0.3-5.8-1.4c-5.1-2.9-6.9-9.4-4-14.5c5.9-10.5,12.4-20.8,19.2-30.7
	c3.3-4.8,9.9-6.1,14.8-2.7c4.8,3.3,6.1,9.9,2.7,14.8c-6.5,9.4-12.6,19.2-18.3,29.2C2245-672,2241.7-670.1,2238.2-669.9z
	 M2292.6-744.8c-2.7,0.1-5.5-0.8-7.7-2.8c-4.3-4-4.6-10.7-0.7-15c8.1-8.9,16.7-17.5,25.5-25.7c4.3-4,11-3.7,15,0.6s3.7,11-0.6,15
	c-8.4,7.8-16.6,16-24.3,24.4C2298-746.1,2295.3-744.9,2292.6-744.8z M2362.3-805.7c-3.5,0.2-7.1-1.4-9.3-4.5
	c-3.3-4.8-2.2-11.4,2.7-14.8c9.9-6.9,20.2-13.4,30.6-19.4c5.1-2.9,11.6-1.2,14.5,3.9c2.9,5.1,1.2,11.6-3.9,14.5
	c-9.9,5.7-19.7,11.9-29.1,18.4C2366.1-806.4,2364.2-805.8,2362.3-805.7z M2749.8-850.8c-1.5,0.1-3-0.2-4.4-0.7
	c-10.6-4.2-21.6-8-32.5-11.2c-5.6-1.7-8.8-7.6-7.1-13.2c1.7-5.6,7.6-8.8,13.2-7.2c11.5,3.4,23.1,7.4,34.3,11.8
	c5.5,2.2,8.1,8.3,6,13.8C2757.6-853.5,2753.9-851,2749.8-850.8z M2443.7-849.7c-4.4,0.2-8.7-2.3-10.4-6.6
	c-2.2-5.4,0.4-11.6,5.9-13.8c11.2-4.5,22.6-8.6,34.1-12.1c5.6-1.7,11.6,1.4,13.3,7s-1.4,11.6-7.1,13.3c-10.9,3.3-21.8,7.2-32.4,11.5
	C2446-850,2444.8-849.7,2443.7-849.7z M2660.4-874.8c-0.7,0-1.4,0-2.1-0.1c-11.3-1.7-22.8-2.9-34.2-3.7c-5.9-0.4-10.3-5.4-9.9-11.3
	c0.4-5.9,5.4-10.3,11.3-9.9c12,0.8,24.1,2.1,36,3.9c5.8,0.9,9.8,6.3,8.9,12.1C2669.6-878.8,2665.4-875.1,2660.4-874.8z
	 M2532.8-874.4c-5.4,0.3-10.2-3.5-11-8.9c-0.9-5.8,3-11.2,8.8-12.2c11.9-1.9,24-3.3,36-4.1c0.1,0,0.2,0,0.2,0
	c5.8-0.3,10.7,4.1,11.1,9.8c0.4,5.9-4,10.9-9.8,11.4c-11.4,0.8-22.9,2.1-34.2,3.9C2533.6-874.4,2533.2-874.4,2532.8-874.4z"/>
<path class="st3" d="M2816.5-817.3c-2.1,0.1-4.2-0.4-6.1-1.6c-4.7-2.9-9.4-5.7-14.2-8.5c-5.1-2.9-6.9-9.4-4-14.5s9.4-6.9,14.5-4
	c5,2.9,10.1,5.9,15,8.9c5,3.1,6.5,9.7,3.4,14.6C2823.1-819.2,2819.8-817.4,2816.5-817.3z"/>
<path class="st3" d="M3002.8-552.3c-5.1,0.3-9.8-3.2-10.9-8.4c-1.1-5.4-2.4-10.8-3.8-16.1c-1.5-5.7,2-11.5,7.7-12.9
	c5.7-1.5,11.5,2,12.9,7.7c1.4,5.6,2.8,11.3,4,17s-2.4,11.4-8.2,12.6C3003.9-552.4,3003.4-552.3,3002.8-552.3z"/>
<path class="st3" d="M2619.6-52.6c-4.9,0.2-9.8,0.4-14.7,0.5c-5.9,0.1-10.7-4.6-10.8-10.4c-0.1-5.9,4.6-10.7,10.4-10.8
	c11.4-0.2,22.7-0.9,33.8-2c5.8-0.6,11,3.7,11.6,9.5s-3.7,11.1-9.5,11.6C2633.6-53.5,2626.6-52.9,2619.6-52.6z M2548.9-54.9
	c-0.6,0-1.2,0-1.8-0.1c-11.8-1.4-23.6-3.3-35.2-5.7c-5.7-1.2-9.5-6.8-8.3-12.5s6.8-9.5,12.5-8.3c11,2.3,22.3,4.1,33.4,5.4
	c5.8,0.7,10,6,9.3,11.8C2558.3-59.1,2554-55.2,2548.9-54.9z M2695.6-63.6c-5,0.3-9.6-3.1-10.9-8.1c-1.4-5.7,2.1-11.4,7.8-12.8
	c10.9-2.6,21.9-5.8,32.5-9.3c5.6-1.8,11.6,1.2,13.4,6.7c1.9,5.6-1.2,11.6-6.7,13.4c-11.2,3.7-22.8,7.1-34.3,9.8
	C2696.9-63.7,2696.2-63.6,2695.6-63.6z M2460.1-75.6c-1.3,0.1-2.7-0.1-4.1-0.6c-11.2-3.9-22.3-8.4-33.1-13.3
	c-5.3-2.4-7.7-8.7-5.3-14.1s8.7-7.7,14.1-5.3c10.2,4.6,20.8,8.9,31.4,12.6c5.5,2,8.4,8,6.5,13.6
	C2468.2-78.5,2464.3-75.8,2460.1-75.6z M2781.2-94.6c-4.1,0.2-8.1-2-10.1-5.9c-2.6-5.3-0.4-11.6,4.8-14.2c10.1-5,20-10.4,29.7-16.3
	c5-3,11.6-1.4,14.6,3.6c3,5,1.4,11.6-3.6,14.6c-10.1,6.1-20.7,11.9-31.3,17.1C2784-95,2782.6-94.7,2781.2-94.6z M2857.8-143.7
	c-3.3,0.2-6.6-1.2-8.8-3.9c-3.7-4.6-3-11.3,1.6-14.9c8.8-7.1,17.3-14.6,25.4-22.4c4.2-4.1,11-3.9,15,0.3c4.1,4.2,3.9,11-0.3,15
	c-8.6,8.2-17.6,16.1-26.8,23.5C2862.2-144.6,2860-143.8,2857.8-143.7z M2922-208.3c-2.5,0.1-5-0.6-7.2-2.3
	c-4.6-3.7-5.4-10.3-1.7-14.9c7-8.8,13.7-18,20-27.4c3.3-4.9,9.8-6.2,14.7-2.9c4.9,3.3,6.2,9.9,2.9,14.7c-6.6,9.8-13.6,19.5-21,28.8
	C2927.8-209.8,2925-208.5,2922-208.3z M2970.6-285.4c-1.7,0.1-3.5-0.2-5.2-1.1c-5.3-2.6-7.5-8.9-4.9-14.2
	c4.9-10.1,9.5-20.6,13.5-31.1c2.1-5.5,8.3-8.2,13.7-6.1c5.5,2.1,8.2,8.3,6.1,13.7c-4.2,11-9,22.1-14.2,32.7
	C2977.8-287.7,2974.3-285.6,2970.6-285.4z M3001-371.3c-1,0-2,0-3-0.3c-5.7-1.3-9.3-7-7.9-12.8c2.6-10.9,4.7-22.1,6.3-33.3
	c0.8-5.8,6.3-9.8,12-9c5.8,0.8,9.8,6.2,9,12.1c-1.7,11.7-3.9,23.5-6.6,35C3009.7-374.7,3005.6-371.5,3001-371.3z M3011.9-461.7
	c-0.2,0-0.4,0-0.7,0c-5.9-0.1-10.6-4.9-10.5-10.7c0.1-8.3-0.1-16.7-0.5-24.9c-0.2-3-0.3-6-0.6-8.9c-0.4-5.9,4-10.9,9.8-11.4
	c5.9-0.5,10.9,4,11.4,9.8c0.2,3.1,0.4,6.3,0.6,9.4c0.4,8.7,0.6,17.5,0.5,26.2C3021.9-466.5,3017.4-461.9,3011.9-461.7z"/>
<path class="st3" d="M2377.9-115.4c-2.1,0.1-4.3-0.4-6.2-1.6c-4.9-3.1-9.8-6.3-14.6-9.6c-4.8-3.3-6.1-9.9-2.7-14.8
	c3.3-4.8,9.9-6.1,14.8-2.7c4.5,3.1,9.2,6.2,13.8,9.1c5,3.1,6.5,9.7,3.3,14.6C2384.5-117.3,2381.3-115.6,2377.9-115.4z"/>
<path class="st3" d="M2386-239.2c1.4,1.6,3.7,2.1,5.6,1.2l55.6-23.7c23.2,16.1,49.1,28.5,77.1,36.6l16.8,58c0.6,2,2.4,3.5,4.5,3.6
	l72.4,3.6c2.1,0.1,4.1-1.1,4.9-3.1l22.5-56c28.6-5.2,55.6-15,80.3-28.7l52.9,29.2c1.9,1,4.2,0.8,5.7-0.7l53.8-48.6
	c1.6-1.4,2.1-3.7,1.2-5.6l-23.7-55.6c16.1-23.2,28.5-49.1,36.6-77.1l58-16.8c2-0.6,3.5-2.4,3.6-4.5l3.6-72.4
	c0.1-2.1-1.1-4.1-3.1-4.9l-56-22.5c-5.2-28.6-15-55.6-28.7-80.3l29.2-52.9c1-1.9,0.8-4.2-0.7-5.7l-48.6-53.8
	c-1.4-1.6-3.7-2.1-5.6-1.2l-55.6,23.7c-23.2-16.1-49.1-28.5-77.1-36.6l-16.8-58c-0.6-2-2.4-3.5-4.5-3.6l-72.4-3.6
	c-2.1-0.1-4.1,1.1-4.9,3.1l-22.5,56c-28.6,5.2-55.6,15-80.3,28.7l-52.9-29.2c-1.9-1-4.2-0.8-5.7,0.7l-53.8,48.6
	c-1.6,1.4-2.1,3.7-1.2,5.6l23.7,55.6c-16.1,23.2-28.5,49.1-36.6,77.1l-58,16.8c-2,0.6-3.5,2.4-3.6,4.5l-3.6,72.4
	c-0.1,2.1,1.1,4.1,3.1,4.9l56,22.5c5.2,28.6,15,55.6,28.7,80.3l-29.2,52.9c-1,1.9-0.8,4.2,0.7,5.7L2386-239.2z"/>
<path class="st1" d="M2601.4-406.9c-35.5,1.8-68-22.7-75.1-58.5c-7.9-39.4,17.8-77.9,57.2-85.7c19.1-3.8,38.5,0,54.7,10.8
	s27.2,27.3,31,46.3c7.9,39.4-17.8,77.9-57.2,85.7C2608.4-407.5,2604.9-407,2601.4-406.9z M2595-535.5c-2.7,0.1-5.5,0.5-8.2,1
	c-30.2,6-49.9,35.5-43.8,65.7c6,30.2,35.5,49.9,65.7,43.8c30.2-6,49.9-35.5,43.8-65.7c-2.9-14.6-11.4-27.3-23.8-35.5
	C2618.6-532.9,2606.9-536.1,2595-535.5z"/>
<path class="st1" d="M2608.2-301.8c-6.1,0.3-12.2,0.3-18.4,0l0,0c-1.9-0.1-3.9-0.2-5.8-0.4c-9.6-0.8-19.1-2.3-28.3-4.6
	c-0.1,0-0.3-0.1-0.4-0.1c-0.4-0.1-0.7-0.2-1.1-0.3c-0.7-0.2-1.4-0.4-2.1-0.5c-1.8-0.5-3.1-2.1-3.1-3.9c0-0.4,0-0.9,0.1-1.3
	c0.6-2.3,2.9-3.6,5.2-3c11.7,3.1,23.7,5,35.9,5.6c60.4,3,115.1-25.9,147.8-71.9c18.2-25.6,29.5-56.4,31.2-90
	c0.3-5.9,0.3-11.8,0-17.6c-2-39.1-17.3-76-43.9-105.5c-30.6-33.8-72.5-53.7-118-56c-94-4.7-174.3,67.9-179,161.9
	c-0.3,5.8-0.3,11.6,0,17.3c1.3,24.9,8,49.3,19.8,71.4c0.3,0.6,0.5,1.2,0.5,1.8c0.1,1.6-0.7,3.2-2.2,4c-2.1,1.1-4.6,0.3-5.8-1.8
	c-12.4-23.2-19.4-48.8-20.8-75c-0.3-6-0.3-12.1,0-18.2c4.9-98.7,89.3-174.9,187.9-170c47.8,2.4,91.8,23.3,123.9,58.8
	c28,30.9,44,69.7,46.1,110.7c0.3,6.1,0.3,12.3,0,18.4c-2.4,47.8-23.3,91.8-58.8,123.9C2688.1-319.9,2649.3-303.9,2608.2-301.8z"/>
<path class="st3" d="M1829.3-152.2c-3.3,0.2-6.3-2.2-6.8-5.6c-1.5-9.5-2.4-19.1-2.9-28.7c-0.1-2-0.2-4-0.2-6.1
	c-0.1-3.6,2.9-6.5,6.4-6.8c3.6-0.1,6.6,2.7,6.8,6.4c0.1,1.9,0.1,3.9,0.2,5.8c0.5,9.1,1.4,18.4,2.8,27.4c0.6,3.6-1.9,6.9-5.5,7.5
	C1829.8-152.2,1829.5-152.2,1829.3-152.2z M1827.3-220.3c-0.3,0-0.6,0-0.9,0c-3.6-0.3-6.3-3.5-5.9-7.1c1.1-11.6,2.9-23.2,5.3-34.5
	c0.8-3.5,4.3-5.8,7.8-5s5.8,4.3,5,7.8c-2.4,10.8-4.1,21.9-5.1,32.9C1833.2-222.9,1830.5-220.4,1827.3-220.3z M1841.8-286.8
	c-0.8,0-1.7-0.1-2.5-0.4c-3.4-1.2-5.2-5-4-8.4c3.9-10.9,8.5-21.8,13.7-32.2c1.6-3.2,5.6-4.6,8.8-2.9c3.2,1.6,4.6,5.6,2.9,8.8
	c-5,9.9-9.3,20.2-13,30.7C1846.8-288.6,1844.4-287,1841.8-286.8z M1872.3-347.8c-1.4,0.1-2.7-0.3-4-1.1c-3-2-3.8-6.1-1.8-9.1
	c6.4-9.7,13.5-19,21.1-27.8c2.4-2.7,6.5-3,9.3-0.7c2.7,2.4,3.1,6.5,0.7,9.3c-7.2,8.4-14,17.3-20.1,26.5
	C1876.2-348.9,1874.3-347.9,1872.3-347.8z M1916.7-399.5c-1.9,0.1-3.8-0.6-5.2-2.1c-2.4-2.7-2.2-6.8,0.4-9.3
	c8.6-7.8,17.8-15.2,27.2-21.9c3-2.1,7.1-1.4,9.1,1.6c2.1,3,1.4,7.1-1.6,9.1c-9,6.4-17.8,13.4-26,20.9
	C1919.7-400.1,1918.2-399.5,1916.7-399.5z M1972.4-438.8c-2.5,0.1-4.9-1.1-6.1-3.5c-1.7-3.2-0.5-7.2,2.7-8.9
	c10.2-5.5,20.9-10.4,31.7-14.6c3.4-1.3,7.2,0.4,8.5,3.8s-0.4,7.2-3.8,8.5c-10.3,4-20.5,8.6-30.3,13.9
	C1974.2-439.1,1973.3-438.8,1972.4-438.8z M2035.9-463.3c-3.1,0.2-5.9-1.9-6.7-5c-0.9-3.5,1.3-7.1,4.8-8c11.2-2.8,22.8-4.9,34.4-6.3
	c3.6-0.4,6.9,2.1,7.3,5.7c0.4,3.6-2.1,6.9-5.7,7.3c-11,1.3-22.1,3.4-32.8,6C2036.7-463.3,2036.3-463.3,2035.9-463.3z M2137.6-469.3
	c-0.4,0-0.8,0-1.2,0c-9.5-1.2-19.2-1.9-28.9-2.1c-1.5,0-2.9-0.1-4.3,0c-3.6,0-6.6-2.9-6.6-6.6c0-3.6,3-6.7,6.6-6.6
	c1.5,0,3.1,0,4.6,0.1c10.1,0.2,20.3,0.9,30.3,2.2c3.6,0.5,6.1,3.7,5.7,7.3C2143.4-471.8,2140.7-469.4,2137.6-469.3z"/>
<path class="st3" d="M2120.9,81.7c-3.6,0.2-6.6-2.5-6.9-6.1c-0.2-3.6,2.5-6.7,6.1-7c10.9-0.7,21.8-2.1,32.5-4.1
	c3.5-0.6,7,1.7,7.7,5.2c0.7,3.6-1.7,7-5.2,7.7C2143.9,79.5,2132.4,81,2120.9,81.7C2121,81.7,2120.9,81.7,2120.9,81.7z M2087.3,81.8
	c-0.2,0-0.5,0-0.7,0c-11.4-0.6-22.9-2-34.1-4c-3.6-0.6-5.9-4-5.3-7.6s4.1-5.9,7.6-5.3c10.7,1.9,21.7,3.2,32.6,3.8
	c3.6,0.2,6.4,3.3,6.2,6.9C2093.3,79,2090.6,81.7,2087.3,81.8z M2186.8,69.4c-2.9,0.1-5.7-1.7-6.6-4.6c-1.1-3.4,0.8-7.1,4.3-8.2
	c10.4-3.3,20.7-7.3,30.6-11.8c3.3-1.5,7.2-0.1,8.7,3.2s0.1,7.2-3.2,8.7c-10.4,4.7-21.2,8.9-32.1,12.4
	C2187.9,69.2,2187.3,69.3,2186.8,69.4z M2021.3,70c-0.7,0-1.5-0.1-2.3-0.3c-10.9-3.4-21.8-7.4-32.2-12.1c-3.3-1.5-4.8-5.4-3.3-8.7
	s5.4-4.8,8.7-3.3c9.9,4.5,20.3,8.3,30.7,11.5c3.5,1.1,5.4,4.7,4.3,8.2C2026.4,68.1,2024,69.9,2021.3,70z M2247.7,41.5
	c-2.3,0.1-4.6-1-5.9-3.1c-1.9-3.1-0.9-7.1,2.2-9c9.3-5.7,18.3-12,26.8-18.8c2.8-2.3,7-1.8,9.2,1.1c2.3,2.8,1.8,7-1.1,9.2
	c-8.9,7.1-18.4,13.7-28.1,19.7C2249.8,41.1,2248.7,41.4,2247.7,41.5z M2300.1-0.2c-1.8,0.1-3.6-0.5-4.9-1.9
	c-2.6-2.5-2.6-6.7-0.1-9.3c7.7-7.8,14.9-16.1,21.6-24.7c2.2-2.9,6.3-3.4,9.2-1.2s3.4,6.3,1.2,9.2c-7,9-14.6,17.7-22.6,25.9
	C2303.3-1,2301.7-0.3,2300.1-0.2z M2341.1-53.3c-1.2,0.1-2.5-0.2-3.7-0.9c-3.1-1.8-4.1-5.9-2.3-9c5.6-9.4,10.6-19.2,15-29.1
	c1.5-3.3,5.3-4.8,8.6-3.4c3.3,1.5,4.8,5.3,3.4,8.7c-4.6,10.4-9.9,20.7-15.7,30.6C2345.2-54.5,2343.2-53.4,2341.1-53.3z"/>
<path class="st3" d="M1961-42.5c1,1.1,2.5,1.4,3.8,0.8l37.2-15.9c15.5,10.7,32.9,19.1,51.6,24.5l11.2,38.8c0.4,1.4,1.6,2.3,3,2.4
	l48.4,2.4c1.4,0.1,2.7-0.8,3.2-2.1l15.1-37.5c19.1-3.5,37.2-10.1,53.8-19.2l35.4,19.5c1.2,0.7,2.8,0.5,3.8-0.4l36-32.5
	c1.1-1,1.4-2.5,0.8-3.8l-15.9-37.2c10.7-15.5,19.1-32.9,24.5-51.6l38.8-11.2c1.4-0.4,2.3-1.6,2.4-3l2.4-48.4
	c0.1-1.4-0.8-2.7-2.1-3.2l-37.5-15.1c-3.5-19.1-10.1-37.2-19.2-53.8l19.5-35.4c0.7-1.2,0.5-2.8-0.4-3.8l-32.5-36
	c-1-1.1-2.5-1.4-3.8-0.8l-37.2,15.9c-15.5-10.7-32.9-19.1-51.6-24.5l-11.2-38.8c-0.4-1.4-1.6-2.3-3-2.4l-48.4-2.4
	c-1.4-0.1-2.7,0.8-3.2,2.1l-15.1,37.5c-19.1,3.5-37.2,10.1-53.8,19.2l-35.4-19.5c-1.2-0.7-2.8-0.5-3.8,0.4l-36,32.5
	c-1.1,1-1.4,2.5-0.8,3.8l15.9,37.2c-10.7,15.5-19.1,32.9-24.5,51.6l-38.8,11.2c-1.4,0.4-2.3,1.6-2.4,3l-2.4,48.4
	c-0.1,1.4,0.8,2.7,2.1,3.2l37.5,15.1c3.5,19.1,10.1,37.2,19.2,53.8L1928-82.3c-0.7,1.2-0.5,2.8,0.4,3.8L1961-42.5z"/>
<path class="st1" d="M2105.1-153.7c-10.6,0.5-21-2.3-30-8.3c-11-7.4-18.5-18.6-21.1-31.6c-5.4-26.8,12.1-53,38.9-58.4
	c26.9-5.3,53,12.1,58.4,38.9c2.6,13,0,26.2-7.4,37.3c-7.4,11-18.6,18.5-31.6,21.1C2110-154.2,2107.5-153.9,2105.1-153.7z
	 M2100.9-239.8c-1.8,0.1-3.5,0.3-5.3,0.7c-19.7,4-32.6,23.2-28.6,43c1.9,9.6,7.4,17.8,15.5,23.2s17.8,7.3,27.4,5.4l0,0
	c9.6-1.9,17.8-7.4,23.2-15.5s7.3-17.9,5.4-27.4C2134.9-228.4,2118.6-240.7,2100.9-239.8z"/>
<path class="st1" d="M2109.8-80.6c-4.1,0.2-8.3,0.2-12.6,0c-8.4-0.4-16.8-1.7-24.9-3.8c-0.4-0.1-0.7-0.2-1.1-0.3
	c-2.8-0.8-4.7-3.2-4.9-6c0-0.7,0-1.4,0.2-2c0.9-3.5,4.5-5.6,8-4.6c7.6,2,15.4,3.3,23.2,3.6l0,0c0.4,0,0.9,0,1.3,0.1
	c18.6,0.8,36.7-3.2,52.9-11.2c8.8-4.4,17.1-9.9,24.7-16.6c0.1-0.1,0.1-0.1,0.2-0.2c0.2-0.2,0.4-0.3,0.6-0.5
	c21.9-19.8,34.8-46.9,36.2-76.4c0.2-3.8,0.2-7.6,0-11.4c-1.3-25.3-11.2-49.2-28.4-68.3c-19.8-21.9-46.9-34.7-76.4-36.2
	s-57.8,8.6-79.7,28.4c-21.9,19.8-34.8,46.9-36.2,76.4c-0.2,3.8-0.2,7.5,0,11.2c0.8,16.2,5.2,31.9,12.8,46.2c0.5,0.9,0.7,1.8,0.8,2.8
	c0.1,2.5-1.1,4.9-3.5,6.1c-3.2,1.7-7.2,0.5-8.9-2.7c-8.5-16-13.4-33.6-14.3-51.7c-0.2-4.2-0.2-8.4,0-12.6c1.7-33,16-63.3,40.5-85.5
	c24.5-22.1,56.1-33.5,89.1-31.8c33,1.6,63.3,16,85.5,40.5c19.3,21.3,30.3,48.1,31.8,76.4c0.2,4.2,0.2,8.5,0,12.7
	C2223.7-134.1,2172.3-83.8,2109.8-80.6z"/>
</svg>
