<?xml version="1.0" encoding="utf-8"?>
<!-- Generator: Adobe Illustrator 19.0.0, SVG Export Plug-In . SVG Version: 6.00 Build 0)  -->
<svg version="1.1" id="Illustration" xmlns="http://www.w3.org/2000/svg" xmlns:xlink="http://www.w3.org/1999/xlink" x="0px"
	 y="0px" viewBox="1355 -1355 3710 3710" style="enable-background:new 1355 -1355 3710 3710;" xml:space="preserve">
<style type="text/css">
	.st0{fill:#DEFFFE;}
	.st1{clip-path:url(#SVGID_2_);}
	.st2{fill:none;stroke:#FFFFFF;stroke-width:1.594;stroke-miterlimit:10;}
	.st3{clip-path:url(#SVGID_4_);}
	.st4{clip-path:url(#SVGID_6_);}
	.st5{opacity:0.3;fill:#D1C4E9;}
	.st6{fill:#32B5C6;}
	.st7{fill:#FFFFFF;}
	.st8{fill:#4DD0E1;}
	.st9{fill:#60E3F4;}
	.st10{fill:#02559C;}
	.st11{fill:#034372;}
	.st12{opacity:0.74;}
	.st13{fill:#DB8240;}
	.st14{fill:#FA9746;}
	.st15{fill:#043D70;}
	.st16{fill:#4B4583;}
	.st17{fill:none;stroke:#4B4583;stroke-width:0.9782;stroke-linecap:round;stroke-linejoin:round;stroke-miterlimit:10;}
	.st18{fill:none;stroke:#4B4583;stroke-width:0.6843;stroke-linecap:round;stroke-linejoin:round;stroke-miterlimit:10;}
	.st19{fill:none;stroke:#FFFFFF;stroke-width:1.6653;stroke-linecap:round;stroke-linejoin:round;stroke-miterlimit:10;}
	.st20{fill:#221B4C;}
	.st21{fill:#F4AE98;}
	.st22{fill:#FFB99F;}
	.st23{fill:none;stroke:#F7327A;stroke-width:1.0522;stroke-miterlimit:10;}
	.st24{fill:#5E5896;}
	.st25{fill:none;stroke:#4B4583;stroke-linecap:round;stroke-linejoin:round;stroke-miterlimit:10;}
	.st26{fill:none;stroke:#4B4583;stroke-width:2;stroke-linecap:round;stroke-linejoin:round;stroke-miterlimit:10;}
	.st27{fill:none;stroke:#4B4583;stroke-width:1.398;stroke-linecap:round;stroke-linejoin:round;stroke-miterlimit:10;}
</style>
<g>
	<path class="st0" d="M4960-420.7c-166.5,111-782,244.1-1051.7-67.5c-283.7-327.8-673.7-525.1-904.2-6.4
		c-230.5,518.6-155.6,704.1-873.2,618.8c-719.1-85.4-924.3,595.6-444.1,890.3c493.1,302.7,626,694.4,1439.8,769.7
		c499.7,46.2,1457.3-219.6,1720.1-641C5087,757.5,4960-420.7,4960-420.7z"/>
	<g>
		<defs>
			<circle id="SVGID_1_" cx="4170.5" cy="178.5" r="319.9"/>
		</defs>
		<clipPath id="SVGID_2_">
			<use xlink:href="#SVGID_1_"  style="overflow:visible;"/>
		</clipPath>
		<g class="st1">
			<line class="st2" x1="3707.9" y1="-345.2" x2="2660.5" y2="702.2"/>
			<line class="st2" x1="3713.9" y1="-345.2" x2="2666.5" y2="702.2"/>
			<line class="st2" x1="3719.9" y1="-345.2" x2="2672.5" y2="702.2"/>
			<line class="st2" x1="3725.9" y1="-345.2" x2="2678.5" y2="702.2"/>
			<line class="st2" x1="3731.9" y1="-345.2" x2="2684.5" y2="702.2"/>
			<line class="st2" x1="3737.9" y1="-345.2" x2="2690.5" y2="702.2"/>
			<line class="st2" x1="3743.9" y1="-345.2" x2="2696.5" y2="702.2"/>
			<line class="st2" x1="3749.9" y1="-345.2" x2="2702.5" y2="702.2"/>
			<line class="st2" x1="3755.9" y1="-345.2" x2="2708.4" y2="702.2"/>
			<line class="st2" x1="3761.8" y1="-345.2" x2="2714.4" y2="702.2"/>
			<line class="st2" x1="3767.8" y1="-345.2" x2="2720.4" y2="702.2"/>
			<line class="st2" x1="3773.8" y1="-345.2" x2="2726.4" y2="702.2"/>
			<line class="st2" x1="3779.8" y1="-345.2" x2="2732.4" y2="702.2"/>
			<line class="st2" x1="3785.8" y1="-345.2" x2="2738.4" y2="702.2"/>
			<line class="st2" x1="3791.8" y1="-345.2" x2="2744.4" y2="702.2"/>
			<line class="st2" x1="3797.8" y1="-345.2" x2="2750.4" y2="702.2"/>
			<line class="st2" x1="3803.8" y1="-345.2" x2="2756.4" y2="702.2"/>
			<line class="st2" x1="3809.8" y1="-345.2" x2="2762.4" y2="702.2"/>
			<line class="st2" x1="3815.8" y1="-345.2" x2="2768.4" y2="702.2"/>
			<line class="st2" x1="3821.8" y1="-345.2" x2="2774.4" y2="702.2"/>
			<line class="st2" x1="3827.8" y1="-345.2" x2="2780.4" y2="702.2"/>
			<line class="st2" x1="3833.8" y1="-345.2" x2="2786.4" y2="702.2"/>
			<line class="st2" x1="3839.8" y1="-345.2" x2="2792.4" y2="702.2"/>
			<line class="st2" x1="3845.8" y1="-345.2" x2="2798.4" y2="702.2"/>
			<line class="st2" x1="3851.8" y1="-345.2" x2="2804.4" y2="702.2"/>
			<line class="st2" x1="3857.8" y1="-345.2" x2="2810.4" y2="702.2"/>
			<line class="st2" x1="3863.8" y1="-345.2" x2="2816.4" y2="702.2"/>
			<line class="st2" x1="3869.8" y1="-345.2" x2="2822.4" y2="702.2"/>
			<line class="st2" x1="3875.8" y1="-345.2" x2="2828.4" y2="702.2"/>
			<line class="st2" x1="3881.8" y1="-345.2" x2="2834.4" y2="702.2"/>
			<line class="st2" x1="3887.8" y1="-345.2" x2="2840.4" y2="702.2"/>
			<line class="st2" x1="3893.8" y1="-345.2" x2="2846.4" y2="702.2"/>
			<line class="st2" x1="3899.8" y1="-345.2" x2="2852.4" y2="702.2"/>
			<line class="st2" x1="3905.8" y1="-345.2" x2="2858.3" y2="702.2"/>
			<line class="st2" x1="3911.7" y1="-345.2" x2="2864.3" y2="702.2"/>
			<line class="st2" x1="3917.7" y1="-345.2" x2="2870.3" y2="702.2"/>
			<line class="st2" x1="3923.7" y1="-345.2" x2="2876.3" y2="702.2"/>
			<line class="st2" x1="3929.7" y1="-345.2" x2="2882.3" y2="702.2"/>
			<line class="st2" x1="3935.7" y1="-345.2" x2="2888.3" y2="702.2"/>
			<line class="st2" x1="3941.7" y1="-345.2" x2="2894.3" y2="702.2"/>
			<line class="st2" x1="3947.7" y1="-345.2" x2="2900.3" y2="702.2"/>
			<line class="st2" x1="3953.7" y1="-345.2" x2="2906.3" y2="702.2"/>
			<line class="st2" x1="3959.7" y1="-345.2" x2="2912.3" y2="702.2"/>
			<line class="st2" x1="3965.7" y1="-345.2" x2="2918.3" y2="702.2"/>
			<line class="st2" x1="3971.7" y1="-345.2" x2="2924.3" y2="702.2"/>
			<line class="st2" x1="3977.7" y1="-345.2" x2="2930.3" y2="702.2"/>
			<line class="st2" x1="3983.7" y1="-345.2" x2="2936.3" y2="702.2"/>
			<line class="st2" x1="3989.7" y1="-345.2" x2="2942.3" y2="702.2"/>
			<line class="st2" x1="3995.7" y1="-345.2" x2="2948.3" y2="702.2"/>
			<line class="st2" x1="4001.7" y1="-345.2" x2="2954.3" y2="702.2"/>
			<line class="st2" x1="4007.7" y1="-345.2" x2="2960.3" y2="702.2"/>
			<line class="st2" x1="4013.7" y1="-345.2" x2="2966.3" y2="702.2"/>
			<line class="st2" x1="4019.7" y1="-345.2" x2="2972.3" y2="702.2"/>
			<line class="st2" x1="4025.7" y1="-345.2" x2="2978.3" y2="702.2"/>
			<line class="st2" x1="4031.7" y1="-345.2" x2="2984.3" y2="702.2"/>
			<line class="st2" x1="4037.7" y1="-345.2" x2="2990.3" y2="702.2"/>
			<line class="st2" x1="4043.7" y1="-345.2" x2="2996.3" y2="702.2"/>
			<line class="st2" x1="4049.7" y1="-345.2" x2="3002.3" y2="702.2"/>
			<line class="st2" x1="4055.6" y1="-345.2" x2="3008.2" y2="702.2"/>
			<line class="st2" x1="4061.6" y1="-345.2" x2="3014.2" y2="702.2"/>
			<line class="st2" x1="4067.6" y1="-345.2" x2="3020.2" y2="702.2"/>
			<line class="st2" x1="4073.6" y1="-345.2" x2="3026.2" y2="702.2"/>
			<line class="st2" x1="4079.6" y1="-345.2" x2="3032.2" y2="702.2"/>
			<line class="st2" x1="4085.6" y1="-345.2" x2="3038.2" y2="702.2"/>
			<line class="st2" x1="4091.6" y1="-345.2" x2="3044.2" y2="702.2"/>
			<line class="st2" x1="4097.6" y1="-345.2" x2="3050.2" y2="702.2"/>
			<line class="st2" x1="4103.6" y1="-345.2" x2="3056.2" y2="702.2"/>
			<line class="st2" x1="4109.6" y1="-345.2" x2="3062.2" y2="702.2"/>
			<line class="st2" x1="4115.6" y1="-345.2" x2="3068.2" y2="702.2"/>
			<line class="st2" x1="4121.6" y1="-345.2" x2="3074.2" y2="702.2"/>
			<line class="st2" x1="4127.6" y1="-345.2" x2="3080.2" y2="702.2"/>
			<line class="st2" x1="4133.6" y1="-345.2" x2="3086.2" y2="702.2"/>
			<line class="st2" x1="4139.6" y1="-345.2" x2="3092.2" y2="702.2"/>
			<line class="st2" x1="4145.6" y1="-345.2" x2="3098.2" y2="702.2"/>
			<line class="st2" x1="4151.6" y1="-345.2" x2="3104.2" y2="702.2"/>
			<line class="st2" x1="4157.6" y1="-345.2" x2="3110.2" y2="702.2"/>
			<line class="st2" x1="4163.6" y1="-345.2" x2="3116.2" y2="702.2"/>
			<line class="st2" x1="4169.6" y1="-345.2" x2="3122.2" y2="702.2"/>
			<line class="st2" x1="4175.6" y1="-345.2" x2="3128.2" y2="702.2"/>
			<line class="st2" x1="4181.6" y1="-345.2" x2="3134.2" y2="702.2"/>
			<line class="st2" x1="4187.6" y1="-345.2" x2="3140.2" y2="702.2"/>
			<line class="st2" x1="4193.6" y1="-345.2" x2="3146.2" y2="702.2"/>
			<line class="st2" x1="4199.6" y1="-345.2" x2="3152.1" y2="702.2"/>
			<line class="st2" x1="4205.5" y1="-345.2" x2="3158.1" y2="702.2"/>
			<line class="st2" x1="4211.5" y1="-345.2" x2="3164.1" y2="702.2"/>
			<line class="st2" x1="4217.5" y1="-345.2" x2="3170.1" y2="702.2"/>
			<line class="st2" x1="4223.5" y1="-345.2" x2="3176.1" y2="702.2"/>
			<line class="st2" x1="4229.5" y1="-345.2" x2="3182.1" y2="702.2"/>
			<line class="st2" x1="4235.5" y1="-345.2" x2="3188.1" y2="702.2"/>
			<line class="st2" x1="4241.5" y1="-345.2" x2="3194.1" y2="702.2"/>
			<line class="st2" x1="4247.5" y1="-345.2" x2="3200.1" y2="702.2"/>
			<line class="st2" x1="4253.5" y1="-345.2" x2="3206.1" y2="702.2"/>
			<line class="st2" x1="4259.5" y1="-345.2" x2="3212.1" y2="702.2"/>
			<line class="st2" x1="4265.5" y1="-345.2" x2="3218.1" y2="702.2"/>
			<line class="st2" x1="4271.5" y1="-345.2" x2="3224.1" y2="702.2"/>
			<line class="st2" x1="4277.5" y1="-345.2" x2="3230.1" y2="702.2"/>
			<line class="st2" x1="4283.5" y1="-345.2" x2="3236.1" y2="702.2"/>
			<line class="st2" x1="4289.5" y1="-345.2" x2="3242.1" y2="702.2"/>
			<line class="st2" x1="4295.5" y1="-345.2" x2="3248.1" y2="702.2"/>
			<line class="st2" x1="4301.5" y1="-345.2" x2="3254.1" y2="702.2"/>
			<line class="st2" x1="4307.5" y1="-345.2" x2="3260.1" y2="702.2"/>
			<line class="st2" x1="4313.5" y1="-345.2" x2="3266.1" y2="702.2"/>
			<line class="st2" x1="4319.5" y1="-345.2" x2="3272.1" y2="702.2"/>
			<line class="st2" x1="4325.5" y1="-345.2" x2="3278.1" y2="702.2"/>
			<line class="st2" x1="4331.5" y1="-345.2" x2="3284.1" y2="702.2"/>
			<line class="st2" x1="4337.5" y1="-345.2" x2="3290.1" y2="702.2"/>
			<line class="st2" x1="4343.5" y1="-345.2" x2="3296.1" y2="702.2"/>
			<line class="st2" x1="4349.4" y1="-345.2" x2="3302" y2="702.2"/>
			<line class="st2" x1="4355.4" y1="-345.2" x2="3308" y2="702.2"/>
			<line class="st2" x1="4361.4" y1="-345.2" x2="3314" y2="702.2"/>
			<line class="st2" x1="4367.4" y1="-345.2" x2="3320" y2="702.2"/>
			<line class="st2" x1="4373.4" y1="-345.2" x2="3326" y2="702.2"/>
			<line class="st2" x1="4379.4" y1="-345.2" x2="3332" y2="702.2"/>
			<line class="st2" x1="4385.4" y1="-345.2" x2="3338" y2="702.2"/>
			<line class="st2" x1="4391.4" y1="-345.2" x2="3344" y2="702.2"/>
			<line class="st2" x1="4397.4" y1="-345.2" x2="3350" y2="702.2"/>
			<line class="st2" x1="4403.4" y1="-345.2" x2="3356" y2="702.2"/>
			<line class="st2" x1="4409.4" y1="-345.2" x2="3362" y2="702.2"/>
			<line class="st2" x1="4415.4" y1="-345.2" x2="3368" y2="702.2"/>
			<line class="st2" x1="4421.4" y1="-345.2" x2="3374" y2="702.2"/>
			<line class="st2" x1="4427.4" y1="-345.2" x2="3380" y2="702.2"/>
			<line class="st2" x1="4433.4" y1="-345.2" x2="3386" y2="702.2"/>
			<line class="st2" x1="4439.4" y1="-345.2" x2="3392" y2="702.2"/>
			<line class="st2" x1="4445.4" y1="-345.2" x2="3398" y2="702.2"/>
			<line class="st2" x1="4451.4" y1="-345.2" x2="3404" y2="702.2"/>
			<line class="st2" x1="4457.4" y1="-345.2" x2="3410" y2="702.2"/>
			<line class="st2" x1="4463.4" y1="-345.2" x2="3416" y2="702.2"/>
			<line class="st2" x1="4469.4" y1="-345.2" x2="3422" y2="702.2"/>
			<line class="st2" x1="4475.4" y1="-345.2" x2="3428" y2="702.2"/>
			<line class="st2" x1="4481.4" y1="-345.2" x2="3434" y2="702.2"/>
			<line class="st2" x1="4487.4" y1="-345.2" x2="3440" y2="702.2"/>
			<line class="st2" x1="4493.4" y1="-345.2" x2="3445.9" y2="702.2"/>
			<line class="st2" x1="4499.3" y1="-345.2" x2="3451.9" y2="702.2"/>
			<line class="st2" x1="4505.3" y1="-345.2" x2="3457.9" y2="702.2"/>
			<line class="st2" x1="4511.3" y1="-345.2" x2="3463.9" y2="702.2"/>
			<line class="st2" x1="4517.3" y1="-345.2" x2="3469.9" y2="702.2"/>
			<line class="st2" x1="4523.3" y1="-345.2" x2="3475.9" y2="702.2"/>
			<line class="st2" x1="4529.3" y1="-345.2" x2="3481.9" y2="702.2"/>
			<line class="st2" x1="4535.3" y1="-345.2" x2="3487.9" y2="702.2"/>
			<line class="st2" x1="4541.3" y1="-345.2" x2="3493.9" y2="702.2"/>
			<line class="st2" x1="4547.3" y1="-345.2" x2="3499.9" y2="702.2"/>
			<line class="st2" x1="4553.3" y1="-345.2" x2="3505.9" y2="702.2"/>
			<line class="st2" x1="4559.3" y1="-345.2" x2="3511.9" y2="702.2"/>
			<line class="st2" x1="4565.3" y1="-345.2" x2="3517.9" y2="702.2"/>
			<line class="st2" x1="4571.3" y1="-345.2" x2="3523.9" y2="702.2"/>
			<line class="st2" x1="4577.3" y1="-345.2" x2="3529.9" y2="702.2"/>
			<line class="st2" x1="4583.3" y1="-345.2" x2="3535.9" y2="702.2"/>
			<line class="st2" x1="4589.3" y1="-345.2" x2="3541.9" y2="702.2"/>
			<line class="st2" x1="4595.3" y1="-345.2" x2="3547.9" y2="702.2"/>
			<line class="st2" x1="4601.3" y1="-345.2" x2="3553.9" y2="702.2"/>
			<line class="st2" x1="4607.3" y1="-345.2" x2="3559.9" y2="702.2"/>
			<line class="st2" x1="4613.3" y1="-345.2" x2="3565.9" y2="702.2"/>
			<line class="st2" x1="4619.3" y1="-345.2" x2="3571.9" y2="702.2"/>
			<line class="st2" x1="4625.3" y1="-345.2" x2="3577.9" y2="702.2"/>
			<line class="st2" x1="4631.3" y1="-345.2" x2="3583.9" y2="702.2"/>
			<line class="st2" x1="4637.3" y1="-345.2" x2="3589.9" y2="702.2"/>
			<line class="st2" x1="4643.3" y1="-345.2" x2="3595.8" y2="702.2"/>
			<line class="st2" x1="4649.2" y1="-345.2" x2="3601.8" y2="702.2"/>
			<line class="st2" x1="4655.2" y1="-345.2" x2="3607.8" y2="702.2"/>
			<line class="st2" x1="4661.2" y1="-345.2" x2="3613.8" y2="702.2"/>
			<line class="st2" x1="4667.2" y1="-345.2" x2="3619.8" y2="702.2"/>
			<line class="st2" x1="4673.2" y1="-345.2" x2="3625.8" y2="702.2"/>
			<line class="st2" x1="4679.2" y1="-345.2" x2="3631.8" y2="702.2"/>
			<line class="st2" x1="4685.2" y1="-345.2" x2="3637.8" y2="702.2"/>
			<line class="st2" x1="4691.2" y1="-345.2" x2="3643.8" y2="702.2"/>
			<line class="st2" x1="4697.2" y1="-345.2" x2="3649.8" y2="702.2"/>
			<line class="st2" x1="4703.2" y1="-345.2" x2="3655.8" y2="702.2"/>
			<line class="st2" x1="4709.2" y1="-345.2" x2="3661.8" y2="702.2"/>
			<line class="st2" x1="4715.2" y1="-345.2" x2="3667.8" y2="702.2"/>
			<line class="st2" x1="4721.2" y1="-345.2" x2="3673.8" y2="702.2"/>
			<line class="st2" x1="4727.2" y1="-345.2" x2="3679.8" y2="702.2"/>
			<line class="st2" x1="4733.2" y1="-345.2" x2="3685.8" y2="702.2"/>
			<line class="st2" x1="4739.2" y1="-345.2" x2="3691.8" y2="702.2"/>
			<line class="st2" x1="4745.2" y1="-345.2" x2="3697.8" y2="702.2"/>
			<line class="st2" x1="4751.2" y1="-345.2" x2="3703.8" y2="702.2"/>
			<line class="st2" x1="4757.2" y1="-345.2" x2="3709.8" y2="702.2"/>
			<line class="st2" x1="4763.2" y1="-345.2" x2="3715.8" y2="702.2"/>
			<line class="st2" x1="4769.2" y1="-345.2" x2="3721.8" y2="702.2"/>
			<line class="st2" x1="4775.2" y1="-345.2" x2="3727.8" y2="702.2"/>
			<line class="st2" x1="4781.2" y1="-345.2" x2="3733.8" y2="702.2"/>
			<line class="st2" x1="4787.2" y1="-345.2" x2="3739.8" y2="702.2"/>
			<line class="st2" x1="4793.1" y1="-345.2" x2="3745.7" y2="702.2"/>
			<line class="st2" x1="4799.1" y1="-345.2" x2="3751.7" y2="702.2"/>
			<line class="st2" x1="4805.1" y1="-345.2" x2="3757.7" y2="702.2"/>
			<line class="st2" x1="4811.1" y1="-345.2" x2="3763.7" y2="702.2"/>
			<line class="st2" x1="4817.1" y1="-345.2" x2="3769.7" y2="702.2"/>
			<line class="st2" x1="4823.1" y1="-345.2" x2="3775.7" y2="702.2"/>
			<line class="st2" x1="4829.1" y1="-345.2" x2="3781.7" y2="702.2"/>
			<line class="st2" x1="4835.1" y1="-345.2" x2="3787.7" y2="702.2"/>
			<line class="st2" x1="4841.1" y1="-345.2" x2="3793.7" y2="702.2"/>
			<line class="st2" x1="4847.1" y1="-345.2" x2="3799.7" y2="702.2"/>
			<line class="st2" x1="4853.1" y1="-345.2" x2="3805.7" y2="702.2"/>
			<line class="st2" x1="4859.1" y1="-345.2" x2="3811.7" y2="702.2"/>
			<line class="st2" x1="4865.1" y1="-345.2" x2="3817.7" y2="702.2"/>
			<line class="st2" x1="4871.1" y1="-345.2" x2="3823.7" y2="702.2"/>
			<line class="st2" x1="4877.1" y1="-345.2" x2="3829.7" y2="702.2"/>
			<line class="st2" x1="4883.1" y1="-345.2" x2="3835.7" y2="702.2"/>
			<line class="st2" x1="4889.1" y1="-345.2" x2="3841.7" y2="702.2"/>
			<line class="st2" x1="4895.1" y1="-345.2" x2="3847.7" y2="702.2"/>
			<line class="st2" x1="4901.1" y1="-345.2" x2="3853.7" y2="702.2"/>
			<line class="st2" x1="4907.1" y1="-345.2" x2="3859.7" y2="702.2"/>
			<line class="st2" x1="4913.1" y1="-345.2" x2="3865.7" y2="702.2"/>
			<line class="st2" x1="4919.1" y1="-345.2" x2="3871.7" y2="702.2"/>
			<line class="st2" x1="4925.1" y1="-345.2" x2="3877.7" y2="702.2"/>
			<line class="st2" x1="4931.1" y1="-345.2" x2="3883.7" y2="702.2"/>
			<line class="st2" x1="4937.1" y1="-345.2" x2="3889.6" y2="702.2"/>
			<line class="st2" x1="4943" y1="-345.2" x2="3895.6" y2="702.2"/>
			<line class="st2" x1="4949" y1="-345.2" x2="3901.6" y2="702.2"/>
			<line class="st2" x1="4955" y1="-345.2" x2="3907.6" y2="702.2"/>
			<line class="st2" x1="4961" y1="-345.2" x2="3913.6" y2="702.2"/>
			<line class="st2" x1="4967" y1="-345.2" x2="3919.6" y2="702.2"/>
			<line class="st2" x1="4973" y1="-345.2" x2="3925.6" y2="702.2"/>
			<line class="st2" x1="4979" y1="-345.2" x2="3931.6" y2="702.2"/>
			<line class="st2" x1="4985" y1="-345.2" x2="3937.6" y2="702.2"/>
			<line class="st2" x1="4991" y1="-345.2" x2="3943.6" y2="702.2"/>
			<line class="st2" x1="4997" y1="-345.2" x2="3949.6" y2="702.2"/>
			<line class="st2" x1="5003" y1="-345.2" x2="3955.6" y2="702.2"/>
			<line class="st2" x1="5009" y1="-345.2" x2="3961.6" y2="702.2"/>
			<line class="st2" x1="5015" y1="-345.2" x2="3967.6" y2="702.2"/>
			<line class="st2" x1="5021" y1="-345.2" x2="3973.6" y2="702.2"/>
			<line class="st2" x1="5027" y1="-345.2" x2="3979.6" y2="702.2"/>
			<line class="st2" x1="5033" y1="-345.2" x2="3985.6" y2="702.2"/>
			<line class="st2" x1="5039" y1="-345.2" x2="3991.6" y2="702.2"/>
			<line class="st2" x1="5045" y1="-345.2" x2="3997.6" y2="702.2"/>
			<line class="st2" x1="5051" y1="-345.2" x2="4003.6" y2="702.2"/>
			<line class="st2" x1="5057" y1="-345.2" x2="4009.6" y2="702.2"/>
			<line class="st2" x1="5063" y1="-345.2" x2="4015.6" y2="702.2"/>
			<line class="st2" x1="5069" y1="-345.2" x2="4021.6" y2="702.2"/>
			<line class="st2" x1="5075" y1="-345.2" x2="4027.6" y2="702.2"/>
			<line class="st2" x1="5081" y1="-345.2" x2="4033.6" y2="702.2"/>
			<line class="st2" x1="5086.9" y1="-345.2" x2="4039.5" y2="702.2"/>
			<line class="st2" x1="5092.9" y1="-345.2" x2="4045.5" y2="702.2"/>
			<line class="st2" x1="5098.9" y1="-345.2" x2="4051.5" y2="702.2"/>
			<line class="st2" x1="5104.9" y1="-345.2" x2="4057.5" y2="702.2"/>
			<line class="st2" x1="5110.9" y1="-345.2" x2="4063.5" y2="702.2"/>
			<line class="st2" x1="5116.9" y1="-345.2" x2="4069.5" y2="702.2"/>
			<line class="st2" x1="5122.9" y1="-345.2" x2="4075.5" y2="702.2"/>
			<line class="st2" x1="5128.9" y1="-345.2" x2="4081.5" y2="702.2"/>
			<line class="st2" x1="5134.9" y1="-345.2" x2="4087.5" y2="702.2"/>
			<line class="st2" x1="5140.9" y1="-345.2" x2="4093.5" y2="702.2"/>
			<line class="st2" x1="5146.9" y1="-345.2" x2="4099.5" y2="702.2"/>
			<line class="st2" x1="5152.9" y1="-345.2" x2="4105.5" y2="702.2"/>
			<line class="st2" x1="5158.9" y1="-345.2" x2="4111.5" y2="702.2"/>
			<line class="st2" x1="5164.9" y1="-345.2" x2="4117.5" y2="702.2"/>
			<line class="st2" x1="5170.9" y1="-345.2" x2="4123.5" y2="702.2"/>
			<line class="st2" x1="5176.9" y1="-345.2" x2="4129.5" y2="702.2"/>
			<line class="st2" x1="5182.9" y1="-345.2" x2="4135.5" y2="702.2"/>
			<line class="st2" x1="5188.9" y1="-345.2" x2="4141.5" y2="702.2"/>
			<line class="st2" x1="5194.9" y1="-345.2" x2="4147.5" y2="702.2"/>
			<line class="st2" x1="5200.9" y1="-345.2" x2="4153.5" y2="702.2"/>
			<line class="st2" x1="5206.9" y1="-345.2" x2="4159.5" y2="702.2"/>
			<line class="st2" x1="5212.9" y1="-345.2" x2="4165.5" y2="702.2"/>
			<line class="st2" x1="5218.9" y1="-345.2" x2="4171.5" y2="702.2"/>
			<line class="st2" x1="5224.9" y1="-345.2" x2="4177.5" y2="702.2"/>
			<line class="st2" x1="5230.9" y1="-345.2" x2="4183.4" y2="702.2"/>
			<line class="st2" x1="5236.8" y1="-345.2" x2="4189.4" y2="702.2"/>
			<line class="st2" x1="5242.8" y1="-345.2" x2="4195.4" y2="702.2"/>
			<line class="st2" x1="5248.8" y1="-345.2" x2="4201.4" y2="702.2"/>
			<line class="st2" x1="5254.8" y1="-345.2" x2="4207.4" y2="702.2"/>
			<line class="st2" x1="5260.8" y1="-345.2" x2="4213.4" y2="702.2"/>
			<line class="st2" x1="5266.8" y1="-345.2" x2="4219.4" y2="702.2"/>
			<line class="st2" x1="5272.8" y1="-345.2" x2="4225.4" y2="702.2"/>
			<line class="st2" x1="5278.8" y1="-345.2" x2="4231.4" y2="702.2"/>
			<line class="st2" x1="5284.8" y1="-345.2" x2="4237.4" y2="702.2"/>
			<line class="st2" x1="5290.8" y1="-345.2" x2="4243.4" y2="702.2"/>
			<line class="st2" x1="5296.8" y1="-345.2" x2="4249.4" y2="702.2"/>
			<line class="st2" x1="5302.8" y1="-345.2" x2="4255.4" y2="702.2"/>
			<line class="st2" x1="5308.8" y1="-345.2" x2="4261.4" y2="702.2"/>
			<line class="st2" x1="5314.8" y1="-345.2" x2="4267.4" y2="702.2"/>
			<line class="st2" x1="5320.8" y1="-345.2" x2="4273.4" y2="702.2"/>
			<line class="st2" x1="5326.8" y1="-345.2" x2="4279.4" y2="702.2"/>
			<line class="st2" x1="5332.8" y1="-345.2" x2="4285.4" y2="702.2"/>
			<line class="st2" x1="5338.8" y1="-345.2" x2="4291.4" y2="702.2"/>
			<line class="st2" x1="5344.8" y1="-345.2" x2="4297.4" y2="702.2"/>
			<line class="st2" x1="5350.8" y1="-345.2" x2="4303.4" y2="702.2"/>
			<line class="st2" x1="5356.8" y1="-345.2" x2="4309.4" y2="702.2"/>
			<line class="st2" x1="5362.8" y1="-345.2" x2="4315.4" y2="702.2"/>
			<line class="st2" x1="5368.8" y1="-345.2" x2="4321.4" y2="702.2"/>
			<line class="st2" x1="5374.8" y1="-345.2" x2="4327.4" y2="702.2"/>
			<line class="st2" x1="5380.8" y1="-345.2" x2="4333.3" y2="702.2"/>
			<line class="st2" x1="5386.7" y1="-345.2" x2="4339.3" y2="702.2"/>
			<line class="st2" x1="5392.7" y1="-345.2" x2="4345.3" y2="702.2"/>
			<line class="st2" x1="5398.7" y1="-345.2" x2="4351.3" y2="702.2"/>
			<line class="st2" x1="5404.7" y1="-345.2" x2="4357.3" y2="702.2"/>
			<line class="st2" x1="5410.7" y1="-345.2" x2="4363.3" y2="702.2"/>
			<line class="st2" x1="5416.7" y1="-345.2" x2="4369.3" y2="702.2"/>
			<line class="st2" x1="5422.7" y1="-345.2" x2="4375.3" y2="702.2"/>
			<line class="st2" x1="5428.7" y1="-345.2" x2="4381.3" y2="702.2"/>
			<line class="st2" x1="5434.7" y1="-345.2" x2="4387.3" y2="702.2"/>
			<line class="st2" x1="5440.7" y1="-345.2" x2="4393.3" y2="702.2"/>
			<line class="st2" x1="5446.7" y1="-345.2" x2="4399.3" y2="702.2"/>
			<line class="st2" x1="5452.7" y1="-345.2" x2="4405.3" y2="702.2"/>
			<line class="st2" x1="5458.7" y1="-345.2" x2="4411.3" y2="702.2"/>
			<line class="st2" x1="5464.7" y1="-345.2" x2="4417.3" y2="702.2"/>
			<line class="st2" x1="5470.7" y1="-345.2" x2="4423.3" y2="702.2"/>
			<line class="st2" x1="5476.7" y1="-345.2" x2="4429.3" y2="702.2"/>
			<line class="st2" x1="5482.7" y1="-345.2" x2="4435.3" y2="702.2"/>
			<line class="st2" x1="5488.7" y1="-345.2" x2="4441.3" y2="702.2"/>
			<line class="st2" x1="5494.7" y1="-345.2" x2="4447.3" y2="702.2"/>
			<line class="st2" x1="5500.7" y1="-345.2" x2="4453.3" y2="702.2"/>
			<line class="st2" x1="5506.7" y1="-345.2" x2="4459.3" y2="702.2"/>
			<line class="st2" x1="5512.7" y1="-345.2" x2="4465.3" y2="702.2"/>
			<line class="st2" x1="5518.7" y1="-345.2" x2="4471.3" y2="702.2"/>
			<line class="st2" x1="5524.7" y1="-345.2" x2="4477.3" y2="702.2"/>
			<line class="st2" x1="5530.6" y1="-345.2" x2="4483.2" y2="702.2"/>
			<line class="st2" x1="5536.6" y1="-345.2" x2="4489.2" y2="702.2"/>
			<line class="st2" x1="5542.6" y1="-345.2" x2="4495.2" y2="702.2"/>
			<line class="st2" x1="5548.6" y1="-345.2" x2="4501.2" y2="702.2"/>
			<line class="st2" x1="5554.6" y1="-345.2" x2="4507.2" y2="702.2"/>
			<line class="st2" x1="5560.6" y1="-345.2" x2="4513.2" y2="702.2"/>
			<line class="st2" x1="5566.6" y1="-345.2" x2="4519.2" y2="702.2"/>
			<line class="st2" x1="5572.6" y1="-345.2" x2="4525.2" y2="702.2"/>
			<line class="st2" x1="5578.6" y1="-345.2" x2="4531.2" y2="702.2"/>
			<line class="st2" x1="5584.6" y1="-345.2" x2="4537.2" y2="702.2"/>
			<line class="st2" x1="5590.6" y1="-345.2" x2="4543.2" y2="702.2"/>
			<line class="st2" x1="5596.6" y1="-345.2" x2="4549.2" y2="702.2"/>
			<line class="st2" x1="5602.6" y1="-345.2" x2="4555.2" y2="702.2"/>
			<line class="st2" x1="5608.6" y1="-345.2" x2="4561.2" y2="702.2"/>
			<line class="st2" x1="5614.6" y1="-345.2" x2="4567.2" y2="702.2"/>
			<line class="st2" x1="5620.6" y1="-345.2" x2="4573.2" y2="702.2"/>
			<line class="st2" x1="5626.6" y1="-345.2" x2="4579.2" y2="702.2"/>
			<line class="st2" x1="5632.6" y1="-345.2" x2="4585.2" y2="702.2"/>
			<line class="st2" x1="5638.6" y1="-345.2" x2="4591.2" y2="702.2"/>
			<line class="st2" x1="5644.6" y1="-345.2" x2="4597.2" y2="702.2"/>
			<line class="st2" x1="5650.6" y1="-345.2" x2="4603.2" y2="702.2"/>
			<line class="st2" x1="5656.6" y1="-345.2" x2="4609.2" y2="702.2"/>
			<line class="st2" x1="5662.6" y1="-345.2" x2="4615.2" y2="702.2"/>
			<line class="st2" x1="5668.6" y1="-345.2" x2="4621.2" y2="702.2"/>
			<line class="st2" x1="5674.6" y1="-345.2" x2="4627.1" y2="702.2"/>
			<line class="st2" x1="5680.5" y1="-345.2" x2="4633.1" y2="702.2"/>
		</g>
	</g>
	<g>
		<defs>
			<circle id="SVGID_3_" cx="3038" cy="540.9" r="199.8"/>
		</defs>
		<clipPath id="SVGID_4_">
			<use xlink:href="#SVGID_3_"  style="overflow:visible;"/>
		</clipPath>
		<g class="st3">
			<line class="st2" x1="2575.4" y1="17.2" x2="1528" y2="1064.6"/>
			<line class="st2" x1="2581.4" y1="17.2" x2="1534" y2="1064.6"/>
			<line class="st2" x1="2587.4" y1="17.2" x2="1540" y2="1064.6"/>
			<line class="st2" x1="2593.4" y1="17.2" x2="1546" y2="1064.6"/>
			<line class="st2" x1="2599.4" y1="17.2" x2="1551.9" y2="1064.6"/>
			<line class="st2" x1="2605.3" y1="17.2" x2="1557.9" y2="1064.6"/>
			<line class="st2" x1="2611.3" y1="17.2" x2="1563.9" y2="1064.6"/>
			<line class="st2" x1="2617.3" y1="17.2" x2="1569.9" y2="1064.6"/>
			<line class="st2" x1="2623.3" y1="17.2" x2="1575.9" y2="1064.6"/>
			<line class="st2" x1="2629.3" y1="17.2" x2="1581.9" y2="1064.6"/>
			<line class="st2" x1="2635.3" y1="17.2" x2="1587.9" y2="1064.6"/>
			<line class="st2" x1="2641.3" y1="17.2" x2="1593.9" y2="1064.6"/>
			<line class="st2" x1="2647.3" y1="17.2" x2="1599.9" y2="1064.6"/>
			<line class="st2" x1="2653.3" y1="17.2" x2="1605.9" y2="1064.6"/>
			<line class="st2" x1="2659.3" y1="17.2" x2="1611.9" y2="1064.6"/>
			<line class="st2" x1="2665.3" y1="17.2" x2="1617.9" y2="1064.6"/>
			<line class="st2" x1="2671.3" y1="17.2" x2="1623.9" y2="1064.6"/>
			<line class="st2" x1="2677.3" y1="17.2" x2="1629.9" y2="1064.6"/>
			<line class="st2" x1="2683.3" y1="17.2" x2="1635.9" y2="1064.6"/>
			<line class="st2" x1="2689.3" y1="17.2" x2="1641.9" y2="1064.6"/>
			<line class="st2" x1="2695.3" y1="17.2" x2="1647.9" y2="1064.6"/>
			<line class="st2" x1="2701.3" y1="17.2" x2="1653.9" y2="1064.6"/>
			<line class="st2" x1="2707.3" y1="17.2" x2="1659.9" y2="1064.6"/>
			<line class="st2" x1="2713.3" y1="17.2" x2="1665.9" y2="1064.6"/>
			<line class="st2" x1="2719.3" y1="17.2" x2="1671.9" y2="1064.6"/>
			<line class="st2" x1="2725.3" y1="17.2" x2="1677.9" y2="1064.6"/>
			<line class="st2" x1="2731.3" y1="17.2" x2="1683.9" y2="1064.6"/>
			<line class="st2" x1="2737.3" y1="17.2" x2="1689.9" y2="1064.6"/>
			<line class="st2" x1="2743.3" y1="17.2" x2="1695.9" y2="1064.6"/>
			<line class="st2" x1="2749.2" y1="17.2" x2="1701.8" y2="1064.6"/>
			<line class="st2" x1="2755.2" y1="17.2" x2="1707.8" y2="1064.6"/>
			<line class="st2" x1="2761.2" y1="17.2" x2="1713.8" y2="1064.6"/>
			<line class="st2" x1="2767.2" y1="17.2" x2="1719.8" y2="1064.6"/>
			<line class="st2" x1="2773.2" y1="17.2" x2="1725.8" y2="1064.6"/>
			<line class="st2" x1="2779.2" y1="17.2" x2="1731.8" y2="1064.6"/>
			<line class="st2" x1="2785.2" y1="17.2" x2="1737.8" y2="1064.6"/>
			<line class="st2" x1="2791.2" y1="17.2" x2="1743.8" y2="1064.6"/>
			<line class="st2" x1="2797.2" y1="17.2" x2="1749.8" y2="1064.6"/>
			<line class="st2" x1="2803.2" y1="17.2" x2="1755.8" y2="1064.6"/>
			<line class="st2" x1="2809.2" y1="17.2" x2="1761.8" y2="1064.6"/>
			<line class="st2" x1="2815.2" y1="17.2" x2="1767.8" y2="1064.6"/>
			<line class="st2" x1="2821.2" y1="17.2" x2="1773.8" y2="1064.6"/>
			<line class="st2" x1="2827.2" y1="17.2" x2="1779.8" y2="1064.6"/>
			<line class="st2" x1="2833.2" y1="17.2" x2="1785.8" y2="1064.6"/>
			<line class="st2" x1="2839.2" y1="17.2" x2="1791.8" y2="1064.6"/>
			<line class="st2" x1="2845.2" y1="17.2" x2="1797.8" y2="1064.6"/>
			<line class="st2" x1="2851.2" y1="17.2" x2="1803.8" y2="1064.6"/>
			<line class="st2" x1="2857.2" y1="17.2" x2="1809.8" y2="1064.6"/>
			<line class="st2" x1="2863.2" y1="17.2" x2="1815.8" y2="1064.6"/>
			<line class="st2" x1="2869.2" y1="17.2" x2="1821.8" y2="1064.6"/>
			<line class="st2" x1="2875.2" y1="17.2" x2="1827.8" y2="1064.6"/>
			<line class="st2" x1="2881.2" y1="17.2" x2="1833.8" y2="1064.6"/>
			<line class="st2" x1="2887.2" y1="17.2" x2="1839.8" y2="1064.6"/>
			<line class="st2" x1="2893.2" y1="17.2" x2="1845.7" y2="1064.6"/>
			<line class="st2" x1="2899.1" y1="17.2" x2="1851.7" y2="1064.6"/>
			<line class="st2" x1="2905.1" y1="17.2" x2="1857.7" y2="1064.6"/>
			<line class="st2" x1="2911.1" y1="17.2" x2="1863.7" y2="1064.6"/>
			<line class="st2" x1="2917.1" y1="17.2" x2="1869.7" y2="1064.6"/>
			<line class="st2" x1="2923.1" y1="17.2" x2="1875.7" y2="1064.6"/>
			<line class="st2" x1="2929.1" y1="17.2" x2="1881.7" y2="1064.6"/>
			<line class="st2" x1="2935.1" y1="17.2" x2="1887.7" y2="1064.6"/>
			<line class="st2" x1="2941.1" y1="17.2" x2="1893.7" y2="1064.6"/>
			<line class="st2" x1="2947.1" y1="17.2" x2="1899.7" y2="1064.6"/>
			<line class="st2" x1="2953.1" y1="17.2" x2="1905.7" y2="1064.6"/>
			<line class="st2" x1="2959.1" y1="17.2" x2="1911.7" y2="1064.6"/>
			<line class="st2" x1="2965.1" y1="17.2" x2="1917.7" y2="1064.6"/>
			<line class="st2" x1="2971.1" y1="17.2" x2="1923.7" y2="1064.6"/>
			<line class="st2" x1="2977.1" y1="17.2" x2="1929.7" y2="1064.6"/>
			<line class="st2" x1="2983.1" y1="17.2" x2="1935.7" y2="1064.6"/>
			<line class="st2" x1="2989.1" y1="17.2" x2="1941.7" y2="1064.6"/>
			<line class="st2" x1="2995.1" y1="17.2" x2="1947.7" y2="1064.6"/>
			<line class="st2" x1="3001.1" y1="17.2" x2="1953.7" y2="1064.6"/>
			<line class="st2" x1="3007.1" y1="17.2" x2="1959.7" y2="1064.6"/>
			<line class="st2" x1="3013.1" y1="17.2" x2="1965.7" y2="1064.6"/>
			<line class="st2" x1="3019.1" y1="17.2" x2="1971.7" y2="1064.6"/>
			<line class="st2" x1="3025.1" y1="17.2" x2="1977.7" y2="1064.6"/>
			<line class="st2" x1="3031.1" y1="17.2" x2="1983.7" y2="1064.6"/>
			<line class="st2" x1="3037.1" y1="17.2" x2="1989.7" y2="1064.6"/>
			<line class="st2" x1="3043" y1="17.2" x2="1995.6" y2="1064.6"/>
			<line class="st2" x1="3049" y1="17.2" x2="2001.6" y2="1064.6"/>
			<line class="st2" x1="3055" y1="17.2" x2="2007.6" y2="1064.6"/>
			<line class="st2" x1="3061" y1="17.2" x2="2013.6" y2="1064.6"/>
			<line class="st2" x1="3067" y1="17.2" x2="2019.6" y2="1064.6"/>
			<line class="st2" x1="3073" y1="17.2" x2="2025.6" y2="1064.6"/>
			<line class="st2" x1="3079" y1="17.2" x2="2031.6" y2="1064.6"/>
			<line class="st2" x1="3085" y1="17.2" x2="2037.6" y2="1064.6"/>
			<line class="st2" x1="3091" y1="17.2" x2="2043.6" y2="1064.6"/>
			<line class="st2" x1="3097" y1="17.2" x2="2049.6" y2="1064.6"/>
			<line class="st2" x1="3103" y1="17.2" x2="2055.6" y2="1064.6"/>
			<line class="st2" x1="3109" y1="17.2" x2="2061.6" y2="1064.6"/>
			<line class="st2" x1="3115" y1="17.2" x2="2067.6" y2="1064.6"/>
			<line class="st2" x1="3121" y1="17.2" x2="2073.6" y2="1064.6"/>
			<line class="st2" x1="3127" y1="17.2" x2="2079.6" y2="1064.6"/>
			<line class="st2" x1="3133" y1="17.2" x2="2085.6" y2="1064.6"/>
			<line class="st2" x1="3139" y1="17.2" x2="2091.6" y2="1064.6"/>
			<line class="st2" x1="3145" y1="17.2" x2="2097.6" y2="1064.6"/>
			<line class="st2" x1="3151" y1="17.2" x2="2103.6" y2="1064.6"/>
			<line class="st2" x1="3157" y1="17.2" x2="2109.6" y2="1064.6"/>
			<line class="st2" x1="3163" y1="17.2" x2="2115.6" y2="1064.6"/>
			<line class="st2" x1="3169" y1="17.2" x2="2121.6" y2="1064.6"/>
			<line class="st2" x1="3175" y1="17.2" x2="2127.6" y2="1064.6"/>
			<line class="st2" x1="3181" y1="17.2" x2="2133.6" y2="1064.6"/>
			<line class="st2" x1="3187" y1="17.2" x2="2139.6" y2="1064.6"/>
			<line class="st2" x1="3192.9" y1="17.2" x2="2145.5" y2="1064.6"/>
			<line class="st2" x1="3198.9" y1="17.2" x2="2151.5" y2="1064.6"/>
			<line class="st2" x1="3204.9" y1="17.2" x2="2157.5" y2="1064.6"/>
			<line class="st2" x1="3210.9" y1="17.2" x2="2163.5" y2="1064.6"/>
			<line class="st2" x1="3216.9" y1="17.2" x2="2169.5" y2="1064.6"/>
			<line class="st2" x1="3222.9" y1="17.2" x2="2175.5" y2="1064.6"/>
			<line class="st2" x1="3228.9" y1="17.2" x2="2181.5" y2="1064.6"/>
			<line class="st2" x1="3234.9" y1="17.2" x2="2187.5" y2="1064.6"/>
			<line class="st2" x1="3240.9" y1="17.2" x2="2193.5" y2="1064.6"/>
			<line class="st2" x1="3246.9" y1="17.2" x2="2199.5" y2="1064.6"/>
			<line class="st2" x1="3252.9" y1="17.2" x2="2205.5" y2="1064.6"/>
			<line class="st2" x1="3258.9" y1="17.2" x2="2211.5" y2="1064.6"/>
			<line class="st2" x1="3264.9" y1="17.2" x2="2217.5" y2="1064.6"/>
			<line class="st2" x1="3270.9" y1="17.2" x2="2223.5" y2="1064.6"/>
			<line class="st2" x1="3276.9" y1="17.2" x2="2229.5" y2="1064.6"/>
			<line class="st2" x1="3282.9" y1="17.2" x2="2235.5" y2="1064.6"/>
			<line class="st2" x1="3288.9" y1="17.2" x2="2241.5" y2="1064.6"/>
			<line class="st2" x1="3294.9" y1="17.2" x2="2247.5" y2="1064.6"/>
			<line class="st2" x1="3300.9" y1="17.2" x2="2253.5" y2="1064.6"/>
			<line class="st2" x1="3306.9" y1="17.2" x2="2259.5" y2="1064.6"/>
			<line class="st2" x1="3312.9" y1="17.2" x2="2265.5" y2="1064.6"/>
			<line class="st2" x1="3318.9" y1="17.2" x2="2271.5" y2="1064.6"/>
			<line class="st2" x1="3324.9" y1="17.2" x2="2277.5" y2="1064.6"/>
			<line class="st2" x1="3330.9" y1="17.2" x2="2283.5" y2="1064.6"/>
			<line class="st2" x1="3336.9" y1="17.2" x2="2289.4" y2="1064.6"/>
			<line class="st2" x1="3342.8" y1="17.2" x2="2295.4" y2="1064.6"/>
			<line class="st2" x1="3348.8" y1="17.2" x2="2301.4" y2="1064.6"/>
			<line class="st2" x1="3354.8" y1="17.2" x2="2307.4" y2="1064.6"/>
			<line class="st2" x1="3360.8" y1="17.2" x2="2313.4" y2="1064.6"/>
			<line class="st2" x1="3366.8" y1="17.2" x2="2319.4" y2="1064.6"/>
			<line class="st2" x1="3372.8" y1="17.2" x2="2325.4" y2="1064.6"/>
			<line class="st2" x1="3378.8" y1="17.2" x2="2331.4" y2="1064.6"/>
			<line class="st2" x1="3384.8" y1="17.2" x2="2337.4" y2="1064.6"/>
			<line class="st2" x1="3390.8" y1="17.2" x2="2343.4" y2="1064.6"/>
			<line class="st2" x1="3396.8" y1="17.2" x2="2349.4" y2="1064.6"/>
			<line class="st2" x1="3402.8" y1="17.2" x2="2355.4" y2="1064.6"/>
			<line class="st2" x1="3408.8" y1="17.2" x2="2361.4" y2="1064.6"/>
			<line class="st2" x1="3414.8" y1="17.2" x2="2367.4" y2="1064.6"/>
			<line class="st2" x1="3420.8" y1="17.2" x2="2373.4" y2="1064.6"/>
			<line class="st2" x1="3426.8" y1="17.2" x2="2379.4" y2="1064.6"/>
			<line class="st2" x1="3432.8" y1="17.2" x2="2385.4" y2="1064.6"/>
			<line class="st2" x1="3438.8" y1="17.2" x2="2391.4" y2="1064.6"/>
			<line class="st2" x1="3444.8" y1="17.2" x2="2397.4" y2="1064.6"/>
			<line class="st2" x1="3450.8" y1="17.2" x2="2403.4" y2="1064.6"/>
			<line class="st2" x1="3456.8" y1="17.2" x2="2409.4" y2="1064.6"/>
			<line class="st2" x1="3462.8" y1="17.2" x2="2415.4" y2="1064.6"/>
			<line class="st2" x1="3468.8" y1="17.2" x2="2421.4" y2="1064.6"/>
			<line class="st2" x1="3474.8" y1="17.2" x2="2427.4" y2="1064.6"/>
			<line class="st2" x1="3480.8" y1="17.2" x2="2433.4" y2="1064.6"/>
			<line class="st2" x1="3486.7" y1="17.2" x2="2439.3" y2="1064.6"/>
			<line class="st2" x1="3492.7" y1="17.2" x2="2445.3" y2="1064.6"/>
			<line class="st2" x1="3498.7" y1="17.2" x2="2451.3" y2="1064.6"/>
			<line class="st2" x1="3504.7" y1="17.2" x2="2457.3" y2="1064.6"/>
			<line class="st2" x1="3510.7" y1="17.2" x2="2463.3" y2="1064.6"/>
			<line class="st2" x1="3516.7" y1="17.2" x2="2469.3" y2="1064.6"/>
			<line class="st2" x1="3522.7" y1="17.2" x2="2475.3" y2="1064.6"/>
			<line class="st2" x1="3528.7" y1="17.2" x2="2481.3" y2="1064.6"/>
			<line class="st2" x1="3534.7" y1="17.2" x2="2487.3" y2="1064.6"/>
			<line class="st2" x1="3540.7" y1="17.2" x2="2493.3" y2="1064.6"/>
			<line class="st2" x1="3546.7" y1="17.2" x2="2499.3" y2="1064.6"/>
			<line class="st2" x1="3552.7" y1="17.2" x2="2505.3" y2="1064.6"/>
			<line class="st2" x1="3558.7" y1="17.2" x2="2511.3" y2="1064.6"/>
			<line class="st2" x1="3564.7" y1="17.2" x2="2517.3" y2="1064.6"/>
			<line class="st2" x1="3570.7" y1="17.2" x2="2523.3" y2="1064.6"/>
			<line class="st2" x1="3576.7" y1="17.2" x2="2529.3" y2="1064.6"/>
			<line class="st2" x1="3582.7" y1="17.2" x2="2535.3" y2="1064.6"/>
			<line class="st2" x1="3588.7" y1="17.2" x2="2541.3" y2="1064.6"/>
			<line class="st2" x1="3594.7" y1="17.2" x2="2547.3" y2="1064.6"/>
			<line class="st2" x1="3600.7" y1="17.2" x2="2553.3" y2="1064.6"/>
			<line class="st2" x1="3606.7" y1="17.2" x2="2559.3" y2="1064.6"/>
			<line class="st2" x1="3612.7" y1="17.2" x2="2565.3" y2="1064.6"/>
			<line class="st2" x1="3618.7" y1="17.2" x2="2571.3" y2="1064.6"/>
			<line class="st2" x1="3624.7" y1="17.2" x2="2577.3" y2="1064.6"/>
			<line class="st2" x1="3630.7" y1="17.2" x2="2583.2" y2="1064.6"/>
			<line class="st2" x1="3636.6" y1="17.2" x2="2589.2" y2="1064.6"/>
			<line class="st2" x1="3642.6" y1="17.2" x2="2595.2" y2="1064.6"/>
			<line class="st2" x1="3648.6" y1="17.2" x2="2601.2" y2="1064.6"/>
			<line class="st2" x1="3654.6" y1="17.2" x2="2607.2" y2="1064.6"/>
			<line class="st2" x1="3660.6" y1="17.2" x2="2613.2" y2="1064.6"/>
			<line class="st2" x1="3666.6" y1="17.2" x2="2619.2" y2="1064.6"/>
			<line class="st2" x1="3672.6" y1="17.2" x2="2625.2" y2="1064.6"/>
			<line class="st2" x1="3678.6" y1="17.2" x2="2631.2" y2="1064.6"/>
			<line class="st2" x1="3684.6" y1="17.2" x2="2637.2" y2="1064.6"/>
			<line class="st2" x1="3690.6" y1="17.2" x2="2643.2" y2="1064.6"/>
			<line class="st2" x1="3696.6" y1="17.2" x2="2649.2" y2="1064.6"/>
			<line class="st2" x1="3702.6" y1="17.2" x2="2655.2" y2="1064.6"/>
			<line class="st2" x1="3708.6" y1="17.2" x2="2661.2" y2="1064.6"/>
			<line class="st2" x1="3714.6" y1="17.2" x2="2667.2" y2="1064.6"/>
			<line class="st2" x1="3720.6" y1="17.2" x2="2673.2" y2="1064.6"/>
			<line class="st2" x1="3726.6" y1="17.2" x2="2679.2" y2="1064.6"/>
			<line class="st2" x1="3732.6" y1="17.2" x2="2685.2" y2="1064.6"/>
			<line class="st2" x1="3738.6" y1="17.2" x2="2691.2" y2="1064.6"/>
			<line class="st2" x1="3744.6" y1="17.2" x2="2697.2" y2="1064.6"/>
			<line class="st2" x1="3750.6" y1="17.2" x2="2703.2" y2="1064.6"/>
			<line class="st2" x1="3756.6" y1="17.2" x2="2709.2" y2="1064.6"/>
			<line class="st2" x1="3762.6" y1="17.2" x2="2715.2" y2="1064.6"/>
			<line class="st2" x1="3768.6" y1="17.2" x2="2721.2" y2="1064.6"/>
			<line class="st2" x1="3774.6" y1="17.2" x2="2727.2" y2="1064.6"/>
			<line class="st2" x1="3780.6" y1="17.2" x2="2733.1" y2="1064.6"/>
			<line class="st2" x1="3786.5" y1="17.2" x2="2739.1" y2="1064.6"/>
			<line class="st2" x1="3792.5" y1="17.2" x2="2745.1" y2="1064.6"/>
			<line class="st2" x1="3798.5" y1="17.2" x2="2751.1" y2="1064.6"/>
			<line class="st2" x1="3804.5" y1="17.2" x2="2757.1" y2="1064.6"/>
			<line class="st2" x1="3810.5" y1="17.2" x2="2763.1" y2="1064.6"/>
			<line class="st2" x1="3816.5" y1="17.2" x2="2769.1" y2="1064.6"/>
			<line class="st2" x1="3822.5" y1="17.2" x2="2775.1" y2="1064.6"/>
			<line class="st2" x1="3828.5" y1="17.2" x2="2781.1" y2="1064.6"/>
			<line class="st2" x1="3834.5" y1="17.2" x2="2787.1" y2="1064.6"/>
			<line class="st2" x1="3840.5" y1="17.2" x2="2793.1" y2="1064.6"/>
			<line class="st2" x1="3846.5" y1="17.2" x2="2799.1" y2="1064.6"/>
			<line class="st2" x1="3852.5" y1="17.2" x2="2805.1" y2="1064.6"/>
			<line class="st2" x1="3858.5" y1="17.2" x2="2811.1" y2="1064.6"/>
			<line class="st2" x1="3864.5" y1="17.2" x2="2817.1" y2="1064.6"/>
			<line class="st2" x1="3870.5" y1="17.2" x2="2823.1" y2="1064.6"/>
			<line class="st2" x1="3876.5" y1="17.2" x2="2829.1" y2="1064.6"/>
			<line class="st2" x1="3882.5" y1="17.2" x2="2835.1" y2="1064.6"/>
			<line class="st2" x1="3888.5" y1="17.2" x2="2841.1" y2="1064.6"/>
			<line class="st2" x1="3894.5" y1="17.2" x2="2847.1" y2="1064.6"/>
			<line class="st2" x1="3900.5" y1="17.2" x2="2853.1" y2="1064.6"/>
			<line class="st2" x1="3906.5" y1="17.2" x2="2859.1" y2="1064.6"/>
			<line class="st2" x1="3912.5" y1="17.2" x2="2865.1" y2="1064.6"/>
			<line class="st2" x1="3918.5" y1="17.2" x2="2871.1" y2="1064.6"/>
			<line class="st2" x1="3924.5" y1="17.2" x2="2877.1" y2="1064.6"/>
			<line class="st2" x1="3930.4" y1="17.2" x2="2883" y2="1064.6"/>
			<line class="st2" x1="3936.4" y1="17.2" x2="2889" y2="1064.6"/>
			<line class="st2" x1="3942.4" y1="17.2" x2="2895" y2="1064.6"/>
			<line class="st2" x1="3948.4" y1="17.2" x2="2901" y2="1064.6"/>
			<line class="st2" x1="3954.4" y1="17.2" x2="2907" y2="1064.6"/>
			<line class="st2" x1="3960.4" y1="17.2" x2="2913" y2="1064.6"/>
			<line class="st2" x1="3966.4" y1="17.2" x2="2919" y2="1064.6"/>
			<line class="st2" x1="3972.4" y1="17.2" x2="2925" y2="1064.6"/>
			<line class="st2" x1="3978.4" y1="17.2" x2="2931" y2="1064.6"/>
			<line class="st2" x1="3984.4" y1="17.2" x2="2937" y2="1064.6"/>
			<line class="st2" x1="3990.4" y1="17.2" x2="2943" y2="1064.6"/>
			<line class="st2" x1="3996.4" y1="17.2" x2="2949" y2="1064.6"/>
			<line class="st2" x1="4002.4" y1="17.2" x2="2955" y2="1064.6"/>
			<line class="st2" x1="4008.4" y1="17.2" x2="2961" y2="1064.6"/>
			<line class="st2" x1="4014.4" y1="17.2" x2="2967" y2="1064.6"/>
			<line class="st2" x1="4020.4" y1="17.2" x2="2973" y2="1064.6"/>
			<line class="st2" x1="4026.4" y1="17.2" x2="2979" y2="1064.6"/>
			<line class="st2" x1="4032.4" y1="17.2" x2="2985" y2="1064.6"/>
			<line class="st2" x1="4038.4" y1="17.2" x2="2991" y2="1064.6"/>
			<line class="st2" x1="4044.4" y1="17.2" x2="2997" y2="1064.6"/>
			<line class="st2" x1="4050.4" y1="17.2" x2="3003" y2="1064.6"/>
			<line class="st2" x1="4056.4" y1="17.2" x2="3009" y2="1064.6"/>
			<line class="st2" x1="4062.4" y1="17.2" x2="3015" y2="1064.6"/>
			<line class="st2" x1="4068.4" y1="17.2" x2="3021" y2="1064.6"/>
			<line class="st2" x1="4074.4" y1="17.2" x2="3026.9" y2="1064.6"/>
			<line class="st2" x1="4080.3" y1="17.2" x2="3032.9" y2="1064.6"/>
			<line class="st2" x1="4086.3" y1="17.2" x2="3038.9" y2="1064.6"/>
			<line class="st2" x1="4092.3" y1="17.2" x2="3044.9" y2="1064.6"/>
			<line class="st2" x1="4098.3" y1="17.2" x2="3050.9" y2="1064.6"/>
			<line class="st2" x1="4104.3" y1="17.2" x2="3056.9" y2="1064.6"/>
			<line class="st2" x1="4110.3" y1="17.2" x2="3062.9" y2="1064.6"/>
			<line class="st2" x1="4116.3" y1="17.2" x2="3068.9" y2="1064.6"/>
			<line class="st2" x1="4122.3" y1="17.2" x2="3074.9" y2="1064.6"/>
			<line class="st2" x1="4128.3" y1="17.2" x2="3080.9" y2="1064.6"/>
			<line class="st2" x1="4134.3" y1="17.2" x2="3086.9" y2="1064.6"/>
			<line class="st2" x1="4140.3" y1="17.2" x2="3092.9" y2="1064.6"/>
			<line class="st2" x1="4146.3" y1="17.2" x2="3098.9" y2="1064.6"/>
			<line class="st2" x1="4152.3" y1="17.2" x2="3104.9" y2="1064.6"/>
			<line class="st2" x1="4158.3" y1="17.2" x2="3110.9" y2="1064.6"/>
			<line class="st2" x1="4164.3" y1="17.2" x2="3116.9" y2="1064.6"/>
			<line class="st2" x1="4170.3" y1="17.2" x2="3122.9" y2="1064.6"/>
			<line class="st2" x1="4176.3" y1="17.2" x2="3128.9" y2="1064.6"/>
			<line class="st2" x1="4182.3" y1="17.2" x2="3134.9" y2="1064.6"/>
			<line class="st2" x1="4188.3" y1="17.2" x2="3140.9" y2="1064.6"/>
			<line class="st2" x1="4194.3" y1="17.2" x2="3146.9" y2="1064.6"/>
			<line class="st2" x1="4200.3" y1="17.2" x2="3152.9" y2="1064.6"/>
			<line class="st2" x1="4206.3" y1="17.2" x2="3158.9" y2="1064.6"/>
			<line class="st2" x1="4212.3" y1="17.2" x2="3164.9" y2="1064.6"/>
			<line class="st2" x1="4218.3" y1="17.2" x2="3170.9" y2="1064.6"/>
			<line class="st2" x1="4224.2" y1="17.2" x2="3176.8" y2="1064.6"/>
			<line class="st2" x1="4230.2" y1="17.2" x2="3182.8" y2="1064.6"/>
			<line class="st2" x1="4236.2" y1="17.2" x2="3188.8" y2="1064.6"/>
			<line class="st2" x1="4242.2" y1="17.2" x2="3194.8" y2="1064.6"/>
			<line class="st2" x1="4248.2" y1="17.2" x2="3200.8" y2="1064.6"/>
			<line class="st2" x1="4254.2" y1="17.2" x2="3206.8" y2="1064.6"/>
			<line class="st2" x1="4260.2" y1="17.2" x2="3212.8" y2="1064.6"/>
			<line class="st2" x1="4266.2" y1="17.2" x2="3218.8" y2="1064.6"/>
			<line class="st2" x1="4272.2" y1="17.2" x2="3224.8" y2="1064.6"/>
			<line class="st2" x1="4278.2" y1="17.2" x2="3230.8" y2="1064.6"/>
			<line class="st2" x1="4284.2" y1="17.2" x2="3236.8" y2="1064.6"/>
			<line class="st2" x1="4290.2" y1="17.2" x2="3242.8" y2="1064.6"/>
			<line class="st2" x1="4296.2" y1="17.2" x2="3248.8" y2="1064.6"/>
			<line class="st2" x1="4302.2" y1="17.2" x2="3254.8" y2="1064.6"/>
			<line class="st2" x1="4308.2" y1="17.2" x2="3260.8" y2="1064.6"/>
			<line class="st2" x1="4314.2" y1="17.2" x2="3266.8" y2="1064.6"/>
			<line class="st2" x1="4320.2" y1="17.2" x2="3272.8" y2="1064.6"/>
			<line class="st2" x1="4326.2" y1="17.2" x2="3278.8" y2="1064.6"/>
			<line class="st2" x1="4332.2" y1="17.2" x2="3284.8" y2="1064.6"/>
			<line class="st2" x1="4338.2" y1="17.2" x2="3290.8" y2="1064.6"/>
			<line class="st2" x1="4344.2" y1="17.2" x2="3296.8" y2="1064.6"/>
			<line class="st2" x1="4350.2" y1="17.2" x2="3302.8" y2="1064.6"/>
			<line class="st2" x1="4356.2" y1="17.2" x2="3308.8" y2="1064.6"/>
			<line class="st2" x1="4362.2" y1="17.2" x2="3314.8" y2="1064.6"/>
			<line class="st2" x1="4368.2" y1="17.2" x2="3320.7" y2="1064.6"/>
			<line class="st2" x1="4374.1" y1="17.2" x2="3326.7" y2="1064.6"/>
			<line class="st2" x1="4380.1" y1="17.2" x2="3332.7" y2="1064.6"/>
			<line class="st2" x1="4386.1" y1="17.2" x2="3338.7" y2="1064.6"/>
			<line class="st2" x1="4392.1" y1="17.2" x2="3344.7" y2="1064.6"/>
			<line class="st2" x1="4398.1" y1="17.2" x2="3350.7" y2="1064.6"/>
			<line class="st2" x1="4404.1" y1="17.2" x2="3356.7" y2="1064.6"/>
			<line class="st2" x1="4410.1" y1="17.2" x2="3362.7" y2="1064.6"/>
			<line class="st2" x1="4416.1" y1="17.2" x2="3368.7" y2="1064.6"/>
			<line class="st2" x1="4422.1" y1="17.2" x2="3374.7" y2="1064.6"/>
			<line class="st2" x1="4428.1" y1="17.2" x2="3380.7" y2="1064.6"/>
			<line class="st2" x1="4434.1" y1="17.2" x2="3386.7" y2="1064.6"/>
			<line class="st2" x1="4440.1" y1="17.2" x2="3392.7" y2="1064.6"/>
			<line class="st2" x1="4446.1" y1="17.2" x2="3398.7" y2="1064.6"/>
			<line class="st2" x1="4452.1" y1="17.2" x2="3404.7" y2="1064.6"/>
			<line class="st2" x1="4458.1" y1="17.2" x2="3410.7" y2="1064.6"/>
			<line class="st2" x1="4464.1" y1="17.2" x2="3416.7" y2="1064.6"/>
			<line class="st2" x1="4470.1" y1="17.2" x2="3422.7" y2="1064.6"/>
			<line class="st2" x1="4476.1" y1="17.2" x2="3428.7" y2="1064.6"/>
			<line class="st2" x1="4482.1" y1="17.2" x2="3434.7" y2="1064.6"/>
			<line class="st2" x1="4488.1" y1="17.2" x2="3440.7" y2="1064.6"/>
			<line class="st2" x1="4494.1" y1="17.2" x2="3446.7" y2="1064.6"/>
			<line class="st2" x1="4500.1" y1="17.2" x2="3452.7" y2="1064.6"/>
			<line class="st2" x1="4506.1" y1="17.2" x2="3458.7" y2="1064.6"/>
			<line class="st2" x1="4512.1" y1="17.2" x2="3464.7" y2="1064.6"/>
			<line class="st2" x1="4518" y1="17.2" x2="3470.6" y2="1064.6"/>
			<line class="st2" x1="4524" y1="17.2" x2="3476.6" y2="1064.6"/>
			<line class="st2" x1="4530" y1="17.2" x2="3482.6" y2="1064.6"/>
			<line class="st2" x1="4536" y1="17.2" x2="3488.6" y2="1064.6"/>
			<line class="st2" x1="4542" y1="17.2" x2="3494.6" y2="1064.6"/>
			<line class="st2" x1="4548" y1="17.2" x2="3500.6" y2="1064.6"/>
		</g>
	</g>
	<g>
		<defs>
			<circle id="SVGID_5_" cx="4160" cy="1613.6" r="199.8"/>
		</defs>
		<clipPath id="SVGID_6_">
			<use xlink:href="#SVGID_5_"  style="overflow:visible;"/>
		</clipPath>
		<g class="st4">
			<line class="st2" x1="3697.3" y1="1089.9" x2="2649.9" y2="2137.3"/>
			<line class="st2" x1="3703.3" y1="1089.9" x2="2655.9" y2="2137.3"/>
			<line class="st2" x1="3709.3" y1="1089.9" x2="2661.9" y2="2137.3"/>
			<line class="st2" x1="3715.3" y1="1089.9" x2="2667.9" y2="2137.3"/>
			<line class="st2" x1="3721.3" y1="1089.9" x2="2673.9" y2="2137.3"/>
			<line class="st2" x1="3727.3" y1="1089.9" x2="2679.9" y2="2137.3"/>
			<line class="st2" x1="3733.3" y1="1089.9" x2="2685.9" y2="2137.3"/>
			<line class="st2" x1="3739.3" y1="1089.9" x2="2691.9" y2="2137.3"/>
			<line class="st2" x1="3745.3" y1="1089.9" x2="2697.9" y2="2137.3"/>
			<line class="st2" x1="3751.3" y1="1089.9" x2="2703.9" y2="2137.3"/>
			<line class="st2" x1="3757.3" y1="1089.9" x2="2709.9" y2="2137.3"/>
			<line class="st2" x1="3763.3" y1="1089.9" x2="2715.9" y2="2137.3"/>
			<line class="st2" x1="3769.3" y1="1089.9" x2="2721.9" y2="2137.3"/>
			<line class="st2" x1="3775.3" y1="1089.9" x2="2727.9" y2="2137.3"/>
			<line class="st2" x1="3781.3" y1="1089.9" x2="2733.9" y2="2137.3"/>
			<line class="st2" x1="3787.3" y1="1089.9" x2="2739.9" y2="2137.3"/>
			<line class="st2" x1="3793.3" y1="1089.9" x2="2745.9" y2="2137.3"/>
			<line class="st2" x1="3799.3" y1="1089.9" x2="2751.9" y2="2137.3"/>
			<line class="st2" x1="3805.3" y1="1089.9" x2="2757.9" y2="2137.3"/>
			<line class="st2" x1="3811.3" y1="1089.9" x2="2763.9" y2="2137.3"/>
			<line class="st2" x1="3817.3" y1="1089.9" x2="2769.9" y2="2137.3"/>
			<line class="st2" x1="3823.3" y1="1089.9" x2="2775.9" y2="2137.3"/>
			<line class="st2" x1="3829.2" y1="1089.9" x2="2781.8" y2="2137.3"/>
			<line class="st2" x1="3835.2" y1="1089.9" x2="2787.8" y2="2137.3"/>
			<line class="st2" x1="3841.2" y1="1089.9" x2="2793.8" y2="2137.3"/>
			<line class="st2" x1="3847.2" y1="1089.9" x2="2799.8" y2="2137.3"/>
			<line class="st2" x1="3853.2" y1="1089.9" x2="2805.8" y2="2137.3"/>
			<line class="st2" x1="3859.2" y1="1089.9" x2="2811.8" y2="2137.3"/>
			<line class="st2" x1="3865.2" y1="1089.9" x2="2817.8" y2="2137.3"/>
			<line class="st2" x1="3871.2" y1="1089.9" x2="2823.8" y2="2137.3"/>
			<line class="st2" x1="3877.2" y1="1089.9" x2="2829.8" y2="2137.3"/>
			<line class="st2" x1="3883.2" y1="1089.9" x2="2835.8" y2="2137.3"/>
			<line class="st2" x1="3889.2" y1="1089.9" x2="2841.8" y2="2137.3"/>
			<line class="st2" x1="3895.2" y1="1089.9" x2="2847.8" y2="2137.3"/>
			<line class="st2" x1="3901.2" y1="1089.9" x2="2853.8" y2="2137.3"/>
			<line class="st2" x1="3907.2" y1="1089.9" x2="2859.8" y2="2137.3"/>
			<line class="st2" x1="3913.2" y1="1089.9" x2="2865.8" y2="2137.3"/>
			<line class="st2" x1="3919.2" y1="1089.9" x2="2871.8" y2="2137.3"/>
			<line class="st2" x1="3925.2" y1="1089.9" x2="2877.8" y2="2137.3"/>
			<line class="st2" x1="3931.2" y1="1089.9" x2="2883.8" y2="2137.3"/>
			<line class="st2" x1="3937.2" y1="1089.9" x2="2889.8" y2="2137.3"/>
			<line class="st2" x1="3943.2" y1="1089.9" x2="2895.8" y2="2137.3"/>
			<line class="st2" x1="3949.2" y1="1089.9" x2="2901.8" y2="2137.3"/>
			<line class="st2" x1="3955.2" y1="1089.9" x2="2907.8" y2="2137.3"/>
			<line class="st2" x1="3961.2" y1="1089.9" x2="2913.8" y2="2137.3"/>
			<line class="st2" x1="3967.2" y1="1089.9" x2="2919.8" y2="2137.3"/>
			<line class="st2" x1="3973.2" y1="1089.9" x2="2925.8" y2="2137.3"/>
			<line class="st2" x1="3979.1" y1="1089.9" x2="2931.7" y2="2137.3"/>
			<line class="st2" x1="3985.1" y1="1089.9" x2="2937.7" y2="2137.3"/>
			<line class="st2" x1="3991.1" y1="1089.9" x2="2943.7" y2="2137.3"/>
			<line class="st2" x1="3997.1" y1="1089.9" x2="2949.7" y2="2137.3"/>
			<line class="st2" x1="4003.1" y1="1089.9" x2="2955.7" y2="2137.3"/>
			<line class="st2" x1="4009.1" y1="1089.9" x2="2961.7" y2="2137.3"/>
			<line class="st2" x1="4015.1" y1="1089.9" x2="2967.7" y2="2137.3"/>
			<line class="st2" x1="4021.1" y1="1089.9" x2="2973.7" y2="2137.3"/>
			<line class="st2" x1="4027.1" y1="1089.9" x2="2979.7" y2="2137.3"/>
			<line class="st2" x1="4033.1" y1="1089.9" x2="2985.7" y2="2137.3"/>
			<line class="st2" x1="4039.1" y1="1089.9" x2="2991.7" y2="2137.3"/>
			<line class="st2" x1="4045.1" y1="1089.9" x2="2997.7" y2="2137.3"/>
			<line class="st2" x1="4051.1" y1="1089.9" x2="3003.7" y2="2137.3"/>
			<line class="st2" x1="4057.1" y1="1089.9" x2="3009.7" y2="2137.3"/>
			<line class="st2" x1="4063.1" y1="1089.9" x2="3015.7" y2="2137.3"/>
			<line class="st2" x1="4069.1" y1="1089.9" x2="3021.7" y2="2137.3"/>
			<line class="st2" x1="4075.1" y1="1089.9" x2="3027.7" y2="2137.3"/>
			<line class="st2" x1="4081.1" y1="1089.9" x2="3033.7" y2="2137.3"/>
			<line class="st2" x1="4087.1" y1="1089.9" x2="3039.7" y2="2137.3"/>
			<line class="st2" x1="4093.1" y1="1089.9" x2="3045.7" y2="2137.3"/>
			<line class="st2" x1="4099.1" y1="1089.9" x2="3051.7" y2="2137.3"/>
			<line class="st2" x1="4105.1" y1="1089.9" x2="3057.7" y2="2137.3"/>
			<line class="st2" x1="4111.1" y1="1089.9" x2="3063.7" y2="2137.3"/>
			<line class="st2" x1="4117.1" y1="1089.9" x2="3069.7" y2="2137.3"/>
			<line class="st2" x1="4123.1" y1="1089.9" x2="3075.6" y2="2137.3"/>
			<line class="st2" x1="4129" y1="1089.9" x2="3081.6" y2="2137.3"/>
			<line class="st2" x1="4135" y1="1089.9" x2="3087.6" y2="2137.3"/>
			<line class="st2" x1="4141" y1="1089.9" x2="3093.6" y2="2137.3"/>
			<line class="st2" x1="4147" y1="1089.9" x2="3099.6" y2="2137.3"/>
			<line class="st2" x1="4153" y1="1089.9" x2="3105.6" y2="2137.3"/>
			<line class="st2" x1="4159" y1="1089.9" x2="3111.6" y2="2137.3"/>
			<line class="st2" x1="4165" y1="1089.9" x2="3117.6" y2="2137.3"/>
			<line class="st2" x1="4171" y1="1089.9" x2="3123.6" y2="2137.3"/>
			<line class="st2" x1="4177" y1="1089.9" x2="3129.6" y2="2137.3"/>
			<line class="st2" x1="4183" y1="1089.9" x2="3135.6" y2="2137.3"/>
			<line class="st2" x1="4189" y1="1089.9" x2="3141.6" y2="2137.3"/>
			<line class="st2" x1="4195" y1="1089.9" x2="3147.6" y2="2137.3"/>
			<line class="st2" x1="4201" y1="1089.9" x2="3153.6" y2="2137.3"/>
			<line class="st2" x1="4207" y1="1089.9" x2="3159.6" y2="2137.3"/>
			<line class="st2" x1="4213" y1="1089.9" x2="3165.6" y2="2137.3"/>
			<line class="st2" x1="4219" y1="1089.9" x2="3171.6" y2="2137.3"/>
			<line class="st2" x1="4225" y1="1089.9" x2="3177.6" y2="2137.3"/>
			<line class="st2" x1="4231" y1="1089.9" x2="3183.6" y2="2137.3"/>
			<line class="st2" x1="4237" y1="1089.9" x2="3189.6" y2="2137.3"/>
			<line class="st2" x1="4243" y1="1089.9" x2="3195.6" y2="2137.3"/>
			<line class="st2" x1="4249" y1="1089.9" x2="3201.6" y2="2137.3"/>
			<line class="st2" x1="4255" y1="1089.9" x2="3207.6" y2="2137.3"/>
			<line class="st2" x1="4261" y1="1089.9" x2="3213.6" y2="2137.3"/>
			<line class="st2" x1="4267" y1="1089.9" x2="3219.6" y2="2137.3"/>
			<line class="st2" x1="4272.9" y1="1089.9" x2="3225.5" y2="2137.3"/>
			<line class="st2" x1="4278.9" y1="1089.9" x2="3231.5" y2="2137.3"/>
			<line class="st2" x1="4284.9" y1="1089.9" x2="3237.5" y2="2137.3"/>
			<line class="st2" x1="4290.9" y1="1089.9" x2="3243.5" y2="2137.3"/>
			<line class="st2" x1="4296.9" y1="1089.9" x2="3249.5" y2="2137.3"/>
			<line class="st2" x1="4302.9" y1="1089.9" x2="3255.5" y2="2137.3"/>
			<line class="st2" x1="4308.9" y1="1089.9" x2="3261.5" y2="2137.3"/>
			<line class="st2" x1="4314.9" y1="1089.9" x2="3267.5" y2="2137.3"/>
			<line class="st2" x1="4320.9" y1="1089.9" x2="3273.5" y2="2137.3"/>
			<line class="st2" x1="4326.9" y1="1089.9" x2="3279.5" y2="2137.3"/>
			<line class="st2" x1="4332.9" y1="1089.9" x2="3285.5" y2="2137.3"/>
			<line class="st2" x1="4338.9" y1="1089.9" x2="3291.5" y2="2137.3"/>
			<line class="st2" x1="4344.9" y1="1089.9" x2="3297.5" y2="2137.3"/>
			<line class="st2" x1="4350.9" y1="1089.9" x2="3303.5" y2="2137.3"/>
			<line class="st2" x1="4356.9" y1="1089.9" x2="3309.5" y2="2137.3"/>
			<line class="st2" x1="4362.9" y1="1089.9" x2="3315.5" y2="2137.3"/>
			<line class="st2" x1="4368.9" y1="1089.9" x2="3321.5" y2="2137.3"/>
			<line class="st2" x1="4374.9" y1="1089.9" x2="3327.5" y2="2137.3"/>
			<line class="st2" x1="4380.9" y1="1089.9" x2="3333.5" y2="2137.3"/>
			<line class="st2" x1="4386.9" y1="1089.9" x2="3339.5" y2="2137.3"/>
			<line class="st2" x1="4392.9" y1="1089.9" x2="3345.5" y2="2137.3"/>
			<line class="st2" x1="4398.9" y1="1089.9" x2="3351.5" y2="2137.3"/>
			<line class="st2" x1="4404.9" y1="1089.9" x2="3357.5" y2="2137.3"/>
			<line class="st2" x1="4410.9" y1="1089.9" x2="3363.5" y2="2137.3"/>
			<line class="st2" x1="4416.9" y1="1089.9" x2="3369.4" y2="2137.3"/>
			<line class="st2" x1="4422.8" y1="1089.9" x2="3375.4" y2="2137.3"/>
			<line class="st2" x1="4428.8" y1="1089.9" x2="3381.4" y2="2137.3"/>
			<line class="st2" x1="4434.8" y1="1089.9" x2="3387.4" y2="2137.3"/>
			<line class="st2" x1="4440.8" y1="1089.9" x2="3393.4" y2="2137.3"/>
			<line class="st2" x1="4446.8" y1="1089.9" x2="3399.4" y2="2137.3"/>
			<line class="st2" x1="4452.8" y1="1089.9" x2="3405.4" y2="2137.3"/>
			<line class="st2" x1="4458.8" y1="1089.9" x2="3411.4" y2="2137.3"/>
			<line class="st2" x1="4464.8" y1="1089.9" x2="3417.4" y2="2137.3"/>
			<line class="st2" x1="4470.8" y1="1089.9" x2="3423.4" y2="2137.3"/>
			<line class="st2" x1="4476.8" y1="1089.9" x2="3429.4" y2="2137.3"/>
			<line class="st2" x1="4482.8" y1="1089.9" x2="3435.4" y2="2137.3"/>
			<line class="st2" x1="4488.8" y1="1089.9" x2="3441.4" y2="2137.3"/>
			<line class="st2" x1="4494.8" y1="1089.9" x2="3447.4" y2="2137.3"/>
			<line class="st2" x1="4500.8" y1="1089.9" x2="3453.4" y2="2137.3"/>
			<line class="st2" x1="4506.8" y1="1089.9" x2="3459.4" y2="2137.3"/>
			<line class="st2" x1="4512.8" y1="1089.9" x2="3465.4" y2="2137.3"/>
			<line class="st2" x1="4518.8" y1="1089.9" x2="3471.4" y2="2137.3"/>
			<line class="st2" x1="4524.8" y1="1089.9" x2="3477.4" y2="2137.3"/>
			<line class="st2" x1="4530.8" y1="1089.9" x2="3483.4" y2="2137.3"/>
			<line class="st2" x1="4536.8" y1="1089.9" x2="3489.4" y2="2137.3"/>
			<line class="st2" x1="4542.8" y1="1089.9" x2="3495.4" y2="2137.3"/>
			<line class="st2" x1="4548.8" y1="1089.9" x2="3501.4" y2="2137.3"/>
			<line class="st2" x1="4554.8" y1="1089.9" x2="3507.4" y2="2137.3"/>
			<line class="st2" x1="4560.8" y1="1089.9" x2="3513.4" y2="2137.3"/>
			<line class="st2" x1="4566.7" y1="1089.9" x2="3519.3" y2="2137.3"/>
			<line class="st2" x1="4572.7" y1="1089.9" x2="3525.3" y2="2137.3"/>
			<line class="st2" x1="4578.7" y1="1089.9" x2="3531.3" y2="2137.3"/>
			<line class="st2" x1="4584.7" y1="1089.9" x2="3537.3" y2="2137.3"/>
			<line class="st2" x1="4590.7" y1="1089.9" x2="3543.3" y2="2137.3"/>
			<line class="st2" x1="4596.7" y1="1089.9" x2="3549.3" y2="2137.3"/>
			<line class="st2" x1="4602.7" y1="1089.9" x2="3555.3" y2="2137.3"/>
			<line class="st2" x1="4608.7" y1="1089.9" x2="3561.3" y2="2137.3"/>
			<line class="st2" x1="4614.7" y1="1089.9" x2="3567.3" y2="2137.3"/>
			<line class="st2" x1="4620.7" y1="1089.9" x2="3573.3" y2="2137.3"/>
			<line class="st2" x1="4626.7" y1="1089.9" x2="3579.3" y2="2137.3"/>
			<line class="st2" x1="4632.7" y1="1089.9" x2="3585.3" y2="2137.3"/>
			<line class="st2" x1="4638.7" y1="1089.9" x2="3591.3" y2="2137.3"/>
			<line class="st2" x1="4644.7" y1="1089.9" x2="3597.3" y2="2137.3"/>
			<line class="st2" x1="4650.7" y1="1089.9" x2="3603.3" y2="2137.3"/>
			<line class="st2" x1="4656.7" y1="1089.9" x2="3609.3" y2="2137.3"/>
			<line class="st2" x1="4662.7" y1="1089.9" x2="3615.3" y2="2137.3"/>
			<line class="st2" x1="4668.7" y1="1089.9" x2="3621.3" y2="2137.3"/>
			<line class="st2" x1="4674.7" y1="1089.9" x2="3627.3" y2="2137.3"/>
			<line class="st2" x1="4680.7" y1="1089.9" x2="3633.3" y2="2137.3"/>
			<line class="st2" x1="4686.7" y1="1089.9" x2="3639.3" y2="2137.3"/>
			<line class="st2" x1="4692.7" y1="1089.9" x2="3645.3" y2="2137.3"/>
			<line class="st2" x1="4698.7" y1="1089.9" x2="3651.3" y2="2137.3"/>
			<line class="st2" x1="4704.7" y1="1089.9" x2="3657.3" y2="2137.3"/>
			<line class="st2" x1="4710.7" y1="1089.9" x2="3663.3" y2="2137.3"/>
			<line class="st2" x1="4716.6" y1="1089.9" x2="3669.2" y2="2137.3"/>
			<line class="st2" x1="4722.6" y1="1089.9" x2="3675.2" y2="2137.3"/>
			<line class="st2" x1="4728.6" y1="1089.9" x2="3681.2" y2="2137.3"/>
			<line class="st2" x1="4734.6" y1="1089.9" x2="3687.2" y2="2137.3"/>
			<line class="st2" x1="4740.6" y1="1089.9" x2="3693.2" y2="2137.3"/>
			<line class="st2" x1="4746.6" y1="1089.9" x2="3699.2" y2="2137.3"/>
			<line class="st2" x1="4752.6" y1="1089.9" x2="3705.2" y2="2137.3"/>
			<line class="st2" x1="4758.6" y1="1089.9" x2="3711.2" y2="2137.3"/>
			<line class="st2" x1="4764.6" y1="1089.9" x2="3717.2" y2="2137.3"/>
			<line class="st2" x1="4770.6" y1="1089.9" x2="3723.2" y2="2137.3"/>
			<line class="st2" x1="4776.6" y1="1089.9" x2="3729.2" y2="2137.3"/>
			<line class="st2" x1="4782.6" y1="1089.9" x2="3735.2" y2="2137.3"/>
			<line class="st2" x1="4788.6" y1="1089.9" x2="3741.2" y2="2137.3"/>
			<line class="st2" x1="4794.6" y1="1089.9" x2="3747.2" y2="2137.3"/>
			<line class="st2" x1="4800.6" y1="1089.9" x2="3753.2" y2="2137.3"/>
			<line class="st2" x1="4806.6" y1="1089.9" x2="3759.2" y2="2137.3"/>
			<line class="st2" x1="4812.6" y1="1089.9" x2="3765.2" y2="2137.3"/>
			<line class="st2" x1="4818.6" y1="1089.9" x2="3771.2" y2="2137.3"/>
			<line class="st2" x1="4824.6" y1="1089.9" x2="3777.2" y2="2137.3"/>
			<line class="st2" x1="4830.6" y1="1089.9" x2="3783.2" y2="2137.3"/>
			<line class="st2" x1="4836.6" y1="1089.9" x2="3789.2" y2="2137.3"/>
			<line class="st2" x1="4842.6" y1="1089.9" x2="3795.2" y2="2137.3"/>
			<line class="st2" x1="4848.6" y1="1089.9" x2="3801.2" y2="2137.3"/>
			<line class="st2" x1="4854.6" y1="1089.9" x2="3807.2" y2="2137.3"/>
			<line class="st2" x1="4860.6" y1="1089.9" x2="3813.1" y2="2137.3"/>
			<line class="st2" x1="4866.5" y1="1089.9" x2="3819.1" y2="2137.3"/>
			<line class="st2" x1="4872.5" y1="1089.9" x2="3825.1" y2="2137.3"/>
			<line class="st2" x1="4878.5" y1="1089.9" x2="3831.1" y2="2137.3"/>
			<line class="st2" x1="4884.5" y1="1089.9" x2="3837.1" y2="2137.3"/>
			<line class="st2" x1="4890.5" y1="1089.9" x2="3843.1" y2="2137.3"/>
			<line class="st2" x1="4896.5" y1="1089.9" x2="3849.1" y2="2137.3"/>
			<line class="st2" x1="4902.5" y1="1089.9" x2="3855.1" y2="2137.3"/>
			<line class="st2" x1="4908.5" y1="1089.9" x2="3861.1" y2="2137.3"/>
			<line class="st2" x1="4914.5" y1="1089.9" x2="3867.1" y2="2137.3"/>
			<line class="st2" x1="4920.5" y1="1089.9" x2="3873.1" y2="2137.3"/>
			<line class="st2" x1="4926.5" y1="1089.9" x2="3879.1" y2="2137.3"/>
			<line class="st2" x1="4932.5" y1="1089.9" x2="3885.1" y2="2137.3"/>
			<line class="st2" x1="4938.5" y1="1089.9" x2="3891.1" y2="2137.3"/>
			<line class="st2" x1="4944.5" y1="1089.9" x2="3897.1" y2="2137.3"/>
			<line class="st2" x1="4950.5" y1="1089.9" x2="3903.1" y2="2137.3"/>
			<line class="st2" x1="4956.5" y1="1089.9" x2="3909.1" y2="2137.3"/>
			<line class="st2" x1="4962.5" y1="1089.9" x2="3915.1" y2="2137.3"/>
			<line class="st2" x1="4968.5" y1="1089.9" x2="3921.1" y2="2137.3"/>
			<line class="st2" x1="4974.5" y1="1089.9" x2="3927.1" y2="2137.3"/>
			<line class="st2" x1="4980.5" y1="1089.9" x2="3933.1" y2="2137.3"/>
			<line class="st2" x1="4986.5" y1="1089.9" x2="3939.1" y2="2137.3"/>
			<line class="st2" x1="4992.5" y1="1089.9" x2="3945.1" y2="2137.3"/>
			<line class="st2" x1="4998.5" y1="1089.9" x2="3951.1" y2="2137.3"/>
			<line class="st2" x1="5004.5" y1="1089.9" x2="3957.1" y2="2137.3"/>
			<line class="st2" x1="5010.4" y1="1089.9" x2="3963" y2="2137.3"/>
			<line class="st2" x1="5016.4" y1="1089.9" x2="3969" y2="2137.3"/>
			<line class="st2" x1="5022.4" y1="1089.9" x2="3975" y2="2137.3"/>
			<line class="st2" x1="5028.4" y1="1089.9" x2="3981" y2="2137.3"/>
			<line class="st2" x1="5034.4" y1="1089.9" x2="3987" y2="2137.3"/>
			<line class="st2" x1="5040.4" y1="1089.9" x2="3993" y2="2137.3"/>
			<line class="st2" x1="5046.4" y1="1089.9" x2="3999" y2="2137.3"/>
			<line class="st2" x1="5052.4" y1="1089.9" x2="4005" y2="2137.3"/>
			<line class="st2" x1="5058.4" y1="1089.9" x2="4011" y2="2137.3"/>
			<line class="st2" x1="5064.4" y1="1089.9" x2="4017" y2="2137.3"/>
			<line class="st2" x1="5070.4" y1="1089.9" x2="4023" y2="2137.3"/>
			<line class="st2" x1="5076.4" y1="1089.9" x2="4029" y2="2137.3"/>
			<line class="st2" x1="5082.4" y1="1089.9" x2="4035" y2="2137.3"/>
			<line class="st2" x1="5088.4" y1="1089.9" x2="4041" y2="2137.3"/>
			<line class="st2" x1="5094.4" y1="1089.9" x2="4047" y2="2137.3"/>
			<line class="st2" x1="5100.4" y1="1089.9" x2="4053" y2="2137.3"/>
			<line class="st2" x1="5106.4" y1="1089.9" x2="4059" y2="2137.3"/>
			<line class="st2" x1="5112.4" y1="1089.9" x2="4065" y2="2137.3"/>
			<line class="st2" x1="5118.4" y1="1089.9" x2="4071" y2="2137.3"/>
			<line class="st2" x1="5124.4" y1="1089.9" x2="4077" y2="2137.3"/>
			<line class="st2" x1="5130.4" y1="1089.9" x2="4083" y2="2137.3"/>
			<line class="st2" x1="5136.4" y1="1089.9" x2="4089" y2="2137.3"/>
			<line class="st2" x1="5142.4" y1="1089.9" x2="4095" y2="2137.3"/>
			<line class="st2" x1="5148.4" y1="1089.9" x2="4101" y2="2137.3"/>
			<line class="st2" x1="5154.4" y1="1089.9" x2="4106.9" y2="2137.3"/>
			<line class="st2" x1="5160.3" y1="1089.9" x2="4112.9" y2="2137.3"/>
			<line class="st2" x1="5166.3" y1="1089.9" x2="4118.9" y2="2137.3"/>
			<line class="st2" x1="5172.3" y1="1089.9" x2="4124.9" y2="2137.3"/>
			<line class="st2" x1="5178.3" y1="1089.9" x2="4130.9" y2="2137.3"/>
			<line class="st2" x1="5184.3" y1="1089.9" x2="4136.9" y2="2137.3"/>
			<line class="st2" x1="5190.3" y1="1089.9" x2="4142.9" y2="2137.3"/>
			<line class="st2" x1="5196.3" y1="1089.9" x2="4148.9" y2="2137.3"/>
			<line class="st2" x1="5202.3" y1="1089.9" x2="4154.9" y2="2137.3"/>
			<line class="st2" x1="5208.3" y1="1089.9" x2="4160.9" y2="2137.3"/>
			<line class="st2" x1="5214.3" y1="1089.9" x2="4166.9" y2="2137.3"/>
			<line class="st2" x1="5220.3" y1="1089.9" x2="4172.9" y2="2137.3"/>
			<line class="st2" x1="5226.3" y1="1089.9" x2="4178.9" y2="2137.3"/>
			<line class="st2" x1="5232.3" y1="1089.9" x2="4184.9" y2="2137.3"/>
			<line class="st2" x1="5238.3" y1="1089.9" x2="4190.9" y2="2137.3"/>
			<line class="st2" x1="5244.3" y1="1089.9" x2="4196.9" y2="2137.3"/>
			<line class="st2" x1="5250.3" y1="1089.9" x2="4202.9" y2="2137.3"/>
			<line class="st2" x1="5256.3" y1="1089.9" x2="4208.9" y2="2137.3"/>
			<line class="st2" x1="5262.3" y1="1089.9" x2="4214.9" y2="2137.3"/>
			<line class="st2" x1="5268.3" y1="1089.9" x2="4220.9" y2="2137.3"/>
			<line class="st2" x1="5274.3" y1="1089.9" x2="4226.9" y2="2137.3"/>
			<line class="st2" x1="5280.3" y1="1089.9" x2="4232.9" y2="2137.3"/>
			<line class="st2" x1="5286.3" y1="1089.9" x2="4238.9" y2="2137.3"/>
			<line class="st2" x1="5292.3" y1="1089.9" x2="4244.9" y2="2137.3"/>
			<line class="st2" x1="5298.3" y1="1089.9" x2="4250.9" y2="2137.3"/>
			<line class="st2" x1="5304.2" y1="1089.9" x2="4256.8" y2="2137.3"/>
			<line class="st2" x1="5310.2" y1="1089.9" x2="4262.8" y2="2137.3"/>
			<line class="st2" x1="5316.2" y1="1089.9" x2="4268.8" y2="2137.3"/>
			<line class="st2" x1="5322.2" y1="1089.9" x2="4274.8" y2="2137.3"/>
			<line class="st2" x1="5328.2" y1="1089.9" x2="4280.8" y2="2137.3"/>
			<line class="st2" x1="5334.2" y1="1089.9" x2="4286.8" y2="2137.3"/>
			<line class="st2" x1="5340.2" y1="1089.9" x2="4292.8" y2="2137.3"/>
			<line class="st2" x1="5346.2" y1="1089.9" x2="4298.8" y2="2137.3"/>
			<line class="st2" x1="5352.2" y1="1089.9" x2="4304.8" y2="2137.3"/>
			<line class="st2" x1="5358.2" y1="1089.9" x2="4310.8" y2="2137.3"/>
			<line class="st2" x1="5364.2" y1="1089.9" x2="4316.8" y2="2137.3"/>
			<line class="st2" x1="5370.2" y1="1089.9" x2="4322.8" y2="2137.3"/>
			<line class="st2" x1="5376.2" y1="1089.9" x2="4328.8" y2="2137.3"/>
			<line class="st2" x1="5382.2" y1="1089.9" x2="4334.8" y2="2137.3"/>
			<line class="st2" x1="5388.2" y1="1089.9" x2="4340.8" y2="2137.3"/>
			<line class="st2" x1="5394.2" y1="1089.9" x2="4346.8" y2="2137.3"/>
			<line class="st2" x1="5400.2" y1="1089.9" x2="4352.8" y2="2137.3"/>
			<line class="st2" x1="5406.2" y1="1089.9" x2="4358.8" y2="2137.3"/>
			<line class="st2" x1="5412.2" y1="1089.9" x2="4364.8" y2="2137.3"/>
			<line class="st2" x1="5418.2" y1="1089.9" x2="4370.8" y2="2137.3"/>
			<line class="st2" x1="5424.2" y1="1089.9" x2="4376.8" y2="2137.3"/>
			<line class="st2" x1="5430.2" y1="1089.9" x2="4382.8" y2="2137.3"/>
			<line class="st2" x1="5436.2" y1="1089.9" x2="4388.8" y2="2137.3"/>
			<line class="st2" x1="5442.2" y1="1089.9" x2="4394.8" y2="2137.3"/>
			<line class="st2" x1="5448.2" y1="1089.9" x2="4400.8" y2="2137.3"/>
			<line class="st2" x1="5454.1" y1="1089.9" x2="4406.7" y2="2137.3"/>
			<line class="st2" x1="5460.1" y1="1089.9" x2="4412.7" y2="2137.3"/>
			<line class="st2" x1="5466.1" y1="1089.9" x2="4418.7" y2="2137.3"/>
			<line class="st2" x1="5472.1" y1="1089.9" x2="4424.7" y2="2137.3"/>
			<line class="st2" x1="5478.1" y1="1089.9" x2="4430.7" y2="2137.3"/>
			<line class="st2" x1="5484.1" y1="1089.9" x2="4436.7" y2="2137.3"/>
			<line class="st2" x1="5490.1" y1="1089.9" x2="4442.7" y2="2137.3"/>
			<line class="st2" x1="5496.1" y1="1089.9" x2="4448.7" y2="2137.3"/>
			<line class="st2" x1="5502.1" y1="1089.9" x2="4454.7" y2="2137.3"/>
			<line class="st2" x1="5508.1" y1="1089.9" x2="4460.7" y2="2137.3"/>
			<line class="st2" x1="5514.1" y1="1089.9" x2="4466.7" y2="2137.3"/>
			<line class="st2" x1="5520.1" y1="1089.9" x2="4472.7" y2="2137.3"/>
			<line class="st2" x1="5526.1" y1="1089.9" x2="4478.7" y2="2137.3"/>
			<line class="st2" x1="5532.1" y1="1089.9" x2="4484.7" y2="2137.3"/>
			<line class="st2" x1="5538.1" y1="1089.9" x2="4490.7" y2="2137.3"/>
			<line class="st2" x1="5544.1" y1="1089.9" x2="4496.7" y2="2137.3"/>
			<line class="st2" x1="5550.1" y1="1089.9" x2="4502.7" y2="2137.3"/>
			<line class="st2" x1="5556.1" y1="1089.9" x2="4508.7" y2="2137.3"/>
			<line class="st2" x1="5562.1" y1="1089.9" x2="4514.7" y2="2137.3"/>
			<line class="st2" x1="5568.1" y1="1089.9" x2="4520.7" y2="2137.3"/>
			<line class="st2" x1="5574.1" y1="1089.9" x2="4526.7" y2="2137.3"/>
			<line class="st2" x1="5580.1" y1="1089.9" x2="4532.7" y2="2137.3"/>
			<line class="st2" x1="5586.1" y1="1089.9" x2="4538.7" y2="2137.3"/>
			<line class="st2" x1="5592.1" y1="1089.9" x2="4544.7" y2="2137.3"/>
			<line class="st2" x1="5598.1" y1="1089.9" x2="4550.6" y2="2137.3"/>
			<line class="st2" x1="5604" y1="1089.9" x2="4556.6" y2="2137.3"/>
			<line class="st2" x1="5610" y1="1089.9" x2="4562.6" y2="2137.3"/>
			<line class="st2" x1="5616" y1="1089.9" x2="4568.6" y2="2137.3"/>
			<line class="st2" x1="5622" y1="1089.9" x2="4574.6" y2="2137.3"/>
			<line class="st2" x1="5628" y1="1089.9" x2="4580.6" y2="2137.3"/>
			<line class="st2" x1="5634" y1="1089.9" x2="4586.6" y2="2137.3"/>
			<line class="st2" x1="5640" y1="1089.9" x2="4592.6" y2="2137.3"/>
			<line class="st2" x1="5646" y1="1089.9" x2="4598.6" y2="2137.3"/>
			<line class="st2" x1="5652" y1="1089.9" x2="4604.6" y2="2137.3"/>
			<line class="st2" x1="5658" y1="1089.9" x2="4610.6" y2="2137.3"/>
			<line class="st2" x1="5664" y1="1089.9" x2="4616.6" y2="2137.3"/>
			<line class="st2" x1="5670" y1="1089.9" x2="4622.6" y2="2137.3"/>
		</g>
	</g>
	<path class="st5" d="M2805.3-639.1c-7.2-16.2-23.3-27.5-42.2-27.5c-9.4,0-18.1,2.8-25.4,7.7c-7.4-15.6-23.2-26.4-41.6-26.4
		c-13.2,0-25,5.6-33.4,14.4c-14.1-16.3-34.9-26.6-58.2-26.6c-24.4,0-46.1,11.3-60.2,29c-8.5-10.2-21.1-16.9-35.4-16.9
		c-0.5,0-1,0.1-1.5,0.2c-17.1-35-52.9-59.1-94.4-59.1c-43,0-79.9,25.8-96.2,62.7c-5.6-2.4-11.8-3.8-18.2-3.8
		c-22.1,0-40.5,15.5-45.1,36.2c-7.5-5.3-16.7-8.5-26.6-8.5c-15.1,0-28.3,7.3-36.8,18.5H2805.3z"/>
	<path class="st5" d="M4041.2-455.3c6.1-13.6,19.6-23.1,35.4-23.1c7.9,0,15.2,2.4,21.3,6.4c6.2-13.1,19.5-22.2,35-22.2
		c11.1,0,21,4.7,28.1,12.1c11.9-13.7,29.3-22.3,48.9-22.3c20.5,0,38.7,9.5,50.6,24.4c7.1-8.6,17.7-14.2,29.8-14.2
		c0.4,0,0.8,0.1,1.3,0.1c14.4-29.4,44.4-49.6,79.3-49.6c36.1,0,67.1,21.7,80.8,52.7c4.7-2,9.9-3.2,15.3-3.2c18.6,0,34,13,37.9,30.4
		c6.3-4.5,14-7.1,22.3-7.1c12.7,0,23.8,6.2,30.9,15.5H4041.2z"/>
	<g>
		<g>
			<path class="st6" d="M4088.4,866.4c-76.3-17.5-159-306.8-16.8-403.7c142.2-96.9,190.1-148.3,219.8-374s130.8-118.6,108,13.5
				c-22.8,132.1,129,115.7,160.7,178.7c54.9,109.2-66.5,126.7-136,188.8c-69.5,62.2,54.5,104.7,5.2,209.9
				C4380,784.9,4218.6,896.2,4088.4,866.4z"/>
			<g>
				<g>
					<path class="st7" d="M4080.6,863.7c0,0,1-1.8,2.8-5.3c1.7-3.5,4.2-8.7,7.4-15.2c6.2-13.2,15.1-32,25.8-54.6
						c10.8-22.6,23.3-48.9,36.7-77.1c6.8-14.1,13.8-28.6,20.9-43.4c7.2-14.8,14.4-29.8,21.8-44.7c3.7-7.5,7.4-14.9,11-22.4
						c3.7-7.4,7.4-14.8,11.1-22.2c7.3-14.7,14.6-29.1,21.7-43c7-14,14-27.3,20.6-40.1c1.6-3.2,3.3-6.3,4.9-9.4
						c1.6-3.1,3.2-6.1,4.8-9.1c3.1-6,6.2-11.7,9.1-17.2c5.8-11.1,11.4-21.1,16.2-30c2.4-4.5,4.7-8.6,6.8-12.5
						c2.2-3.8,4.2-7.3,6-10.5c7.2-12.7,11.3-19.9,11.3-19.9s-4.1,7.3-11.2,20c-1.8,3.2-3.7,6.7-5.9,10.5c-2.1,3.9-4.3,8.1-6.7,12.5
						c-2.4,4.5-5,9.2-7.7,14.3c-2.7,5-5.5,10.3-8.4,15.8c-2.9,5.5-5.9,11.3-9.1,17.3c-1.6,3-3.2,6-4.8,9.1c-1.6,3.1-3.2,6.2-4.8,9.4
						c-6.5,12.8-13.5,26.2-20.5,40.1c-7,14-14.3,28.4-21.5,43.1c-3.6,7.3-7.3,14.8-11,22.2c-3.7,7.5-7.3,14.9-11,22.4
						c-7.4,14.9-14.7,29.9-21.9,44.7c-7.2,14.8-14.2,29.3-21,43.3c-13.5,28.2-26.2,54.5-37,77c-10.8,22.6-19.9,41.3-26.2,54.4
						c-3.2,6.6-5.8,11.7-7.5,15.2C4081.6,861.8,4080.6,863.7,4080.6,863.7z"/>
				</g>
				<g>
					<path class="st7" d="M4159.4,699.7c0,0,11.6-3.6,29-9.1c8.7-2.7,18.9-5.8,29.7-9.2c10.9-3.3,22.5-6.9,34.1-10.4
						c11.6-3.5,23.3-7,34.2-10.2c10.9-3.2,21.1-6.2,29.9-8.8c17.5-5.1,29.2-8.5,29.2-8.5s-11.6,3.6-29,9.1
						c-8.7,2.7-18.9,5.8-29.7,9.2c-10.9,3.3-22.5,6.9-34.1,10.4c-11.6,3.5-23.3,7-34.2,10.2c-10.9,3.2-21.1,6.2-29.9,8.8
						C4171.1,696.3,4159.4,699.7,4159.4,699.7z"/>
				</g>
				<g>
					<path class="st7" d="M4235.1,545.9c0,0,0-2.3,0.1-6.2c0.1-4,0.1-9.6,0.2-16.4c0.1-6.8,0.3-14.7,0.4-23.2
						c0.2-8.5,0.4-17.5,0.6-26.6c0.3-9.1,0.5-18.1,0.8-26.6c0.3-8.5,0.6-16.4,0.8-23.2c0.3-6.8,0.5-12.4,0.6-16.4
						c0.2-4,0.3-6.2,0.3-6.2s0,2.3,0,6.2c-0.1,4-0.1,9.6-0.2,16.4c-0.1,6.8-0.3,14.7-0.4,23.2c-0.2,8.5-0.4,17.5-0.6,26.6
						c-0.3,9.1-0.5,18.1-0.8,26.6c-0.3,8.5-0.6,16.4-0.8,23.2c-0.3,6.8-0.5,12.4-0.6,16.4C4235.2,543.6,4235.1,545.9,4235.1,545.9z"
						/>
				</g>
			</g>
		</g>
		<g>
			<path class="st8" d="M4112.3,1011.5c0,0-42.8-108.7,30.3-178.4c73.1-69.7,105.5-159.2,63.8-241.5c-41.7-82.3-148.8-31-194.1-70.3
				c-45.3-39.3-25.8-123.5-62.9-214.6c-49.8-122-146.1-89.8-168.6-71c-22.5,18.8-62.5,76.4-10.2,187.1s13.7,149.5-27.9,236.4
				c-41.6,86.9,31.3,120.7,149.7,150c118.4,29.4,138.8,218.3,138.8,218.3L4112.3,1011.5"/>
			<g>
				<g>
					<path class="st7" d="M4082.2,1120.7c0,0,0.1-3.3,0.2-9.4c0-6.1,0-15-0.3-26.4c-0.1-5.7-0.4-12-0.6-18.8
						c-0.4-6.9-0.7-14.3-1.2-22.2c-0.9-15.8-2.5-33.7-4.4-53.1c-1.1-9.7-2.1-19.8-3.4-30.2c-0.7-5.2-1.3-10.5-2-15.9
						c-0.8-5.4-1.5-10.8-2.3-16.4c-0.7-5.5-1.7-11.1-2.6-16.8c-0.9-5.7-1.8-11.4-2.8-17.2c-1-5.8-2.1-11.6-3.1-17.5
						c-0.5-2.9-1-5.9-1.6-8.9c-0.6-3-1.2-5.9-1.8-8.9c-1.2-6-2.4-12-3.6-18.1c-1.3-6.1-2.7-12.1-4-18.3c-2.6-12.3-5.7-24.6-8.7-37.1
						l-1.1-4.7l-1.2-4.7c-0.8-3.1-1.6-6.2-2.5-9.3c-1.7-6.2-3.3-12.5-5-18.7c-1.8-6.2-3.6-12.5-5.4-18.7c-1.8-6.2-3.5-12.5-5.5-18.7
						c-1.9-6.2-3.9-12.4-5.8-18.6c-1-3.1-1.9-6.2-2.9-9.3s-2.1-6.1-3.1-9.2c-2.1-6.1-4.1-12.3-6.2-18.4l-1.5-4.6l-1.7-4.5
						c-1.1-3-2.2-6-3.3-9c-2.2-6-4.4-12-6.6-18c-2.2-5.9-4.6-11.8-6.9-17.6c-2.3-5.8-4.6-11.6-6.9-17.4c-2.4-5.7-4.8-11.4-7.2-17
						c-2.4-5.6-4.8-11.2-7.1-16.7c-1.1-2.8-2.4-5.5-3.7-8.2c-1.2-2.7-2.5-5.4-3.7-8c-4.9-10.6-9.6-21.2-14.7-31.1
						c-2.5-5-4.9-10-7.3-14.8c-1.2-2.4-2.4-4.8-3.6-7.2c-0.6-1.2-1.2-2.4-1.8-3.6c-0.6-1.2-1.2-2.3-1.9-3.5
						c-5-9.3-9.7-18.3-14.3-26.9c-2.2-4.3-4.7-8.5-7-12.5c-2.3-4.1-4.6-8-6.8-11.9c-2.2-3.9-4.4-7.6-6.4-11.3
						c-1.1-1.8-2-3.6-3.1-5.4c-1.1-1.7-2.1-3.5-3.2-5.1c-4.1-6.8-8-13.1-11.6-18.9c-1.8-2.9-3.5-5.7-5.2-8.4c-0.4-0.7-0.8-1.3-1.2-2
						c-0.4-0.6-0.8-1.3-1.3-1.9c-0.8-1.3-1.6-2.5-2.4-3.7c-12.6-19-19.7-29.9-19.7-29.9s7.3,10.8,19.9,29.7c0.8,1.2,1.6,2.4,2.4,3.6
						c0.4,0.6,0.8,1.3,1.3,1.9c0.4,0.7,0.8,1.3,1.2,2c1.7,2.7,3.4,5.5,5.2,8.4c3.6,5.8,7.6,12.1,11.8,18.8c1.1,1.7,2.1,3.4,3.2,5.1
						c1.1,1.7,2.1,3.6,3.2,5.4c2.1,3.6,4.3,7.4,6.5,11.2c2.2,3.9,4.5,7.8,6.9,11.8c2.3,4,4.8,8.2,7,12.5c4.6,8.6,9.4,17.6,14.4,26.8
						c0.6,1.2,1.2,2.3,1.9,3.5c0.6,1.2,1.2,2.4,1.8,3.6c1.2,2.4,2.4,4.8,3.6,7.2c2.4,4.9,4.9,9.8,7.4,14.8
						c5.1,9.9,9.8,20.5,14.7,31.1c1.2,2.7,2.5,5.3,3.7,8c1.2,2.7,2.5,5.4,3.7,8.2c2.4,5.5,4.8,11.1,7.2,16.7
						c2.4,5.6,4.9,11.2,7.2,17c2.3,5.8,4.6,11.6,6.9,17.4c2.3,5.8,4.7,11.7,6.9,17.6c2.2,6,4.4,12,6.6,18c1.1,3,2.2,6,3.3,9l1.7,4.5
						l1.6,4.6c2.1,6.1,4.2,12.2,6.2,18.4c1,3.1,2.1,6.1,3.1,9.2c1,3.1,2,6.2,2.9,9.3c1.9,6.2,3.9,12.4,5.8,18.6
						c2,6.2,3.7,12.5,5.5,18.7c1.8,6.3,3.6,12.5,5.3,18.7c1.6,6.3,3.3,12.5,4.9,18.8c0.8,3.1,1.6,6.2,2.4,9.4l1.2,4.7l1.1,4.7
						c2.9,12.5,6,24.8,8.6,37.1c1.3,6.1,2.6,12.2,3.9,18.3c1.2,6.1,2.4,12.1,3.5,18.1c0.6,3,1.2,6,1.7,8.9c0.6,3,1.1,5.9,1.6,8.9
						c1,5.9,2.1,11.8,3.1,17.5c1,5.8,1.8,11.5,2.7,17.2c0.9,5.7,1.8,11.3,2.5,16.8c0.8,5.5,1.5,11,2.3,16.4c0.8,5.4,1.3,10.7,2,15.9
						c1.3,10.4,2.3,20.6,3.4,30.3c1.9,19.4,3.3,37.3,4.1,53.1c0.5,7.9,0.7,15.3,1.1,22.2c0.2,6.9,0.4,13.2,0.5,18.9
						c0.2,11.4,0.2,20.3,0.1,26.4C4082.3,1117.4,4082.2,1120.7,4082.2,1120.7z"/>
				</g>
				<g>
					<path class="st7" d="M4032.1,767.2c0,0-2.1-3.6-6.3-9.4c-2.1-2.9-4.8-6.4-8-10.3c-3.2-3.9-7.1-8.1-11.3-12.5
						c-2.2-2.2-4.4-4.5-6.9-6.8c-1.2-1.1-2.4-2.3-3.7-3.5c-1.3-1.1-2.6-2.3-3.9-3.5c-5.4-4.6-11.2-9.3-17.5-13.7
						c-6.3-4.5-13.1-8.7-20.1-12.8c-1.8-1-3.6-1.9-5.4-2.9l-2.7-1.5l-2.8-1.3c-1.9-0.9-3.7-1.8-5.6-2.7c-1.9-0.9-3.8-1.6-5.7-2.4
						c-1.9-0.8-3.8-1.7-5.7-2.4c-1.9-0.7-3.9-1.4-5.8-2.2l-2.9-1.1c-1-0.4-1.9-0.6-2.9-1c-1.9-0.6-3.9-1.2-5.8-1.9
						c-1-0.3-1.9-0.6-2.9-0.9c-1-0.3-2-0.5-2.9-0.8c-1.9-0.5-3.9-1-5.8-1.5c-1.9-0.6-3.9-0.9-5.8-1.3c-1.9-0.4-3.8-0.8-5.7-1.2
						c-7.6-1.4-15-2.6-22.1-3.2c-1.8-0.2-3.5-0.4-5.2-0.5c-1.7-0.1-3.4-0.2-5.1-0.3c-1.7-0.1-3.3-0.2-4.9-0.3
						c-1.6-0.1-3.2-0.2-4.7-0.2c-3.1,0-6.1,0-8.9-0.1c-2.8-0.1-5.5,0.1-8,0.2c-5,0.2-9.4,0.3-13,0.7c-7.2,0.7-11.3,1-11.3,1
						s4.1-0.5,11.3-1.3c3.6-0.5,8-0.7,13-1c5-0.5,10.7-0.4,16.9-0.4c1.6,0,3.1,0,4.8,0.1c1.6,0.1,3.3,0.1,4.9,0.2
						c1.7,0.1,3.4,0.1,5.1,0.2c1.7,0.1,3.5,0.3,5.2,0.5c7.1,0.6,14.6,1.6,22.2,3c1.9,0.4,3.8,0.8,5.8,1.2c1.9,0.4,3.9,0.8,5.8,1.3
						c1.9,0.5,3.9,1,5.8,1.5c1,0.3,2,0.5,2.9,0.8c1,0.3,1.9,0.6,2.9,0.9c1.9,0.6,3.9,1.2,5.9,1.8c1,0.3,2,0.6,2.9,0.9l2.9,1.1
						c1.9,0.7,3.9,1.4,5.8,2.1c1.9,0.7,3.8,1.6,5.7,2.4c1.9,0.8,3.8,1.6,5.7,2.5c1.9,0.9,3.7,1.8,5.6,2.7l2.8,1.4l2.7,1.5
						c1.8,1,3.6,2,5.4,2.9c7.1,4.1,13.9,8.4,20.2,13c6.4,4.5,12.2,9.3,17.5,14c1.3,1.2,2.6,2.4,3.9,3.5c1.3,1.2,2.5,2.4,3.7,3.5
						c2.4,2.3,4.7,4.7,6.8,6.9c4.2,4.5,8,8.8,11.1,12.8c3.2,3.9,5.8,7.5,7.8,10.5C4030.1,763.6,4032.1,767.2,4032.1,767.2z"/>
				</g>
				<g>
					<path class="st7" d="M4050.2,834.8c0,0-0.8-4.2-1.8-11.6c-0.9-7.4-2-18-2.2-30.8c-0.1-6.4,0-13.3,0.3-20.6c0.4-7.3,1-15,2.1-23
						c2.2-15.8,6-32.6,11.9-48.6c3-8,6.5-15.8,10.5-23.2c4-7.4,8.5-14.4,13.3-20.8c4.8-6.4,10-12.2,15.2-17.3
						c5.3-5.1,10.6-9.6,15.7-13.4c1.3-0.9,2.5-1.9,3.8-2.8c1.3-0.9,2.5-1.7,3.7-2.5c1.2-0.8,2.4-1.5,3.6-2.3
						c1.2-0.7,2.3-1.5,3.4-2.1c4.5-2.6,8.5-4.7,11.9-6.3c1.7-0.8,3.2-1.5,4.5-2.1c1.3-0.6,2.5-1,3.4-1.4c1.8-0.8,2.8-1.2,2.8-1.2
						s-1,0.4-2.8,1.3c-0.9,0.4-2,0.9-3.3,1.5c-1.3,0.6-2.8,1.4-4.5,2.2c-3.3,1.7-7.3,3.8-11.7,6.5c-4.4,2.7-9.3,5.9-14.3,9.8
						c-5.1,3.9-10.3,8.4-15.5,13.5c-5.2,5.1-10.2,11-14.9,17.3c-4.7,6.4-9.2,13.3-13.1,20.7c-4,7.3-7.4,15.1-10.3,23.1
						c-6,15.9-9.8,32.5-12,48.3c-2.2,15.8-3,30.6-2.9,43.4c0,6.4,0.2,12.2,0.5,17.4c0.3,5.2,0.7,9.7,1.1,13.4
						C4049.5,830.7,4050.2,834.8,4050.2,834.8z"/>
				</g>
			</g>
		</g>
		<g>
			<path class="st9" d="M4368.6,955.3c135.6,44.6,138.8-109,55.8-194.7c-51.9-53.5,54.1-82.1,95.1-134.1
				c70.5-89.4-42.6-201.9-101.3-123.5c-58.7,78.3-95.1,102.4-137.8,109.2c-42.7,6.8-163.4,8.5-153,108.3
				c6.5,62.2-34.9,115.3-29.2,177.6C4223.6,843,4298,932.1,4368.6,955.3z"/>
			<g>
				<g>
					<path class="st7" d="M4098.3,898.1c0,0,1.2-1.2,3.4-3.4c2.2-2.2,5.5-5.4,9.7-9.4c4.2-4.1,9.4-9,15.2-14.6
						c5.9-5.6,12.6-11.9,20-18.7c7.4-6.8,15.3-14.2,23.9-21.9c4.3-3.9,8.6-7.8,13.1-11.9c4.5-4,9.1-8.1,13.8-12.2
						c9.3-8.3,19.2-16.8,29.1-25.4c4.9-4.3,10-8.6,15.1-12.9c5.1-4.3,10.2-8.6,15.3-12.9c5.2-4.2,10.3-8.5,15.5-12.7
						c5.2-4.2,10.2-8.5,15.4-12.6c5.1-4.1,10.3-8.2,15.3-12.2c5.1-4,10-8,15-11.8c5-3.8,9.9-7.6,14.7-11.2
						c4.8-3.6,9.4-7.3,14.1-10.6c9.3-6.8,18-13.2,26.2-19c8.3-5.7,15.8-10.9,22.5-15.5c1.7-1.2,3.3-2.3,4.9-3.3c1.6-1,3.1-2,4.6-3
						c3-1.9,5.7-3.7,8.1-5.2c9.8-6.3,15.5-9.9,15.5-9.9s-5.6,3.7-15.3,10.1c-2.4,1.6-5.1,3.4-8.1,5.3c-1.5,1-3,2-4.6,3
						c-1.6,1.1-3.2,2.2-4.8,3.4c-6.7,4.7-14.2,10-22.3,15.8c-8.1,5.9-16.8,12.4-26,19.2c-4.6,3.4-9.3,7.1-14,10.7
						c-4.8,3.7-9.6,7.4-14.6,11.3c-5,3.8-9.9,7.8-15,11.8c-5,4-10.1,8.1-15.3,12.2c-5.1,4.1-10.2,8.4-15.3,12.6
						c-5.1,4.2-10.3,8.5-15.4,12.7c-5.1,4.3-10.2,8.6-15.3,12.9c-5.1,4.3-10.2,8.5-15.1,12.9c-9.9,8.6-19.8,17-29.1,25.3
						c-4.7,4.1-9.3,8.2-13.8,12.2c-4.5,4-8.9,7.9-13.2,11.8c-8.6,7.6-16.6,15-24,21.7c-7.4,6.8-14.2,13-20.2,18.5
						c-6,5.5-11.2,10.3-15.4,14.4c-4.3,4-7.6,7.2-9.9,9.3C4099.5,896.9,4098.3,898.1,4098.3,898.1z"/>
				</g>
				<g>
					<path class="st7" d="M4237.5,772.1c0,0,0.2-2.1,0.6-5.9c0.4-3.7,0.9-9,1.7-15.4c0.7-6.4,1.5-13.8,2.5-21.8c1-8,2-16.5,3-25
						c1.1-8.5,2.2-17,3.2-24.9c1-8,2.1-15.4,3-21.7c0.9-6.4,1.7-11.6,2.2-15.4c0.6-3.7,0.9-5.8,0.9-5.8s-0.2,2.1-0.6,5.9
						c-0.4,3.7-0.9,9-1.7,15.4c-0.7,6.4-1.5,13.8-2.5,21.8c-1,8-2,16.5-3,25c-1.1,8.5-2.2,17-3.2,24.9c-1,8-2.1,15.4-3,21.7
						c-0.9,6.4-1.7,11.6-2.2,15.4C4237.9,770,4237.5,772.1,4237.5,772.1z"/>
				</g>
				<g>
					<path class="st7" d="M4200.4,804.2c0,0,3,0,8.3-0.1c5.3,0,12.8-0.1,21.8-0.2c9,0,19.6-0.1,30.8-0.1c11.3,0,23.3,0,35.3,0
						c12,0.1,24.1,0.2,35.3,0.2c11.3,0.1,21.8,0.3,30.8,0.3c9,0.1,16.5,0.3,21.8,0.4c5.3,0.1,8.3,0.2,8.3,0.2s-3,0-8.3,0.1
						c-5.3,0-12.8,0.1-21.8,0.2c-9,0-19.6,0.1-30.8,0.1c-11.3,0-23.3,0-35.3,0c-12-0.1-24.1-0.2-35.3-0.2
						c-11.3-0.1-21.8-0.3-30.8-0.3c-9-0.1-16.5-0.3-21.8-0.4C4203.4,804.3,4200.4,804.2,4200.4,804.2z"/>
				</g>
			</g>
		</g>
	</g>
	<g>
		<polygon class="st10" points="4255.9,1143 4046.9,1143 3998.3,934.1 4304.6,934.1 		"/>
		<rect x="3965.5" y="880.9" class="st11" width="371.7" height="84.1"/>
	</g>
	<g class="st12">
		<path class="st7" d="M2208.1,906.8c14.9-36.9,50.6-48,68.2-81.3c31.3-59.6-21.4-74.9-27.6-114.5c-8.3-52.7,28.7-48,47.8-80.1
			c22.5-37.7-15.6-82.4,7.8-118.2c58-89.1,152.3,8.8,213.7,29.4c37.7,12.6,94,17.9,123.6-6c39.1-31.6,78.1-104.9,36.7-147.2
			c-58.4-59.6-37-90.1,26.2-105.2c27.9-6.7,40.7-28,9.7-52.3c47.1,68.1-110.1,6.1-138.1,52.3c-19.4,32.1,4.5,51.1,11.3,75.7
			c17.3,63.1-26.1,117.5-116.6,54.2c-52-36.4-47.6-101.1-102.8-117.6c-51.6-15.4-111.5,30.8-130.5,92.8
			c-18.8,61.3-41,92.8-107.2,85.8c-78.5-8.3-139.1,40.4-104,110.7c31.1,62.3,117.4,26.9,161.2,62.6c48.6,39.7,33.4,94.3-29.4,145.5
			c-19.5,15.9-49.5,39.7-41.8,66.8c5,17.6,36.4,45.5,56.6,46.2L2208.1,906.8z"/>
	</g>
	<path class="st13" d="M2324.4,931.4h-16.8v-22.7c0-9.7-7.8-17.5-17.5-17.5h-198.8c-9.7,0-17.5,7.8-17.5,17.5v139
		c0,52.6,42.7,95.3,95.3,95.3h43.2c41.8,0,77.2-27,90.1-64.4h22c16.8,0,30.4-13.6,30.4-30.4v-86.3
		C2354.9,945,2341.2,931.4,2324.4,931.4z M2335.4,1048.2c0,6.1-4.9,11-11,11h-17.5c0.4-3.8,0.8-7.6,0.8-11.4v-96.9h16.8
		c6.1,0,11,4.9,11,11V1048.2z"/>
	<path class="st14" d="M2282.1,940.5c0-17.3-3.6-33.9-10.1-49.4h-180.7c-9.7,0-17.5,7.8-17.5,17.5v139c0,16.8,4.4,32.6,12.1,46.3
		c2.7,0.1,5.4,0.3,8.2,0.3C2197.9,1094.4,2282.1,1025.5,2282.1,940.5z"/>
	<path class="st10" d="M4410.5,1352.5H1892.8c-26.9,0-48.8-21.8-48.8-48.8l0,0c0-26.9,21.8-48.8,48.8-48.8h2517.6
		c26.9,0,48.8,21.8,48.8,48.8l0,0C4459.2,1330.7,4437.4,1352.5,4410.5,1352.5z"/>
	<path class="st15" d="M4472.1,1280.6h-2641c-38,0-68.8-30.8-68.8-68.8l0,0c0-38,30.8-68.8,68.8-68.8h2641c38,0,68.8,30.8,68.8,68.8
		l0,0C4540.9,1249.8,4510.1,1280.6,4472.1,1280.6z"/>
	<circle class="st16" cx="4044.8" cy="-166.7" r="178.7"/>
	<circle class="st7" cx="4044.8" cy="-166.7" r="139.3"/>
	<g>
		<line class="st17" x1="4044.8" y1="-166.7" x2="4044.8" y2="-250.4"/>
		<line class="st17" x1="4044.8" y1="-166.7" x2="4096" y2="-115.5"/>
	</g>
	<g>
		<g>
			<g>
				<line class="st18" x1="4044.8" y1="-43.1" x2="4044.8" y2="-59.7"/>
				<line class="st18" x1="4106.5" y1="-59.7" x2="4098.3" y2="-74"/>
				<line class="st18" x1="4151.8" y1="-104.9" x2="4137.4" y2="-113.2"/>
				<line class="st18" x1="4168.4" y1="-166.7" x2="4151.8" y2="-166.7"/>
				<line class="st18" x1="4151.8" y1="-228.4" x2="4137.5" y2="-220.2"/>
				<line class="st18" x1="4106.5" y1="-273.7" x2="4098.3" y2="-259.4"/>
				<line class="st18" x1="4044.8" y1="-273.7" x2="4044.8" y2="-290.3"/>
				<line class="st18" x1="3991.3" y1="-259.3" x2="3983" y2="-273.7"/>
				<line class="st18" x1="3952.1" y1="-220.2" x2="3937.8" y2="-228.4"/>
				<line class="st18" x1="3937.8" y1="-166.7" x2="3921.3" y2="-166.7"/>
				<line class="st18" x1="3952.1" y1="-113.2" x2="3937.8" y2="-104.9"/>
				<line class="st18" x1="3991.3" y1="-74" x2="3983" y2="-59.7"/>
			</g>
		</g>
	</g>
	<circle class="st16" cx="4044.8" cy="-166.7" r="8.1"/>
	<path class="st14" d="M2750.4-358.9c-76-76-199.7-75.2-274.7,2.5c-68.8,71.3-71.8,185.5-6.6,260.1c63.4,72.4,166.7,85.2,244.3,38.5
		c6.9-4.1,15.2-5,22.8-2.8l48.7,14.5c3.7,1.1,7.2-2.3,6.1-6.1l-14.5-48.7c-2.3-7.7-1.3-16,2.8-22.9
		C2823.8-197.7,2814.2-295.1,2750.4-358.9z"/>
	<g>
		<line class="st19" x1="2505.4" y1="-307" x2="2723.5" y2="-307"/>
		<line class="st19" x1="2671.2" y1="-250.8" x2="2723.5" y2="-250.8"/>
		<line class="st19" x1="2505.4" y1="-250.8" x2="2619.2" y2="-250.8"/>
		<line class="st19" x1="2605.1" y1="-194.7" x2="2723.5" y2="-194.7"/>
		<line class="st19" x1="2505.4" y1="-194.7" x2="2562.3" y2="-194.7"/>
		<line class="st19" x1="2671.2" y1="-138.6" x2="2723.5" y2="-138.6"/>
		<line class="st19" x1="2505.4" y1="-138.6" x2="2616.7" y2="-138.6"/>
	</g>
	<g>
		<path class="st20" d="M3153.1-267.6c0,0-19.5-86,63.2-159.7c82.7-73.8,210.5-67.1,280.6-28.6c90.8,49.9,180,181.8,98.5,370.4
			c-81.5,188.5,291.9,110.7,166.6,366.1c-125.3,255.4-341.8,79.1-419.6,184.9c-77.8,105.8-347.3-171.6-117.1-365.6
			C3455.5-94,3170.5-93.2,3153.1-267.6z"/>
		<path class="st13" d="M3132,295.2c-94.5,40.3-172.7,279.7-180,790.6h203.6C3155.6,1085.8,3279.3,232.4,3132,295.2z"/>
		<path class="st14" d="M3384.7,219.1c111.7-11,293.7,7.5,359.2,79.8c14.4,15.9,14.5,45.8,6.8,87.1
			c-27.3,146-152.2,434.8-85.8,757.1h-581.4c0,0,55.1-251.8,24.3-331.3c-35.2-90.9-65.7-173-31-248.9c79-172.8,8.2-244.3,58.3-269.3
			C3203.8,259.2,3290.2,228.4,3384.7,219.1z"/>
		<path class="st13" d="M3624.6,646.7c-24.3,141.1-187.7,158.5-269.6,131c0,0,119.2,72.2,205.2,31.6c0,0,21.9,68.9-10.8,285.7h106.9
			c0,0,0-0.4-0.1-1.1c-16.9-113.4-11.6-221.8,3.1-320.4c2.8-25,6.5-47.6,11.4-66c0.1-0.2,0.1-0.4,0.2-0.6
			c13.5-69.1,30.5-132.3,45.7-187.4c6.5-37.4,9-70.1,9-111.2C3725.6,408.3,3648.9,505.6,3624.6,646.7z"/>
		<path class="st21" d="M3630.7,949.6c0,0-101.6,124.7-150.7,91c-65-44.7-118.6-43.9-161.5-18.3c-44.6,26.6-61.6,72.7-61.6,72.7
			h348.6l101.5-87.8L3630.7,949.6z"/>
		<path class="st14" d="M3747.6,304c0,0,89.6,234.1,166.5,425.4c62,154.5-312,365-312,365l-61.8-82.8l215.4-238.8L3623.9,495
			c0,0-76.4-151.5,39.6-205.3C3728,259.8,3747.6,304,3747.6,304z"/>
		<path class="st21" d="M3461.1-8.9c0,0-14.1,177.5,28.5,223.8c54.7,59.6-41.4,188.1-185.7,285.4c0,0-80.7-89.6-17.4-235.6
			c63.2-146,1.9-228.4,1.9-228.4L3461.1-8.9z"/>
		<path class="st22" d="M3489.6-85.5c0,121.6-85.7,220-158,220s-162.8-80.9-175-230.5c-9.9-121.2,55.4-209.7,154.2-209.7
			C3409.5-305.7,3489.6-207.1,3489.6-85.5z"/>
		<path class="st20" d="M3188-334.2c-10.2,5.9-32.2,20.1-57.9,37.2c-28,18.6-57.8,50.8-68,86.1c-17.6,60.6,27,137.3,115.6,110.2
			c88.7-27.1,131-169.3,203-87.1c89.4,102.2,121.8,45.2,121.8,45.2s-17.9-127.2-108.5-184.5C3345.5-357.6,3272.4-382.8,3188-334.2z"
			/>
		<g>
			<ellipse class="st14" cx="3496.9" cy="-129.3" rx="52.4" ry="71.8"/>
			<path class="st14" d="M3332.1-368.7c-80.6-15.5-158.2,14.9-202,71.8c48.3-33,111.5-47.3,176.3-34.8
				c107,20.6,182.8,107.5,185.3,204c2-6.3,3.7-12.7,4.9-19.3C3516.2-248.2,3442.5-347.4,3332.1-368.7z"/>
			<g>
				<path class="st23" d="M3485.5-105.9c0,0,14.6,162.3-134.6,177.7"/>
				<path class="st14" d="M3341.2,88.1h-23.5c-7.6,0-13.8-6.2-13.8-13.8l0,0c0-7.6,6.2-13.8,13.8-13.8h23.5
					c7.6,0,13.8,6.2,13.8,13.8l0,0C3355,81.9,3348.8,88.1,3341.2,88.1z"/>
			</g>
		</g>
	</g>
	<g>
		<g>
			<path class="st10" d="M3689.8,1143H2843c-11.8,0-21.4-9.6-21.4-21.4v-5.8c0-11.8,9.6-21.4,21.4-21.4h846.8
				c11.8,0,21.4,9.6,21.4,21.4v5.8C3711.2,1133.4,3701.6,1143,3689.8,1143z"/>
		</g>
		<path class="st15" d="M3298.3,1143h-782.1c-21.3,0-40.2-13.3-47.5-33.3l-182.4-501c-12-33,12.4-67.8,47.5-67.8H3116
			c21.3,0,40.2,13.3,47.5,33.3l182.4,501C3357.8,1108.1,3333.4,1143,3298.3,1143z"/>
		<path class="st11" d="M2315.8,544.2c2.9,296.1,399.5,535.6,888.4,535.6c47.9,0,94.9-2.3,140.8-6.8l-181.6-498.9
			c-7.3-20-26.3-33.3-47.5-33.3h-782.1C2327.5,540.9,2321.4,542.1,2315.8,544.2z"/>
		<circle class="st24" cx="2804.4" cy="832" r="59.2"/>
	</g>
	<path class="st14" d="M3711.9-737.9c55.1-55.1,144.9-54.5,199.2,1.8c49.9,51.7,52.1,134.6,4.8,188.7
		c-46,52.5-120.9,61.8-177.2,27.9c-5-3-11-3.7-16.6-2l-35.3,10.5c-2.7,0.8-5.2-1.7-4.4-4.4l10.5-35.3c1.7-5.6,1-11.6-2-16.6
		C3658.7-620.9,3665.6-691.6,3711.9-737.9z"/>
	<g>
		<circle class="st7" cx="3733.1" cy="-639.1" r="22.5"/>
		<circle class="st7" cx="3810.5" cy="-639.1" r="22.5"/>
		<circle class="st7" cx="3888" cy="-639.1" r="22.5"/>
	</g>
	<line class="st25" x1="4302.9" y1="-742" x2="4322.8" y2="-722.1"/>
	<line class="st25" x1="4322.8" y1="-742" x2="4302.9" y2="-722.1"/>
	<line class="st26" x1="1816.3" y1="321.1" x2="1856.2" y2="361"/>
	<line class="st26" x1="1856.2" y1="321.1" x2="1816.3" y2="361"/>
	<line class="st27" x1="2916.1" y1="88.1" x2="2944" y2="115.9"/>
	<line class="st27" x1="2944" y1="88.1" x2="2916.1" y2="115.9"/>
	<line class="st27" x1="4490.4" y1="1064.7" x2="4518.3" y2="1092.5"/>
	<line class="st27" x1="4518.3" y1="1064.7" x2="4490.4" y2="1092.5"/>
	<circle class="st27" cx="3383.7" cy="-639.1" r="17.1"/>
	<circle class="st27" cx="2431.5" cy="60.5" r="17.1"/>
	<circle class="st27" cx="4504.3" cy="-155.7" r="17.1"/>
	<circle class="st27" cx="1865.5" cy="804.4" r="40.5"/>
	<circle class="st27" cx="4096" cy="292.9" r="40.5"/>
</g>
</svg>
