<?xml version="1.0" encoding="utf-8"?>
<!-- Generator: Adobe Illustrator 19.0.0, SVG Export Plug-In . SVG Version: 6.00 Build 0)  -->
<svg version="1.1" id="Illustration" xmlns="http://www.w3.org/2000/svg" xmlns:xlink="http://www.w3.org/1999/xlink" x="0px"
	 y="0px" viewBox="1355 -1355 3710 3710" style="enable-background:new 1355 -1355 3710 3710;" xml:space="preserve">
<style type="text/css">
	.st0{fill:#DEFFFE;}
	.st1{fill:#BCE8E4;}
	.st2{fill:#BDE3E5;}
	.st3{opacity:0.5;fill:#FFFFFF;enable-background:new    ;}
	.st4{fill:#02559C;}
	.st5{fill:#BEEAE6;}
	.st6{opacity:0.5;fill:#DEFFFE;enable-background:new    ;}
	.st7{fill:#FFFFFF;}
	.st8{fill:#FA9746;}
	.st9{fill:#91B3FA;}
	.st10{opacity:0.78;fill:#FFFFFF;enable-background:new    ;}
	.st11{fill:url(#SVGID_1_);}
	.st12{fill:url(#SVGID_2_);}
	.st13{fill:url(#SVGID_3_);}
	.st14{fill:#627B84;}
	.st15{fill:url(#SVGID_4_);}
	.st16{fill:url(#SVGID_5_);}
	.st17{fill:url(#SVGID_6_);}
	.st18{fill:url(#SVGID_7_);}
	.st19{fill:url(#SVGID_8_);}
	.st20{fill:url(#SVGID_9_);}
	.st21{fill:url(#SVGID_10_);}
	.st22{fill:url(#SVGID_11_);}
	.st23{fill:#AACCCC;}
	.st24{fill:url(#SVGID_12_);}
	.st25{fill:url(#SVGID_13_);}
	.st26{opacity:0.7;fill:#FFFFFF;enable-background:new    ;}
	.st27{fill:#02569C;}
	.st28{fill:#2FC4C9;}
	.st29{fill:#637C84;}
</style>
<g>
	<path class="st0" d="M4258,1485c-56.8,59.8-110.6,98.4-153.1,128.9c-499.5,358.4-1090.6,253.9-1216.2,228.4
		c-185.5-37.7-544.1-110.5-803.3-415.4C1693.2,965.7,1754.3,239,2058.5-240.6c55.6-87.7,333-528.9,930.5-607
		c361.6-47.3,852.4-9.9,1157.6,245.8C4787.2-65,4688.8,1031.5,4258,1485z"/>
	<path class="st1" d="M4328.6,419.6c44.4-34.2,196.6,55.6,274.8-34l-14.7-119c0,0-126.7,80-192.5,71.4c-65.9-8.7-45.8-46.7-7.3-59.3
		c38.5-12.6,154.9-2.5,183-43.8c0,0,22-32.9-25.5-52.6s-59.3-109-45.5-145.9c0,0-20.1,11.4-77.7,15.6c-57.6,4.3-115.8,4.5-116,56.6
		s25.8,117.9-3.1,131.8c-29,13.8-101.4-96.1-34.5-175.4c0,0-92.1-0.2-112.6,20c-20.5,20.1-23.7,76.8,27.2,137
		c50.9,60.2,56.2,103,34.5,113.4c-21.7,10.4-143.2-186.3-84.3-247.6c0,0-157.9,67.1-171.1,84.5c-13.2,17.3,33.6,106.4,82.3,148.8
		s56.7,106.6,44,128s-37.8-57.3-66.7-84.4s-91.1-177.9-91.1-177.9s-2.3,22.9-52.2,53.5s-114.2,110.2-90.3,137.9
		c23.9,27.7,162.6,136.4,191.5,183.7c28.9,47.3,42,91.4,12.3,78.6s-67.9-73.3-108.1-108.6c-40.2-35.3-154.7-113.2-148.9-149.7
		c0,0-108.7,113.6-51,249.4c0,0,66.6,42.4,140.9,43.6c74.3,1.2,105.5,5,113.6,29.6c8.2,24.6-43.2,23.2-89.4,21.3
		c-46.3-1.9-154-4.3-175.3-32.2c0,0,98.8,199.4,244.4,156.2c136.5-40.5,144.9-61.4,145.5-63.9c-1.3,9.2-38.2,288.4,270.4,221.3
		c0,0-74.7-4.4-93.2-50.9c-18.5-46.6-91.3-97.4-60.2-114.8c31.1-17.4,98.1,151.8,174.5,149.5s156.1-87.7,144.1-171.2
		c0,0-61.3,34.1-129.7-1.7c-68.4-35.8-150.8-102.5-90.5-111.2c60.3-8.6,219.9,116.4,268.5,99.4c48.6-17,61.1-197.6,61.1-197.6
		s-24.7,10.7-115.6,14.3c-90.9,3.6-195-11.1-179.6-31.2c15.4-20.1,82.7-5.7,143.3,4.8c60.6,10.6,138.2-8.7,145.4-40.5
		c7.2-31.9,5-134.2,5-134.2s-115.4,27.7-166.4,45.3C4390.5,485.5,4284.2,453.8,4328.6,419.6z M4162.3,728.4
		c-71.3-19.4-15.9-48.1,25.8-59.4C4219.7,660.5,4233.7,747.8,4162.3,728.4z M4226,603.3c-47.5-11.7-54.5-36.1-29.4-46.3
		C4254.5,533.4,4273.5,615,4226,603.3z M4277.8,463.3c-26.2-4.7-34.9-13.3-14.6-35.7S4303.9,468,4277.8,463.3z"/>
	<path class="st2" d="M3257.6,987.2c0,0-380.4-1187.4-1025.3-1801.3c-43.4-41.3-115.2-18.5-126.5,40.3
		C2030.3-380.8,1918.6,802.3,3257.6,987.2z"/>
	<path class="st3" d="M3131,918.5c3.2,2.7-0.4,7.5-3.9,5.3c-129.2-81.4-636.2-491.2-879.5-1367.3c-0.8-2.8,3.3-4.2,4.4-1.5
		C2327.2-243.3,2628.7,498.3,3131,918.5z"/>
	<path class="st1" d="M3058.6,1315.9c0,0-520.9-838.5-1134.5-1185.6c-41.2-23.3-92,8-89.3,55.3
		C1852.5,501.9,1994.8,1432,3058.6,1315.9z"/>
	<path class="st3" d="M2948.1,1287.6c3,1.4,1.2,5.9-2,4.8c-114.9-37.6-583.2-254.6-938.9-880.5c-1.1-2,1.7-3.9,3.1-2
		C2107,550.3,2481.4,1061.7,2948.1,1287.6z"/>
	<path class="st4" d="M2665.5-852.2l1491.2,16.4c82.4,0.9,147.1,72,147,161.4l-1.3,2210.5c0,61.8-50.1,113.1-110.5,113.4
		l-1598.7,7.1c-56.4,0.2-102.7-46.9-102.7-104.9V-663.7C2490.5-768.6,2568.9-853.3,2665.5-852.2z"/>
	<path class="st5" d="M4085.2-733.4H2729.1c-56.9,0-96.6,44.4-96.6,99.7V1340c0,55.4,39.8,98,96.6,98h1356.1
		c56.9,0,102.1-42.6,102.1-98V-633.7C4187.3-689.1,4142.1-733.4,4085.2-733.4z"/>
	<path class="st6" d="M4033.7-649.7H2787c-52.3,0-94.2,41.8-94.2,92.2v1795c0,50.4,41.9,89.8,94.2,89.8h1246.7
		c52.3,0,96.6-39.5,96.6-89.8v-1795C4130.3-607.9,4086-649.7,4033.7-649.7z"/>
	<path class="st7" d="M3202.1-362.8c0,8.1-6.6,14.7-14.7,14.7h-470c-8.1,0-14.7-6.6-14.7-14.7v-0.8c0-8.1,6.6-14.7,14.7-14.7h470
		c8.1,0,14.7,6.6,14.7,14.7V-362.8z"/>
	<path class="st7" d="M3202.1-279c0,8.1-6.6,14.7-14.7,14.7h-470c-8.1,0-14.7-6.6-14.7-14.7v-0.8c0-8.1,6.6-14.7,14.7-14.7h470
		c8.1,0,14.7,6.6,14.7,14.7V-279z"/>
	<path class="st7" d="M3202.1-201.9c0,8.1-6.6,14.7-14.7,14.7h-470c-8.1,0-14.7-6.6-14.7-14.7v-0.8c0-8.1,6.6-14.7,14.7-14.7h470
		c8.1,0,14.7,6.6,14.7,14.7V-201.9z"/>
	<path class="st7" d="M3629,61.1h-133.2c-12.6,0-23,10.3-23,23v82.8c2.7-0.6,5.5-1.3,8.2-2.1c19.9-6.1,37.2-16.9,51.6-30.9
		c0.4-17.4,14.6-31.4,32.1-31.4c17.8,0,32.2,14.4,32.2,32.2c0,17.8-14.4,32.2-32.2,32.2c-5.4,0-10.4-1.3-14.9-3.7
		c-16.6,15.4-36.4,27.3-58.9,34.1c-6,1.8-12.1,3.3-18.1,4.3V502c0,12.6,10.3,23,23,23H3629c12.6,0,23-10.3,23-23V84
		C3651.9,71.4,3641.6,61.1,3629,61.1z"/>
	<path class="st7" d="M3433.7,157.5c-58.3,0-108.9-33.7-133.5-82.6c-5.8,7-14.6,11.5-24.5,11.5c-0.2,0-0.4,0-0.6,0
		c28.9,58.4,89.1,98.7,158.6,98.7c79.1,0,146.3-52.2,168.8-124h-29.2C3552,117.4,3497.5,157.5,3433.7,157.5z"/>
	<path class="st7" d="M3313.6-34.9c-6.9,16.1-10.8,33.8-10.8,52.3c0,7.1,0.7,14.1,1.8,20.9c2,4.3,3.1,9.1,3.1,14.1
		c0,0.1,0,0.2,0,0.3c0,0.1,0,0.2,0.1,0.3c0,0.1-0.1,0.1-0.1,0.2c-0.4,18.4-15.5,33.2-34,33.2c-18.8,0-34-15.2-34-34s15.2-34,34-34
		c0.6,0,1.1,0.1,1.6,0.1c0-0.4,0-0.7,0-1.1c0-20.1,3.8-39.3,10.5-57c-3.5-0.2-7-0.4-10.5-0.4c-81.2,0-147,65.8-147,147
		c0,61.7,38,114.4,91.9,136.3v263.3l50.5,64.3l55.1-64.3v-58.2l-32.2-38.3l32.2-29.2v-18.3l-18.4-26l18.4-23V245
		c56.3-20.6,96.5-74.6,96.5-138.1C3422.3,39.1,3376.2-18.1,3313.6-34.9z"/>
	<path class="st7" d="M3433.7-168.6c-97.5,0-176.8,79.3-176.8,176.8c0,21.5,3.9,42,11,61.1c0.5,0,1,0.1,1.6,0.1
		c9.4,0,18-3.9,24.1-10.1c-5.8-16-9.1-33.1-9.1-51.1c0-82.3,67-149.3,149.3-149.3s149.3,67,149.3,149.3c0,8.6-0.8,17-2.2,25.3h27.9
		c1.2-8.3,1.8-16.7,1.8-25.3C3610.6-89.3,3531.3-168.6,3433.7-168.6z"/>
	<path class="st8" d="M4130.1-613.2c0-21.5-17.5-39-39-39H2733.7c-21.5,0-39,17.5-39,39v134.4c0,21.5,17.5,39,39,39h1357.5
		c21.5,0,39-17.5,39-39v-134.4H4130.1z"/>
	<path class="st7" d="M2824.2-597.6c-17.3-15.7-44.3-14.1-59.9,3.3c-15.7,17.3-14.5,44.3,2.8,60c15.3,13.8,38.7,13.4,53.4,2.7
		l11.7,10.5c0.1,3.1,1,6.9,3.7,9.3l38.9,35.1c4.9,4.4,12.3,2.9,16.8-2.1l0.3-0.3c4.4-4.9,4.3-11.4-0.6-15.9l-38.9-35.1
		c-2.7-2.4-6.5-2.9-8.2-4.4l-11.7-10.5C2841.7-560.7,2839.5-583.8,2824.2-597.6z M2775-540.2c-13.4-12.1-14.4-32.7-2.3-46
		c12.1-13.4,32.7-14.4,46-2.3c13.4,12.1,14.4,32.7,2.3,46C2809-529.2,2788.4-528.1,2775-540.2z"/>
	<path class="st7" d="M2782.6-550.7c-0.1,0.1-0.2,0.2-0.3,0.3c-1.4,1.2-3.5,1-4.7-0.4c-7.8-9.2-7.6-22.9,0.5-31.9
		c1.2-1.4,3.4-1.5,4.7-0.2c1.4,1.2,1.5,3.4,0.2,4.7c-5.9,6.5-6,16.4-0.4,23.1C2783.8-553.8,2783.7-551.9,2782.6-550.7z"/>
	<path class="st7" d="M4090.1-509.9c0,13.5-10.9,24.4-24.4,24.4H2978.6c-13.5,0-24.4-10.9-24.4-24.4v-75.2
		c0-13.5,10.9-24.4,24.4-24.4h1087.2c13.5,0,24.4,10.9,24.4,24.4L4090.1-509.9L4090.1-509.9z"/>
	<path class="st9" d="M2999.9-511.3c0,2.8-2.3,5.1-5.1,5.1h-0.8c-2.8,0-5.1-2.3-5.1-5.1v-69.4c0-2.8,2.3-5.1,5.1-5.1h0.8
		c2.8,0,5.1,2.3,5.1,5.1V-511.3z"/>
	<circle class="st8" cx="2605.9" cy="-525.8" r="352.9"/>
	<circle class="st8" cx="2605.9" cy="-525.8" r="341.2"/>
	<path class="st10" d="M2324.5-656.6c-1.7,0-3.3-0.4-4.9-1.2c-5.4-2.7-7.5-9.3-4.8-14.7c55.8-110.5,167.3-179.2,291.1-179.2
		c19.7,0,39.5,1.8,58.8,5.3c5.9,1.1,9.9,6.8,8.8,12.7c-1.1,5.9-6.8,9.9-12.7,8.8c-18-3.3-36.4-4.9-54.9-4.9
		c-115.5,0-219.5,64.1-271.6,167.2C2332.4-658.8,2328.5-656.6,2324.5-656.6z"/>
	<circle class="st10" cx="2613.3" cy="-518.3" r="288.8"/>
	<path class="st8" d="M2585-303.7v-31.4c-32.7-1.3-65.1-9-88.1-19.1c-8.2-3.6-12.4-12.8-10-21.5l8-29.3c2.9-10.7,14.6-16.3,24.9-12
		c22.8,9.6,51,17.1,81.4,17.1c31.5,0,55.1-10.7,55.1-32.6c0-19.8-18.2-31.5-62-43.3c-62.6-17.1-107.5-44.4-107.5-99.4
		c0-49.7,36.4-87.7,99.4-97.8v-31.4c0-10.1,8.2-18.3,18.3-18.3h18.5c10.1,0,18.3,8.2,18.3,18.3v28.2c30.3,1.2,52.4,6.4,69.9,12.5
		c9,3.2,13.9,12.8,11.4,22l-7.3,27.1c-2.8,10.4-14,16.2-24.1,12.3c-16.1-6.1-38.9-12.4-68.5-12.4c-37.4,0-48.1,15.5-48.1,29.4
		c0,17.1,22.5,28.9,71.1,43.8c69.5,20.9,98.4,49.7,98.4,101.6c0,47.6-35.3,90.4-103.7,101v35.2c0,10.1-8.2,18.3-18.3,18.3h-18.5
		C2593.2-285.4,2585-293.6,2585-303.7z"/>
	<circle class="st8" cx="2088.2" cy="-39.1" r="275.7"/>
	<circle class="st8" cx="2088.2" cy="-39.1" r="266.5"/>
	<path class="st10" d="M1868.4-141.3c-1.3,0-2.6-0.3-3.8-0.9c-4.2-2.1-5.9-7.3-3.8-11.5c43.6-86.4,130.7-140,227.4-140
		c15.4,0,30.9,1.4,45.9,4.1c4.6,0.8,7.7,5.3,6.9,9.9c-0.8,4.6-5.3,7.7-9.9,6.9c-14-2.6-28.5-3.9-42.9-3.9
		c-90.2,0-171.5,50.1-212.2,130.6C1874.5-143,1871.5-141.3,1868.4-141.3z"/>
	<circle class="st10" cx="2094" cy="-33.3" r="225.6"/>
	<path class="st8" d="M2071.8,134.4v-24.5c-25.6-1-50.9-7.1-68.9-14.9c-6.4-2.8-9.7-10-7.8-16.8l6.2-22.9
		c2.3-8.4,11.4-12.7,19.4-9.4c17.8,7.5,39.8,13.4,63.6,13.4c24.6,0,43-8.4,43-25.5c0-15.5-14.2-24.6-48.4-33.8
		C2030-13.4,1995-34.7,1995-77.7c0-38.8,28.4-68.5,77.7-76.4v-24.5c0-7.9,6.4-14.3,14.3-14.3h14.4c7.9,0,14.3,6.4,14.3,14.3v22
		c23.7,0.9,40.9,5,54.6,9.8c7,2.5,10.8,10,8.9,17.2l-5.7,21.1c-2.2,8.2-10.9,12.6-18.8,9.6c-12.6-4.8-30.4-9.7-53.5-9.7
		c-29.2,0-37.6,12.1-37.6,23c0,13.4,17.5,22.6,55.5,34.2c54.3,16.3,76.8,38.8,76.8,79.4c0,37.2-27.6,70.6-81,78.9v27.5
		c0,7.9-6.4,14.3-14.3,14.3h-14.4C2078.2,148.7,2071.8,142.3,2071.8,134.4z"/>
	<circle class="st8" cx="2666.3" cy="270.7" r="233.5"/>
	<circle class="st8" cx="2666.3" cy="270.7" r="225.7"/>
	<path class="st10" d="M2480.2,184.1c-1.1,0-2.2-0.2-3.2-0.8c-3.6-1.8-5-6.1-3.2-9.7C2510.7,100.5,2584.5,55,2666.4,55
		c13.1,0,26.1,1.2,38.9,3.5c3.9,0.7,6.5,4.5,5.8,8.4s-4.5,6.5-8.4,5.8c-11.9-2.2-24.1-3.3-36.3-3.3c-76.4,0-145.2,42.4-179.7,110.6
		C2485.4,182.7,2482.8,184.1,2480.2,184.1z"/>
	<circle class="st10" cx="2671.2" cy="275.6" r="191.1"/>
	<path class="st8" d="M2652.5,417.6v-20.8c-21.7-0.9-43.1-6-58.3-12.6c-5.4-2.4-8.2-8.5-6.6-14.2l5.3-19.4
		c1.9-7.1,9.7-10.8,16.5-7.9c15.1,6.3,33.7,11.3,53.9,11.3c20.9,0,36.4-7.1,36.4-21.6c0-13.1-12-20.9-41-28.7
		c-41.4-11.3-71.1-29.4-71.1-65.8c0-32.9,24.1-58,65.8-64.7v-20.8c0-6.7,5.4-12.1,12.1-12.1h12.2c6.7,0,12.1,5.4,12.1,12.1v18.7
		c20.1,0.8,34.6,4.2,46.2,8.3c5.9,2.1,9.2,8.5,7.5,14.5l-4.9,17.9c-1.9,6.9-9.3,10.7-15.9,8.2c-10.7-4-25.7-8.2-45.3-8.2
		c-24.8,0-31.8,10.3-31.8,19.5c0,11.3,14.9,19.1,47,29c46,13.8,65.1,32.9,65.1,67.2c0,31.5-23.3,59.8-68.6,66.9v23.3
		c0,6.7-5.4,12.1-12.1,12.1h-12.2C2657.9,429.7,2652.5,424.3,2652.5,417.6z"/>
	
		<linearGradient id="SVGID_1_" gradientUnits="userSpaceOnUse" x1="493.7127" y1="651.6655" x2="574.95" y2="419.5585" gradientTransform="matrix(1 0 0 -1 3317.4707 1000)">
		<stop  offset="0" style="stop-color:#FEBBBA"/>
		<stop  offset="1" style="stop-color:#FF928E"/>
	</linearGradient>
	<path class="st11" d="M3847.2,472.9c-1.3,4,13.2,10,21.8-6.2c0.3-7.8,5-41.2,0.4-47.5c-24.8-33.8-72.9-76.2-72.9-76.2
		c-8.1,8-1.4,15.9-1.4,15.9l23.3,24.3c-4.9,8.8-10.8,16.3-13.6,26.9c-2.1,8.1-0.8,16.7,3.3,24c4.1,7.4,9.7,17,15,24.5
		C3832.9,472.8,3847.2,472.9,3847.2,472.9z"/>
	
		<linearGradient id="SVGID_2_" gradientUnits="userSpaceOnUse" x1="556.0269" y1="503.3392" x2="494.8345" y2="626.7791" gradientTransform="matrix(1 0 0 -1 3317.4707 1000)">
		<stop  offset="0" style="stop-color:#FEBBBA"/>
		<stop  offset="1" style="stop-color:#FF928E"/>
	</linearGradient>
	<path class="st12" d="M3828.5,398.9l21.2,18l6.7,17.9l-18.9,21c0,0-6.4-35.6-11.1-43.3C3821.6,404.9,3824.1,401.2,3828.5,398.9z"/>
	<path class="st4" d="M4264.6,1799.5c0,0,5.4,30.4,8,60.5c1,11.8-8,22-19.8,22.5c-40.1,1.7-125.8,4.9-156.5,3.5
		c-4.6-0.2-7.6-4.9-5.9-9.2c1.4-3.6,4.2-6.5,7.7-8.1l141.6-65.1L4264.6,1799.5z"/>
	
		<linearGradient id="SVGID_3_" gradientUnits="userSpaceOnUse" x1="9443.8008" y1="-799.347" x2="9489.8008" y2="-799.347" gradientTransform="matrix(-1 0 0 -1 13712.7529 1000)">
		<stop  offset="0" style="stop-color:#FEBBBA"/>
		<stop  offset="1" style="stop-color:#FF928E"/>
	</linearGradient>
	<path class="st13" d="M4269,1781.6l-4.3,36.4c0,0-24.8,11.5-41.7-1.5l10.3-40.5L4269,1781.6z"/>
	<path class="st14" d="M4265.7,1098.2c1.9,9.5,10,473.7-39.6,681.8c-0.8,3.4,0.9,6.9,4.1,8.2c7.6,3.1,22.5,7.6,40.4,8.2
		c5.5,0.2,10.5-3.4,12.1-8.7c14.2-48.3,82.2-290.1,91-521.1c9.9-258.1,0-8.8,0-8.8l-5.8-159.6H4265.7z"/>
	<path class="st4" d="M4427.4,1815.3c0,0,8.5,15.3,16.8,56.1c1.5,7.4-3.7,14.4-11.1,15.1c-13.2,1.3-33.6,3-49.9,2.9
		c-7.5-0.1-13.4-6.6-12.5-14.1c1.8-14.9,7.4-39.3,24.8-58.3L4427.4,1815.3z"/>
	
		<linearGradient id="SVGID_4_" gradientUnits="userSpaceOnUse" x1="9277.8535" y1="-797.0363" x2="9317.6074" y2="-797.0363" gradientTransform="matrix(-1 0 0 -1 13712.7529 1000)">
		<stop  offset="0" style="stop-color:#FEBBBA"/>
		<stop  offset="1" style="stop-color:#FF928E"/>
	</linearGradient>
	<path class="st15" d="M4434.9,1768.6l-10.1,55c0,0-10,7.4-29.7,2l4.8-59.1L4434.9,1768.6z"/>
	<path class="st14" d="M4462.1,1112.4c40.6,244.9-8.8,605.4-25.5,675.9c-1,4.3-4.5,7.6-8.9,8.4c-7.4,1.2-19.7,2.2-31.7-1.3
		c-4.2-1.2-7.1-5-7.2-9.3c-2.2-57,1.8-407.2-36-545.5c-1.9-7-6.2-13.1-12.1-17.3l-73.4-52.2l-5.6-84.3L4462.1,1112.4z"/>
	<path class="st8" d="M4203.5,648.3c121.6-2,255.8,31.9,255.8,31.9c36.3,211.5,6.3,455.5,6.3,455.5
		c-94.2,24.7-200.4-15.1-200.4-15.1c-15.6-88.4-88.7-337.3-88.7-337.3c-59.4-7.4-108.4-24.5-148.7-47.2
		c30.8-35.6,45.2-81,51.5-107.8C4122.5,641.8,4166,649,4203.5,648.3z"/>
	
		<linearGradient id="SVGID_5_" gradientUnits="userSpaceOnUse" x1="563.1177" y1="675.9576" x2="644.3554" y2="443.8492" gradientTransform="matrix(1 0 0 -1 3317.4707 1000)">
		<stop  offset="0" style="stop-color:#FEBBBA"/>
		<stop  offset="1" style="stop-color:#FF928E"/>
	</linearGradient>
	<path class="st16" d="M3844.3,469.2c11.9-14.4,27.1-7.6,27.1-7.6c17.9,75.6,111.7,136.9,208.2,166.9
		c-6.3,26.8-20.8,72.2-51.5,107.8C3867.9,646.3,3844.3,469.2,3844.3,469.2z"/>
	<path class="st8" d="M4412.7,798.1l46.7-117.8c0,0,113.6,77.2,132.3,175.1c-21.5,1.6-60.5,7.2-98.8,26.5
		C4484.5,835.6,4412.7,798.1,4412.7,798.1z"/>
	
		<linearGradient id="SVGID_6_" gradientUnits="userSpaceOnUse" x1="9347.1416" y1="386.9094" x2="9464.7529" y2="386.9094" gradientTransform="matrix(-1 0 0 -1 13712.7529 1000)">
		<stop  offset="0" style="stop-color:#FEBBBA"/>
		<stop  offset="1" style="stop-color:#FF928E"/>
	</linearGradient>
	<path class="st17" d="M4326.7,549.6l38.7,111.9c0.6,1.9-0.1,3.9-1.8,4.9c-10.5,5.8-48.6,22.7-94.4-6.3c-4.8-3-8-8-8.7-13.6
		l-12.5-96.9H4326.7z"/>
	
		<linearGradient id="SVGID_7_" gradientUnits="userSpaceOnUse" x1="3052.5142" y1="-1103.8462" x2="3008.5332" y2="-958.7867" gradientTransform="matrix(-0.746 -0.6659 0.6659 -0.746 7232.1772 1747.4163)">
		<stop  offset="0" style="stop-color:#FEBBBA"/>
		<stop  offset="1" style="stop-color:#FF928E"/>
	</linearGradient>
	<path class="st18" d="M4242.5,446c0,0-42.5,80-37,112.3c5.4,32.3,58.1,30,104.1,3.7l32.1-86.4L4242.5,446z"/>
	
		<linearGradient id="SVGID_8_" gradientUnits="userSpaceOnUse" x1="3031.3381" y1="-956.4108" x2="3068.1279" y2="-1166.2494" gradientTransform="matrix(-0.746 -0.6659 0.6659 -0.746 7232.1772 1747.4163)">
		<stop  offset="0" style="stop-color:#E1473D"/>
		<stop  offset="1" style="stop-color:#E9605A"/>
	</linearGradient>
	<path class="st19" d="M4307.5,519.6c-1.9-0.8-2.6-3.1-1.4-4.8c3.4-5.2,9.8-15.8,11.8-25.1c0,0,7.6-4.9-19.4-11.4
		c-27.1-6.5-67.5-16.5-76-39.6c-8.3-22.5,13.5-79,48.2-34c1.3,1.7,3.9,1.8,5.2,0c5.7-7.4,20.6-22.8,41.4-13.5
		c19.4,8.7,21.6,23,21.3,30.1c-0.1,2.1,1.8,3.8,3.9,3.4c9.8-1.9,33.4-3.5,44.4,20.7c9.1,19.9,3.2,31.2-2.2,36.7
		c-1.7,1.8-1,4.7,1.4,5.5c6.5,2,14.8,7.4,14,22.6c-1.2,20.9-24.5,19.1-31.2,18.1c-1.1-0.2-2.2,0.2-2.9,1
		c-5.7,6.3-31.4,33.1-59.2,36.4c-2.4,0.3-4.3-2.1-3.5-4.4l12-35c0.6-1.6-0.2-3.4-1.8-4.1L4307.5,519.6z"/>
	
		<linearGradient id="SVGID_9_" gradientUnits="userSpaceOnUse" x1="3007.5381" y1="-1103.1755" x2="2967.9675" y2="-972.6631" gradientTransform="matrix(-0.746 -0.6659 0.6659 -0.746 7232.1772 1747.4163)">
		<stop  offset="0" style="stop-color:#FEBBBA"/>
		<stop  offset="1" style="stop-color:#FF928E"/>
	</linearGradient>
	<path class="st20" d="M4302.7,524.6c0,0,30.3-20.8,32.5-3.3c2.2,17.5-27.2,25.3-41.8,18.8L4302.7,524.6z"/>
	
		<linearGradient id="SVGID_10_" gradientUnits="userSpaceOnUse" x1="3149.9045" y1="-478.4507" x2="3054.2217" y2="208.7283" gradientTransform="matrix(-1 0 0 -1 7614.0732 1000)">
		<stop  offset="0" style="stop-color:#FEBBBA"/>
		<stop  offset="1" style="stop-color:#FF928E"/>
	</linearGradient>
	<path class="st21" d="M4492.9,881.8c0,0,39.7,179.1,3.7,279.8c44.1,20.4,35.9,16.6,35.9,16.6s87.2-254.9,59.1-322.9
		C4536.1,849.4,4508.6,864.4,4492.9,881.8z"/>
	
		<linearGradient id="SVGID_11_" gradientUnits="userSpaceOnUse" x1="3138.4751" y1="-412.3521" x2="3062.1199" y2="136.018" gradientTransform="matrix(-1 0 0 -1 7614.0732 1000)">
		<stop  offset="0" style="stop-color:#FEBBBA"/>
		<stop  offset="1" style="stop-color:#FF928E"/>
	</linearGradient>
	<path class="st22" d="M4496.6,1161.6c0,0-22.7,29.4-20.9,41.1c1.8,11.7,2.3,16.5,2.3,16.5s11.4-7.8,10.7-17.8
		c-1.6,31.7-12.2,67.7-2.5,65.9c9.6-1.7,59.5-47.7,48.2-96.7C4508.8,1152.9,4501.6,1154.8,4496.6,1161.6z"/>
	<path class="st4" d="M2245.6,1128.6l-66.4,53.2c-18.4,14.8-8.7,46.4,14.3,46.3l1091.4-6.4l-295.5-176.4h-510.3
		C2395,1045.2,2313.1,1074.4,2245.6,1128.6z"/>
	<path class="st8" d="M3871.2,1603.3c-1-8.9-1.9-17.9-2.9-26.8c-10.1-91.1-56.6-172.8-127.3-223.7l-5.5-3.9
		c-85.2-61.3-183.1-99-285-109.8l-165.6-17.5l-1091.4,6.4c-23,0.1-32.7-31.5-14.3-46.3l66.4-53.2c67.5-54.1,149.4-83.4,233.6-83.4
		h510.3l-3.8-1.7c-30.7-13.8-63.6-20.9-96.8-20.9h-480.5c-29.2,0-58.2,4.7-86.1,14l-361.4,144.3c-17.9,5.9-33.8,17.2-46,32.5
		l-74.7,93.5c-15.5,19.5-24.1,44.3-24.1,70v152.3c0,40.3,132.2,178.1,132.2,178.1c14.4,7.9,30.3,12,46.5,12h1623.6l172.4-12.1
		C3840.1,1703.7,3876.8,1656.4,3871.2,1603.3z"/>
	<path class="st9" d="M3865.4,1672.3h-5.2c-10,0-18.2-8.8-18.2-19.6v-98.6c0-10.8,8.1-19.6,18.2-19.6l0,0c9.7,0,17.6,8.1,18.2,18.5
		l5.2,98.6C3884.2,1662.9,3875.9,1672.3,3865.4,1672.3z"/>
	<path class="st7" d="M3801.4,1515.5h54.2c-20.2-66-60.2-123.5-114.6-162.7l-5.5-3.9c-5.6-4.1-11.4-8-17.1-11.9
		c11.1,41.6,24.7,98.7,33.7,137C3757.7,1498.5,3778.1,1515.5,3801.4,1515.5z"/>
	<path class="st1" d="M1960.7,1293.7v-112.8c-17.9,5.9-33.8,17.2-46,32.5l-74.7,93.5c-13,16.2-21,36.3-23.3,57.4l101.9-17.4
		C1942.9,1342.7,1960.7,1320.1,1960.7,1293.7z"/>
	<path class="st8" d="M3105.6,1216.7l-38.4-40.2c-16-16.8-36.1-28.2-58-33l-75.9-16.5c-20.8-4.5-40.8,11.2-43,34l-0.5,5.4
		c-2.3,23.2,14.7,43.4,36.3,43.1l97.8-1.2c13.6-0.2,26,8.5,31.4,22l1.8,4.5c2.4,6,7.9,9.9,13.9,9.9h24
		C3108.6,1244.7,3115.3,1226.9,3105.6,1216.7z"/>
	<path class="st8" d="M2712.4,1289.5h167.4c13.1,0,22.3,14,17.7,27.2c-7.7,22.3-25.9,50.9-69.2,54.2c-39,3-88.1-20.8-125.2-43.4
		C2686.2,1317.2,2693.1,1289.5,2712.4,1289.5z"/>
	<circle class="st4" cx="2219.6" cy="1679.1" r="220.9"/>
	<circle class="st23" cx="2219.6" cy="1679.1" r="179.4"/>
	<circle class="st4" cx="3522.6" cy="1679.1" r="220.9"/>
	<circle class="st23" cx="3522.6" cy="1679.1" r="179.4"/>
	
		<linearGradient id="SVGID_12_" gradientUnits="userSpaceOnUse" x1="3442.0215" y1="-630.6" x2="3684.4998" y2="-630.6" gradientTransform="matrix(1 0 0 -1 0 1000)">
		<stop  offset="0" style="stop-color:#DAE3FE"/>
		<stop  offset="1" style="stop-color:#E9EFFD"/>
	</linearGradient>
	<path class="st24" d="M3669,1744c-0.4,0-0.8-0.1-1.2-0.2c-1.6-0.7-2.3-2.5-1.6-4c8.1-19.2,12.2-39.6,12.2-60.6
		c0-85.9-69.9-155.8-155.8-155.8c-26.6,0-52.9,6.8-76,19.8c-1.5,0.8-3.4,0.3-4.2-1.2s-0.3-3.4,1.2-4.2c24-13.5,51.3-20.6,79-20.6
		c89.3,0,161.9,72.6,161.9,161.9c0,21.9-4.3,43.1-12.7,63C3671.3,1743.3,3670.2,1744,3669,1744z"/>
	
		<linearGradient id="SVGID_13_" gradientUnits="userSpaceOnUse" x1="2143.3215" y1="-630.6" x2="2385.7998" y2="-630.6" gradientTransform="matrix(1 0 0 -1 0 1000)">
		<stop  offset="0" style="stop-color:#DAE3FE"/>
		<stop  offset="1" style="stop-color:#E9EFFD"/>
	</linearGradient>
	<path class="st25" d="M2370.3,1744c-0.4,0-0.8-0.1-1.2-0.2c-1.6-0.7-2.3-2.5-1.6-4c8.1-19.2,12.2-39.6,12.2-60.6
		c0-85.9-69.9-155.8-155.8-155.8c-26.6,0-52.9,6.8-76,19.8c-1.5,0.8-3.4,0.3-4.2-1.2s-0.3-3.4,1.2-4.2c24-13.5,51.4-20.6,79-20.6
		c89.3,0,161.9,72.6,161.9,161.9c0,21.9-4.3,43.1-12.7,63C2372.7,1743.3,2371.5,1744,2370.3,1744z"/>
	<path class="st26" d="M2486.9,1611c-1.4,0-2.7-1-3-2.5c-19.6-103.2-78.4-168.9-174.8-195.2c-72.2-19.7-139.5-8.7-140.1-8.6
		c-1.7,0.3-3.3-0.8-3.5-2.5c-0.3-1.7,0.8-3.3,2.5-3.5c0.7-0.1,69.2-11.3,142.6,8.7c68,18.5,154.4,68.3,179.4,200.1
		c0.3,1.7-0.8,3.3-2.4,3.6C2487.3,1610.9,2487.1,1611,2486.9,1611z"/>
	<path class="st26" d="M3252.8,1644.6c-1.7,0-3-1.3-3.1-3c-2.5-81.4,19.3-145.2,64.8-189.5c75.2-73.2,190.6-67.4,191.8-67.3
		c1.7,0.1,3,1.6,2.9,3.2c-0.1,1.7-1.5,3-3.2,2.9c-1.1-0.1-113.9-5.7-187.2,65.6c-44.3,43.1-65.4,105.3-62.9,184.9
		C3255.9,1643.1,3254.6,1644.6,3252.8,1644.6L3252.8,1644.6z"/>
	<path class="st9" d="M2200.4,1203.5c-1.1,0-2.1-0.6-2.7-1.6c-0.8-1.5-0.3-3.4,1.2-4.2l148-84.2c42.1-24,89.9-37.1,138.4-37.9
		l169.7-3c1.7,0,3.1,1.3,3.1,3s-1.3,3.1-3,3.1l-169.7,3c-47.4,0.8-94.2,13.7-135.4,37.1l-148,84.2
		C2201.5,1203.4,2201,1203.5,2200.4,1203.5z"/>
	<g id="XMLID_4_">
		<g id="XMLID_121_">
			<rect id="XMLID_23_" x="3669.2" y="718.2" class="st27" width="18.1" height="144.5"/>
		</g>
		<g id="XMLID_118_">
			<rect id="XMLID_22_" x="3452.4" y="718.2" class="st27" width="18.1" height="144.5"/>
		</g>
		<g id="XMLID_110_">
			<path id="XMLID_21_" class="st27" d="M3687,889v-8h-9.8c-4.4,0-8.2,3.3-8.2,7.8V899h-6v8h24v-8h-10v-10H3687z"/>
		</g>
		<g id="XMLID_3_">
			<g id="XMLID_122_">
				<path id="XMLID_20_" class="st27" d="M3615,719v116.2c0,5.2-4.2,9.8-9.4,9.8H3579v-91h-19v91h-36v-91h-18v91h0.2
					c0,30-24.2,53.8-53.2,53.8v18.1c31,0,60.7-21.9,68.8-53.9h2.9h36.1h18.1h36.1c10,0,18-8.4,18-18.4V719H3615z"/>
			</g>
			<g id="XMLID_123_">
				<circle id="XMLID_19_" class="st27" cx="3515.6" cy="727.2" r="9"/>
			</g>
			<g id="XMLID_124_">
				<circle id="XMLID_16_" class="st27" cx="3555.8" cy="727.2" r="9"/>
			</g>
			<g id="XMLID_125_">
				<circle id="XMLID_15_" class="st27" cx="3581.9" cy="727.2" r="9"/>
			</g>
		</g>
		<g id="XMLID_104_">
			<g id="XMLID_106_">
				<path id="XMLID_5_" class="st27" d="M3400.3,755.2c-22-4-42.7,8.6-46.3,28.2l-1,5.5c-0.4,2-2.2,3.5-4.2,3.5h-12.5
					c-10.3,0-19.2,7.4-21.1,17.6l0,0c0,0.2-0.1,0.3-0.1,0.5c-15.5,83.5-65.8,154.5-135.2,197.9c-4.4,2.7-9.9,2.7-14.3,0
					c-28.5-17.8-53.8-40.2-74.8-66.3c-1.5-1.9-1.4-4.7,0.4-6.4c0,0,42.9-42.9,57.2-57.2c5.3-5.3,7.7-13,6.1-20.4
					c-0.7-3.4-2-6.4-4-7.3c-16.7-7.3-28.2-24.5-27-44.2c1.3-22.5,19.7-40.9,42.2-42.3c26.2-1.6,48,19.2,48,45.1
					c0,15.7-8,29.6-20.2,37.7c-2.5,1.7-3.5,6.4-3.8,11.1c-0.4,6.4,2,12.7,6.5,17.2l41.1,41.1c3.7,3.7,9.9,3.5,13.4-0.7
					c3-3.6,2.5-9.1-0.9-12.4l-37-37c-3.2-3.2-3.3-8.5-0.1-11.7c12.5-12.2,19.9-29.5,19-48.5c-1.6-31.7-27-57.7-58.7-59.9
					c-36.9-2.5-67.7,26.7-67.7,63.1c0,20.1,9.4,38,24,49.6c3.9,3.1,4.2,8.8,0.7,12.3l-55.1,55.1c-6.8,6.8-6.8,17.7,0,24.5
					c22.2,28.1,49,52.3,79.3,71.5c0,0,0.1,0,0.1,0.1c0,0-0.1,0-0.1,0.1l0.1,0.1c11.1,7,25.2,7,36.3,0l0.3-0.2
					c72.5-45.9,125-120.4,141.6-207.7c0.5-2.5,2.7-4.4,5.2-4.4h6.2c2.7,0,4.7,2.4,4.2,5.1l-0.6,3.4c-3.6,19.6,11.3,38.8,33.3,42.8
					l0,0c22,4,42.7-8.6,46.3-28.2l6.5-35.5C3437.2,778.4,3422.3,759.2,3400.3,755.2z M3413.7,794.4l-6.5,35.5
					c-1.8,9.8-12.2,16.1-23.2,14.1s-18.4-11.6-16.6-21.4l6.5-35.5c1.8-9.8,12.2-16.1,23.2-14.1S3415.5,784.6,3413.7,794.4z"/>
			</g>
			<g id="XMLID_105_">
				<path id="XMLID_14_" class="st27" d="M3325.4,764.2c2.3-3.6,1.6-8.4-1.5-11.3c-1.3-1.2-2.6-2.5-3.9-3.7
					c-30.8-28.3-67.3-50.6-107.5-64.9c-9.6-3.4-19.4-6.4-29.5-8.9c-7.8-1.9-16-1.9-23.8,0.2c-10,2.6-19.7,5.8-29.3,9.4
					c-39.3,14.7-74.9,37-105.1,65.1l-0.3,0.3c-11.7,11-17.4,26.8-15.5,42.7v0.2c4.6,38.3,16,74.5,33.1,107.3
					c2.2,4.2,7.2,6.3,11.5,4.5c5-2,7.1-7.8,4.6-12.5c-16.9-32.6-28.1-68.7-31.9-106.9c-0.7-7,1.8-13.9,6.8-18.8
					c36.9-35.8,83-62.1,134.4-75c2.3-0.6,4.8-0.6,7.2-0.1c52.2,12.3,99,38.3,136.6,74C3315.7,769.9,3322.4,769.1,3325.4,764.2
					L3325.4,764.2z"/>
			</g>
		</g>
		<g id="XMLID_103_">
			<path id="XMLID_18_" class="st28" d="M3092.3,899.8c-1,0-1.9-0.5-2.5-1.3c-23-33.4-34.6-69.9-34.6-108.5c0-8.6,2.8-15.6,8-20.2
				c17.4-15.5,54.6-42.2,108.1-47.9h0.5l0.4,0.1c2.8,0.5,68.9,13.8,106,46.6c5.3,4.7,8.2,11.7,8.2,19.8c0,38.3-10.3,73.3-30.7,104
				c-0.9,1.4-2.8,1.8-4.2,0.8c-1.4-0.9-1.8-2.8-0.8-4.2c19.7-29.7,29.7-63.6,29.7-100.7c0-6.4-2.2-11.8-6.1-15.3
				c-34.3-30.3-96.8-43.9-102.7-45.1c-51.6,5.6-87.4,31.4-104.2,46.3c-5,4.4-6,11-6,15.7c0,37.4,11.3,72.7,33.6,105.1
				c0.9,1.4,0.6,3.2-0.8,4.2C3093.5,899.6,3092.9,899.8,3092.3,899.8z"/>
		</g>
		<g id="XMLID_102_">
			<path id="XMLID_17_" class="st28" d="M3164.3,968.4l-1.3-0.7c-1.1-0.6-26.1-14.7-52-42.7c-1.1-1.2-1.1-3.1,0.2-4.3
				c1.2-1.1,3.1-1.1,4.3,0.2c22.1,23.8,43.9,37.6,49.3,40.8c6.9-3,34.2-15.8,60.7-42c1.2-1.2,3.1-1.2,4.3,0s1.2,3.1,0,4.3
				c-29.7,29.4-60.6,42.5-64,43.9L3164.3,968.4z"/>
		</g>
		<g id="XMLID_109_">
			<g id="XMLID_111_">
				<path id="XMLID_13_" class="st29" d="M3289.5,975.2c1,0,2-0.4,2.7-1.2c0.8-0.8,1.2-1.7,1.2-2.7c0-1.1-0.4-2-1.2-2.8
					s-1.7-1.2-2.7-1.2c-1.1,0-2.1,0.4-2.9,1.2c-0.8,0.8-1.2,1.7-1.2,2.8c0,1,0.4,2,1.2,2.7C3287.4,974.8,3288.4,975.2,3289.5,975.2z
					"/>
			</g>
			<g id="XMLID_112_">
				<path id="XMLID_12_" class="st29" d="M3319.7,1013.7c-1,0-2,0.4-2.7,1.2c-0.8,0.8-1.2,1.7-1.2,2.8c0,1,0.4,2,1.2,2.7
					c0.8,0.8,1.7,1.2,2.7,1.2c1.1,0,2-0.4,2.8-1.2s1.1-1.7,1.1-2.7c0-1.1-0.4-2-1.1-2.8C3321.7,1014.1,3320.8,1013.7,3319.7,1013.7z
					"/>
			</g>
			<g id="XMLID_113_">
				<path id="XMLID_11_" class="st29" d="M3329.7,1013.7c-1,0-2,0.4-2.7,1.2c-0.8,0.8-1.2,1.7-1.2,2.8c0,1,0.4,2,1.2,2.7
					c0.8,0.8,1.7,1.2,2.7,1.2c1.1,0,2-0.4,2.8-1.2s1.1-1.7,1.1-2.7c0-1.1-0.4-2-1.1-2.8C3331.7,1014.1,3330.8,1013.7,3329.7,1013.7z
					"/>
			</g>
			<g id="XMLID_116_">
				<path id="XMLID_6_" class="st29" d="M3360.8,976.8c-1.9-0.9-4.3-1.3-7.2-1.3c-4,0-6.6,0.8-8.8,2.4c-2.2,1.6-2.8,4.4-2.8,8.4
					v17.7h-5.7l0,0h-6.8c-0.8,0-1.1-0.8-1.4-1.8c-0.2-1-0.2-2.6-0.2-4.3v-19.3c0-2-1-3.1-3-3.1s-3,1-3,3.1v24c0,0.5-2.9,1.3-4.3,1.3
					h-4.6l0,0h-5.2v-26.1c0-1.1-0.3-1.8-0.9-2.2c-0.7-0.4-1.3-0.5-2.1-0.5c-0.7,0-1.4,0.2-2.1,0.5c-0.7,0.4-1,1.1-1,2.2v25.8
					c0,2.7-0.2,5.1-0.7,7.3c-0.4,2.2-1.5,4.1-3.1,5.8s-4.1,2.5-7.4,2.5c-2.1,0-4.2-0.4-6.3-1.1c-2.1-0.8-3.9-2.1-5.3-4
					c-1.5-1.9-2.2-4.4-2.2-7.6c0-3.4,0.6-6.3,1.8-8.6c1.2-2.3,2.4-3.9,3.4-4.9c-1.2-0.7-2.3-1.1-3.5-1.1c-1.6,0-3,0.7-4.3,2.1
					c-1.3,1.4-2.2,3.2-2.9,5.4c-0.7,2.2-1,4.4-1,6.7c0,3.1,0.7,6,2,8.7c1.3,2.7,3.4,4.9,6.3,6.6c2.9,1.7,6.6,2.6,11.1,2.6
					c5.9,0,10.3-1.5,13.3-4.5s4.5-7.3,4.7-12.9c0.6,0.5,1.3,1.4,2,1.6c0.7,0.2,1.7,0.8,3,0.8h0.1l0,0h4.6c2.1,0,4-1.1,5.7-2.1
					c0.8,0.6,1.7,1.2,2.7,1.5s2.2,0.6,3.7,0.6h6.5l0,0h5c1.5,0,2.7-0.5,3.5-0.8s1.5-0.8,2.2-1.1c2.1,1,4.5,1.4,7.2,1.4
					c4.5,0,7.8-1.4,9.7-4c1.9-2.6,2.8-6.7,2.8-12.3c0-4.5-0.5-8-1.6-10.4C3364.1,979.3,3362.7,977.7,3360.8,976.8z M3358.9,1000
					c-1.1,2.5-3.5,4-7.1,4h-3.9v-16.1c0-5.1,1.6-7.6,5.7-7.6c4.9,0,7.1,4,7.1,11.9C3360.8,994.8,3360,997.5,3358.9,1000z"/>
			</g>
			<g id="XMLID_117_">
				<path id="XMLID_10_" class="st29" d="M3383.6,962.3c0.2,0,0.3-0.1,0.5-0.4c0.1-0.2,0.2-0.5,0.2-0.8c0-0.9-0.5-1.3-1.4-1.3
					c-0.5,0.2-1.2,0.3-2.3,0.3c-3.7,0-5.6-1.8-5.6-5.3c0-1.2,0.2-2.2,0.6-2.9s0.9-1.1,1.5-1.3c0.7,0.1,1.4,0.5,1.9,1
					c0.6,0.5,0.8,1.2,0.8,2c0.2,0.2,0.5,0.3,0.9,0.3c0.5,0,1-0.2,1.4-0.5c0.4-0.4,0.6-0.9,0.6-1.6c0-1.8-1.4-2.7-4.2-2.7
					c-2.3,0-4.1,0.6-5.4,1.8c-1.3,1.2-1.9,2.7-1.9,4.6c0,1.1,0.2,2.2,0.7,3.3s1,1.9,1.5,2.5c-0.3-0.1-0.6-0.2-1-0.2
					c-0.5,0-1,0.2-1.4,0.5c-0.4,0.3-0.6,0.8-0.6,1.3c0,0.4,0.2,0.8,0.5,1.4c0.3-0.3,1.7-0.6,4.3-1
					C3377.8,962.9,3380.6,962.6,3383.6,962.3z"/>
			</g>
			<g id="XMLID_119_">
				<path id="XMLID_9_" class="st29" d="M3406.8,970.7c1.1,0,2-0.4,2.8-1.2s1.1-1.7,1.1-2.7c0-1.1-0.4-2-1.1-2.8
					c-0.7-0.8-1.7-1.2-2.8-1.2c-1,0-2,0.4-2.7,1.2c-0.8,0.8-1.2,1.7-1.2,2.8c0,1,0.4,2,1.2,2.7
					C3404.8,970.4,3405.7,970.7,3406.8,970.7z"/>
			</g>
			<g id="XMLID_120_">
				<path id="XMLID_8_" class="st29" d="M3396.8,970.7c1.1,0,2-0.4,2.8-1.2c0.7-0.8,1.1-1.7,1.1-2.7c0-1.1-0.4-2-1.1-2.8
					c-0.8-0.8-1.7-1.2-2.8-1.2c-1,0-2,0.4-2.7,1.2c-0.8,0.8-1.2,1.7-1.2,2.8c0,1,0.4,2,1.2,2.7
					C3394.9,970.4,3395.8,970.7,3396.8,970.7z"/>
			</g>
			<g id="XMLID_126_">
				<path id="XMLID_7_" class="st29" d="M3422.3,962.9c-1,0-1.9,0.2-2.8,0.6c-0.9,0.4-1.5,0.8-1.7,1.1c1,0.6,2.1,1.7,2.8,3.2
					c0.8,1.5,1.4,3.2,1.4,5.2v22.1c0,1.7-0.3,3.1-0.4,4.2c-0.1,1.1-0.6,2.4-1.1,3.2s-1.5,1.5-2.7,1.5h-4.4l0,0h-6.8
					c-0.8,0-0.2-0.9-0.4-2c-0.2-1,0.8-2.8,0.8-4.4v-19.3c0-2-1.5-3.1-3.5-3.1s-3.5,1-3.5,3.1v24c-2,0.5-3.9,1.7-5.2,1.7h-3.9l0,0
					h-2.1c-2,0-2.3-1.2-3.3-2.9c-1-1.6-0.4-3.9-0.4-6v-20.5c0-2.7-1.7-4.7-2.7-5.8c-1-1.2-2.9-1.7-4.4-1.7c-1,0-2.2,0.2-3.1,0.6
					c-0.9,0.4-1.6,0.8-1.9,1.1c1,0.6,2.5,1.7,3.2,3.2c0.8,1.5,1.8,3.2,1.8,5.2v17.5c0,4.4,0.3,8.3,2.2,10.5c2,2.2,3.7,3.9,6.7,3.9h4
					l0,0h3.9c2.1,0,4-1.3,5.7-2.3c0.8,0.6,1.7,1.3,2.7,1.6s2.2,0.7,3.7,0.7h6.5l0,0h3.9c3,0,6.2-1.6,8.1-3.9c2-2.2,3.7-6.1,3.7-10.4
					v-24.2c0-2.7-1.2-4.7-2.2-5.8C3425.7,963.5,3423.8,962.9,3422.3,962.9z"/>
			</g>
			<g id="XMLID_127_">
				<path id="XMLID_24_" class="st29" d="M3438.2,962.9c-1,0-1.9,0.2-2.8,0.6c-0.9,0.4-1.5,0.8-1.7,1.1c1,0.6,2.6,1.7,3.4,3.2
					c0.8,1.5,1.9,3.2,1.9,5.2v30.6c0,1.5-0.6,2.6-0.2,3.3c0.3,0.7,0.8,1.1,2.1,1.1s2.2-0.4,2.6-1.1c0.4-0.7,0.6-1.8,0.6-3.3v-33.1
					c0-2.7-0.7-4.7-1.8-5.8C3441.2,963.5,3439.7,962.9,3438.2,962.9z"/>
			</g>
			<g id="XMLID_128_">
				<path id="XMLID_25_" class="st29" d="M3484.6,970.7c1.1,0,2-0.4,2.8-1.2s1.1-1.7,1.1-2.7c0-1.1-0.4-2-1.1-2.8
					c-0.8-0.8-1.7-1.2-2.8-1.2c-1,0-2,0.4-2.7,1.2c-0.8,0.8-1.2,1.7-1.2,2.8c0,1,0.4,2,1.2,2.7
					C3482.7,970.4,3483.6,970.7,3484.6,970.7z"/>
			</g>
			<g id="XMLID_129_">
				<path id="XMLID_26_" class="st29" d="M3474.7,970.7c1.1,0,2-0.4,2.8-1.2s1.1-1.7,1.1-2.7c0-1.1-0.4-2-1.1-2.8
					c-0.7-0.8-1.7-1.2-2.8-1.2c-1,0-2,0.4-2.7,1.2c-0.8,0.8-1.2,1.7-1.2,2.8c0,1,0.4,2,1.2,2.7
					C3472.7,970.4,3473.6,970.7,3474.7,970.7z"/>
			</g>
			<g id="XMLID_132_">
				<path id="XMLID_27_" class="st29" d="M3538.1,977.1c-2.8-1.3-5.7-1.9-8.7-1.9s-5.8,0.6-8.3,1.9s-3.6,2.8-5.3,4.7
					s-2.8,3.8-2.8,5.8v-17.1c0-2.7-1.6-4.7-2.6-5.8c-1-1.2-2.8-1.7-4.3-1.7c-1,0-2.1,0.2-3,0.6c-0.9,0.4-1.6,0.8-1.9,1.1
					c1,0.6,2.4,1.7,3.1,3.2c0.8,1.5,1.7,3.2,1.7,5.2v31h-9l0,0h-5v-18c0-4-0.9-6.9-3.2-8.4c-2.2-1.6-5.3-2.4-9.3-2.4
					c-2.9,0-5.3,0.4-7.1,1.3s-3.3,2.5-4.3,4.9s-1.6,5.9-1.6,10.4c0,5.6,0.9,9.7,2.8,12.3c1.9,2.6,5.1,3.9,9.7,3.9
					c2.7,0,5.1-0.5,7.2-1.5c0.6,0.4,1.4,1.2,2.2,1.5s2,0.9,3.5,0.9h5l0,0h36.2c5.1,0,8.8-2,11-4.8c2.2-2.9,3.3-6.7,3.3-10.9
					c0-4-0.9-7.4-2.7-10.1C3543.1,980.5,3540.8,978.4,3538.1,977.1z M3487,1004h-5.6c-3.6,0-6-1.7-7.1-4.1c-1.1-2.5-1.6-5.3-1.6-8
					c0-7.8,2.9-11.8,7.8-11.8c4.1,0,6.5,2.4,6.5,7.5L3487,1004L3487,1004z M3538.8,1000.4c-1.7,2.1-4.4,3.6-8.2,3.6H3513v-11.4
					c0-3.1,2.7-6,5.6-8.6c2.9-2.7,5.8-4,9.7-4c2.2,0,4.1,0.5,6.2,1.4c2.1,1,3.6,2.4,5,4.3c1.3,1.9,1.9,4.4,1.9,7.2
					C3541.5,995.7,3540.6,998.3,3538.8,1000.4z"/>
			</g>
			<g id="XMLID_134_">
				<path id="XMLID_28_" class="st29" d="M3621.6,975.2c-1.5,0-2.8,0.5-3.8,1.4c2.4,2,3.9,4.3,4.7,6.9c0.8,2.6,1.1,5.3,1.1,8.2
					c0,2.4-0.5,5.4-1.4,8c-0.9,2.7-3,4.4-6.1,4.4h-4.2c-1.9,0-3.2-1.3-3.9-3.2c-0.7-1.8-1-4.3-1-6.6v-13.7c0-2.1-1-3.2-2.9-3.2
					c-1,0-1.8,0.3-2.3,0.9c-0.6,0.6-0.8,1.4-0.8,2.4v17.5c0,1.6-0.5,3.3-1.4,4.2s-2.6,1.8-4.9,1.8h-5.2c-1.3,0-1.9-1-2.2-2.1
					s-0.3-3.4-0.3-6.1v-13.8c0-1.1-0.5-1.9-1-2.4s-1.1-0.7-2.1-0.7c-2,0-2.9,1-2.9,3.1v15.6c0,1.2-0.4,2.1-0.7,2.9
					c-0.3,0.8-1,1.8-1.8,2.3c-0.9,0.5-2.4,1.2-4.2,1.2h-2.6h-2.1c-2,0-2.7-1.2-3.8-2.8c-1-1.6-0.8-3.9-0.8-6.1v-24.6
					c0-2.7-1.3-4.7-2.3-5.8c-1-1.2-2.7-1.7-4.2-1.7c-1,0-2.1,0.2-2.9,0.6c-0.9,0.4-1.6,0.8-1.8,1.1c1,0.6,2.1,1.7,2.9,3.2
					c0.8,1.5,1.4,3.2,1.4,5.2V995c0,4.4,0.7,8.2,2.7,10.4s4.1,3.9,7.1,3.9h3.9h4.7c2.5,0,4.8-0.8,6.8-2.5c2,1.6,4.5,2.5,7.4,2.5h6.4
					c1.4,0,2.7-0.9,4-1.7s2.4-2,3.3-3.1c1.5,1.5,3,2.9,4.5,3.5s3.6,1.3,6.1,1.3h0.8c5.1,0,8.8-2.4,10.9-6c2.1-3.6,3.2-8.2,3.2-13.2
					c0-3.9-0.6-7.4-1.9-10.2C3626.5,976.7,3624.4,975.2,3621.6,975.2z"/>
			</g>
			<g id="XMLID_137_">
				<path id="XMLID_29_" class="st29" d="M3681.8,964.6c-1-1.2-2.6-1.7-4.1-1.7c-1,0-2,0.2-2.9,0.6c-0.9,0.4-1.5,0.8-1.8,1.1
					c1,0.6,2,1.7,2.7,3.2c0.8,1.5,1.3,3.2,1.3,5.2v22.1c0,1.7-0.2,3.1-0.3,4.2c-0.1,1.1-0.5,2.4-1.1,3.2c-0.5,0.8-1.5,1.5-2.7,1.5
					h-4.4l0,0h-5.5v-18c0-4-1.3-6.9-3.5-8.4c-2.2-1.6-5.4-2.4-9.4-2.4c-2.9,0-5.3,0.4-7.2,1.3c-1.9,0.9-3.3,2.5-4.4,4.9
					c-1,2.4-1.6,5.9-1.6,10.4c0,5.6,0.9,9.7,2.8,12.3c1.9,2.6,5.1,3.9,9.7,3.9l7.2-0.1l-0.1,5.4c0,2-0.8,3.7-2.3,5.1
					c-1.5,1.3-3.5,2-6,2c-1.2,0-2.6-0.2-4.2-0.5c0.6,1,1.6,1.8,3.1,2.6s3.3,1.1,5.3,1.1c2.6,0,4.7-0.6,6.2-1.8s2.7-2.7,3.3-4.3
					s1-3.3,1-4.8v-3.6h5.5l0,0h3.9c3,0,6.1-1.6,8-3.9c2-2.2,3.6-6.1,3.6-10.4v-24.2C3684,967.7,3682.9,965.8,3681.8,964.6z
					 M3657,1004h-5.3c-3.6,0-6-1.7-7.1-4.1c-1.1-2.5-1.6-5.3-1.6-8c0-7.8,2.7-11.8,7.6-11.8c4.1,0,6.4,2.4,6.4,7.5L3657,1004
					L3657,1004z"/>
			</g>
		</g>
	</g>
</g>
</svg>
