<?xml version="1.0" encoding="utf-8"?>
<!-- Generator: Adobe Illustrator 19.0.0, SVG Export Plug-In . SVG Version: 6.00 Build 0)  -->
<svg version="1.1" id="Illustration" xmlns="http://www.w3.org/2000/svg" xmlns:xlink="http://www.w3.org/1999/xlink" x="0px"
	 y="0px" viewBox="1355 -1355 3710 3710" style="enable-background:new 1355 -1355 3710 3710;" xml:space="preserve">
<style type="text/css">
	.st0{fill:#EBF3FA;}
	.st1{fill:#DCE8FF;}
	.st2{opacity:0.7;fill:#9FBDFF;}
	.st3{fill:#DFEBFD;}
	.st4{opacity:0.5;fill:#C5DDFF;}
	.st5{fill:#C2CFFF;}
	.st6{fill:#163560;}
	.st7{fill:#FFFFFF;}
	.st8{fill:#9FC1F4;}
	.st9{fill:#F78E48;}
	.st10{fill:#F78248;}
	.st11{fill:#1F4777;}
	.st12{fill:#E06832;}
	.st13{fill:#FFB27D;}
	.st14{fill:#F1A34F;}
	.st15{fill:#D86713;}
	.st16{fill:#739AF0;}
	.st17{fill:#5283DB;}
	.st18{fill:#133054;}
	.st19{fill:#1C468A;}
	.st20{fill:#233862;}
	.st21{fill:#E8945B;}
	.st22{fill:#FFE3CA;}
	.st23{fill:#2E3552;}
	.st24{fill:#D7E2FF;}
	.st25{fill:#2B478B;}
	.st26{fill:#E58638;}
	.st27{fill:#F99746;}
	.st28{opacity:0.5;fill:#E27727;}
	.st29{fill:#355DAF;}
	.st30{fill:#E9F0FF;}
	.st31{fill:#FF9843;}
	.st32{fill:#F2BE8F;}
	.st33{opacity:0.5;fill:#EABC92;}
	.st34{fill:#AEC3FF;}
	.st35{fill:#94B0ED;}
</style>
<g>
	<path class="st0" d="M1705.4,1711.9c0,0-437.4-448.6-158.8-976.1c278.5-527.5,652.3-262,634.4-876.1
		c-17.9-614.1,860-666.5,1139.3-488.4c279.4,178.1,277.6,392.6,854.5,321.8s686.9,520.7,536.7,822.1
		c-213.1,427.6,590.8,357.3,84,1197.6L1705.4,1711.9z"/>
	<path class="st1" d="M4414.2,225.9c0,43.6-3.9,86.4-11.5,127.9c-18.1,99.6-57,192-112.1,272.5
		c-127.9,187.1-342.9,309.8-586.7,309.8c-289.9,0-539.2-173.7-649.6-422.7c-14.6-32.8-26.7-66.9-36.2-102.1
		c-16-59.1-24.5-121.3-24.5-185.4c0-51.9,5.6-102.5,16.1-151.1c0.1-0.6,0.2-1.1,0.4-1.7c29.5-134.6,97.2-254.9,191.2-349
		c26.6-26.7,55.4-51.3,86.1-73.5c14.6-10.6,29.7-20.7,45.1-30.1c108.1-66.5,235.3-104.8,371.5-104.8c18.1,0,36,0.7,53.7,2
		c25,1.8,49.6,5,73.8,9.4c101.9,18.5,196.2,58.7,277.9,115.6h0c50.9,35.5,97,77.4,137,124.7c21,24.8,40.4,51.1,57.8,78.7
		c10.9,17.2,21,34.8,30.5,53c22.6,43.6,40.8,89.8,54.1,138.1C4405.4,97.3,4414.2,160.6,4414.2,225.9z"/>
	<path class="st2" d="M3462.7-92c-28.3,44.9,11.8,122.8-73.2,101.6s-137-30.7-141.7,16.5c-4.7,47.3,63.8,47.3,63.8,96.9
		c0,49.6-30.7,66-77.9,42.4c-47.3-23.6-60.8-57.8-115.7-36.6c-54.9,21.3-86.8,7.1-99.2-35.4c-2.2-7.5-5.2-13.5-8.8-18.6
		c0.1-0.6,0.2-1.1,0.4-1.7c29.5-134.6,97.2-254.9,191.2-349c26.6-26.7,55.4-51.3,86.1-73.5c14.6-10.6,29.7-20.7,45.1-30.1
		c22.1,0.8,48.6,9.2,71.2,37.1c49.6,61.4,82.7,30.7,70.9,101.6c-11.8,70.9,7.1,80.3,47.2,77.9c40.1-2.4,87.4-2.4,92.1,28.3
		C3618.6-103.8,3491-136.9,3462.7-92z"/>
	<path class="st2" d="M3756.7,333.1c0,0-62.6,20.1-79.1-23.6s2.4-53.1-53.1-66.1c-55.5-13-60.2-50.8-95.7-46.1
		c-35.4,4.7-17.7,18.9-59,49.6c-41.3,30.7-79.1,16.5-77.9,73.2c1.2,56.7,62.6,65.5,75,102.7c12.4,37.2-8.9,53.1,17.7,81.5
		c26.6,28.3,76.2,15.9,53.1,54.9c-23,39-58.5,69.1-40.7,129.3c17.7,60.2,5.3,63.8,35.4,106.3c30.1,42.5,88.6,56.7,97.4,28.3
		c8.9-28.3-40.7-65.5-24.8-93.9c15.9-28.3,42.5-8.9,53.1-51.4c10.6-42.5,53.7-42.5,57.3-72c3.5-29.5-52-74.4-30.7-93.3
		c21.3-18.9,63.8,34.2,96.8-13s10.6-85,44.9-129.9C3860.7,324.8,3780.4,307.1,3756.7,333.1z"/>
	<path class="st2" d="M4414.2,225.9c0,43.6-3.9,86.4-11.5,127.9c-18.1,99.6-57,192-112.1,272.5c-18.8,6.2-37.9,6-56.8-1.5
		c-88.6-35.4-23-131.1,12.4-178.9c35.4-47.8-54.9-26.6-120.5-70.9c-65.5-44.3,7.1-163-60.2-143.5c-67.3,19.5-148.8,44.3-187.8-21.3
		c-39-65.5,35.4-76.2,1.8-131.1c-33.7-54.9,19.5-86.8,86.8-92.1c67.3-5.3,58.5-53.1,141.7-60.2c83.3-7.1,81.5,99.2,173.6,92.1
		c92.1-7.1,88,14.2,88,14.2c6.6-0.2,13.1,1.2,19.2,4C4405.4,97.3,4414.2,160.6,4414.2,225.9z"/>
	<path class="st2" d="M4334.7-100.9c-76.6,37.3-107.3-64.1-172.8-33.6c-66,30.7-54.5-28.3-106.4-66.1
		c-52-37.8-155.9,30.7-151.2-28.3c4.7-59,82.7-42.5,99.2-89.7c16.5-47.2,92.1-35.4,92.1-35.4c4.3-1.6,8.9-2.7,13.7-3.1c0,0,0,0,0,0
		c50.9,35.5,97,77.4,137,124.7c21,24.8,40.4,51.1,57.8,78.7C4315.1-136.7,4325.3-119,4334.7-100.9z"/>
	<path class="st2" d="M3689.4-304.6c0,0,40.2-57.9-23.6-75c-63.8-17.1-62.6,5.3-112.2,0c-49.6-5.3-69.1,33.1-31.9,75
		c37.2,41.9,67.3,122.4,101,79.5C3656.4-268,3649.9-300.5,3689.4-304.6z"/>
	<path class="st3" d="M4877.7,1378.2c28.2-90-116.6-148.8-116.6-148.8s-173.8,78.2-201.4,65c-27.6-13.1,135.5-95.8,135.5-95.8
		c-46.5-36.5-211.7-56.4-211.7-56.4s-92.1,161.8-115.7,142.3c-23.5-19.5,88.9-139.1,88.9-139.1c-57.2-16.2-137.7,11.1-137.7,11.1
		c-114.2,55.4-70.3,254.6-143.7,295.5h0c0,0-14.9,6.7-35.1,21.3l13.1,8.4c3.3-2.8,6.7-5.5,10-7.9c0,0,0,0,0.1,0
		c0.1,0,0.1-0.1,0.1-0.1c2.2-1.4,5.3-3.5,9.2-6c0,0,0,0,0,0c0,0,0,0,0,0c9-5.3,15.4-9.3,19.8-12.4c0,0,0,0,0,0
		c27.7-16.9,81.5-40,81.1-37.2c-8.3,62.3,98.6,141.8,169.1,168.8c70.5,27,54.6-7.9,39.2-57.9c-15.3-50-90.5-87.4-104.2-111.9
		c-13.6-24.5,23.9-16.3,63.4,13.5c39.5,29.8,33.8,84.6,96.9,133.9c63.1,49.3,195-44.4,195-44.4c-55.6-15.2-122.4-93.9-115.4-112
		c7-18,129.1,62.2,151.4,69.7C4791.3,1485.2,4849.4,1468.3,4877.7,1378.2z"/>
	<path class="st3" d="M1572.8,1062.8c13.5-120.3,213.9-114.2,213.9-114.2s163.5,181.7,202.7,180.6c39.2-1.1-109.4-182.6-109.4-182.6
		c73.5-18.7,277.6,43.4,277.6,43.4s24.3,237.6,62.1,226.9c37.8-10.7-32.3-209.3-32.3-209.3c75.5,10.5,155.9,84.4,155.9,84.4
		c105.3,124.2-49.3,335.2,15.6,421.2l0,0c0,0,14.1,15.6,30.2,43.2l-19.7,3c-2.4-5-5-9.9-7.7-14.5c0,0,0-0.1-0.1-0.1
		c0-0.1-0.1-0.1-0.1-0.2c-1.8-2.8-4.4-6.9-7.6-11.8c0,0,0,0,0,0c0,0,0,0,0,0c-7.8-10.8-13.2-18.9-16.8-24.8c0,0,0,0,0-0.1
		c-23.7-34.2-75-89.1-75.9-85.7c-22.6,77.4-189.1,115.3-285.9,110.6c-96.8-4.8-60-37.6-16.1-88.3c43.9-50.7,151.5-55.7,180.2-77.4
		c28.7-21.7-19.6-31.5-81.4-17c-61.8,14.5-83.5,81.8-183,107c-99.6,25.2-205.8-153-205.8-153c73.1,10.9,192.3-46.9,193.4-71.7
		c1.1-24.8-183.8,6.2-213.8,3.4C1618.7,1233,1559.3,1183.1,1572.8,1062.8z"/>
	<g>
		<path class="st4" d="M4337.8,1147.6c0,0,51.9-185.2,166.2-282.8c15.2-13,38.3,0.4,34.8,20.1c-0.1,0.3-0.1,0.7-0.2,1
			C4532.1,919.3,4401.7,1044.5,4337.8,1147.6z"/>
		<path class="st4" d="M4317.6,1199.8c0,0,133.1-220.9,313.9-299.5c11-4.8,24.3-0.4,29.5,10.5c3.4,7.1,3.8,17.3-3.5,32.1
			C4637.9,982.3,4432.6,1093.3,4317.6,1199.8z"/>
	</g>
	<g>
		<path class="st4" d="M2132.7,944.8c0,0-51.9-185.2-166.2-282.8c-15.2-13-38.3,0.4-34.8,20.1c0.1,0.3,0.1,0.7,0.2,1
			C1938.4,716.6,2068.7,841.7,2132.7,944.8z"/>
		<path class="st4" d="M2152.8,997c0,0-133.1-220.9-313.9-299.5c-11-4.8-24.3-0.4-29.5,10.5c-3.4,7.1-3.8,17.3,3.5,32.1
			C1832.5,779.5,2037.8,890.5,2152.8,997z"/>
	</g>
	<path class="st5" d="M3686.9-16.1l-0.6,1620.1c0,53.2-43.2,96.3-96.4,96.3l-846.9-0.3c-53.2,0-96.4-43.2-96.3-96.4l0.6-1620.1
		c0-53.2,43.2-96.3,96.4-96.3l846.9,0.3C3643.8-112.4,3686.9-69.3,3686.9-16.1z"/>
	<path class="st6" d="M3590,1712.4l-846.9-0.3c-59.8,0-108.4-48.7-108.4-108.5l0.6-1620.1c0-59.8,48.7-108.4,108.5-108.4l846.9,0.3
		c59.8,0,108.4,48.7,108.4,108.5l-0.6,1620.1C3698.4,1663.8,3649.8,1712.4,3590,1712.4z M2743.7-100.7c-46.5,0-84.3,37.8-84.3,84.2
		l-0.6,1620.1c0,46.5,37.8,84.3,84.2,84.3l846.9,0.3c46.5,0,84.3-37.8,84.3-84.2l0.6-1620.1c0-46.5-37.8-84.3-84.2-84.3
		L2743.7-100.7z"/>
	<g>
		<path class="st7" d="M2805.3,41.2l-14.2,10.2l-14.3-10.1c3.2-4.5,8.4-7.4,14.3-7.4C2797,33.9,2802.2,36.7,2805.3,41.2z"/>
		<g>
			<path class="st7" d="M2791.1,9c-14.3,0-27,7.1-34.6,18l9,6.3c5.7-8,15.1-13.3,25.6-13.3c10.5,0,19.8,5.2,25.4,13.1l9-6.5
				C2817.8,15.9,2805.3,9,2791.1,9z"/>
		</g>
		<g>
			<path class="st7" d="M2791.1-38.4c-30.3,0-57.1,15-73.3,38l9,6.3c14.2-20.1,37.7-33.3,64.3-33.3c26.3,0,49.6,13,63.9,32.9l9-6.5
				C2847.7-23.6,2821.1-38.4,2791.1-38.4z"/>
		</g>
		<g>
			<path class="st7" d="M2791.1-12.5c-21.5,0-40.7,10.6-52.3,27l9,6.3c9.6-13.5,25.4-22.3,43.2-22.3c17.7,0,33.3,8.7,43,22l9-6.4
				C2831.4-2,2812.5-12.5,2791.1-12.5z"/>
		</g>
	</g>
	<g>
		<path class="st8" d="M2981.2-281.3c0,0-61.8-29.7-141.5-13.4c0,0,91.3-6.2,145.4,51.7c0,0,37.8-58,100.4-71.3
			C3085.5-314.3,3038.8-319.9,2981.2-281.3z"/>
		<path class="st8" d="M2807.2-309.2c0,0-47.6-23.2-109.4-11c0,0,70.6-4.4,112.2,40.6c0,0,29.5-44.7,78-54.7
			C2888-334.3,2851.9-338.8,2807.2-309.2z"/>
		<path class="st8" d="M2653.6-330.4c0,0-44.2-19.3-99.9-5.8c0,0,64.1-6.7,103.6,32.6c0,0,25.1-41.8,68.8-52.8
			C2726.1-356.3,2693.1-359,2653.6-330.4z"/>
		<path class="st8" d="M2567.4-374.8c0,0-31-10.2-67.8,2.4c0,0,42.8-8.6,71.9,15.5c0,0,14.3-29.8,43.1-39.9
			C2614.7-396.9,2592.3-396.6,2567.4-374.8z"/>
		<path class="st8" d="M2875.8-484.1c0,0-30.5-11.8-67.8-1.1c0,0,43.2-6.3,71,19.2c0,0,15.8-29,45.1-37.6
			C2924.1-503.7,2901.7-504.6,2875.8-484.1z"/>
		<path class="st8" d="M3025.9-378.9c0,0-42.5-21.4-98.1-11.2c0,0,63.5-3.1,100.3,37.8c0,0,27.1-39.8,70.7-48.2
			C3098.7-400.4,3066.4-404.9,3025.9-378.9z"/>
		<path class="st8" d="M2966.6-445.4c0,0-40-18.3-91.1-6.9c0,0,58.5-5.1,94,31.5c0,0,23.6-37.7,63.6-47
			C3033.2-467.8,3003.2-470.8,2966.6-445.4z"/>
	</g>
	<g>
		<path class="st9" d="M4079.1,162.1c0,71,119.6,184.6,119.6,184.6s119.6-113.5,119.6-184.6c0-71-53.6-128.6-119.6-128.6
			C4132.6,33.5,4079.1,91.1,4079.1,162.1z M4128.2,154.6c0-38.8,31.7-70.5,70.5-70.5c39,0,70.5,31.7,70.5,70.5
			c0,39-31.5,70.5-70.5,70.5C4159.9,225,4128.2,193.6,4128.2,154.6z"/>
	</g>
	<g>
		<path class="st9" d="M3670.6-290c0,68.2,114.9,177.3,114.9,177.3s114.9-109.1,114.9-177.3c0-68.2-51.4-123.6-114.9-123.6
			C3722-413.6,3670.6-358.3,3670.6-290z M3717.8-297.3c0-37.3,30.4-67.7,67.7-67.7c37.5,0,67.7,30.4,67.7,67.7
			c0,37.5-30.2,67.7-67.7,67.7C3748.2-229.6,3717.8-259.8,3717.8-297.3z"/>
	</g>
	<g>
		<path class="st6" d="M4400,1665.6h-312.1c-19,0-34.3-15.4-34.3-34.3V1610h378.1v23.9C4431.7,1651.4,4417.5,1665.6,4400,1665.6z"/>
		<path class="st10" d="M4444.7,1142.8v451.3c0,5.4-0.6,10.7-1.8,15.8H4390c-8.2,0-15.9,2.4-22.3,6.5c-4,2.5-7.5,5.7-10.4,9.5
			c-5.5,7.1-8.8,15.9-8.8,25.6v14.1h-207.4v-14.1c0-14.5-7.4-27.3-18.7-34.7c-3.2-2.1-6.7-3.8-10.4-4.9c-3.9-1.2-8.1-1.9-12.4-1.9
			h-57.2c-1.2-5.1-1.8-10.4-1.8-15.8v-451.3c0-39.5,32-71.5,71.4-71.5h261.3C4412.7,1071.4,4444.7,1103.4,4444.7,1142.8z"/>
		<g>
			<path class="st6" d="M4318.7,1071.1c-93.6-36.9-158.9-0.6-159.5-0.2l-3.4-5.9c0.7-0.4,17.4-9.9,46.2-14.7
				c26.5-4.4,68.7-5.5,119.2,14.4L4318.7,1071.1z"/>
		</g>
		<rect x="4079.1" y="1644.7" class="st6" width="27.4" height="37.3"/>
		<ellipse class="st11" cx="4092.8" cy="1687.6" rx="19.5" ry="19.5"/>
		<ellipse class="st6" cx="4092.8" cy="1687.6" rx="11.8" ry="11.8"/>
		<rect x="4360.6" y="1644.7" class="st6" width="27.4" height="37.3"/>
		<ellipse class="st11" cx="4374.3" cy="1687.6" rx="19.5" ry="19.5"/>
		<ellipse class="st6" cx="4374.3" cy="1687.6" rx="11.8" ry="11.8"/>
		<path class="st12" d="M4122.4,1071.4v545.5c-3.2-2.1-6.7-3.8-10.4-4.9v-540.5H4122.4z"/>
		<rect x="4195.3" y="1071.4" class="st12" width="10.4" height="594.3"/>
		<rect x="4273.1" y="1071.4" class="st12" width="10.4" height="594.3"/>
		<path class="st12" d="M4367.7,1071.4v545.1c-4,2.5-7.5,5.7-10.4,9.5v-554.6H4367.7z"/>
	</g>
	<g>
		<path class="st13" d="M3814.9,837.7c0-0.8,11.4-24.3,7.8-26.2c-3.6-1.8-10.1-1.5-10.9,2.6C3811,818.3,3814.9,837.7,3814.9,837.7z"
			/>
		<path class="st13" d="M3819.2,851.8c0-2.3-2.7-37.6-8.6-44.6c-5.9-7-18.1-17-21.9-16.7c-3.8,0.3-18.8,20.2-14.3,35.4
			c4.5,15.2,23.5,35.8,23.5,35.8L3819.2,851.8z"/>
		<g>
			<path class="st14" d="M3841.9,809l-34.6,10.4c-1.1,0.3-2.4-0.3-2.7-1.5l-19.8-66.1c-0.3-1.1,0.3-2.4,1.5-2.7l34.6-10.4
				c1.1-0.3,2.4,0.3,2.7,1.5l19.8,66.1C3843.7,807.5,3843,808.7,3841.9,809z"/>
			<path class="st15" d="M3832.9,811.7l-31.4,9.4c-2,0.6-4.2-0.5-4.8-2.6l-18.8-62.8c-0.6-2,0.5-4.2,2.6-4.8l31.4-9.4
				c2-0.6,4.2,0.5,4.8,2.6l18.8,62.8C3836,809,3834.9,811.1,3832.9,811.7z"/>
		</g>
		<path class="st13" d="M3785.1,793c0,0,14.4-22.2,18-21c5,1.8-13.1,29.9-13.1,29.9s13.4-21,15.5-19.5c4.8,3.6-2.8,16.8-10.4,27
			c0,0,13.5-12.4,13.9-10.1c1.5,7.8-14.8,26.7-14.8,26.7l-9.1-20.9V793z"/>
		<path class="st13" d="M3774.2,813.6c0.7-2.7,4.2-55.7,5.7-50.7c1.5,5,5.1,32.8,5.1,32.8L3774.2,813.6z"/>
		<path class="st16" d="M4004.5,799c0,0-1.5,57.6-18.1,104.1c-13.1,36.7-35.7,66.5-74.4,55.5c-4-1.1-7.8-2.3-11.5-3.6c0,0,0,0,0,0
			c-78.6-27.4-104-90.1-104-90.1c5.9-9.7,22.8-13.2,22.8-13.2c15.8,0.9,85.4,30.4,89.8,31.3c16.1,3.2,29.1-85.2,39.5-115.8
			c10.5-30.6,53.3-44.3,53.3-44.3L4004.5,799z"/>
		<path class="st17" d="M3987.8,861.6l-1.5,41.5c-13.1,36.7-35.7,66.5-74.4,55.5c-4-1.1-7.8-2.3-11.5-3.6c1.2,0.2,24.9,3.4,34.8-6.5
			c10.2-10.2,9.1-44,27.9-66.5C3981.9,859.5,3987.8,861.6,3987.8,861.6z"/>
		<path class="st18" d="M3990,1621.1c0,0,19.3,17.7,15.6,30.2c-3.8,12.5-21.2,20.9-23.6,36.2c-2.4,15.3-11.8,23.7-20.3,23.7
			c-8.5,0-40.5,0-40.5,0s-6.3-10.8,8.8-14c15.1-3.3,20.8-21.3,19.9-38c-0.9-16.7,1.4-39,1.4-39l32.1-7.4L3990,1621.1z"/>
		<path class="st6" d="M3776.8,1708.1h119.2c4.7,0,8.5-3.7,8.6-8.4c0.2-7-0.4-17.1-4.3-25.7c-6.4-14.1-10.4-16.6,16.5-57.6
			c-8.1,8.3-29.9,4.5-48.3,2c-2.3,3.7-36.4,56.4-43.9,61.8C3816.5,1686.1,3779.4,1684,3776.8,1708.1z"/>
		<path class="st6" d="M3962.6,1046.8c0,0-86.5,163.1-109.9,253c-18.2,69.7,93.1,339.5,93.1,339.5s9.1-0.6,23.9-6.4
			c14.6-5.7,20.1-21.1,20.1-21.1s-6.6-192.9-29.1-286.2c-5.1-20.9,24.5-88.5,74.4-125.5c49.9-37,70.6-156.1,41-164.1
			C4046.3,1027.9,3962.6,1046.8,3962.6,1046.8z"/>
		<path class="st19" d="M4036.6,1000.5c0,0-90.9,333.2-118.5,408c-27.6,74.8-71.3,233.6-71.3,233.6s27.6,13,63,6.8
			c0,0,132.9-194.7,138.7-280.7c2.7-39.8,136.3-197.4,121.4-300.3L4036.6,1000.5z"/>
		<path class="st16" d="M4169.9,1104.5c0,0-19.3,9.7-53.5,12.6h0c-39.1,3.3-97.8-2.5-169.2-42.2c0,0-19.9-16.4,4.6-86.2
			c18.5-52.8,27.5-164.2,50.2-265.8c0,0,73.3-23,132.2-3.1c45,15.2,40.5,84.2,48.8,156c0.8,6.7,1.7,13.4,2.7,20.1
			C4197.8,974.6,4169.9,1104.5,4169.9,1104.5z"/>
		<path class="st20" d="M3976,572.6c0,0,50.1-81.5,88.8-39.5c0,0,25.3,6.5,39.9,45.9c14.8,40.3-8.3,75.8-23.7,70.1
			c-9.9-3.7-14.5,13.3-14.5,13.3L3976,572.6z"/>
		<path class="st20" d="M4057.1,526.6c0,0,3.4-33.7,52.7-30.5c0,0-23.3,0.4-28.3,10.1c0,0,16.9-10.9,29.3-5.6
			c12.4,5.3,17.6,28.4,16.9,35.8c-0.7,7.4-10.2,30.4-18.5,31.6c-8.3,1.2-19.2-4.7-19.2-4.7L4057.1,526.6z"/>
		<path class="st13" d="M4081.9,717.7c-4.6-12.3-11.5-25.3-17.1-64.7l-3,1l-49.8,17.5c0,0,3.5,16,5.7,31.1c0.9,6.2,1.6,17.3,2,27
			c0.4,9.9,10.2,10.8,20,10.4C4066.2,738.8,4080.7,729,4081.9,717.7z"/>
		<path class="st21" d="M4012.2,671.6c0,0,3.5,16,5.7,31.1c28.5-4.9,39.9-33.3,44-48.7L4012.2,671.6z"/>
		<path class="st20" d="M4066.4,647.7c0,0,11.6-25.9,12.3-46.7c0.5-14.9-14.6-67.5-67.5-52c0,0-15.4,3.8-28.7,15.9
			c-10.6,9.6-25,29.1,0.6,73.3l7.2,15.1L4066.4,647.7z"/>
		<path class="st13" d="M4004.7,687.3c0,0,68-8.7,61.9-50.9c-6-42.2-1.3-71.8-45-68.1c-43.7,3.7-49.8,21.1-51.2,35.7
			C3969,618.6,3986.8,688.5,4004.7,687.3z"/>
		<path class="st20" d="M3990.6,571.8c0,0,25.7,46.9,55.3,50.1c29.5,3.2,40.8-6.2,40.8-6.2s-24.4-14.2-33.3-43.9
			C4053.4,571.8,4001.2,546.2,3990.6,571.8z"/>
		<path class="st20" d="M3995.7,575.1c0,0-12.3,13.1-14.1,24.3c-1.8,11.2-0.2,33.6-6.7,33.8c0,0-18.8-31.7-5.9-53
			C3982.8,557.6,3995.7,575.1,3995.7,575.1z"/>
		<path class="st20" d="M3993.4,577.2c0,0,20.7,50,59.1,61.4c0,0-40.5-26.7-48.5-60.5C3995.9,544.3,3993.4,577.2,3993.4,577.2z"/>
		<path class="st17" d="M4169.9,1104.5c0,0-19.3,9.7-53.5,12.6h0c0,0-28.1-35.2,3.3-74.7s-2.4-112.3,21.7-151.9
			c16.8-27.6,33.1-21.1,41.5-14.7c0.8,6.7,1.7,13.4,2.7,20.1C4197.8,974.6,4169.9,1104.5,4169.9,1104.5z"/>
		<path class="st13" d="M4293.2,1046c0,0,4.2,9.7,10,10.4c9.5,1.1,27.6,9,30.4,10.7c7.7,4.6,7.2,25-0.5,27s-11.6-15.2-35.6-19.8
			c-8.2-1.6-20.1,4.1-24.9-15.5L4293.2,1046z"/>
		<path class="st16" d="M4134,719.8c70,25.7,72.6,149.7,103.8,204.3c32.2,56.3,63.5,130.4,63.5,130.4s-0.6,2.2-12.6,5.7
			c-8.5,2.4-17.3,1.4-17.3,1.4s-66.1-59.8-84.1-83.4c-18-23.6-60.3-133.1-60.3-133.1S4106.2,709.6,4134,719.8z"/>
		<path class="st13" d="M4274.3,1063.5c0,0,1.7,8.3,12,15.1c10.3,6.7,18.6,13.5,19.6,9.3c1-4.2-5.7-8.7-7.3-16.4
			C4297,1063.8,4274.3,1063.5,4274.3,1063.5z"/>
	</g>
	<rect x="2658.8" y="650.6" class="st9" width="1015.7" height="735.3"/>
	<path class="st10" d="M3418.8,1585.4v99.2c0,1.2,0,2.4-0.1,3.6h-507.9c-0.1-1.2-0.1-2.4-0.1-3.6v-99.2c0-45.2,29.2-82.3,64.9-82.3
		h378.3C3389.6,1503.1,3418.8,1540.2,3418.8,1585.4z"/>
	<g>
		<g>
			<polygon class="st22" points="3164.3,1629.4 3131.6,1600.1 3140.8,1589.8 3161.9,1608.7 3191.1,1566.9 3202.4,1574.8 			"/>
		</g>
		<g>
			<path class="st22" d="M3167,1660.7c-34.5,0-62.6-28.1-62.6-62.6c0-34.5,28.1-62.6,62.6-62.6c34.5,0,62.6,28.1,62.6,62.6
				C3229.6,1632.6,3201.5,1660.7,3167,1660.7z M3167,1538.8c-32.7,0-59.4,26.6-59.4,59.4c0,32.7,26.6,59.4,59.4,59.4
				s59.4-26.6,59.4-59.4C3226.3,1565.4,3199.7,1538.8,3167,1538.8z"/>
		</g>
	</g>
	<path class="st0" d="M2749.8,172.3c0,0,23.5-52.4,79.8-46.5c0,0,81.6-87.3,168.7-11.6c0,0,92.6-18.7,161.1,16.2
		c45.7,23.3,60.8,47.8,60.8,47.8L2749.8,172.3z"/>
	<path class="st0" d="M3081.1,48.5c0.3,0,0.6,0,0.9,0c3.6-0.1,7-1.3,9.6-3.7c11.8-10.8,47.9-37.7,86.7-6.8c3,2.4,7,3.4,10.8,2.9
		c15-2.2,54.1-5.7,84.8,10.7c0.8,0.4,1.7,0.9,2.5,1.3c12.8,7.2,7.4,26.7-7.2,26.5l-187.6-2.4C3063.1,76.6,3062.7,49.1,3081.1,48.5z"
		/>
	<g>
		<path class="st22" d="M3549.6,1278H3348c-34.8,0-63.1-28.3-63.1-63.1V789.1c0-34.8,28.3-63.1,63.1-63.1h201.6
			c34.8,0,63.1,28.3,63.1,63.1v425.8C3612.6,1249.7,3584.3,1278,3549.6,1278z M3348,732.5c-31.2,0-56.6,25.4-56.6,56.6v425.8
			c0,31.2,25.4,56.6,56.6,56.6h201.6c31.2,0,56.6-25.4,56.6-56.6V789.1c0-31.2-25.4-56.6-56.6-56.6H3348z"/>
	</g>
	<path class="st22" d="M3207.5,1003.6h-319.4c-17.9,0-32.4-14.5-32.4-32.4V761.6c0-17.9,14.5-32.4,32.4-32.4h319.4
		c17.9,0,32.4,14.5,32.4,32.4v209.6C3239.9,989.1,3225.4,1003.6,3207.5,1003.6z"/>
	<g>
		<path class="st22" d="M3197.7,1278h-299.9c-25,0-45.3-20.3-45.3-45.3V1091c0-25,20.3-45.3,45.3-45.3h299.9
			c25,0,45.3,20.3,45.3,45.3v141.7C3243.1,1257.6,3222.7,1278,3197.7,1278z M2897.9,1052.1c-21.4,0-38.9,17.4-38.9,38.9v141.7
			c0,21.4,17.4,38.9,38.9,38.9h299.9c21.4,0,38.9-17.4,38.9-38.9V1091c0-21.4-17.4-38.9-38.9-38.9H2897.9z"/>
	</g>
	<g>
		<path class="st22" d="M3364.9,881.9c0,49.8,83.8,129.3,83.8,129.3s83.8-79.6,83.8-129.3c0-49.8-37.5-90.1-83.8-90.1
			C3402.5,791.8,3364.9,832.2,3364.9,881.9z M3399.4,876.7c0-27.2,22.2-49.4,49.4-49.4c27.3,0,49.4,22.2,49.4,49.4
			c0,27.3-22.1,49.4-49.4,49.4C3421.6,926,3399.4,904,3399.4,876.7z"/>
	</g>
	<path class="st9" d="M3200.7,910.9l-4,0c-0.1,0-0.3,0-0.4,0.1l-30.4,8.3c-0.4,0.1-0.8,0.1-1.1-0.1l-42.8-16.5
		c-1.1-0.5,5.5-3.8,6.5-4.5c10.7-7.8,44.6-26.7,57.3-35.2c2-1.3,1.5-4.5-0.9-5c-1.1-0.3-2.3-0.2-3.5,0.2l-62.3,22.6l-8.4-5.3
		c-1.2-0.8-2.8-0.4-3.6,0.8l-4.1,6.5c-0.8,1.2-0.4,2.8,0.7,3.6l-8,2.9c-0.4,0.1-0.8,0.1-1.2,0l-38.3-16.3c-3.4-1.4-7.2-1.7-10.7-0.6
		c-1.4,0.4-3,0.9-4.4,1.3c-3,0.9-4.6,4.1-3.6,7l0.5,1.5c1.6,4.8,5.3,8.6,10.1,10.4l31.1,11.7c0.6,0.2,1,0.8,1,1.5l0.3,13.4l-1.8-1.1
		c-1.2-0.8-2.8-0.4-3.6,0.8l-4.1,6.5c-0.8,1.2-0.4,2.8,0.8,3.6l9,5.7l0.4,21c0,1.7,0.6,3.3,1.5,4.7c1.2,1.8,2.5,3.7,3,3.5
		c1.5-0.7,15.6-32.9,20.3-45.6c0.3-0.7,6.4,1.6,7.1,1.8l42.4,13c0.5,0.2,0.9,0.7,1,1.3l1.9,12.4c0.2,1.4,0.9,2.7,1.9,3.6l0,0
		c0.7,0.7,1.9,0.5,2.4-0.3l9.9-15.1c0.3-0.4,0.8-0.7,1.3-0.7l4.6-0.1c1.4,0,2.1-1.8,1.1-2.8l-1.1-1.1l23-16.3
		C3203,912.9,3202.3,910.9,3200.7,910.9z"/>
	<g>
		<g>
			<path class="st22" d="M3139.7,1224.5c-34.6,0-62.7-28.1-62.7-62.7s28.1-62.7,62.7-62.7c34.6,0,62.7,28.1,62.7,62.7
				S3174.2,1224.5,3139.7,1224.5z M3139.7,1106c-30.8,0-55.8,25-55.8,55.8c0,30.8,25,55.8,55.8,55.8c30.8,0,55.8-25,55.8-55.8
				C3195.5,1131,3170.4,1106,3139.7,1106z"/>
		</g>
		<g>
			<path class="st22" d="M3140.4,1170.2h-2.2c-0.8,0-1.5-0.7-1.5-1.5v-36.2c0-0.8,0.7-1.5,1.5-1.5h2.2c0.8,0,1.5,0.7,1.5,1.5v36.2
				C3141.9,1169.5,3141.2,1170.2,3140.4,1170.2z"/>
			<path class="st22" d="M3138.5,1169.1L3138.5,1169.1c-0.6-0.6-0.6-1.4-0.1-1.8l34.9-34.9c0.5-0.5,1.3-0.5,1.8,0l0.1,0.1
				c0.5,0.5,0.5,1.3,0,1.8l-34.9,34.9C3139.8,1169.6,3139,1169.6,3138.5,1169.1z"/>
			<circle class="st22" cx="3139.3" cy="1167.8" r="3.4"/>
		</g>
	</g>
	<g>
		<rect x="2897.1" y="1086.7" class="st22" width="137.8" height="14.3"/>
		<rect x="2897.1" y="1119.3" class="st22" width="137.8" height="14.4"/>
		<rect x="2897.1" y="1152.1" class="st22" width="82.6" height="14.4"/>
	</g>
	<g>
		<rect x="3379.8" y="1087.3" class="st22" width="137.8" height="14.3"/>
		<rect x="3379.8" y="1120" class="st22" width="137.8" height="14.4"/>
		<rect x="3379.8" y="1152.7" class="st22" width="82.6" height="14.4"/>
	</g>
	<g>
		<rect x="2905.7" y="792.4" class="st9" width="137.8" height="14.3"/>
		<rect x="2905.7" y="825" class="st9" width="137.8" height="14.4"/>
		<rect x="2905.7" y="857.7" class="st9" width="82.6" height="14.4"/>
	</g>
	<g>
		<path class="st9" d="M4198.7,4.6c-1.6,0-3-1.3-3.2-2.9c0-0.1-0.5-5.7-1.6-15.6c-0.2-1.8,1.1-3.4,2.9-3.5c1.8-0.2,3.4,1.1,3.5,2.9
			c1.1,10,1.6,15.7,1.6,15.7c0.2,1.8-1.1,3.3-2.9,3.5C4198.9,4.6,4198.8,4.6,4198.7,4.6z M4195.4-26.6c-1.6,0-3-1.2-3.2-2.9
			c-0.5-4.7-1.1-9.9-1.8-15.5c-0.2-1.8,1-3.4,2.8-3.6c1.8-0.2,3.4,1,3.6,2.8c0.7,5.6,1.3,10.8,1.8,15.5c0.2,1.8-1.1,3.4-2.8,3.6
			C4195.6-26.6,4195.5-26.6,4195.4-26.6z M4191.7-57.6c-1.6,0-3-1.2-3.2-2.8c-0.6-4.9-1.3-10.1-2-15.4c-0.2-1.8,1-3.4,2.8-3.6
			c1.8-0.2,3.4,1,3.6,2.8c0.7,5.4,1.4,10.5,2,15.5c0.2,1.8-1,3.4-2.8,3.6C4191.9-57.6,4191.8-57.6,4191.7-57.6z M4187.6-88.5
			c-1.6,0-3-1.2-3.2-2.8c-0.7-5-1.4-10.1-2.2-15.4c-0.3-1.8,1-3.4,2.7-3.6c1.8-0.3,3.4,1,3.6,2.7c0.8,5.3,1.5,10.4,2.2,15.4
			c0.2,1.8-1,3.4-2.7,3.6C4187.9-88.5,4187.7-88.5,4187.6-88.5z M4183.2-119.3c-1.6,0-2.9-1.1-3.2-2.7c-0.7-5-1.5-10.2-2.3-15.4
			c-0.3-1.8,0.9-3.4,2.7-3.7c1.7-0.3,3.4,0.9,3.7,2.7c0.8,5.2,1.6,10.4,2.3,15.4c0.3,1.8-1,3.4-2.7,3.7
			C4183.5-119.3,4183.3-119.3,4183.2-119.3z M4178.4-150.1c-1.6,0-2.9-1.1-3.2-2.7c-0.8-5-1.6-10.2-2.5-15.3
			c-0.3-1.8,0.9-3.4,2.6-3.7c1.7-0.3,3.4,0.9,3.7,2.6c0.9,5.2,1.7,10.3,2.5,15.4c0.3,1.8-0.9,3.4-2.7,3.7
			C4178.8-150.1,4178.6-150.1,4178.4-150.1z M4173.3-180.8c-1.5,0-2.9-1.1-3.2-2.7c-0.9-5.1-1.8-10.2-2.7-15.3
			c-0.3-1.7,0.9-3.4,2.6-3.7c1.7-0.3,3.4,0.8,3.7,2.6c0.9,5.2,1.8,10.3,2.7,15.3c0.3,1.8-0.9,3.4-2.6,3.7
			C4173.7-180.8,4173.5-180.8,4173.3-180.8z M4167.8-211.4c-1.5,0-2.9-1.1-3.2-2.6c-0.9-5.1-1.9-10.1-2.9-15.3
			c-0.3-1.7,0.8-3.4,2.6-3.8c1.7-0.3,3.4,0.8,3.8,2.6c1,5.1,2,10.2,2.9,15.3c0.3,1.7-0.8,3.4-2.6,3.8
			C4168.2-211.5,4168-211.4,4167.8-211.4z M4161.9-242c-1.5,0-2.8-1.1-3.2-2.6c-1-5.1-2-10.1-3.1-15.2c-0.4-1.7,0.8-3.4,2.5-3.8
			c1.8-0.4,3.4,0.8,3.8,2.5c1.1,5.1,2.1,10.2,3.1,15.3c0.3,1.7-0.8,3.4-2.5,3.8C4162.4-242,4162.2-242,4161.9-242z M4155.6-272.5
			c-1.5,0-2.8-1-3.1-2.5c-1.1-5-2.2-10.1-3.3-15.1c-0.4-1.7,0.7-3.5,2.4-3.8c1.7-0.4,3.5,0.7,3.8,2.4c1.1,5.1,2.2,10.1,3.3,15.2
			c0.4,1.7-0.7,3.4-2.5,3.8C4156.1-272.5,4155.8-272.5,4155.6-272.5z M4148.8-302.8c-1.5,0-2.8-1-3.1-2.5
			c-1.2-5.1-2.4-10.1-3.6-15.1c-0.4-1.7,0.6-3.5,2.4-3.9c1.7-0.4,3.5,0.6,3.9,2.4c1.2,5.1,2.4,10.1,3.6,15.2
			c0.4,1.7-0.7,3.5-2.4,3.9C4149.3-302.8,4149.1-302.8,4148.8-302.8z M4141.5-333.1c-1.4,0-2.7-1-3.1-2.4c-1.3-5-2.6-10-3.9-15
			c-0.5-1.7,0.6-3.5,2.3-3.9c1.7-0.5,3.5,0.6,3.9,2.3c1.3,5,2.6,10,3.9,15.1c0.4,1.7-0.6,3.5-2.3,3.9
			C4142-333.1,4141.7-333.1,4141.5-333.1z M4133.5-363.2c-1.4,0-2.7-0.9-3.1-2.4c-1.4-5-2.8-10-4.2-14.9c-0.5-1.7,0.5-3.5,2.2-4
			c1.7-0.5,3.5,0.5,4,2.2c1.4,5,2.9,10,4.3,15c0.5,1.7-0.5,3.5-2.2,4C4134.1-363.2,4133.8-363.2,4133.5-363.2z M4124.8-393.1
			c-1.4,0-2.7-0.9-3.1-2.3c-1.5-5-3.1-9.9-4.6-14.8c-0.5-1.7,0.4-3.5,2.1-4c1.7-0.5,3.5,0.4,4,2.1c1.6,4.9,3.1,9.9,4.7,14.9
			c0.5,1.7-0.4,3.5-2.1,4C4125.4-393.1,4125.1-393.1,4124.8-393.1z M4115.3-422.7c-1.3,0-2.6-0.8-3-2.2c-1.7-4.9-3.4-9.9-5.1-14.6
			c-0.6-1.7,0.3-3.5,1.9-4.1c1.7-0.6,3.5,0.3,4.1,1.9c1.7,4.8,3.5,9.8,5.1,14.7c0.6,1.7-0.3,3.5-2,4.1
			C4116-422.7,4115.6-422.7,4115.3-422.7z M3799.5-433c-0.4,0-0.8-0.1-1.2-0.2c-1.7-0.6-2.5-2.5-1.8-4.2c1.1-2.8,2.2-5.6,3.3-8.4
			c0.7-1.6,2.5-2.4,4.2-1.8c1.6,0.7,2.4,2.5,1.8,4.2c-1.1,2.7-2.2,5.5-3.3,8.3C3802-433.8,3800.7-433,3799.5-433z M4104.8-452
			c-1.3,0-2.5-0.8-3-2.1c-1.9-4.9-3.8-9.7-5.7-14.4c-0.7-1.6,0.1-3.5,1.8-4.2c1.6-0.7,3.5,0.1,4.2,1.8c1.9,4.7,3.8,9.6,5.7,14.5
			c0.6,1.7-0.2,3.5-1.9,4.2C4105.6-452,4105.2-452,4104.8-452z M3808.8-455.7c-0.4,0-0.9-0.1-1.3-0.3c-1.6-0.7-2.4-2.6-1.7-4.2
			c2.1-4.9,4.2-9.7,6.3-14.3c0.7-1.6,2.7-2.3,4.3-1.6c1.6,0.7,2.3,2.6,1.6,4.3c-2.1,4.6-4.2,9.3-6.3,14.1
			C3811.2-456.5,3810-455.7,3808.8-455.7z M4093.1-480.8c-1.2,0-2.4-0.7-3-1.9c-2.1-4.8-4.3-9.6-6.4-14.1c-0.8-1.6-0.1-3.5,1.5-4.3
			c1.6-0.8,3.5-0.1,4.3,1.5c2.2,4.6,4.3,9.4,6.5,14.3c0.7,1.6,0,3.5-1.7,4.2C4093.9-480.9,4093.5-480.8,4093.1-480.8z M3821.7-484
			c-0.5,0-1-0.1-1.4-0.3c-1.6-0.8-2.3-2.7-1.5-4.3c2.3-4.8,4.7-9.5,7.1-13.9c0.8-1.6,2.8-2.2,4.4-1.3c1.6,0.8,2.2,2.8,1.3,4.4
			c-2.3,4.4-4.7,9-7,13.7C3824-484.6,3822.9-484,3821.7-484z M4079.8-508.9c-1.2,0-2.3-0.6-2.9-1.8c-2.4-4.7-4.8-9.2-7.3-13.6
			c-0.9-1.5-0.3-3.5,1.2-4.4c1.5-0.9,3.5-0.3,4.4,1.2c2.5,4.4,5,9.1,7.4,13.8c0.8,1.6,0.2,3.5-1.4,4.3
			C4080.8-509,4080.3-508.9,4079.8-508.9z M3836.3-511.4c-0.5,0-1.1-0.1-1.6-0.4c-1.5-0.9-2.1-2.9-1.2-4.4c2.7-4.6,5.4-9.1,8.1-13.4
			c1-1.5,2.9-1.9,4.4-1c1.5,1,1.9,2.9,1,4.4c-2.7,4.2-5.3,8.6-8,13.2C3838.5-512,3837.4-511.4,3836.3-511.4z M4064.5-536
			c-1.1,0-2.1-0.5-2.7-1.5c-2.8-4.5-5.7-8.8-8.5-12.8c-1-1.4-0.7-3.5,0.8-4.5c1.5-1,3.5-0.7,4.5,0.8c2.9,4.1,5.9,8.5,8.7,13.1
			c0.9,1.5,0.5,3.5-1,4.4C4065.7-536.2,4065.1-536,4064.5-536z M3852.9-537.6c-0.6,0-1.3-0.2-1.8-0.6c-1.5-1-1.8-3-0.8-4.5
			c3.1-4.4,6.3-8.6,9.4-12.6c1.1-1.4,3.1-1.6,4.5-0.5c1.4,1.1,1.6,3.1,0.5,4.5c-3.1,3.9-6.2,8-9.2,12.3
			C3854.9-538.1,3853.9-537.6,3852.9-537.6z M4046.5-561.3c-0.9,0-1.9-0.4-2.5-1.2c-3.3-4.1-6.8-7.9-10.2-11.3
			c-1.2-1.3-1.2-3.3,0-4.6c1.3-1.2,3.3-1.2,4.6,0c3.5,3.6,7.1,7.5,10.5,11.8c1.1,1.4,0.9,3.4-0.4,4.5
			C4047.9-561.5,4047.2-561.3,4046.5-561.3z M3872.3-561.8c-0.8,0-1.6-0.3-2.2-0.8c-1.3-1.2-1.4-3.2-0.2-4.5
			c3.7-4,7.4-7.8,11.1-11.2c1.3-1.2,3.3-1.1,4.5,0.2c1.2,1.3,1.1,3.3-0.2,4.5c-3.6,3.3-7.2,7-10.7,10.8
			C3874-562.2,3873.2-561.8,3872.3-561.8z M3895.1-582.8c-1,0-1.9-0.4-2.6-1.3c-1.1-1.4-0.8-3.4,0.7-4.5c4.3-3.3,8.8-6.2,13.3-8.7
			c1.5-0.9,3.5-0.3,4.4,1.2c0.9,1.5,0.3,3.5-1.2,4.4c-4.2,2.4-8.5,5.2-12.6,8.3C3896.5-583,3895.8-582.8,3895.1-582.8z
			 M4024.7-583.2c-0.7,0-1.4-0.2-2-0.7c-4-3.3-8.2-6.1-12.3-8.5c-1.5-0.9-2-2.9-1.1-4.4c0.9-1.5,2.9-2,4.4-1.1
			c4.4,2.6,8.8,5.6,13,9.1c1.4,1.1,1.6,3.1,0.5,4.5C4026.6-583.6,4025.6-583.2,4024.7-583.2z M3922.1-598.1c-1.3,0-2.5-0.8-3-2
			c-0.7-1.7,0.2-3.5,1.8-4.2c5-2,10.1-3.6,15.3-4.7c1.7-0.4,3.5,0.7,3.8,2.4c0.4,1.7-0.7,3.5-2.4,3.8c-4.8,1.1-9.7,2.6-14.3,4.4
			C3922.9-598.1,3922.5-598.1,3922.1-598.1z M3998.1-598.7c-0.4,0-0.7-0.1-1.1-0.2c-2.4-0.9-4.8-1.6-7.2-2.2
			c-2.5-0.6-4.9-1.2-7.3-1.6c-1.7-0.3-2.9-2-2.5-3.8c0.3-1.7,2-2.9,3.8-2.5c2.5,0.5,5,1.1,7.6,1.7c2.6,0.7,5.3,1.5,7.9,2.4
			c1.7,0.6,2.5,2.5,1.9,4.1C4000.7-599.5,3999.4-598.7,3998.1-598.7z M3967.8-604.8c-0.1,0-0.2,0-0.2,0c-5.1-0.4-10.2-0.4-15.1-0.1
			c-1.8,0.1-3.3-1.2-3.4-3c-0.1-1.8,1.2-3.3,3-3.4c5.2-0.3,10.6-0.3,16,0.1c1.8,0.1,3.1,1.7,3,3.5
			C3970.8-606,3969.4-604.8,3967.8-604.8z"/>
	</g>
	<path class="st23" d="M4926.1,1718l-3309.2-1.1c-2.2,0-4-1.8-4-4l0-2.1c0-2.2,1.8-4,4-4l3309.2,1.1c2.2,0,4,1.8,4,4l0,2.1
		C4930.2,1716.2,4928.4,1718,4926.1,1718z"/>
	<path class="st24" d="M2659.3,359.4c0,0,43.8-3,53.4,31.4c0,0,33.8-68.8,105.1-63.1c71.3,5.7,84.5,47.6,84.5,47.6s40.9-14,74.8,4.7
		c33.9,18.7,31.8,53,31.8,53s31.1-43.7,93.7-28.1c0,0-12.5-63.1,62.7-77.6c75.2-14.4,107.1,10.5,107.1,10.5s85.2-54.9,160.6,13.9
		c0,0,55.2-10.7,82.3,23.3c0,0,55.3-66.9,159.5-55.1v330.7H2658.8L2659.3,359.4z"/>
	<path class="st0" d="M2659.3,524.5c0,0,73.7-18.7,139.6,24.8c0,0,16-19.1,57.8-14.4c41.8,4.7,53.3,43.3,53.3,43.3
		s146.2-48.3,218.6,72.4h-469.7L2659.3,524.5z"/>
	<path class="st0" d="M3218.5,650.6c0,0,3.7-74,81-91.7c0,0-40-17.7-19.8-61.7c20.2-44,69.2-47.2,69.2-47.2s5.1-79.6,144-65.8
		c39,3.9,80.3,27.2,86.7,68c0,0,15.1-24.8,46.3-23.1c0,0,3.9-45.2,48.7-44.9v266.4H3218.5z"/>
	<g>
		<path class="st16" d="M3609.4,14.3l-58.3,202l-1.8-0.2l-199.2-24.2c0,0,92.3-19.2,101.9-30.3c9-10.4,104.8-134.2,132.9-147.5
			c1.7-0.8,3.2-1.2,4.4-1.1C3609.4,14.3,3609.4,14.3,3609.4,14.3z"/>
		<path class="st25" d="M3549.3,216.1l-199.2-24.2c0,0,92.3-19.2,101.9-30.3c9-10.4,104.8-134.2,132.9-147.5
			c-24.8,36-82.3,122.6-79.9,147.8C3507.2,185.9,3535.3,207,3549.3,216.1z"/>
		<path class="st26" d="M3570.8,276.9c-6.8,2.3-27.1,8.7-55,16.8c-80.2,23.3-222.8,60.8-285.7,56.1c-56.5-4.1-355-26.9-561.5-45
			c50-87.8,112.3-136.2,169.3-162.8c240.6,19.7,555.3,46.4,595.3,54.1c65.9,12.7,153.2,23.1,153.2,23.1s0.6,2.7,1.2,6.9
			C3589.4,239.8,3591,270,3570.8,276.9z"/>
		<path class="st24" d="M3588.6,240.7c0,0.5,0,1,0,1.5c-0.2,11-2.4,23.2-10.1,30.2c-0.3,0.2-0.5,0.5-0.8,0.7
			c-0.6,0.4-1.1,0.9-1.7,1.3c0,0,0,0,0,0v0c-0.3,0.2-0.6,0.4-0.9,0.6c-0.3,0.2-0.6,0.4-1,0.5c0,0,0,0,0,0c-0.3,0.2-0.7,0.3-1,0.5
			c-0.3,0.2-0.7,0.3-1.1,0.5c-0.3,0.1-0.7,0.3-1.1,0.4c-0.1,0-0.2,0.1-0.3,0.1v0c-0.1,0-0.2,0.1-0.3,0.1c-0.1,0-0.2,0.1-0.4,0.1v0
			c-0.1,0-0.3,0.1-0.4,0.1v0c-0.1,0-0.3,0.1-0.4,0.1c-0.1,0-0.3,0.1-0.4,0.1c0,0,0,0,0,0v0c-0.1,0-0.3,0.1-0.4,0.1
			c-0.2,0-0.3,0.1-0.5,0.1h0c-0.2,0.1-0.3,0.1-0.5,0.2c-0.2,0.1-0.3,0.1-0.5,0.2c-0.3,0.1-0.7,0.2-1.1,0.3h0
			c-0.2,0.1-0.4,0.1-0.5,0.2h0v0c-0.2,0.1-0.4,0.1-0.6,0.2c-0.1,0-0.3,0.1-0.4,0.1c-1.5,0.5-3.2,1-5,1.6c-0.3,0.1-0.7,0.2-1,0.3
			c-4.8,1.5-10.7,3.3-17.4,5.4c-0.7,0.2-1.4,0.4-2.1,0.6c-1.2,0.4-2.4,0.7-3.6,1.1c-0.3,0.1-0.5,0.2-0.8,0.2
			c-0.4,0.1-0.8,0.2-1.1,0.3c-0.4,0.1-0.8,0.2-1.1,0.3c-0.4,0.1-0.8,0.2-1.2,0.3c-0.4,0.1-0.8,0.2-1.2,0.3c-0.4,0.1-0.8,0.2-1.2,0.3
			c-0.4,0.1-0.8,0.2-1.2,0.4c-0.4,0.1-0.8,0.2-1.2,0.3c0,0,0,0,0,0c-0.4,0.1-0.8,0.2-1.2,0.3c-0.3,0.1-0.6,0.2-0.9,0.3
			c-0.1,0-0.2,0.1-0.3,0.1c-0.4,0.1-0.8,0.2-1.2,0.3c-2.1,0.6-4.2,1.2-6.4,1.9c-1.2,0.4-2.5,0.7-3.8,1.1c-1.1,0.3-2.2,0.6-3.3,1
			c-0.8,0.2-1.7,0.5-2.5,0.7c-3.3,0.9-6.7,1.9-10.2,2.9c-0.7,0.2-1.4,0.4-2.1,0.6c-1.2,0.3-2.4,0.7-3.7,1c-1.1,0.3-2.2,0.6-3.3,0.9
			c-1.2,0.3-2.5,0.7-3.7,1c-41.7,11.6-92.2,24.5-139,34c-1.6,0.3-3.3,0.7-4.9,1c-0.8,0.2-1.6,0.3-2.4,0.5c-1.6,0.3-3.3,0.6-4.9,0.9
			c-4.8,0.9-9.7,1.8-14.4,2.6c-1.6,0.3-3.1,0.6-4.7,0.8c-0.8,0.1-1.6,0.3-2.3,0.4c-1.5,0.3-3.1,0.5-4.6,0.8
			c-1.5,0.2-3.1,0.5-4.6,0.7c-1.5,0.2-3,0.5-4.5,0.7c-1.5,0.2-3,0.4-4.5,0.7c-1.5,0.2-3,0.4-4.4,0.6c-1.5,0.2-2.9,0.4-4.3,0.6
			c-0.7,0.1-1.4,0.2-2.1,0.3c-2.8,0.3-5.6,0.7-8.4,1c-0.7,0.1-1.4,0.1-2.1,0.2c-1.4,0.1-2.7,0.3-4,0.4c-2.7,0.2-5.3,0.4-7.8,0.6
			c-1.9,0.1-3.8,0.2-5.6,0.3c-1.2,0.1-2.4,0.1-3.6,0.2c-1.8,0.1-3.6,0.1-5.3,0.1c-2.3,0-4.5,0-6.7,0c-1.1,0-2.1-0.1-3.2-0.1
			c-0.5,0-1,0-1.5-0.1c-1,0-2-0.1-3-0.2c-0.3,0-0.7-0.1-1.1-0.1c-0.1,0-0.2,0-0.3,0c-0.2,0-0.5,0-0.7-0.1c-0.9-0.1-1.9-0.1-2.9-0.2
			c-0.3,0-0.6,0-0.8-0.1c-0.3,0-0.7-0.1-1.1-0.1c-0.5,0-1.1-0.1-1.7-0.1c-0.3,0-0.6,0-0.9-0.1c-0.3,0-0.6,0-0.9-0.1
			c-0.6,0-1.3-0.1-1.9-0.1c-0.7,0-1.3-0.1-2-0.1c-0.3,0-0.7,0-1-0.1c-0.9-0.1-1.7-0.1-2.6-0.2c-0.4,0-0.8-0.1-1.3-0.1
			c-0.9-0.1-1.8-0.1-2.7-0.2c-0.4,0-0.8,0-1.2-0.1c-1.1-0.1-2.3-0.2-3.5-0.3c-3.3-0.2-6.8-0.5-10.6-0.8c-0.4,0-0.9-0.1-1.4-0.1
			c-0.9-0.1-1.9-0.1-2.8-0.2c-1.4-0.1-2.9-0.2-4.4-0.3c-0.6-0.1-1.2-0.1-1.8-0.1c-1.4-0.1-2.8-0.2-4.3-0.3c-0.5,0-1.1-0.1-1.6-0.1
			c-1-0.1-2-0.2-3-0.2l-3.3-0.3c-0.6,0-1.2-0.1-1.8-0.1c-0.5,0-1.1-0.1-1.6-0.1c-0.9-0.1-1.8-0.1-2.7-0.2c-5.1-0.4-10.5-0.8-16-1.2
			c-0.8-0.1-1.6-0.1-2.4-0.2c-1.2-0.1-2.5-0.2-3.7-0.3c-2.9-0.2-5.9-0.4-8.9-0.7c-0.2,0-0.5,0-0.7-0.1c-2.6-0.2-5.2-0.4-7.9-0.6
			c-0.1,0-0.3,0-0.4,0c-15.9-1.2-33-2.6-51.2-4c-0.9-0.1-1.8-0.1-2.8-0.2c-3.7-0.3-7.4-0.6-11.1-0.9c-2.3-0.2-4.7-0.4-7.1-0.6
			c-0.1,0-0.3,0-0.4,0c-2.7-0.2-5.4-0.4-8.1-0.6c-0.3,0-0.7-0.1-1-0.1c-4.8-0.4-9.7-0.8-14.6-1.1c-1.3-0.1-2.5-0.2-3.8-0.3
			c-0.4,0-0.8-0.1-1.2-0.1c-4.3-0.3-8.6-0.7-13-1c-1.9-0.1-3.8-0.3-5.7-0.4c-1.3-0.1-2.5-0.2-3.8-0.3c-2.6-0.2-5.2-0.4-7.7-0.6
			c-3.9-0.3-7.8-0.6-11.7-0.9c-0.3,0-0.7-0.1-1-0.1c-1.6-0.1-3.2-0.3-4.8-0.4c-0.1,0-0.2,0-0.3,0c-4.8-0.4-9.6-0.8-14.5-1.1
			c-0.1,0-0.3,0-0.4,0c-0.5,0-1-0.1-1.5-0.1c-2.9-0.2-5.7-0.4-8.6-0.7c-2.2-0.2-4.3-0.3-6.5-0.5c-1.3-0.1-2.7-0.2-4-0.3
			c-5.6-0.4-11.3-0.9-16.9-1.3l-0.1,0c-9.4-0.8-18.8-1.5-28.3-2.3c-1.3-0.1-2.6-0.2-3.9-0.3l-0.3,0c-4.2-0.3-8.3-0.7-12.5-1
			c-1.3-0.1-2.6-0.2-3.8-0.3c-3.6-0.3-7.2-0.6-10.8-0.9c-7.3-0.6-14.6-1.2-21.9-1.8c-4.6-0.4-9.2-0.8-13.8-1.1
			c-2.9-0.2-5.8-0.5-8.7-0.7c-6.9-0.6-13.8-1.1-20.6-1.7c-0.3,0-0.7-0.1-1-0.1c-4.3-0.4-8.6-0.7-12.9-1.1c-6.1-0.5-12.2-1-18.3-1.5
			c-2.4-0.2-4.9-0.4-7.3-0.6c-0.7-0.1-1.5-0.1-2.2-0.2c-4.9-0.4-9.8-0.8-14.6-1.2c-0.7-0.1-1.4-0.1-2.1-0.2
			c-3.3-0.3-6.6-0.6-9.9-0.9c-14-1.2-27.7-2.4-41.2-3.5c-1.6-0.1-3.2-0.3-4.8-0.4c-1-0.1-2-0.2-2.9-0.2c-1.3-0.1-2.6-0.2-3.9-0.3
			c-2.6-0.2-5.2-0.4-7.8-0.7c-50.1-4.4-94.7-8.5-129.2-12c-3.5-0.3-6.9-0.7-10.2-1c-8.2-0.9-15.7-1.7-22.4-2.4
			c-19.1-2.2-32.1-4-37.3-5.3c-27.9-7-74.4-25.5-102.9-44.8c-17.2-11.6-27.8-23.4-23.9-33.2c5-12.4,15.9-19.9,27.1-25.5
			c9.7-4.8,19.6-8.1,26.1-11.9c0.4-0.2,0.7-0.4,1.1-0.7c1.2-0.8,2.3-1.5,3.2-2.3c0.1-0.1,0.3-0.3,0.5-0.4c2.5-2.3,6.7-6.2,12.7-10.7
			c4-3,8.8-6.3,14.5-9.7c0,0,0.1,0,0.1-0.1c25-14.6,66.7-30.1,130.3-25.5c0,0,124.4,9.8,279.6,22.6c0,0,0,0,0,0
			c15.5,1.3,31.2,2.6,47.2,3.9c0,0,0,0,0,0c5.3,0.4,10.7,0.9,16.1,1.3c8.1,0.7,16.2,1.3,24.3,2c0,0,0,0,0,0
			c13.6,1.1,27.2,2.3,40.9,3.4c2.7,0.2,5.5,0.5,8.2,0.7c5.5,0.5,11,0.9,16.5,1.4c11,0.9,22,1.9,33,2.8c5.5,0.5,10.9,0.9,16.4,1.4
			c19.5,1.7,39,3.3,58.1,5h0.1c55.3,4.7,108.4,9.4,155.5,13.6c0,0,0,0,0,0c2.5,0.2,5,0.4,7.4,0.7c27.6,2.5,53.1,4.9,75.5,7.1
			c10.7,1.1,20.8,2.1,30,3c33.6,3.4,57,6.2,66.1,7.9c23.7,4.6,50.2,8.9,74.4,12.5c2,0.3,4,0.6,5.9,0.9c0.1,0,0.2,0,0.3,0
			c3,0.4,5.9,0.9,8.9,1.3c0.1,0,0.2,0,0.3,0c3.4,0.5,6.6,0.9,9.8,1.4c4.7,0.7,9.2,1.3,13.4,1.8c1.8,0.2,3.6,0.5,5.4,0.7
			c20.9,2.8,34.8,4.4,34.8,4.4s0.1,0.4,0.2,1.1c0,0.1,0,0.1,0,0.2c0,0.2,0.1,0.4,0.1,0.6c0.1,0.4,0.2,1,0.3,1.6
			c0.1,0.8,0.3,1.7,0.4,2.7c0,0,0,0,0,0c0,0.2,0.1,0.5,0.1,0.8c0.1,0.8,0.2,1.7,0.3,2.7c0.1,0.7,0.1,1.4,0.2,2.1
			c0,0.4,0.1,0.8,0.1,1.2c0,0.4,0.1,0.9,0.1,1.3c0,0.7,0.1,1.3,0.1,2c0,0.3,0,0.6,0,0.8c0,0.5,0,1,0.1,1.4c0,0.3,0,0.5,0,0.8
			c0,0.5,0,1,0,1.5C3588.5,240.2,3588.5,240.4,3588.6,240.7z"/>
		<path class="st27" d="M3588.6,240.7c0,0.5,0,1,0,1.5c-0.2,11-2.4,23.2-10.1,30.2c-0.3,0.2-0.5,0.5-0.8,0.7
			c-0.6,0.4-1.1,0.9-1.7,1.3c0,0,0,0,0,0v0c-0.3,0.2-0.6,0.4-0.9,0.6c-0.3,0.2-0.6,0.4-1,0.5c0,0,0,0,0,0c-0.3,0.2-0.7,0.3-1,0.5
			c-0.3,0.2-0.7,0.3-1.1,0.5c-0.3,0.1-0.7,0.3-1.1,0.4c-0.1,0-0.2,0.1-0.3,0.1v0c-0.1,0-0.2,0.1-0.3,0.1c-0.1,0-0.2,0.1-0.4,0.1v0
			c-0.1,0-0.3,0.1-0.4,0.1v0c-0.1,0-0.3,0.1-0.4,0.1c-0.1,0-0.3,0.1-0.4,0.1c0,0,0,0,0,0v0c-0.1,0-0.3,0.1-0.4,0.1
			c-0.2,0-0.3,0.1-0.5,0.1h0c-0.2,0.1-0.3,0.1-0.5,0.2c-0.2,0.1-0.3,0.1-0.5,0.2c-0.3,0.1-0.7,0.2-1.1,0.3h0
			c-0.2,0.1-0.4,0.1-0.5,0.2h0v0c-0.2,0.1-0.4,0.1-0.6,0.2c-0.1,0-0.3,0.1-0.4,0.1c-1.5,0.5-3.2,1-5,1.6c-0.3,0.1-0.7,0.2-1,0.3
			c-4.8,1.5-10.7,3.3-17.4,5.4c-0.7,0.2-1.4,0.4-2.1,0.6c-1.2,0.4-2.4,0.7-3.6,1.1c-0.3,0.1-0.5,0.2-0.8,0.2
			c-0.4,0.1-0.8,0.2-1.1,0.3c-0.4,0.1-0.8,0.2-1.1,0.3c-0.4,0.1-0.8,0.2-1.2,0.3c-0.4,0.1-0.8,0.2-1.2,0.3c-0.4,0.1-0.8,0.2-1.2,0.3
			c-0.4,0.1-0.8,0.2-1.2,0.4c-0.4,0.1-0.8,0.2-1.2,0.3c0,0,0,0,0,0c-0.4,0.1-0.8,0.2-1.2,0.3c-0.3,0.1-0.6,0.2-0.9,0.3
			c-0.1,0-0.2,0.1-0.3,0.1c-0.4,0.1-0.8,0.2-1.2,0.3c-2.1,0.6-4.2,1.2-6.4,1.9c-1.2,0.4-2.5,0.7-3.8,1.1c-1.1,0.3-2.2,0.6-3.3,1
			c-0.8,0.2-1.7,0.5-2.5,0.7c-3.3,0.9-6.7,1.9-10.2,2.9c-0.7,0.2-1.4,0.4-2.1,0.6c-1.2,0.3-2.4,0.7-3.7,1c-1.1,0.3-2.2,0.6-3.3,0.9
			c-1.2,0.3-2.5,0.7-3.7,1c-41.7,11.6-92.2,24.5-139,34c-1.6,0.3-3.3,0.7-4.9,1c-0.8,0.2-1.6,0.3-2.4,0.5c-1.6,0.3-3.3,0.6-4.9,0.9
			c-4.8,0.9-9.7,1.8-14.4,2.6c-1.6,0.3-3.1,0.6-4.7,0.8c-0.8,0.1-1.6,0.3-2.3,0.4c-1.5,0.3-3.1,0.5-4.6,0.8
			c-1.5,0.2-3.1,0.5-4.6,0.7c-1.5,0.2-3,0.5-4.5,0.7c-1.5,0.2-3,0.4-4.5,0.7c-1.5,0.2-3,0.4-4.4,0.6c-1.5,0.2-2.9,0.4-4.3,0.6
			c-0.7,0.1-1.4,0.2-2.1,0.3c-2.8,0.3-5.6,0.7-8.4,1c-0.7,0.1-1.4,0.1-2.1,0.2c-1.4,0.1-2.7,0.3-4,0.4c-2.7,0.2-5.3,0.4-7.8,0.6
			c-1.9,0.1-3.8,0.2-5.6,0.3c-1.2,0.1-2.4,0.1-3.6,0.2c-1.8,0.1-3.6,0.1-5.3,0.1c-2.3,0-4.5,0-6.7,0c-1.1,0-2.1-0.1-3.2-0.1
			c-0.5,0-1,0-1.5-0.1c-1,0-2-0.1-3-0.2c-0.3,0-0.7-0.1-1.1-0.1c-0.1,0-0.2,0-0.3,0c-0.2,0-0.5,0-0.7-0.1c-0.9-0.1-1.9-0.1-2.9-0.2
			c-0.3,0-0.6,0-0.8-0.1c-0.3,0-0.7-0.1-1.1-0.1c-0.5,0-1.1-0.1-1.7-0.1c-0.3,0-0.6,0-0.9-0.1c-0.3,0-0.6,0-0.9-0.1
			c-0.6,0-1.3-0.1-1.9-0.1c-0.7,0-1.3-0.1-2-0.1c-0.3,0-0.7,0-1-0.1c-0.9-0.1-1.7-0.1-2.6-0.2c-0.4,0-0.8-0.1-1.3-0.1
			c-0.9-0.1-1.8-0.1-2.7-0.2c-0.4,0-0.8,0-1.2-0.1c-1.1-0.1-2.3-0.2-3.5-0.3c-3.3-0.2-6.8-0.5-10.6-0.8c-0.4,0-0.9-0.1-1.4-0.1
			c-0.9-0.1-1.9-0.1-2.8-0.2c-1.4-0.1-2.9-0.2-4.4-0.3c-0.6-0.1-1.2-0.1-1.8-0.1c-1.4-0.1-2.8-0.2-4.3-0.3c-0.5,0-1.1-0.1-1.6-0.1
			c-1-0.1-2-0.2-3-0.2l-3.3-0.3c-0.6,0-1.2-0.1-1.8-0.1c-0.5,0-1.1-0.1-1.6-0.1c-0.9-0.1-1.8-0.1-2.7-0.2c-5.1-0.4-10.5-0.8-16-1.2
			c-0.8-0.1-1.6-0.1-2.4-0.2c-1.2-0.1-2.5-0.2-3.7-0.3c-2.9-0.2-5.9-0.4-8.9-0.7c-0.2,0-0.5,0-0.7-0.1c-2.6-0.2-5.2-0.4-7.9-0.6
			c-0.1,0-0.3,0-0.4,0c-15.9-1.2-33-2.6-51.2-4c-0.9-0.1-1.8-0.1-2.8-0.2c-3.7-0.3-7.4-0.6-11.1-0.9c-2.3-0.2-4.7-0.4-7.1-0.6
			c-0.1,0-0.3,0-0.4,0c-2.7-0.2-5.4-0.4-8.1-0.6c-0.3,0-0.7-0.1-1-0.1c-4.8-0.4-9.7-0.8-14.6-1.1c-1.3-0.1-2.5-0.2-3.8-0.3
			c-0.4,0-0.8-0.1-1.2-0.1c-4.3-0.3-8.6-0.7-13-1c-1.9-0.1-3.8-0.3-5.7-0.4c-1.3-0.1-2.5-0.2-3.8-0.3c-2.6-0.2-5.2-0.4-7.7-0.6
			c-3.9-0.3-7.8-0.6-11.7-0.9c-0.3,0-0.7-0.1-1-0.1c-1.6-0.1-3.2-0.3-4.8-0.4c-0.1,0-0.2,0-0.3,0c-4.8-0.4-9.6-0.8-14.5-1.1
			c-0.1,0-0.3,0-0.4,0c-0.5,0-1-0.1-1.5-0.1c109-60.7,140.1-165.1,140.1-165.1h0.1c55.3,4.7,108.4,9.4,155.5,13.6c0,0,0,0,0,0
			c2.5,0.2,5,0.4,7.4,0.7c27.6,2.5,53.1,4.9,75.5,7.1c10.7,1.1,20.8,2.1,30,3c33.6,3.4,57,6.2,66.1,7.9c23.7,4.6,50.2,8.9,74.4,12.5
			c2,0.3,4,0.6,5.9,0.9c0.1,0,0.2,0,0.3,0c3,0.4,5.9,0.9,8.9,1.3c0.1,0,0.2,0,0.3,0c3.4,0.5,6.6,0.9,9.8,1.4
			c4.7,0.7,9.2,1.3,13.4,1.8c1.8,0.2,3.6,0.5,5.4,0.7c20.9,2.8,34.8,4.4,34.8,4.4s0.1,0.4,0.2,1.1c0,0.1,0,0.1,0,0.2
			c0,0.2,0.1,0.4,0.1,0.6c0.1,0.4,0.2,1,0.3,1.6c0.1,0.8,0.3,1.7,0.4,2.7c0,0,0,0,0,0c0,0.2,0.1,0.5,0.1,0.8
			c0.1,0.8,0.2,1.7,0.3,2.7c0.1,0.7,0.1,1.4,0.2,2.1c0,0.4,0.1,0.8,0.1,1.2c0,0.4,0.1,0.9,0.1,1.3c0,0.7,0.1,1.3,0.1,2
			c0,0.3,0,0.6,0,0.8c0,0.5,0,1,0.1,1.4c0,0.3,0,0.5,0,0.8c0,0.5,0,1,0,1.5C3588.5,240.2,3588.5,240.4,3588.6,240.7z"/>
		<path class="st28" d="M3570.8,276.9c-6.8,2.3-27.1,8.7-55,16.8c-9.3-39-39.3-55.2-39.3-55.2l111.1-12.4
			C3589.4,239.8,3591,270,3570.8,276.9z"/>
		<g>
			<path class="st25" d="M2977,225.5L2977,225.5c-3.6-0.3-6.3-3.9-5.9-8l0.7-7.8c0.4-4.1,3.6-7.1,7.3-6.8l0,0c3.6,0.3,6.3,3.9,5.9,8
				l-0.7,7.8C2983.9,222.7,2980.6,225.8,2977,225.5z"/>
			<path class="st25" d="M2943,222.5L2943,222.5c-3.6-0.3-6.3-3.9-5.9-8l0.7-7.8c0.4-4.1,3.6-7.1,7.3-6.8l0,0c3.6,0.3,6.3,3.9,5.9,8
				l-0.7,7.8C2949.8,219.8,2946.6,222.8,2943,222.5z"/>
			<path class="st25" d="M2908.9,219.6L2908.9,219.6c-3.6-0.3-6.3-3.9-5.9-8l0.7-7.8c0.4-4.1,3.6-7.1,7.3-6.8l0,0
				c3.6,0.3,6.3,3.9,5.9,8l-0.7,7.8C2915.8,216.8,2912.6,219.9,2908.9,219.6z"/>
			<path class="st25" d="M2874.9,216.6L2874.9,216.6c-3.6-0.3-6.3-3.9-5.9-8l0.7-7.8c0.4-4.1,3.6-7.1,7.3-6.8l0,0
				c3.6,0.3,6.3,3.9,5.9,8l-0.7,7.8C2881.8,213.9,2878.5,217,2874.9,216.6z"/>
			<path class="st25" d="M2840.9,213.7L2840.9,213.7c-3.6-0.3-6.3-3.9-5.9-8l0.7-7.8c0.4-4.1,3.6-7.1,7.3-6.8l0,0
				c3.6,0.3,6.3,3.9,5.9,8l-0.7,7.8C2847.8,210.9,2844.5,214,2840.9,213.7z"/>
			<path class="st25" d="M2806.9,210.8L2806.9,210.8c-3.6-0.3-6.3-3.9-5.9-8l0.7-7.8c0.4-4.1,3.6-7.1,7.3-6.8l0,0
				c3.6,0.3,6.3,3.9,5.9,8l-0.7,7.8C2813.8,208,2810.5,211.1,2806.9,210.8z"/>
			<path class="st25" d="M2772.9,207.8L2772.9,207.8c-3.6-0.3-6.3-3.9-5.9-8l0.7-7.8c0.4-4.1,3.6-7.1,7.3-6.8l0,0
				c3.6,0.3,6.3,3.9,5.9,8l-0.7,7.8C2779.8,205.1,2776.5,208.1,2772.9,207.8z"/>
			<path class="st25" d="M2738.8,204.9L2738.8,204.9c-3.6-0.3-6.3-3.9-5.9-8l0.7-7.8c0.4-4.1,3.6-7.1,7.3-6.8l0,0
				c3.6,0.3,6.3,3.9,5.9,8l-0.7,7.8C2745.7,202.1,2742.5,205.2,2738.8,204.9z"/>
			<path class="st25" d="M2704.8,202L2704.8,202c-3.6-0.3-6.3-3.9-5.9-8l0.7-7.8c0.4-4.1,3.6-7.1,7.3-6.8l0,0c3.6,0.3,6.3,3.9,5.9,8
				l-0.7,7.8C2711.7,199.2,2708.5,202.3,2704.8,202z"/>
			<path class="st25" d="M2671.5,199.1L2671.5,199.1c-3.6-0.3-6.3-3.9-5.9-8l0.7-7.8c0.4-4.1,3.6-7.1,7.3-6.8l0,0
				c3.6,0.3,6.3,3.9,5.9,8l-0.7,7.8C2678.4,196.3,2675.1,199.4,2671.5,199.1z"/>
			<path class="st25" d="M2637.5,196.1L2637.5,196.1c-3.6-0.3-6.3-3.9-5.9-8l0.7-7.8c0.4-4.1,3.6-7.1,7.3-6.8l0,0
				c3.6,0.3,6.3,3.9,5.9,8l-0.7,7.8C2644.4,193.4,2641.1,196.4,2637.5,196.1z"/>
			<path class="st25" d="M2603.5,193.2L2603.5,193.2c-3.6-0.3-6.3-3.9-5.9-8l0.7-7.8c0.4-4.1,3.6-7.1,7.3-6.8l0,0
				c3.6,0.3,6.3,3.9,5.9,8l-0.7,7.8C2610.3,190.4,2607.1,193.5,2603.5,193.2z"/>
			<path class="st25" d="M2561.3,189.2L2561.3,189.2c-3.6-0.3-6.3-3.9-5.9-8l0.7-7.8c0.4-4.1,3.6-7.1,7.3-6.8l0,0
				c3.6,0.3,6.3,3.9,5.9,8l-0.7,7.8C2568.2,186.4,2564.9,189.5,2561.3,189.2z"/>
		</g>
		<g>
			<path class="st25" d="M3348.1,261.5L3348.1,261.5c-3.6-0.3-6.3-3.9-5.9-8l0.7-7.8c0.4-4.1,3.6-7.1,7.3-6.8l0,0
				c3.6,0.3,6.3,3.9,5.9,8l-0.7,7.8C3355,258.7,3351.8,261.8,3348.1,261.5z"/>
			<path class="st25" d="M3314.1,258.5L3314.1,258.5c-3.6-0.3-6.3-3.9-5.9-8l0.7-7.8c0.4-4.1,3.6-7.1,7.3-6.8l0,0
				c3.6,0.3,6.3,3.9,5.9,8l-0.7,7.8C3321,255.8,3317.7,258.8,3314.1,258.5z"/>
			<path class="st25" d="M3280.1,255.6L3280.1,255.6c-3.6-0.3-6.3-3.9-5.9-8l0.7-7.8c0.4-4.1,3.6-7.1,7.3-6.8l0,0
				c3.6,0.3,6.3,3.9,5.9,8l-0.7,7.8C3287,252.8,3283.7,255.9,3280.1,255.6z"/>
		</g>
		<path class="st25" d="M2434,145.3l-23.2,21.9l-13.8,0.9c1.2-0.8,2.3-1.5,3.2-2.3c0.2-0.1,0.3-0.3,0.5-0.4
			c2.5-2.3,6.7-6.2,12.7-10.7c4-3,8.8-6.3,14.6-9.7c0,0,0.1,0,0.1-0.1L2434,145.3z"/>
		<polygon class="st25" points="2439,146.1 2416.4,168.2 2442.1,173.7 2450.2,148.4 		"/>
		<polygon class="st25" points="2452.6,149.2 2446.7,172.9 2465.7,167.5 2466.9,151 		"/>
		<path class="st25" d="M2916.6,330.8c10-3.9,12.6-21.3,4.3-28.8c-8.3-7.5-19.6-14.9-32.3-15.9c-26.2-1.9-15.5,51.4-6.9,52.5
			C2886.9,339.2,2903.3,336,2916.6,330.8z"/>
		<path class="st29" d="M3474.2,227.9c1.1-1.4,98.4-33.5,162-19.6l-61.3,38.6l-98.5-8.5C3476.5,238.5,3469,235,3474.2,227.9z"/>
		<path class="st24" d="M3427.2,3.2c0,0-65.2,144-77.6,165.9c-12.4,21.9-39.5,35.8-39.5,35.8l-0.2,0.1l-172.7,70.2
			c0,0-215.4-17-262.2-22.2c0,0,0,0,0,0c-4.2-0.5-7.1-0.9-8.3-1.1c-14.2-3-20.9-9.6-18.2-14.8c2.7-5.2,333.9-44.9,370.5-49
			c0.3,0,0.7-0.1,1-0.1c35.7-4.2,39-16.4,39-16.4L3395.8,15c1.7-2.9,4.6-5.1,7.9-6.7C3413.5,3.4,3427.2,3.2,3427.2,3.2z"/>
		<path class="st16" d="M3403.7,8.3c-36.8,44.6-138.5,167.7-148.1,176.1c-10.4,9-307.5,56.8-380.5,68.6c0,0,0,0,0,0
			c-4.2-0.5-7.1-0.9-8.3-1.1c-14.2-3-20.9-9.6-18.2-14.8c2.7-5.2,333.9-44.9,370.5-49c36.7-4.1,40-16.5,40-16.5L3395.8,15
			C3397.5,12.1,3400.4,9.9,3403.7,8.3z"/>
		<path class="st24" d="M3427.2,3.2c0,0-65.2,144-77.6,165.9c-12.4,21.9-39.5,35.8-39.5,35.8l-0.2,0.1c-37.5-0.9-69.1-9.6-89.8-17
			c35.7-4.2,39-16.4,39-16.4L3395.8,15c1.7-2.9,4.6-5.1,7.9-6.7C3413.5,3.4,3427.2,3.2,3427.2,3.2z"/>
		<path class="st30" d="M2894.5,273.6l-6.6,72.6c0,0-27.8,10-71.2,7.7c-26.6-1.4-44.3-7.2-54-11.5c-6.2-2.7-9.1-4.8-9.1-4.8
			l6.9-76.2c2.4-2.1,5.9-3.6,10-4.7c34.3-8.8,118.7,13.9,118.7,13.9L2894.5,273.6z"/>
		<path class="st31" d="M2770.5,256.7l-7.7,85.7c-6.2-2.7-9.1-4.8-9.1-4.8l6.9-76.2C2763,259.3,2766.4,257.7,2770.5,256.7z"/>
	</g>
	<g>
		<path class="st22" d="M2344.1,1580.7l510.2-136.2c10.8-2.9,18-11.5,15.9-19.2L2584.2,350c-2-7.7-12.5-11.6-23.3-8.7l-510.2,136.2
			c-10.8,2.9-18,11.5-15.9,19.2l286,1075.4C2322.8,1579.7,2333.3,1583.6,2344.1,1580.7z"/>
		<path class="st32" d="M2344.1,1580.7l41.9-11.2L2092.6,466.3l-41.9,11.2c-10.8,2.9-18,11.5-15.9,19.2l286,1075.4
			C2322.8,1579.7,2333.3,1583.6,2344.1,1580.7z"/>
		<polygon class="st33" points="2493.5,827.7 2407.6,504.8 2342.1,522.3 2428,845.1 		"/>
		<polygon class="st33" points="2675,925.6 2552.8,466.1 2487.4,483.5 2609.6,943 		"/>
		<polygon class="st32" points="2531.8,717.7 2470.7,488 2456.1,491.9 2517.2,721.6 		"/>
		<polygon class="st32" points="2387.6,756.2 2326.4,526.5 2311.8,530.4 2373,760.1 		"/>
		<path class="st32" d="M2210.7,551.6l1.4,3.8c0,0.1,0.1,0.3,0.2,0.4l18.1,26.2c0.2,0.3,0.3,0.7,0.3,1.1l-1.3,46.3
			c-0.1,1.2-5.4-4-6.4-4.7c-11-7.6-40.4-33.5-52.8-42.8c-2-1.5-4.8,0.1-4.5,2.6c0.1,1.2,0.6,2.3,1.4,3.2l42.4,51.8l-2.2,9.8
			c-0.3,1.4,0.6,2.8,2,3.2l7.6,1.7c1.4,0.3,2.8-0.5,3.1-1.9l5.5,6.7c0.3,0.3,0.4,0.7,0.4,1.1l-2.7,42c-0.2,3.7,0.8,7.4,3,10.4
			c0.9,1.2,1.8,2.5,2.7,3.8c1.8,2.5,5.4,3,7.9,1.1l1.2-1c4-3.2,6.4-8,6.5-13.1l0.7-33.5c0-0.7,0.4-1.3,1.1-1.5l12.7-4.8l-0.5,2.1
			c-0.3,1.4,0.6,2.8,2,3.2l7.6,1.7c1.4,0.3,2.8-0.6,3.2-2l2.4-10.5l19.8-7.4c1.6-0.6,3-1.7,4-3c1.3-1.8,2.7-3.7,2.4-4
			c-1.1-1.2-36.6-3.8-50.3-4.1c-0.8,0-0.7-6.6-0.6-7.4l-1.9-44.7c0-0.6,0.3-1.1,0.9-1.4l11.1-5.9c1.2-0.7,2.2-1.7,2.8-3l0-0.1
			c0.4-0.9-0.1-2-1.1-2.2l-17.7-4.3c-0.5-0.1-0.9-0.5-1.1-1l-1.7-4.3c-0.5-1.3-2.4-1.4-3-0.1l-0.6,1.4l-23.3-16.4
			C2211.9,548.8,2210.1,550.1,2210.7,551.6z"/>
	</g>
	<g>
		<path class="st16" d="M2725.1,1706.8H2040V778.5h686c17.7,0,32.1,14.4,32.1,32.1v863.3C2758,1692,2743.3,1706.8,2725.1,1706.8z"/>
		<g>
			<path class="st34" d="M2145.2,895.9V925h-13.6v-78.3h29.9c4.6,0,8.6,0.6,12.1,1.9c3.5,1.2,6.5,3,8.9,5.2c2.4,2.2,4.3,4.9,5.6,7.9
				c1.3,3,1.9,6.4,1.9,9.9c0,3.8-0.6,7.2-1.9,10.2c-1.3,3-3.1,5.6-5.6,7.6c-2.4,2.1-5.4,3.7-8.9,4.8c-3.5,1.1-7.6,1.7-12.1,1.7
				H2145.2z M2145.2,885h16.3c2.6,0,4.9-0.3,6.7-1c1.9-0.6,3.4-1.6,4.6-2.7c1.2-1.2,2.1-2.6,2.7-4.2c0.6-1.6,0.8-3.4,0.8-5.3
				c0-1.8-0.3-3.6-0.8-5.3c-0.6-1.7-1.4-3.2-2.7-4.5c-1.2-1.3-2.8-2.3-4.6-3.1c-1.9-0.8-4.1-1.2-6.7-1.2h-16.3V885z"/>
			<path class="st34" d="M2236.2,906.8h-30.3l-6.3,18.2h-14.1l29.6-78.3h12.2l29.6,78.3h-14.2L2236.2,906.8z M2209.7,895.8h22.7
				l-11.3-32.5L2209.7,895.8z"/>
			<path class="st34" d="M2306.5,904.9c0-1.6-0.2-3-0.7-4.2c-0.5-1.2-1.3-2.4-2.6-3.4c-1.2-1-2.9-2-5.1-3c-2.2-0.9-5-1.9-8.4-3
				c-3.7-1.1-7.2-2.4-10.3-3.8c-3.2-1.4-5.9-3.1-8.1-5c-2.3-1.9-4.1-4.1-5.3-6.6c-1.3-2.5-1.9-5.3-1.9-8.5c0-3.2,0.7-6.1,2-8.7
				c1.3-2.7,3.2-4.9,5.7-6.9c2.4-1.9,5.4-3.4,8.8-4.5c3.4-1.1,7.2-1.6,11.3-1.6c4.4,0,8.4,0.6,11.9,1.9c3.5,1.3,6.5,3,8.9,5.2
				c2.4,2.2,4.3,4.7,5.6,7.6c1.3,2.9,1.9,6,1.9,9.2h-13.5c0-1.9-0.3-3.6-0.9-5.2c-0.6-1.6-1.5-3-2.7-4.1c-1.2-1.2-2.8-2.1-4.6-2.7
				c-1.9-0.6-4.1-1-6.6-1c-2.4,0-4.5,0.3-6.2,0.8c-1.8,0.5-3.2,1.3-4.4,2.3c-1.2,1-2,2.1-2.6,3.4c-0.6,1.3-0.8,2.8-0.8,4.3
				c0,2.9,1.4,5.3,4.1,7.3c2.7,1.9,6.9,3.7,12.6,5.4c4.4,1.3,8.2,2.7,11.4,4.3c3.2,1.6,5.9,3.4,8,5.3c2.1,2,3.7,4.2,4.8,6.7
				c1,2.5,1.6,5.3,1.6,8.4c0,3.3-0.7,6.3-2,8.9c-1.3,2.6-3.2,4.9-5.6,6.7c-2.4,1.8-5.3,3.3-8.8,4.2c-3.4,1-7.3,1.5-11.5,1.5
				c-3.8,0-7.5-0.5-11.1-1.5c-3.7-1-6.9-2.6-9.8-4.6s-5.2-4.6-7-7.7c-1.8-3.1-2.7-6.7-2.7-10.9h13.6c0,2.5,0.4,4.6,1.3,6.4
				c0.9,1.8,2.1,3.2,3.6,4.4c1.5,1.1,3.3,2,5.4,2.5c2.1,0.5,4.3,0.8,6.7,0.8c4.7,0,8.3-1,10.7-2.9
				C2305.3,910.5,2306.5,908,2306.5,904.9z"/>
			<path class="st34" d="M2373,904.9c0-1.6-0.2-3-0.7-4.2c-0.5-1.2-1.3-2.4-2.6-3.4c-1.2-1-2.9-2-5.1-3c-2.2-0.9-5-1.9-8.4-3
				c-3.7-1.1-7.2-2.4-10.3-3.8c-3.2-1.4-5.9-3.1-8.1-5c-2.3-1.9-4.1-4.1-5.3-6.6c-1.3-2.5-1.9-5.3-1.9-8.5c0-3.2,0.7-6.1,2-8.7
				c1.3-2.7,3.2-4.9,5.7-6.9c2.4-1.9,5.4-3.4,8.8-4.5c3.4-1.1,7.2-1.6,11.3-1.6c4.4,0,8.4,0.6,11.9,1.9s6.5,3,8.9,5.2
				c2.4,2.2,4.3,4.7,5.6,7.6c1.3,2.9,1.9,6,1.9,9.2H2373c0-1.9-0.3-3.6-0.9-5.2c-0.6-1.6-1.5-3-2.7-4.1c-1.2-1.2-2.8-2.1-4.6-2.7
				c-1.9-0.6-4.1-1-6.6-1c-2.4,0-4.5,0.3-6.2,0.8c-1.8,0.5-3.2,1.3-4.4,2.3c-1.2,1-2,2.1-2.6,3.4c-0.6,1.3-0.8,2.8-0.8,4.3
				c0,2.9,1.4,5.3,4.1,7.3c2.7,1.9,6.9,3.7,12.5,5.4c4.4,1.3,8.2,2.7,11.4,4.3c3.2,1.6,5.9,3.4,8,5.3c2.1,2,3.7,4.2,4.8,6.7
				c1,2.5,1.6,5.3,1.6,8.4c0,3.3-0.7,6.3-2,8.9c-1.3,2.6-3.2,4.9-5.6,6.7c-2.4,1.8-5.3,3.3-8.8,4.2c-3.4,1-7.3,1.5-11.5,1.5
				c-3.8,0-7.5-0.5-11.1-1.5c-3.7-1-6.9-2.6-9.8-4.6c-2.9-2.1-5.2-4.6-7-7.7c-1.8-3.1-2.7-6.7-2.7-10.9h13.6c0,2.5,0.4,4.6,1.3,6.4
				c0.9,1.8,2.1,3.2,3.6,4.4c1.5,1.1,3.3,2,5.4,2.5c2.1,0.5,4.3,0.8,6.7,0.8c4.7,0,8.3-1,10.7-2.9C2371.8,910.5,2373,908,2373,904.9
				z"/>
			<path class="st34" d="M2412.1,895.9V925h-13.6v-78.3h29.9c4.5,0,8.6,0.6,12.1,1.9c3.5,1.2,6.5,3,8.9,5.2c2.4,2.2,4.3,4.9,5.6,7.9
				c1.3,3,1.9,6.4,1.9,9.9c0,3.8-0.6,7.2-1.9,10.2c-1.3,3-3.1,5.6-5.6,7.6c-2.4,2.1-5.4,3.7-8.9,4.8c-3.5,1.1-7.6,1.7-12.1,1.7
				H2412.1z M2412.1,885h16.3c2.6,0,4.9-0.3,6.7-1c1.9-0.6,3.4-1.6,4.6-2.7c1.2-1.2,2.1-2.6,2.7-4.2c0.6-1.6,0.8-3.4,0.8-5.3
				c0-1.8-0.3-3.6-0.8-5.3c-0.6-1.7-1.4-3.2-2.7-4.5c-1.2-1.3-2.8-2.3-4.6-3.1c-1.9-0.8-4.1-1.2-6.7-1.2h-16.3V885z"/>
			<path class="st34" d="M2531.3,887.9c0,5.9-0.8,11.3-2.3,16c-1.6,4.7-3.8,8.7-6.6,12c-2.8,3.3-6.2,5.8-10.2,7.6s-8.4,2.6-13.2,2.6
				c-4.8,0-9.2-0.9-13.2-2.6c-4-1.8-7.4-4.3-10.3-7.6c-2.9-3.3-5.1-7.3-6.7-12c-1.6-4.7-2.4-10-2.4-16v-4c0-5.9,0.8-11.3,2.4-16
				c1.6-4.7,3.8-8.7,6.7-12c2.8-3.3,6.3-5.8,10.2-7.6c4-1.8,8.4-2.6,13.2-2.6c4.8,0,9.3,0.9,13.2,2.6c4,1.8,7.4,4.3,10.3,7.6
				c2.8,3.3,5.1,7.3,6.6,12c1.6,4.7,2.3,10.1,2.3,16V887.9z M2517.7,883.8c0-4.4-0.4-8.2-1.3-11.6c-0.8-3.4-2.1-6.2-3.7-8.4
				c-1.6-2.3-3.6-4-5.9-5.1c-2.3-1.2-5-1.7-8-1.7c-2.9,0-5.5,0.6-7.8,1.7c-2.3,1.2-4.3,2.9-5.9,5.1c-1.6,2.3-2.9,5.1-3.8,8.4
				c-0.9,3.4-1.3,7.2-1.3,11.6v4.1c0,4.4,0.4,8.2,1.3,11.6c0.9,3.4,2.1,6.2,3.8,8.5c1.6,2.3,3.6,4,6,5.2c2.3,1.2,5,1.7,7.9,1.7
				c6,0,10.7-2.3,13.9-6.9c3.2-4.6,4.9-11.3,4.9-20.1V883.8z"/>
			<path class="st34" d="M2573.6,894.9h-15.2V925h-13.6v-78.3h27.5c4.5,0,8.5,0.5,12,1.5c3.5,1,6.5,2.5,8.9,4.5
				c2.4,2,4.3,4.5,5.5,7.4c1.3,2.9,1.9,6.3,1.9,10.2c0,5.2-1.3,9.6-3.8,13.1c-2.5,3.5-6,6.2-10.6,8.1l17.6,32.6v0.7h-14.6
				L2573.6,894.9z M2558.5,884h14c2.4,0,4.6-0.3,6.4-1c1.8-0.6,3.4-1.5,4.6-2.7c1.2-1.1,2.1-2.5,2.7-4.1c0.6-1.6,0.9-3.3,0.9-5.2
				c0-2-0.3-3.8-0.9-5.5c-0.6-1.6-1.5-3-2.6-4.2c-1.2-1.2-2.7-2.1-4.5-2.7c-1.8-0.6-4.1-0.9-6.6-0.9h-13.9V884z"/>
			<path class="st34" d="M2667.4,857.7H2643V925h-13.5v-67.3h-24.2v-11h62.1V857.7z"/>
		</g>
		<g>
			<path class="st34" d="M2453.5,1607.2h-107.9c-3.5,0-6.3-2.8-6.3-6.3l0,0c0-3.5,2.8-6.3,6.3-6.3h107.9c3.5,0,6.3,2.8,6.3,6.3l0,0
				C2459.7,1604.4,2456.9,1607.2,2453.5,1607.2z"/>
			<path class="st34" d="M2530.3,1637.2h-261.7c-3.5,0-6.3-2.8-6.3-6.3l0,0c0-3.5,2.8-6.3,6.3-6.3h261.7c3.5,0,6.3,2.8,6.3,6.3l0,0
				C2536.6,1634.4,2533.8,1637.2,2530.3,1637.2z"/>
		</g>
		<g>
			<path class="st34" d="M2399.5,1515.5c-68.4,0-132.6-26.6-181-75c-48.3-48.3-75-112.6-75-181c0-68.4,26.6-132.6,75-181
				c48.3-48.3,112.6-75,181-75c68.4,0,132.6,26.6,181,75c48.3,48.3,75,112.6,75,181c0,68.4-26.6,132.6-75,181
				C2532.1,1488.9,2467.9,1515.5,2399.5,1515.5z M2399.5,1006.4c-67.6,0-131.2,26.3-179,74.1c-47.8,47.8-74.1,111.4-74.1,179
				s26.3,131.2,74.1,179c47.8,47.8,111.4,74.1,179,74.1c67.6,0,131.2-26.3,179-74.1c47.8-47.8,74.1-111.4,74.1-179
				s-26.3-131.2-74.1-179C2530.7,1032.7,2467.1,1006.4,2399.5,1006.4z"/>
		</g>
		<path class="st34" d="M2604.7,1259.5c0,12.6-1.1,25-3.3,37c-5.2,28.8-16.5,55.5-32.4,78.7c-37,54.1-99.1,89.5-169.5,89.5
			c-83.8,0-155.8-50.2-187.7-122.1c-4.2-9.5-7.7-19.3-10.5-29.5c-4.6-17.1-7.1-35-7.1-53.6c0-15,1.6-29.6,4.7-43.7
			c0-0.2,0.1-0.3,0.1-0.5c8.5-38.9,28.1-73.7,55.2-100.8c7.7-7.7,16-14.8,24.9-21.2c4.2-3.1,8.6-6,13-8.7
			c31.2-19.2,68-30.3,107.3-30.3c5.2,0,10.4,0.2,15.5,0.6c7.2,0.5,14.3,1.4,21.3,2.7c29.4,5.3,56.7,17,80.3,33.4h0
			c14.7,10.2,28,22.4,39.6,36c6.1,7.2,11.7,14.8,16.7,22.7c3.1,5,6.1,10.1,8.8,15.3c6.5,12.6,11.8,26,15.6,39.9
			C2602.2,1222.4,2604.7,1240.7,2604.7,1259.5z"/>
		<g>
			<path class="st35" d="M2329.8,1167.7c-8.2,13,3.4,35.5-21.2,29.3c-24.6-6.1-39.6-8.9-40.9,4.8c-1.4,13.7,18.4,13.7,18.4,28
				c0,14.3-8.9,19.1-22.5,12.3c-13.7-6.8-17.6-16.7-33.4-10.6c-15.9,6.1-25.1,2-28.7-10.2c-0.6-2.2-1.5-3.9-2.5-5.4
				c0-0.2,0.1-0.3,0.1-0.5c8.5-38.9,28.1-73.7,55.2-100.8c7.7-7.7,16-14.8,24.9-21.2c4.2-3.1,8.6-6,13-8.7c6.4,0.2,14,2.7,20.6,10.7
				c14.3,17.8,23.9,8.9,20.5,29.3c-3.4,20.5,2,23.2,13.6,22.5c11.6-0.7,25.3-0.7,26.6,8.2C2374.8,1164.3,2338,1154.7,2329.8,1167.7z
				"/>
			<path class="st35" d="M2414.7,1290.5c0,0-18.1,5.8-22.9-6.8c-4.8-12.6,0.7-15.4-15.4-19.1c-16-3.8-17.4-14.7-27.6-13.3
				c-10.2,1.4-5.1,5.5-17.1,14.3c-11.9,8.9-22.9,4.8-22.5,21.2c0.3,16.4,18.1,18.9,21.7,29.7c3.6,10.7-2.6,15.4,5.1,23.5
				c7.7,8.2,22,4.6,15.4,15.9c-6.7,11.3-16.9,20-11.8,37.4s1.5,18.4,10.2,30.7c8.7,12.3,25.6,16.4,28.2,8.2
				c2.6-8.2-11.8-18.9-7.2-27.1s12.3-2.6,15.4-14.8c3.1-12.3,15.5-12.3,16.6-20.8c1-8.5-15-21.5-8.9-27c6.1-5.5,18.4,9.9,28-3.8
				c9.6-13.6,3.1-24.6,13-37.5C2444.8,1288.1,2421.6,1283,2414.7,1290.5z"/>
			<path class="st35" d="M2604.7,1259.5c0,12.6-1.1,25-3.3,37c-5.2,28.8-16.5,55.5-32.4,78.7c-5.4,1.8-11,1.7-16.4-0.4
				c-25.6-10.2-6.7-37.9,3.6-51.7c10.2-13.8-15.9-7.7-34.8-20.5c-18.9-12.8,2-47.1-17.4-41.5c-19.5,5.6-43,12.8-54.3-6.1
				c-11.3-18.9,10.2-22,0.5-37.9c-9.7-15.9,5.6-25.1,25.1-26.6c19.5-1.5,16.9-15.4,40.9-17.4c24.1-2,23.5,28.7,50.2,26.6
				c26.6-2,25.4,4.1,25.4,4.1c1.9-0.1,3.8,0.3,5.6,1.2C2602.2,1222.4,2604.7,1240.7,2604.7,1259.5z"/>
			<path class="st35" d="M2581.8,1165.1c-22.1,10.8-31-18.5-49.9-9.7c-19.1,8.9-15.7-8.2-30.7-19.1c-15-10.9-45,8.9-43.7-8.2
				c1.4-17.1,23.9-12.3,28.7-25.9c4.8-13.6,26.6-10.2,26.6-10.2c1.2-0.5,2.6-0.8,4-0.9c0,0,0,0,0,0c14.7,10.2,28,22.4,39.6,36
				c6.1,7.2,11.7,14.8,16.7,22.7C2576.1,1154.8,2579,1159.9,2581.8,1165.1z"/>
			<path class="st35" d="M2395.3,1106.2c0,0,11.6-16.7-6.8-21.7c-18.4-4.9-18.1,1.5-32.4,0c-14.3-1.5-20,9.6-9.2,21.7
				c10.7,12.1,19.5,35.4,29.2,23C2385.7,1116.8,2383.9,1107.4,2395.3,1106.2z"/>
		</g>
	</g>
</g>
</svg>
