<?xml version="1.0" encoding="utf-8"?>
<!-- Generator: Adobe Illustrator 19.0.0, SVG Export Plug-In . SVG Version: 6.00 Build 0)  -->
<svg version="1.1" id="Illustration" xmlns="http://www.w3.org/2000/svg" xmlns:xlink="http://www.w3.org/1999/xlink" x="0px"
	 y="0px" viewBox="1355 -1355 3710 3710" style="enable-background:new 1355 -1355 3710 3710;" xml:space="preserve">
<style type="text/css">
	.st0{fill:#ECECEC;}
	.st1{fill:#DCDCDC;}
	.st2{fill:#C8C8C8;}
	.st3{fill:#FFFFFF;}
	.st4{fill:#FA9746;}
	.st5{opacity:0.25;}
	.st6{fill:#02559C;}
	.st7{fill:#A8A8A8;}
	.st8{fill:#1A2E35;}
	.st9{fill:#023D68;}
	.st10{fill:#ED776A;}
	.st11{opacity:0.1;}
	.st12{fill:#FF97BA;}
	.st13{fill:#02569C;}
	.st14{fill:#2FC4C9;}
	.st15{fill:#637C84;}
</style>
<g>
	<path class="st0" d="M2141.3,135.6h-84.9V44h-91.6V-41h91.6v-91.6h84.9V-41h91.6V44h-91.6V135.6z M2068.4,123.5h60.8V31.9h91.6
		v-60.8h-91.6v-91.6h-60.8v91.6h-91.6v60.8h91.6V123.5z"/>
	<path class="st0" d="M4382.5-386.1h-57.6v-62.2h-62.2v-57.6h62.2v-62.2h57.6v62.2h62.2v57.6h-62.2V-386.1z M4333.1-394.3h41.2
		v-62.2h62.2v-41.2h-62.2v-62.2h-41.2v62.2h-62.2v41.2h62.2V-394.3z"/>
	<polygon class="st0" points="4276,-820.7 4276,-735.7 4184.3,-735.7 4184.3,-644 4099.4,-644 4099.4,-735.7 4007.7,-735.7 
		4007.7,-820.7 4099.4,-820.7 4099.4,-912.3 4184.3,-912.3 4184.3,-820.7 	"/>
	<rect x="4053.6" y="761.9" class="st0" width="476.8" height="715.2"/>
	<rect x="3996.1" y="569.8" class="st1" width="592" height="192"/>
	<path class="st2" d="M4549.1,732.1h15.7c0.3,0,0.6-0.2,0.6-0.6v-135c0-0.3-0.2-0.6-0.6-0.6h-15.7c-0.3,0-0.6,0.2-0.6,0.6v135
		C4548.6,731.9,4548.8,732.1,4549.1,732.1z"/>
	<path class="st2" d="M4518,732.1h15.7c0.3,0,0.6-0.2,0.6-0.6v-135c0-0.3-0.2-0.6-0.6-0.6H4518c-0.3,0-0.6,0.2-0.6,0.6v135
		C4517.4,731.9,4517.7,732.1,4518,732.1z"/>
	<path class="st2" d="M4486.8,732.1h15.7c0.3,0,0.6-0.2,0.6-0.6v-135c0-0.3-0.2-0.6-0.6-0.6h-15.7c-0.3,0-0.6,0.2-0.6,0.6v135
		C4486.2,731.9,4486.5,732.1,4486.8,732.1z"/>
	<path class="st2" d="M4455.6,732.1h15.7c0.3,0,0.6-0.2,0.6-0.6v-135c0-0.3-0.2-0.6-0.6-0.6h-15.7c-0.3,0-0.6,0.2-0.6,0.6v135
		C4455.1,731.9,4455.3,732.1,4455.6,732.1z"/>
	<path class="st2" d="M4424.5,732.1h15.7c0.3,0,0.6-0.2,0.6-0.6v-135c0-0.3-0.2-0.6-0.6-0.6h-15.7c-0.3,0-0.6,0.2-0.6,0.6v135
		C4423.9,731.9,4424.1,732.1,4424.5,732.1z"/>
	<path class="st2" d="M4393.3,732.1h15.7c0.3,0,0.6-0.2,0.6-0.6v-135c0-0.3-0.2-0.6-0.6-0.6h-15.7c-0.3,0-0.6,0.2-0.6,0.6v135
		C4392.7,731.9,4393,732.1,4393.3,732.1z"/>
	<path class="st2" d="M4362.1,732.1h15.7c0.3,0,0.6-0.2,0.6-0.6v-135c0-0.3-0.2-0.6-0.6-0.6h-15.7c-0.3,0-0.6,0.2-0.6,0.6v135
		C4361.6,731.9,4361.8,732.1,4362.1,732.1z"/>
	<path class="st2" d="M4330.9,732.1h15.7c0.3,0,0.6-0.2,0.6-0.6v-135c0-0.3-0.2-0.6-0.6-0.6h-15.7c-0.3,0-0.6,0.2-0.6,0.6v135
		C4330.4,731.9,4330.6,732.1,4330.9,732.1z"/>
	<path class="st2" d="M4299.8,732.1h15.7c0.3,0,0.6-0.2,0.6-0.6v-135c0-0.3-0.2-0.6-0.6-0.6h-15.7c-0.3,0-0.6,0.2-0.6,0.6v135
		C4299.2,731.9,4299.5,732.1,4299.8,732.1z"/>
	<path class="st2" d="M4268.6,732.1h15.7c0.3,0,0.6-0.2,0.6-0.6v-135c0-0.3-0.2-0.6-0.6-0.6h-15.7c-0.3,0-0.6,0.2-0.6,0.6v135
		C4268.1,731.9,4268.3,732.1,4268.6,732.1z"/>
	<path class="st2" d="M4237.4,732.1h15.7c0.3,0,0.6-0.2,0.6-0.6v-135c0-0.3-0.2-0.6-0.6-0.6h-15.7c-0.3,0-0.6,0.2-0.6,0.6v135
		C4236.9,731.9,4237.1,732.1,4237.4,732.1z"/>
	<path class="st2" d="M4206.3,732.1h15.7c0.3,0,0.6-0.2,0.6-0.6v-135c0-0.3-0.2-0.6-0.6-0.6h-15.7c-0.3,0-0.6,0.2-0.6,0.6v135
		C4205.7,731.9,4206,732.1,4206.3,732.1z"/>
	<path class="st2" d="M4175.1,732.1h15.7c0.3,0,0.6-0.2,0.6-0.6v-135c0-0.3-0.2-0.6-0.6-0.6h-15.7c-0.3,0-0.6,0.2-0.6,0.6v135
		C4174.6,731.9,4174.8,732.1,4175.1,732.1z"/>
	<path class="st2" d="M4143.9,732.1h15.7c0.3,0,0.6-0.2,0.6-0.6v-135c0-0.3-0.2-0.6-0.6-0.6h-15.7c-0.3,0-0.6,0.2-0.6,0.6v135
		C4143.4,731.9,4143.6,732.1,4143.9,732.1z"/>
	<path class="st2" d="M4112.8,732.1h15.7c0.3,0,0.6-0.2,0.6-0.6v-135c0-0.3-0.2-0.6-0.6-0.6h-15.7c-0.3,0-0.6,0.2-0.6,0.6v135
		C4112.2,731.9,4112.5,732.1,4112.8,732.1z"/>
	<path class="st2" d="M4081.6,732.1h15.7c0.3,0,0.6-0.2,0.6-0.6v-135c0-0.3-0.2-0.6-0.6-0.6h-15.7c-0.3,0-0.6,0.2-0.6,0.6v135
		C4081.1,731.9,4081.3,732.1,4081.6,732.1z"/>
	<path class="st2" d="M4050.4,732.1h15.7c0.3,0,0.6-0.2,0.6-0.6v-135c0-0.3-0.2-0.6-0.6-0.6h-15.7c-0.3,0-0.6,0.2-0.6,0.6v135
		C4049.9,731.9,4050.1,732.1,4050.4,732.1z"/>
	<path class="st2" d="M4019.3,732.1h15.7c0.3,0,0.6-0.2,0.6-0.6v-135c0-0.3-0.2-0.6-0.6-0.6h-15.7c-0.3,0-0.6,0.2-0.6,0.6v135
		C4018.7,731.9,4019,732.1,4019.3,732.1z"/>
	<rect x="4133.3" y="967.7" class="st3" width="317.4" height="317.4"/>
	<path class="st1" d="M4605.6,1556.6v-0.2c0-33.1-26.9-59.9-60.1-59.9h-118.9c-33.1,0-60.1,26.8-60.1,59.9v0.2
		c0,33.1,26.9,60.1,60.1,60.1h118.9C4578.6,1616.7,4605.6,1589.7,4605.6,1556.6z"/>
	<path class="st0" d="M4605.6,1556.6v-0.2c0-33.1-26.9-59.9-60.1-59.9H4486v120.1h59.5C4578.6,1616.7,4605.6,1589.7,4605.6,1556.6z"
		/>
	<path class="st1" d="M3862.3,1460.7v0.2c0,33.1,26.9,59.9,60.1,59.9h118.9c33.1,0,60.1-26.8,60.1-59.9v-0.2
		c0-33.1-26.9-60.1-60.1-60.1h-118.9C3889.3,1400.6,3862.3,1427.6,3862.3,1460.7z"/>
	<path class="st0" d="M3862.3,1460.7v0.2c0,33.1,26.9,59.9,60.1,59.9h59.5v-120.1h-59.5C3889.3,1400.6,3862.3,1427.6,3862.3,1460.7z
		"/>
	<path class="st1" d="M3727.4,1485.1l0.1,0.1c23.4,23.4,61.4,23.3,84.8-0.1l84.1-84.1c23.4-23.4,23.5-61.4,0.1-84.8l-0.1-0.1
		c-23.4-23.4-61.5-23.4-84.9,0l-84.1,84.1C3704,1423.6,3704,1461.7,3727.4,1485.1z"/>
	<path class="st0" d="M3727.4,1485.1l0.1,0.1c23.4,23.4,61.4,23.3,84.8-0.1l42.1-42.1l-84.9-84.9l-42.1,42.1
		C3704,1423.6,3704,1461.7,3727.4,1485.1z"/>
	<path class="st1" d="M4271.3,1580.8v-0.2c0-33.1-26.9-59.9-60.1-59.9h-118.9c-33.1,0-60.1,26.8-60.1,59.9v0.2
		c0,33.1,26.9,60.1,60.1,60.1h118.9C4244.3,1640.8,4271.3,1613.9,4271.3,1580.8z"/>
	<path class="st0" d="M4271.3,1580.8v-0.2c0-33.1-26.9-59.9-60.1-59.9h-59.5v120.1h59.5C4244.3,1640.8,4271.3,1613.9,4271.3,1580.8z
		"/>
	<path class="st0" d="M1807,1474.1h547.5c1.8,0,3.2-1.4,3.2-3.2V539c0-4.7-3.8-8.5-8.5-8.5h-536.9c-4.7,0-8.5,3.8-8.5,8.5v931.9
		C1803.8,1472.6,1805.3,1474.1,1807,1474.1z"/>
	<rect x="1920.4" y="410.7" class="st0" width="320.7" height="146.9"/>
	<rect x="1803.8" y="837.8" class="st3" width="553.9" height="373.4"/>
	<rect x="1803.8" y="1134.9" class="st1" width="553.9" height="33.8"/>
	<rect x="1803.8" y="880.4" class="st1" width="553.9" height="33.8"/>
	<rect x="1898.1" y="307.8" class="st1" width="365.4" height="136.1"/>
	<rect x="1878.9" y="443.9" class="st2" width="403.7" height="40.3"/>
	<path class="st2" d="M2228.8,424.9h15.7c0.3,0,0.6-0.2,0.6-0.6v-97c0-0.3-0.2-0.6-0.6-0.6h-15.7c-0.3,0-0.6,0.2-0.6,0.6v97
		C2228.2,424.7,2228.5,424.9,2228.8,424.9z"/>
	<path class="st2" d="M2197.6,424.9h15.7c0.3,0,0.6-0.2,0.6-0.6v-97c0-0.3-0.2-0.6-0.6-0.6h-15.7c-0.3,0-0.6,0.2-0.6,0.6v97
		C2197.1,424.7,2197.3,424.9,2197.6,424.9z"/>
	<path class="st2" d="M2166.4,424.9h15.7c0.3,0,0.6-0.2,0.6-0.6v-97c0-0.3-0.2-0.6-0.6-0.6h-15.7c-0.3,0-0.6,0.2-0.6,0.6v97
		C2165.9,424.7,2166.1,424.9,2166.4,424.9z"/>
	<path class="st2" d="M2135.3,424.9h15.7c0.3,0,0.6-0.2,0.6-0.6v-97c0-0.3-0.2-0.6-0.6-0.6h-15.7c-0.3,0-0.6,0.2-0.6,0.6v97
		C2134.7,424.7,2135,424.9,2135.3,424.9z"/>
	<path class="st2" d="M2104.1,424.9h15.7c0.3,0,0.6-0.2,0.6-0.6v-97c0-0.3-0.2-0.6-0.6-0.6h-15.7c-0.3,0-0.6,0.2-0.6,0.6v97
		C2103.6,424.7,2103.8,424.9,2104.1,424.9z"/>
	<path class="st2" d="M2072.9,424.9h15.7c0.3,0,0.6-0.2,0.6-0.6v-97c0-0.3-0.2-0.6-0.6-0.6h-15.7c-0.3,0-0.6,0.2-0.6,0.6v97
		C2072.4,424.7,2072.6,424.9,2072.9,424.9z"/>
	<path class="st2" d="M2041.8,424.9h15.7c0.3,0,0.6-0.2,0.6-0.6v-97c0-0.3-0.2-0.6-0.6-0.6h-15.7c-0.3,0-0.6,0.2-0.6,0.6v97
		C2041.2,424.7,2041.5,424.9,2041.8,424.9z"/>
	<path class="st2" d="M2010.6,424.9h15.7c0.3,0,0.6-0.2,0.6-0.6v-97c0-0.3-0.2-0.6-0.6-0.6h-15.7c-0.3,0-0.6,0.2-0.6,0.6v97
		C2010,424.7,2010.3,424.9,2010.6,424.9z"/>
	<path class="st2" d="M1979.4,424.9h15.7c0.3,0,0.6-0.2,0.6-0.6v-97c0-0.3-0.2-0.6-0.6-0.6h-15.7c-0.3,0-0.6,0.2-0.6,0.6v97
		C1978.9,424.7,1979.1,424.9,1979.4,424.9z"/>
	<path class="st2" d="M1948.3,424.9h15.7c0.3,0,0.6-0.2,0.6-0.6v-97c0-0.3-0.2-0.6-0.6-0.6h-15.7c-0.3,0-0.6,0.2-0.6,0.6v97
		C1947.7,424.7,1948,424.9,1948.3,424.9z"/>
	<path class="st2" d="M1917.1,424.9h15.7c0.3,0,0.6-0.2,0.6-0.6v-97c0-0.3-0.2-0.6-0.6-0.6h-15.7c-0.3,0-0.6,0.2-0.6,0.6v97
		C1916.5,424.7,1916.8,424.9,1917.1,424.9z"/>
	<ellipse class="st0" cx="3204.7" cy="1779.6" rx="1370.6" ry="132.9"/>
	<rect x="2275.9" y="-676.9" class="st4" width="1808.5" height="2402.2"/>
	<rect x="2275.9" y="-676.9" class="st5" width="1808.5" height="2402.2"/>
	<rect x="2325" y="-676.9" class="st4" width="1808.5" height="2402.2"/>
	
		<rect x="2431" y="-570.9" transform="matrix(0.9999 -1.272654e-002 1.272654e-002 0.9999 -6.2443 41.1391)" class="st0" width="1596.6" height="2164.3"/>
	
		<rect x="2406.4" y="-570.9" transform="matrix(0.9998 2.157388e-002 -2.157388e-002 0.9998 11.7745 -69.019)" class="st1" width="1596.6" height="2164.3"/>
	<rect x="2406.4" y="-570.9" class="st3" width="1596.6" height="2164.3"/>
	<rect x="2588.7" y="675.7" class="st0" width="135.6" height="135.6"/>
	<rect x="2797.5" y="675.7" class="st6" width="439.2" height="19.9"/>
	<rect x="2797.5" y="714.3" class="st0" width="1023.2" height="19.9"/>
	<rect x="2797.5" y="752.9" class="st0" width="1023.2" height="19.9"/>
	<rect x="2797.5" y="791.4" class="st0" width="1023.2" height="19.9"/>
	<path class="st4" d="M2598.7,736.5c5,4.2,9.8,8.5,14.5,12.9c4.8,4.4,9.3,8.9,13.9,13.4c9.1,9,17.9,18.3,26.6,27.7l-15.6,1
		c12.3-25.8,26.6-50.3,42.2-74c7.9-11.8,16.2-23.4,25.1-34.6c8.9-11.2,18.3-22.1,28.9-32.3c-4,14.1-9.4,27.5-15.1,40.6
		c-5.8,13.1-12.2,25.8-19,38.3c-13.7,24.9-28.8,49-45.9,71.8l-8.5,11.4l-7.1-10.4c-7.2-10.6-14.2-21.3-20.9-32.2
		c-3.3-5.5-6.7-10.9-9.9-16.6C2604.8,747.9,2601.6,742.3,2598.7,736.5z"/>
	<rect x="2588.7" y="900" class="st0" width="135.6" height="135.6"/>
	<rect x="2797.5" y="900" class="st6" width="439.2" height="19.9"/>
	<rect x="2797.5" y="938.6" class="st0" width="1023.2" height="19.9"/>
	<rect x="2797.5" y="977.2" class="st0" width="1023.2" height="19.9"/>
	<rect x="2797.5" y="1015.7" class="st0" width="1023.2" height="19.9"/>
	<rect x="3013.5" y="-27.4" class="st6" width="371.7" height="19.9"/>
	<rect x="3013.5" y="11.1" class="st0" width="807.1" height="19.9"/>
	<rect x="3013.5" y="49.7" class="st0" width="807.1" height="19.9"/>
	<rect x="3013.5" y="126.8" class="st0" width="807.1" height="19.9"/>
	<rect x="3013.5" y="165.4" class="st0" width="351" height="19.9"/>
	<rect x="2588.7" y="-363.8" class="st4" width="1232" height="188.7"/>
	<path class="st3" d="M2673.6-211v-110.3h21.4V-211H2673.6z"/>
	<path class="st3" d="M2762.8-281.7v70.7h-21.4v-110.3h16.6l57.5,72.4v-72.2h21.4V-211h-17.4L2762.8-281.7z"/>
	<path class="st3" d="M2948.8-292.4c-0.7-0.7-2-1.7-4-3c-1.9-1.2-4.2-2.5-7-3.6c-2.7-1.2-5.7-2.2-8.9-3c-3.2-0.8-6.5-1.2-9.8-1.2
		c-5.9,0-10.3,1.1-13.2,3.3c-2.9,2.2-4.3,5.2-4.3,9.2c0,2.3,0.5,4.2,1.6,5.7c1.1,1.5,2.7,2.8,4.7,4c2.1,1.1,4.7,2.2,7.8,3.1
		c3.2,0.9,6.8,1.9,10.9,3c5.4,1.5,10.3,3,14.7,4.7c4.4,1.7,8.1,3.7,11.2,6.2c3.1,2.5,5.4,5.5,7.1,8.9c1.7,3.5,2.5,7.7,2.5,12.8
		c0,5.9-1.1,10.9-3.3,15.1c-2.2,4.2-5.2,7.6-9,10.2c-3.8,2.6-8.1,4.5-13,5.7c-4.9,1.2-10.1,1.8-15.4,1.8c-8.3,0-16.5-1.2-24.5-3.7
		c-8.1-2.5-15.3-6-21.7-10.6l9.5-18.5c0.9,0.9,2.6,2.1,5,3.7c2.4,1.5,5.3,3,8.6,4.5c3.3,1.5,7,2.8,11,3.8c4,1,8.2,1.6,12.4,1.6
		c11.8,0,17.7-3.8,17.7-11.3c0-2.4-0.7-4.4-2-6.1c-1.3-1.7-3.3-3.1-5.7-4.3c-2.5-1.2-5.5-2.4-9-3.4c-3.5-1-7.5-2.2-11.8-3.4
		c-5.3-1.5-9.9-3-13.7-4.7c-3.9-1.7-7.1-3.7-9.7-6.1c-2.6-2.3-4.5-5-5.8-8.1c-1.3-3.1-1.9-6.7-1.9-10.9c0-5.6,1-10.6,3.1-14.9
		c2.1-4.3,4.9-8,8.6-10.9c3.7-2.9,7.9-5.1,12.8-6.6c4.9-1.5,10.1-2.3,15.7-2.3c7.8,0,14.9,1.2,21.4,3.6c6.5,2.4,12.2,5.3,17.1,8.6
		L2948.8-292.4z"/>
	<path class="st3" d="M3048.2-229.2c5.1,0,9.3-1,12.8-3.1c3.5-2.1,6.3-4.8,8.4-8.1c2.1-3.3,3.6-7.1,4.5-11.4
		c0.9-4.3,1.3-8.7,1.3-13.3v-56.2h21.3v56.2c0,7.6-0.9,14.7-2.7,21.3c-1.8,6.6-4.7,12.4-8.5,17.4c-3.9,5-8.9,8.9-15,11.8
		c-6.1,2.9-13.4,4.3-21.9,4.3c-8.8,0-16.3-1.5-22.4-4.6c-6.2-3.1-11.2-7.1-15-12.1c-3.8-5-6.6-10.8-8.3-17.5
		c-1.7-6.6-2.6-13.5-2.6-20.7v-56.2h21.4v56.2c0,4.7,0.4,9.1,1.3,13.4c0.9,4.3,2.4,8.1,4.5,11.4c2.1,3.3,4.9,6,8.3,8
		C3039-230.2,3043.2-229.2,3048.2-229.2z"/>
	<path class="st3" d="M3141.3-211v-110.3h48.8c5.1,0,9.8,1.1,14.1,3.2c4.3,2.1,8,4.9,11.1,8.4c3.1,3.5,5.5,7.4,7.3,11.8
		c1.8,4.4,2.6,8.8,2.6,13.3c0,7.1-1.8,13.6-5.4,19.5c-3.6,5.9-8.4,10.1-14.5,12.7l25.2,41.5h-24.1l-22.5-37h-21.1v37H3141.3z
		 M3162.8-266.8h26.9c2,0,3.8-0.5,5.5-1.4c1.7-0.9,3.2-2.2,4.4-3.8c1.2-1.6,2.2-3.5,2.9-5.7c0.7-2.2,1.1-4.5,1.1-7
		c0-2.6-0.4-5-1.2-7.1c-0.8-2.2-1.9-4.1-3.3-5.7c-1.4-1.6-3-2.8-4.8-3.7c-1.8-0.9-3.6-1.3-5.5-1.3h-25.9V-266.8z"/>
	<path class="st3" d="M3297.6-321.3h18.9l41.9,110.3h-22.1l-10.2-27.5h-38.5l-10.1,27.5h-22L3297.6-321.3z M3322.3-253.6l-15.2-43.3
		l-15.8,43.3H3322.3z"/>
	<path class="st3" d="M3415.3-281.7v70.7h-21.4v-110.3h16.6l57.5,72.4v-72.2h21.4V-211H3472L3415.3-281.7z"/>
	<path class="st3" d="M3529-266.9c0-6.7,1.2-13.4,3.7-20c2.4-6.6,6-12.4,10.6-17.6c4.7-5.2,10.4-9.4,17.1-12.6
		c6.7-3.2,14.4-4.8,23-4.8c10.1,0,18.9,2.2,26.3,6.7c7.4,4.5,12.9,10.2,16.5,17.4l-16.5,11.3c-1.5-3.1-3.2-5.7-5.3-7.8
		c-2.1-2.1-4.3-3.8-6.7-5c-2.4-1.2-4.9-2.1-7.5-2.7c-2.6-0.6-5.1-0.9-7.6-0.9c-5.4,0-10.1,1.1-14.1,3.3c-4,2.2-7.3,5-9.9,8.5
		c-2.6,3.5-4.6,7.4-6,11.8c-1.4,4.4-2,8.8-2,13.1c0,4.9,0.8,9.6,2.3,14.1c1.5,4.5,3.8,8.5,6.6,11.9c2.8,3.4,6.3,6.2,10.2,8.2
		c4,2.1,8.4,3.1,13.1,3.1c2.5,0,5.1-0.3,7.8-0.9c2.7-0.6,5.3-1.6,7.7-3c2.4-1.3,4.7-3.1,6.8-5.2c2.1-2.1,3.7-4.7,5-7.7l17.5,10.1
		c-1.8,4.1-4.3,7.8-7.5,10.9c-3.3,3.2-6.9,5.8-11,8c-4.1,2.2-8.5,3.8-13.1,5c-4.7,1.1-9.2,1.7-13.7,1.7c-7.9,0-15.1-1.7-21.6-5
		c-6.5-3.3-12.1-7.6-16.8-13c-4.7-5.3-8.4-11.4-11-18.2C3530.3-253,3529-259.9,3529-266.9z"/>
	<path class="st3" d="M3742-229.8v18.8h-76.6v-110.3h75.2v18.8h-53.7v26.6h46.4v17.4h-46.4v28.7H3742z"/>
	<path class="st0" d="M3824.1,577H2585.3V312h1238.7V577z M2592.1,570.3h1225.2V318.8H2592.1V570.3z"/>
	<rect x="2588.7" y="468.2" class="st0" width="1232" height="6.8"/>
	<rect x="2588.7" y="366.3" class="st0" width="1232" height="6.8"/>
	<rect x="2987.5" y="315.4" class="st0" width="6.8" height="258.2"/>
	<rect x="3415.2" y="315.4" class="st0" width="6.8" height="258.2"/>
	<path class="st6" d="M2659.1,343.1c21.8-1.4,43.6-2,65.4-2.6c21.8-0.6,43.6-0.7,65.4-0.8c21.8,0.1,43.6,0.2,65.4,0.8l32.7,0.9
		c10.9,0.6,21.8,0.9,32.7,1.7c-10.9,0.8-21.8,1.1-32.7,1.7l-32.7,0.9c-21.8,0.6-43.6,0.7-65.4,0.8c-21.8-0.1-43.6-0.2-65.4-0.8
		C2702.6,345.1,2680.9,344.5,2659.1,343.1z"/>
	<path class="st6" d="M3074,343.1c21.8-1.4,43.6-2,65.4-2.6c21.8-0.6,43.6-0.7,65.4-0.8c21.8,0.1,43.6,0.2,65.4,0.8l32.7,0.9
		c10.9,0.6,21.8,0.9,32.7,1.7c-10.9,0.8-21.8,1.1-32.7,1.7l-32.7,0.9c-21.8,0.6-43.6,0.7-65.4,0.8c-21.8-0.1-43.6-0.2-65.4-0.8
		C3117.6,345.1,3095.8,344.5,3074,343.1z"/>
	<path class="st6" d="M3491.5,343.1c21.8-1.4,43.6-2,65.4-2.6c21.8-0.6,43.6-0.7,65.4-0.8c21.8,0.1,43.6,0.2,65.4,0.8l32.7,0.9
		c10.9,0.6,21.8,0.9,32.7,1.7c-10.9,0.8-21.8,1.1-32.7,1.7l-32.7,0.9c-21.8,0.6-43.6,0.7-65.4,0.8c-21.8-0.1-43.6-0.2-65.4-0.8
		C3535,345.1,3513.3,344.5,3491.5,343.1z"/>
	<path class="st0" d="M2659.1,408.2c21.8-1.4,43.6-2,65.4-2.6c21.8-0.6,43.6-0.7,65.4-0.8c21.8,0.1,43.6,0.2,65.4,0.8l32.7,0.9
		c10.9,0.6,21.8,0.9,32.7,1.7c-10.9,0.8-21.8,1.1-32.7,1.7l-32.7,0.9c-21.8,0.6-43.6,0.7-65.4,0.8c-21.8-0.1-43.6-0.2-65.4-0.8
		C2702.6,410.3,2680.9,409.6,2659.1,408.2z"/>
	<path class="st0" d="M3074,408.2c21.8-1.4,43.6-2,65.4-2.6c21.8-0.6,43.6-0.7,65.4-0.8c21.8,0.1,43.6,0.2,65.4,0.8l32.7,0.9
		c10.9,0.6,21.8,0.9,32.7,1.7c-10.9,0.8-21.8,1.1-32.7,1.7l-32.7,0.9c-21.8,0.6-43.6,0.7-65.4,0.8c-21.8-0.1-43.6-0.2-65.4-0.8
		C3117.6,410.3,3095.8,409.6,3074,408.2z"/>
	<path class="st0" d="M3491.5,408.2c21.8-1.4,43.6-2,65.4-2.6c21.8-0.6,43.6-0.7,65.4-0.8c21.8,0.1,43.6,0.2,65.4,0.8l32.7,0.9
		c10.9,0.6,21.8,0.9,32.7,1.7c-10.9,0.8-21.8,1.1-32.7,1.7l-32.7,0.9c-21.8,0.6-43.6,0.7-65.4,0.8c-21.8-0.1-43.6-0.2-65.4-0.8
		C3535,410.3,3513.3,409.6,3491.5,408.2z"/>
	<path class="st0" d="M2659.1,434.4c21.8-1.4,43.6-2,65.4-2.6c21.8-0.6,43.6-0.7,65.4-0.8c21.8,0.1,43.6,0.2,65.4,0.8l32.7,0.9
		c10.9,0.6,21.8,0.9,32.7,1.7c-10.9,0.8-21.8,1.1-32.7,1.7l-32.7,0.9c-21.8,0.6-43.6,0.7-65.4,0.8c-21.8-0.1-43.6-0.2-65.4-0.8
		C2702.6,436.4,2680.9,435.8,2659.1,434.4z"/>
	<path class="st0" d="M3074,434.4c21.8-1.4,43.6-2,65.4-2.6c21.8-0.6,43.6-0.7,65.4-0.8c21.8,0.1,43.6,0.2,65.4,0.8l32.7,0.9
		c10.9,0.6,21.8,0.9,32.7,1.7c-10.9,0.8-21.8,1.1-32.7,1.7l-32.7,0.9c-21.8,0.6-43.6,0.7-65.4,0.8c-21.8-0.1-43.6-0.2-65.4-0.8
		C3117.6,436.4,3095.8,435.8,3074,434.4z"/>
	<path class="st0" d="M3491.5,434.4c21.8-1.4,43.6-2,65.4-2.6c21.8-0.6,43.6-0.7,65.4-0.8c21.8,0.1,43.6,0.2,65.4,0.8l32.7,0.9
		c10.9,0.6,21.8,0.9,32.7,1.7c-10.9,0.8-21.8,1.1-32.7,1.7l-32.7,0.9c-21.8,0.6-43.6,0.7-65.4,0.8c-21.8-0.1-43.6-0.2-65.4-0.8
		C3535,436.4,3513.3,435.8,3491.5,434.4z"/>
	<path class="st0" d="M2659.1,504.4c21.8-1.4,43.6-2,65.4-2.6c21.8-0.6,43.6-0.7,65.4-0.8c21.8,0.1,43.6,0.2,65.4,0.8l32.7,0.9
		c10.9,0.6,21.8,0.9,32.7,1.7c-10.9,0.8-21.8,1.1-32.7,1.7l-32.7,0.9c-21.8,0.6-43.6,0.7-65.4,0.8c-21.8-0.1-43.6-0.2-65.4-0.8
		C2702.6,506.4,2680.9,505.7,2659.1,504.4z"/>
	<path class="st0" d="M3074,504.4c21.8-1.4,43.6-2,65.4-2.6c21.8-0.6,43.6-0.7,65.4-0.8c21.8,0.1,43.6,0.2,65.4,0.8l32.7,0.9
		c10.9,0.6,21.8,0.9,32.7,1.7c-10.9,0.8-21.8,1.1-32.7,1.7l-32.7,0.9c-21.8,0.6-43.6,0.7-65.4,0.8c-21.8-0.1-43.6-0.2-65.4-0.8
		C3117.6,506.4,3095.8,505.7,3074,504.4z"/>
	<path class="st0" d="M3491.5,504.4c21.8-1.4,43.6-2,65.4-2.6c21.8-0.6,43.6-0.7,65.4-0.8c21.8,0.1,43.6,0.2,65.4,0.8l32.7,0.9
		c10.9,0.6,21.8,0.9,32.7,1.7c-10.9,0.8-21.8,1.1-32.7,1.7l-32.7,0.9c-21.8,0.6-43.6,0.7-65.4,0.8c-21.8-0.1-43.6-0.2-65.4-0.8
		C3535,506.4,3513.3,505.7,3491.5,504.4z"/>
	<path class="st0" d="M2659.1,530.5c21.8-1.4,43.6-2,65.4-2.6c21.8-0.6,43.6-0.7,65.4-0.8c21.8,0.1,43.6,0.2,65.4,0.8l32.7,0.9
		c10.9,0.6,21.8,0.9,32.7,1.7c-10.9,0.8-21.8,1.1-32.7,1.7l-32.7,0.9c-21.8,0.6-43.6,0.7-65.4,0.8c-21.8-0.1-43.6-0.2-65.4-0.8
		C2702.6,532.6,2680.9,531.9,2659.1,530.5z"/>
	<path class="st0" d="M3074,530.5c21.8-1.4,43.6-2,65.4-2.6c21.8-0.6,43.6-0.7,65.4-0.8c21.8,0.1,43.6,0.2,65.4,0.8l32.7,0.9
		c10.9,0.6,21.8,0.9,32.7,1.7c-10.9,0.8-21.8,1.1-32.7,1.7l-32.7,0.9c-21.8,0.6-43.6,0.7-65.4,0.8c-21.8-0.1-43.6-0.2-65.4-0.8
		C3117.6,532.6,3095.8,531.9,3074,530.5z"/>
	<path class="st0" d="M3491.5,530.5c21.8-1.4,43.6-2,65.4-2.6c21.8-0.6,43.6-0.7,65.4-0.8c21.8,0.1,43.6,0.2,65.4,0.8l32.7,0.9
		c10.9,0.6,21.8,0.9,32.7,1.7c-10.9,0.8-21.8,1.1-32.7,1.7l-32.7,0.9c-21.8,0.6-43.6,0.7-65.4,0.8c-21.8-0.1-43.6-0.2-65.4-0.8
		C3535,532.6,3513.3,531.9,3491.5,530.5z"/>
	<path class="st4" d="M2884.2,112.3c-59.7,78.9-130.9,113.6-130.9,113.6s-71.2-34.7-130.9-113.6c-46.1-61-43.8-156.5,22.1-177.1
		c72.9-22.8,108.7,86.9,108.7,86.9s36.4-110.4,108.8-86.9C2927.8-43.4,2930.3,51.4,2884.2,112.3z"/>
	<polygon class="st3" points="2701.8,177.7 2682,95 2669,124.2 2588.7,124.2 2588.7,114.8 2662.9,114.8 2684.6,66 2700.1,130.5 
		2722,-3.1 2741.4,102.6 2756.6,58.5 2780.7,130.7 2786.1,114.8 2917.9,114.8 2917.9,124.1 2792.8,124.1 2780.7,160.2 2756.5,87.5 
		2738.6,139.3 2722.5,51.6 	"/>
	<rect x="2812.6" y="-720.8" class="st2" width="784.2" height="239.1"/>
	<path class="st2" d="M3444.5-851.5h-486.7l-21.6,130.7h537L3444.5-851.5z M3204.7-757.4c-15.8,0-28.7-12.8-28.7-28.7
		c0-15.8,12.9-28.7,28.7-28.7c15.9,0,28.7,12.9,28.7,28.7C3233.4-770.2,3220.6-757.4,3204.7-757.4z"/>
	<polygon class="st7" points="3473.2,-720.8 2936.2,-720.8 2941,-750 3466.8,-750 	"/>
	<path class="st4" d="M2041.6,1059.7c-4.8,20.2-9.8,40.1-10.7,60.8c0.5,1,0.4,4.8-0.2,3.8c-0.1,3.3-5.2,2.7-5.2-0.6
		c0.1-2.1,0.1-4.3,0.2-6.4c-11.9-14.8-29.1-24.1-43.1-36.9c-11.3-10.4-19.3-22.7-23.6-37.6c-11.6-39.9-0.7-82.1-14.6-121.8
		c-12-34.3-33.5-64.1-51.7-95.1c-19.2-32.8-33.4-67.4-34.8-105.8c-1.1-29.5,2.4-68.7,24.8-90.8c23.8-23.4,53.3-5.9,71.5,15
		c52.8,60.6,77.2,137.2,87.1,215.4c5.4,43.3,11.1,86.9,9.8,130.7C2050.3,1013.9,2046.9,1036.9,2041.6,1059.7z"/>
	<path class="st8" d="M2031.1,1136.5c2.7-41,2.6-82-1.4-122.8c0.1-0.2,0.2-0.2,0.2-0.4c0.7-33.2,3.3-66.2,2-99.5
		c-1.4-36.1-6.7-71.5-14.6-106.7c-0.1-0.4-0.7-0.3-0.6,0.1c6.5,34.3,10.3,69.4,11.5,104.3c0.7,18.7,0.5,37.5-0.4,56.2
		c-0.3,6.1-0.9,12.2-1.3,18.4c0,0,0,0,0-0.1c-13.4-93.4-47.8-182-98.7-261.3c-0.7-1.1-2.6,0.1-1.9,1.2
		c36.6,59.8,63.6,125.5,80.4,193.7c-25.4-47-63.7-85.7-92.2-130.9c-0.2-0.2-0.6,0-0.4,0.3c25.6,50.3,67.8,90,94.7,139.6
		c4.7,20.2,8.5,40.6,11.3,61.1c3.9,28.2,5.7,56.5,6.1,84.9c-15.5-28.9-31.5-56.6-44.2-87.1c-0.3-0.8-1.5-0.3-1.2,0.6
		c10.8,31.8,25.2,66,45.5,93c0.1,20.1-0.5,40.2-1.7,60.3c-3.2,53.6-12.3,106.5-16.5,159.9c-0.1,1.6,2.1,1.8,2.5,0.3
		C2021.1,1247.7,2027.4,1191.4,2031.1,1136.5z"/>
	<path class="st8" d="M1974.2,723.2c-0.2-0.4-0.7-0.1-0.6,0.3c9.8,27.1,15.3,54.5,22.4,82.2c0.3,1.3,2.2,1,2-0.3
		C1995.1,777.2,1985.1,749.1,1974.2,723.2z"/>
	<path class="st4" d="M2222.7,836.6c-6.3,15.9-14.2,31.3-22.5,46.3c-17.6,32-36,61.3-39.3,98.6c-1.5,16.6-2,33.4-7.1,49.4
		c-4.4,13.9-11.5,26.7-19.7,38.7c-19.1,27.8-43,51.8-60.7,80.7c-18.4,30-32,63-40.3,97.2c-0.4,1.9-3.4,1.4-3-0.5
		c0.1-0.2,0.1-0.3,0.1-0.4c-0.1-0.1-0.2-0.2-0.2-0.4c-2.8-79.9,3.6-160.5,27.9-237c10.7-33.5,23.8-66.8,38.7-98.6
		c13.1-27.8,29.3-54.5,52.3-75.2c14.9-13.4,47.1-38.8,68.3-25.4C2227.5,816.4,2226.7,826.6,2222.7,836.6z"/>
	<path class="st8" d="M2142.4,1017.8c-13.7,23.4-30,45.2-46.4,66.8c-7.7,10.1-15.6,20.1-23.3,30.2c-3.7,4.8-7.7,9.5-11.1,14.7
		c2.1-8.4,4.2-16.8,6.3-25.2c10.3-40.4,20.2-81.1,35.6-119.9c15-38,35-73.6,55.5-108.8c0.5-0.9-1-1.6-1.5-0.7
		c-16.9,27.8-34,55.5-48.2,84.8c-7.9,16.4-14.6,33.2-20.5,50.3c6.9-36.7,15.2-72,27.2-107.5c0.1-0.3-0.3-0.5-0.5-0.2
		c-14.7,34.8-25.3,74-28.3,111.8c0,0.1,0,0.1,0.1,0.2c-3.5,10.4-6.6,20.9-9.6,31.4c-12.6,44.7-23.6,89.9-33.9,135.2
		c0.2-29.9,2.1-59.3,7.7-88.9c0.1-0.7-0.9-0.8-1-0.2c-7.4,30.4-10.8,62.4-7.7,93.7c-3.9,17.2-7.6,34.5-11.3,51.8
		c-7.9,36.8-17.5,74.3-22.1,111.7c-0.1,1,1.2,1.2,1.5,0.3c5.5-20.2,8.8-41.1,13.3-61.5c4.5-20.5,9.1-40.9,13.9-61.3
		c6.9-29.7,14.2-59.4,21.6-89c4.9-10.9,14.5-20.5,21.7-29.6c7.9-10,15.7-20,23.4-30.2c14.3-18.9,27.3-38.6,38.5-59.5
		C2143.4,1017.7,2142.7,1017.3,2142.4,1017.8z"/>
	<path class="st8" d="M2145.8,983.6c-17.3,22.2-33.1,46.9-45.4,72.2c-0.2,0.3,0.3,0.7,0.5,0.3c15.3-24,30.3-48.1,45.6-72.1
		C2146.8,983.6,2146.1,983.2,2145.8,983.6z"/>
	<path class="st4" d="M1805.6,912.4c10.4,17.8,22.2,39.3,17.7,60.7c-2.8,13.6-12.7,24.6-14.5,38.4c-4,30.5,26.4,50.7,48.4,65.1
		c54.9,36,130.1,68.1,140.1,141.6c0.4,2.6,4.9,2,4.6-0.6c0-0.2-0.1-0.3-0.1-0.5c0.1-0.2,0.3-0.2,0.3-0.4c7.1-37.3,6.9-75.2-1-112.3
		c-8.2-37.9-24.7-72-44.2-105.3c-33-56.3-68-114-117.9-157.2c-13.8-11.9-42.1-33.4-53.1-6.5C1775,861.7,1792.9,890.6,1805.6,912.4z"
		/>
	<path class="st8" d="M1855.8,1031.8c36.4,39.4,94.2,61.5,125.5,105.6c-18.6-67.6-49.3-128.4-96.5-181.2c-1.2-1.4,0.7-3.3,2-2
		c34.6,33.2,60.2,72.1,78.8,114.2c-8.4-30.1-20.1-58.5-34-86.8c-0.5-1.1,1-2,1.6-0.9c17.6,30,29.3,63.7,36.6,97.6
		c41.3,99.9,45.1,217.1,36.4,322.4c-0.1,1.5-2.4,1.5-2.4,0c2.4-83,1-167.4-18.9-248.5c-0.4-1.7-0.9-3.4-1.3-5
		c-34.1-47.5-91.7-69.5-128.7-114.6C1854.9,1032,1855.4,1031.4,1855.8,1031.8z"/>
	<path class="st8" d="M1847.4,998c19.1,17.5,37.9,35.4,57,53c0.2,0.2-0.1,0.5-0.3,0.4c-20.8-14.1-42-32.7-57.9-52.2
		C1845.6,998.3,1846.6,997.3,1847.4,998z"/>
	<path class="st8" d="M1844.4,922.1c17.3,27.8,35.5,53.9,57.1,78.6c0.3,0.3-0.2,0.8-0.5,0.5c-23.2-22.3-43.8-49.4-57.7-78.5
		C1843,922,1844,921.4,1844.4,922.1z"/>
	<polygon class="st6" points="1930.4,1474.8 2097.7,1474.8 2075.1,1249.7 1956.1,1249.7 	"/>
	<polygon class="st8" points="1952,1286.3 2078.8,1286.3 2075.1,1249.7 1956.1,1249.7 	"/>
	<rect x="1935.6" y="1224.8" class="st6" width="156.8" height="35.9"/>
	<path class="st9" d="M2677,1288.1c0,0-40.4,323.8-106.9,396.7c-79.8,87.4-137.7,74.6-169.9,119.7c-0.1,0-0.1,0.1-0.1,0.1
		c-32.2-45.1-90.1-32.3-170-119.8c-66.5-72.9-106.9-396.7-106.9-396.7c175.2-85,276.9-180.3,276.9-180.3s0,0,0.1,0.1
		C2403.3,1110.8,2504.6,1204.4,2677,1288.1z"/>
	<path class="st8" d="M2400.2,1107.8v696.7c-0.1,0-0.1,0.1-0.1,0.1c-32.2-45.1-90.1-32.3-170-119.8
		c-66.5-72.9-106.9-396.7-106.9-396.7C2298.4,1203.1,2400.1,1107.8,2400.2,1107.8C2400.1,1107.8,2400.1,1107.8,2400.2,1107.8z"/>
	<path class="st6" d="M2634.1,1314.2c0,0-34.2,273.6-90.3,335.1c-67.5,74-116.4,63.1-143.6,101.2c-27.2-38.1-76.2-27.2-143.6-101.2
		c-56.1-61.6-90.2-335.1-90.2-335.1c148-71.9,233.9-152.4,233.9-152.4S2486.1,1242.3,2634.1,1314.2z"/>
	<path class="st9" d="M2166.3,1314.2c0,0,34.2,273.5,90.3,335.1c67.4,73.9,116.3,63.1,143.6,101.1v-588.5
		C2397.6,1164.4,2312,1243.5,2166.3,1314.2z"/>
	<circle class="st4" cx="2400.1" cy="1456.2" r="108.5"/>
	<polygon class="st3" points="2387.8,1526.6 2339.5,1476.4 2357.4,1459.2 2384,1486.9 2441.4,1398.8 2462.3,1412.4 	"/>
	<path class="st10" d="M3707.1,1815.4c13.3,4.3,393.8-0.6,408.1-10c5.5-3.5,8-59,9.1-126.1c0-0.7,6.3-247.9,6.3-247.9l-243.5,2.5
		l-8.1,247.9c0,0-144.8,67-159.5,79C3705,1772.7,3693.8,1811.1,3707.1,1815.4z"/>
	<path class="st8" d="M4123.5,1721.6c-1.5,46.8-3.9,81-8.2,83.7c-14.4,9.4-394.8,14.3-408.1,10.1c-13.4-4.3-2.2-42.7,12.4-54.6
		c7.8-6.3,51.7-28,91.5-46.9C3767.4,1742.9,3720.5,1785.8,4123.5,1721.6z"/>
	<path class="st4" d="M3828.2,1707.8c1-0.3,1.5-0.6,1.6-0.9C3829.8,1706.9,3829.2,1707.2,3828.2,1707.8z"/>
	<path class="st9" d="M4208.8,335.4c0,0-62,644.4-71.3,693.4c-2.2,11.2-5.8,630.3-5.8,630.3l-259.7-4c0,0,11.8-532.5,23.6-630.5
		c11.9-98.1,81-689.2,81-689.2H4208.8z"/>
	<path class="st8" d="M4123.7,1605c-7.7-1.3-15.7-1.4-23.4-1.7c-7.8-0.4-15.6-0.8-23.5-1.1c-15.4-0.6-30.7-1.3-46.1-1.8
		c-31.3-1.1-62.6-2.1-93.9-3.3c-17.6-0.6-35.2-0.7-52.9-0.5c-0.7,0-0.7,1,0,1.1c62.2,6.3,125.1,7.6,187.7,9.1
		c8.9,0.2,17.9,0.3,26.8,0.5c8.4,0.1,17.1,0.6,25.4-0.4C4125,1606.7,4124.7,1605.1,4123.7,1605z"/>
	<path class="st8" d="M4173.7,363.8c-18.9,157.1-37.9,314.3-53.6,471.8c-7.8,78.1-15.1,156.3-19.9,234.7c-4.9,79-6.8,158-7.9,237.1
		c-1.2,89.4-3.3,178.9-1.9,268.3c0,0.9,1.3,0.8,1.3,0c7.8-158,5.6-316.4,13.9-474.4c8.4-158.2,25.5-315.5,42.9-472.9
		c9.7-88,18.9-176.1,28-264.2C4176.7,362.5,4173.9,362.2,4173.7,363.8z"/>
	<path class="st10" d="M4234.8,1843.4c14,1,382.4-94.1,394.1-106.6c4.5-4.7-6.2-59.2-21-124.6c-0.2-0.7-77.5-234.4-77.5-234.4
		l-235.9,60.3l75.7,234.8c0,0-124.7,99.5-136.2,114.6C4222.7,1802.5,4220.9,1842.4,4234.8,1843.4z"/>
	<path class="st8" d="M4617,1653.5c9.7,45.8,15.4,79.6,11.9,83.3c-11.7,12.5-380.2,107.6-394.1,106.6c-14-1-12.2-40.9-0.9-56
		c6.1-7.9,43.6-39.4,77.7-67.3C4276.2,1758.8,4240.8,1811.5,4617,1653.5z"/>
	<path class="st9" d="M4354.6,1652.6l264.5-73.5c0,0-198.4-502.5-209.5-536.9c-8.1-25-73.4-329.8-96.3-463c0,0,34.3-97.2-42.5-244
		h-294.2c0,0,11,152.2,46.4,240.8c0,0,17.4,0.3,57.5,11.2c0,0,91.1,484.3,104.9,527.8C4215.4,1209,4354.6,1652.6,4354.6,1652.6z"/>
	<path class="st8" d="M4134.1,849.9c-10.6-56.2-21.1-112.3-31.6-168.5c-3-15.9-6.3-31.6-9.6-47.4c-3.3-15.7-6.1-31.7-10.6-47.1
		c-0.3-1-1.9-0.8-1.8,0.3c0.8,14.3,3.5,28.6,5.4,42.9c1.8,13.8,4,27.7,6.3,41.5c4.8,28.3,10.1,56.5,15.5,84.8
		c10.7,56.3,21.4,112.8,34.5,168.6c7.4,31.4,14.2,63,22,94.3c0.2,0.7,1.1,0.3,1-0.3C4155.4,962.5,4144.7,906.2,4134.1,849.9z"/>
	<path class="st8" d="M4072.1,524.7c4-9.8,0.8-21.1-1-31c-2.3-12.6-4.5-25.3-6.8-37.9c-5.3-28.5-11-56.9-17.2-85.2
		c-0.1-0.3-0.6-0.2-0.5,0.1c2.8,22.7,5.8,45.3,9.1,67.8c3.3,22.7,7.7,45.3,10.5,68.1c0.9,7.4,0.3,21.9-10.4,21.9
		c-9,0.1-14.5-13.4-17.3-20.1c-8.6-19.7-12.1-41.5-16.4-62.4c-5.2-25.1-9.5-50.3-13.9-75.5c-0.1-0.9-1.5-0.6-1.5,0.2
		c1.5,25.1,4.8,49.9,8.8,74.7c3.8,23.5,7.5,48.3,17.4,70.2c3.7,8.2,8.9,18.4,18.4,20.9c1.4,0.4,2.8,0.5,4.1,0.5
		c0.8,7.5,2,15,3.5,22.4c1.6,7.7,3.2,15.6,6,22.9c0.4,1,1.8,0.6,1.7-0.3c0,0,0,0,0.1,0c-0.4-7.7-2-15.4-3.4-23
		c-1.4-7.5-3.4-14.9-5.6-22.1C4064.2,535.9,4069.6,530.9,4072.1,524.7z"/>
	<path class="st8" d="M4121.5,598.2c-14.6-6.8-30.9-11.9-46.7-15.5c-16-3.6-30.8-5.1-47-6.4c-0.6,0-0.7,0.9-0.1,1
		c15.7,2.4,77.9,17.7,93.5,21.6C4121.6,599,4121.9,598.4,4121.5,598.2z"/>
	<path class="st8" d="M4505.1,1402.6c-14.1-37.4-28.1-74.8-42.3-112.2c-28-74.1-56.8-147.9-84.6-222.1
		c-27.5-73.3-39.3-151.2-54.3-227.8c-7.7-39-15.2-78.1-22.9-117.2c-7.7-38.7-16.9-77.4-21.4-116.6c-4.4-38.4,1.3-76.7-2-115.1
		c-3-34.3-12.3-67.8-27-98.7c-3.8-7.9-7.9-15.5-12.4-23c-0.5-0.9-1.8-0.1-1.3,0.8c17.2,32.1,28.8,66.8,34,102.9
		c2.6,17.9,3.3,35.9,2.9,54c-0.5,19.4-1.9,38.7-1,58.1c1.8,38.7,10.8,76.8,18.2,114.7c7.6,38.7,15.2,77.3,22.9,116
		c7.7,39,15.4,78.1,23,117.1c7.4,38,15.1,76,27.4,112.7c12.4,36.9,26.8,73.1,40.6,109.4c14.2,37.4,28.3,74.7,42.6,112.1
		c28.5,74.3,56.3,148.9,86.1,222.7c3.5,8.6,7,17.1,10.7,25.6c0.5,1.1,2.3,0.3,1.9-0.9C4533.9,1477.1,4519.2,1439.9,4505.1,1402.6z"
		/>
	<path class="st8" d="M4587.5,1534.1c-7.7,1-15.4,3.3-22.9,5.2c-7.6,1.9-15.2,3.8-22.8,5.8c-14.9,3.9-29.8,7.7-44.6,11.7
		c-30.3,8-60.5,16.1-90.8,24.1c-17,4.5-33.9,9.6-50.7,14.9c-0.6,0.2-0.4,1.2,0.3,1c61.4-12.1,121.9-29.1,182.2-45.8
		c8.6-2.4,17.2-4.9,25.8-7.4c8.1-2.3,16.5-4.4,24.2-7.7C4589.2,1535.4,4588.4,1534,4587.5,1534.1z"/>
	<path class="st8" d="M3880.4,147.4c3.2,0.8,18.4,4.5,40.5,10c10.9-12.4,25.6-35.5,29.6-71.9c0.6-6,7,30.8-9,77
		c42.7,10.6,100.9,24.9,151.8,36.9c5.4-19.7,11.3-37.8,11.3-37.8c-1.4,14.8-1.2,28.4-0.3,40.4c7,1.7,13.8,3.2,20.3,4.8
		c5.4-31.3,22.6-84.1,22.6-84.1c-3.7,38.5,1.6,71.2,6.4,90.7c32.4,7.3,53.8,11.5,52.8,9.7c-36.6-67.1,6.5-91.5,3.6-144.2
		c-3.6-63.1-52.7-83.8-41.3-128.1c9.2-36,28.3-100.8-14.4-125c0,0-28.2-49.1-91.7-39.6c-78.6,11.7-74.7,129.9-84.7,151.5
		c-14.2,30.9-32.2,39-52,73.5c-20.1,34.9-8.5,63.6-12.2,89.4C3909.8,126.6,3872.2,145.5,3880.4,147.4z"/>
	<path class="st8" d="M4209.6,215.5c-4.3-11.5-7.8-23.4-8.7-35.2c-1.3-11.9,2.9-22.8,7.7-34c4.8-11.1,10.1-22.4,13.9-34.5
		c3.7-12.1,6.1-25.1,4.7-38.1c-1.2-13-5.7-25.6-12.4-36.5c-6.5-11-14.7-20.5-22.6-29.8c-7.8-9.4-15.5-18.7-20.5-29.6
		c-5.1-10.8-7-23-5.8-35.3c-3.1,11.9-2.7,25,1.7,37c4.3,12,11.6,22.5,18.9,32.4c7.3,9.9,14.8,19.5,20.6,29.8
		c5.7,10.3,9.6,21.4,10.5,32.9c0.9,11.5-0.7,23.2-4.1,34.5c-3.2,11.5-8,22.6-12.2,34.3c-2.1,5.9-4.1,11.9-5.3,18.2
		c-1.2,6.4-1.1,13.1,0,19.3C4198.4,193.3,4203.2,204.9,4209.6,215.5z"/>
	<path class="st8" d="M4012.4-181.1c-8.7,12.5-14.1,26.9-19.4,41.1c-5.1,14.3-9.5,28.8-13.7,43.3l-6.4,21.6
		c-2.2,7.2-4.6,13.9-8,20.3c-6.6,12.8-16.8,22.9-28.1,33.1c-5.5,5.2-11.1,10.6-16.1,16.7c-5,6.1-9.4,12.8-12.9,19.9
		c-3.3,7.2-6,14.4-8.2,21.9c-2.2,7.5-3.5,15.4-3.8,23.2c-0.4,7.9,0.2,15.5,0.4,22.9c0.3,7.4-0.2,14.8-1.3,22
		c-2,14.3-12.6,26.8-26.1,33.5c14.3-4.7,26.8-16.9,30.7-32.5c1.9-7.6,2.8-15.3,3.1-23c0.4-7.7,0.1-15.2,0.8-22.4
		c1.3-14.4,6.3-28.5,12.7-41.5c3.4-6.3,7.3-12.4,11.9-17.9c4.6-5.6,9.9-10.6,15.4-15.7c5.5-5.2,11.1-10.4,16.3-16.4
		c5.1-5.9,9.8-12.5,13.3-19.6c3.5-7.1,6-14.8,7.9-22.1c2.1-7.4,3.8-14.7,5.6-22.1c3.6-14.7,6.9-29.4,10.9-43.9
		C4001.3-153.2,4005.7-167.6,4012.4-181.1z"/>
	<path class="st10" d="M4085.3,88.3c-43.7,60.1-140.3,214.1-214.3,219.6c-59.8,4.5-186.5-117.3-219.5-150.1
		c-21.6-21.4,83.7-153.5,107-132c30.1,27.6,104.1,126,119.9,126c8.8,0,61.7-31.9,164.4-100.7C4082.5,24.3,4111.4,52.4,4085.3,88.3z"
		/>
	<path class="st10" d="M3571.4,97.9c21.1,29.4,87.8,72.5,107.9,76.7c20.1,4.2,97.2-106.7,90.9-126.8
		c-6.3-20.1-85.1-113.4-120.6-123.3S3549.6,67.5,3571.4,97.9z"/>
	
		<rect x="3718" y="-647.7" transform="matrix(-0.9575 -0.2883 0.2883 -0.9575 7350.7866 745.5993)" class="st7" width="24.6" height="958.5"/>
	<polygon class="st1" points="3866.1,-681.5 3900.2,-671.2 3920.9,-764.7 3900.5,-770.8 	"/>
	<path class="st8" d="M3474.1,396.6c63.1,19,110.8-20.1,125.4-68.6l18.7-62.1l-34.3-10.3l-18.7,62.1c-7.1,23.5-32,59.3-80.8,44.6
		c-43.2-13-44.2-60.2-38-81l17.7-58.7l-34.3-10.3l-17.7,58.7c-4.8,16-6.9,42.2,1.7,67.5C3423.8,367.6,3444.6,387.7,3474.1,396.6z"/>
	<path class="st6" d="M3284.4-535.8c0,0,87.5-11.6,135,4.1c47.3,15.7,124.5,74,124.5,74s88.2-7.1,137.5,6.4
		c49.3,13.3,113.3,69.2,113.3,69.2s84.2-11.2,132.7,4.9c48.5,16,118,70.6,118,70.6s96.5-6,144.7,7c48.2,13.1,114.8,71.1,114.8,71.1
		c-31.7-182.1-171.4-397.9-414.6-471.2S3411.3-670.1,3284.4-535.8z"/>
	<path class="st9" d="M3284.4-535.8c22.7-14.7,45.6-29,68.8-42.7c23.1-13.9,46.5-27.4,70.3-40.1c47.5-25.5,95.8-49.8,146.7-67.1
		c25.3-8.8,51.3-15.8,77.9-18c26.8-2.7,53.7-3.7,80.6-4.3c26.9-0.5,53.9,0,80.8,1.5c26.9,1.2,53.9,3.5,80.7,6.9
		c-53.2-9.6-107.4-13.5-161.5-13.9c-27.1-0.2-54.2,1-81.2,3.4c-27.3,2-54,9-79.7,17.8c-25.7,8.9-50.6,19.7-75.1,31.4
		c-24.4,11.7-48.5,24.1-71.9,37.7C3373.8-596.6,3328.2-567.5,3284.4-535.8z"/>
	<path class="st9" d="M3543.9-457.7c9.7-15.6,19.9-30.8,30.7-45.6c10.6-14.9,21.8-29.4,33.5-43.4c23.6-27.7,48.7-54.9,78.4-75.5
		c29.9-20.5,63.9-34.7,98.2-47.1c17.2-6.2,34.7-11.7,52.3-16.7c17.6-5.2,35.3-9.7,53.2-13.8c-36.3,5.4-72.2,14.1-107.3,25.3
		c-35,11.4-69.4,25.8-100.4,46.4c-7.6,5.3-15.2,11-21.9,17.3c-7,6.1-13.6,12.5-20.2,19.1c-12.9,13.2-25.3,27-36.6,41.5
		C3581.2-521.1,3560.8-490.3,3543.9-457.7z"/>
	<path class="st9" d="M3794.6-382.2c9.4-26,18-52.3,26.5-78.6c8.5-26.3,16.4-52.8,24.7-79.1c7.7-26.5,15.7-53,23.1-79.6l11-40
		c3.4-13.4,7.1-26.7,10.3-40.2c-4.8,13-9.1,26.1-13.6,39.2l-12.9,39.4c-8.5,26.3-16.5,52.8-24.7,79.1c-7.7,26.5-15.7,53-23.1,79.6
		C3808.5-435.7,3801.2-409.1,3794.6-382.2z"/>
	<path class="st9" d="M4304.8-228.6c-18.9-50.6-40.9-100.1-65.3-148.4c-12.1-24.2-25.3-47.9-39.2-71.1c-13.9-23.2-28.8-46-45.3-67.6
		c-16.6-21.5-35-42-56.6-58.8c-21.2-16.9-43.1-32.9-65.8-47.6c-45.3-29.6-92.7-56.2-142.4-77.6c24.2,12,47.9,24.9,71.1,38.8
		c23.3,13.7,46,28.1,68.2,43.4c22.1,15.4,44,31.1,64.8,48.1c21,16.5,38.7,36.8,55,58.1c32.9,42.5,59.8,89.5,85.3,136.9
		c12.7,23.8,24.8,47.9,36.4,72.3C4282.9-277.9,4294-253.3,4304.8-228.6z"/>
	<path class="st9" d="M4045.3-306.7c4-36.5,3.9-73.5,1.1-110.2c-1.4-18.4-4.1-36.7-7.6-54.8c-1.9-9.1-3.8-18.1-6.3-27
		c-2.2-9-5.3-17.9-8.7-26.5c-14.6-34.3-35.3-65.3-58.1-94.1c-23-28.8-48.1-55.8-75.5-80.3c12.6,13.3,25,26.9,36.8,40.9
		c11.9,13.9,23.5,28.1,34.4,42.8c21.7,29.3,42.3,59.9,55.9,93.5c13.4,33.5,19.3,70.1,23.7,106.2c2.1,18.2,3.3,36.4,4,54.7
		C4045.8-343.4,4045.8-325,4045.3-306.7z"/>
	<path class="st10" d="M3681.3-55.6c6.2,18.1-18.7,15.1-18.7,15.1s34.8,13,34,34.1c-0.8,20.4-30.8,15.7-32.9,15.4
		c1.8,0.7,33.5,13.5,30.6,34.6c-3.1,22-32.4,12.1-34.3,11.5c1.5,1.2,21.4,17.5,15.5,33.1c-10.2,26.8-62.2-13.5-85.1-9.6
		c0,0,2.2,39.5,2,40.7c0,0-50.3-37.3-53.8-68.5c-1.9-16.4,13.1-21.4,13.1-21.4s-17.5-10.2-15.7-27c1-8.6,15.6-14.7,15.6-14.7
		s-13.7-8.8-11.2-23.6c2-11.8,16.3-16.1,16.3-16.1s-9.2-14.5-3.3-26C3565.3-101,3667.9-94.4,3681.3-55.6z"/>
	<path class="st8" d="M3558.8-53c-0.3,0-0.4-0.5-0.1-0.5c34.3-6.1,73.8-2.2,105.2,13.1c1,0.5,0.7,2.4-0.6,2.1
		C3627.9-48,3595.7-53.6,3558.8-53z"/>
	<path class="st8" d="M3551-12.5c-0.4,0-0.4-0.7,0-0.7c35.3-6.1,79.7-0.5,113.9,21.4c1.2,0.8,1.5,2.6,0.1,1.8
		C3641.1-2.8,3584.2-13.2,3551-12.5z"/>
	<path class="st8" d="M3661.8,57.5c-33.6-19.7-70.2-26.7-108.8-28.4c-0.5,0-0.4-0.7,0-0.8c19.1-4.3,43.6-0.6,62.4,3.9
		c18,4.3,33.4,11.8,47.1,24.2C3663.1,56.8,3662.6,57.9,3661.8,57.5z"/>
	<path class="st8" d="M3662.6-40.5c6.5,3.2,12.7,6.8,18.4,11c5.6,4.2,11,9.3,13.4,15.5c1.2,3,1.4,6.3,0.3,9.2c-1.2,3-3,5.8-5.4,7.8
		c-4.8,4.1-12.1,4.9-18.2,3.9l-15.5-2.6l13.6,7.9c5.9,3.4,11.7,7.9,16.2,13c4.5,5.1,7.6,11.4,6.7,17.5c-0.8,6.4-4.9,11.2-11.2,12.1
		c-6.2,1.1-13.5-0.3-19.7-2.6l-17.5-6.4l14.4,11.7c3.9,3.2,7.7,7,10.6,11.1c2.9,4.1,5.3,8.8,5.3,13.3c0.1,4.5-2.2,9-6.1,10.9
		c-4,2-9.5,1.8-14.6,1.1c-10.5-1.6-20.7-5.4-31.1-8.7c-5.2-1.7-10.4-3.4-15.7-4.9c-5.2-1.3-10.8-2.8-16.2-1.9
		c5.5-0.4,10.7,1.6,15.8,3.3c5.1,1.8,10.1,3.9,15.2,6c10.1,4.2,20.3,8.2,31.3,10.5c5.5,0.9,11.5,1.8,17.5-0.7
		c6.2-2.6,9.7-9.4,9.6-15.7c-0.1-6.5-2.9-12-6.2-16.7c-3.4-4.7-7.2-8.8-11.7-12.6l-3.1,5.3c7.4,2.7,14.9,4.5,23.3,3.3
		c4.1-0.6,8.4-2.7,11.3-6.1c3-3.4,4.4-7.5,5-11.7c1-8.7-3.4-16.6-8.5-22.2c-5.3-5.8-11.3-10.3-18.1-14.1l-1.9,5.2
		c7.9,1.1,16.2-0.5,22.3-6c3-2.7,5-6.3,6.2-10c1.3-3.9,0.8-8.2-0.9-11.8c-3.4-7.2-9.5-11.7-15.5-15.7
		C3675.9-35,3669.4-38.1,3662.6-40.5z"/>
	<path class="st10" d="M3765.7,40.8c0,0-77.8-171.3-117.9-117.9c-11.9,15.9-41.9,95.3-26.1,101.6c20.4,8.2,39.1-22.6,47.8-43.8
		c0,0,17.2,49.8,55.4,48.2C3748.9,27.9,3765.7,40.8,3765.7,40.8z"/>
	<path class="st8" d="M3651.4-81.3c-5.6,5.4-9.7,12.3-13.5,19.1c-3.8,6.9-6.9,14.1-9.8,21.4c-5.5,14.7-10.5,29.4-13.4,45.1
		c-0.7,4-1.2,8-0.7,12.5c0.2,2.2,0.8,4.6,2.2,6.8c0.6,1.1,1.3,2,2.5,3c1.1,0.9,2.2,1.5,3.4,2c4.6,1.9,9.5,1.5,13.7,0.1
		c4.2-1.5,7.8-3.9,11-6.5c6.4-5.4,11.1-12.1,15.1-19c4.1-6.9,7.3-14.1,10.2-21.4l-5.1-0.2c2.2,5.8,4.9,11,8,16.1
		c3.1,5.1,6.7,9.9,10.8,14.2c4.1,4.3,8.9,8,14.1,10.9c5.2,2.9,10.9,4.9,16.7,5.6c-5.6-1.6-10.9-4-15.7-7.2
		c-4.7-3.2-8.8-7.3-12.5-11.6c-3.7-4.4-6.8-9.1-9.6-14.1c-2.7-5-5.1-10.3-6.7-15.5l-2.1-6.7l-3,6.4c-3.2,6.9-6.4,13.9-10.5,20.3
		c-4,6.4-8.4,12.6-14,17.2c-5.4,4.5-12.5,7.7-18.1,5.4c-5-1.6-4.8-10.1-3.7-17.3c1.1-7.5,3-14.9,4.9-22.4c1.9-7.5,3.9-14.9,6.3-22.3
		C3637-54,3642-68.9,3651.4-81.3z"/>
	<path class="st4" d="M3773.1,33.2l-105.4,155.5c0,0,147.6,127.5,207.7,127.1c60-0.5,148.7-135.9,193.9-194.3
		c47.9-61.8,36.5-114.6-41.1-67.5c-77.7,47.2-144.8,89.8-147.8,90.4C3877.3,144.9,3773.1,33.2,3773.1,33.2z"/>
	<path class="st3" d="M4068.3,40.8c0,2.5-2,4.5-4.5,4.5c-2.4,0-4.5-2-4.5-4.5c0-0.7,0.1-1.4,0.5-2c2.2-0.7,4.4-1.3,6.5-1.8
		C4067.5,37.9,4068.3,39.3,4068.3,40.8z M3717.5,136.6c-2.5,0-4.5,2-4.5,4.5c0,2.5,2,4.5,4.5,4.5s4.5-2,4.5-4.5
		C3722,138.6,3720,136.6,3717.5,136.6z M3786.8,136.6c-2.5,0-4.5,2-4.5,4.5c0,2.5,2,4.5,4.5,4.5s4.5-2,4.5-4.5
		C3791.2,138.6,3789.2,136.6,3786.8,136.6z M3856,136.6c-2.5,0-4.5,2-4.5,4.5c0,2.5,2,4.5,4.5,4.5c2.5,0,4.5-2,4.5-4.5
		C3860.5,138.6,3858.5,136.6,3856,136.6z M3925.3,136.6c-2.5,0-4.5,2-4.5,4.5c0,2.5,2,4.5,4.5,4.5c2.5,0,4.5-2,4.5-4.5
		C3929.8,138.6,3927.8,136.6,3925.3,136.6z M3994.6,136.6c-2.5,0-4.5,2-4.5,4.5c0,2.5,2,4.5,4.5,4.5s4.5-2,4.5-4.5
		C3999,138.6,3997,136.6,3994.6,136.6z M3752.1,84.8c-2.5,0-4.5,2-4.5,4.5s2,4.5,4.5,4.5s4.5-2,4.5-4.5S3754.6,84.8,3752.1,84.8z
		 M3821.7,84.8h-0.3c-2.5,0-4.5,2-4.5,4.5c0,2.4,2,4.5,4.5,4.5c2.4,0,4.5-2,4.5-4.5v-0.1C3824.5,87.7,3823,86.3,3821.7,84.8z
		 M4029.2,84.8c-2.5,0-4.5,2-4.5,4.5s2,4.5,4.5,4.5s4.5-2,4.5-4.5S4031.7,84.8,4029.2,84.8z M3682.9,185.1c-2.5,0-4.5,2-4.5,4.5
		s2,4.5,4.5,4.5s4.5-2,4.5-4.5S3685.3,185.1,3682.9,185.1z M3786.8,236.9c-2.5,0-4.5,2-4.5,4.5c0,2.5,2,4.5,4.5,4.5s4.5-2,4.5-4.5
		C3791.2,238.9,3789.2,236.9,3786.8,236.9z M3856,236.9c-2.5,0-4.5,2-4.5,4.5c0,2.5,2,4.5,4.5,4.5c2.5,0,4.5-2,4.5-4.5
		C3860.5,238.9,3858.5,236.9,3856,236.9z M3925.3,236.9c-2.5,0-4.5,2-4.5,4.5c0,2.5,2,4.5,4.5,4.5c2.5,0,4.5-2,4.5-4.5
		C3929.8,238.9,3927.8,236.9,3925.3,236.9z M3752.1,185.1c-2.5,0-4.5,2-4.5,4.5s2,4.5,4.5,4.5s4.5-2,4.5-4.5
		S3754.6,185.1,3752.1,185.1z M3821.4,185.1c-2.5,0-4.5,2-4.5,4.5s2,4.5,4.5,4.5s4.5-2,4.5-4.5S3823.9,185.1,3821.4,185.1z
		 M3890.7,185.1c-2.5,0-4.5,2-4.5,4.5s2,4.5,4.5,4.5c2.5,0,4.5-2,4.5-4.5S3893.1,185.1,3890.7,185.1z M3959.9,185.1
		c-2.5,0-4.5,2-4.5,4.5s2,4.5,4.5,4.5s4.5-2,4.5-4.5S3962.4,185.1,3959.9,185.1z M3821.4,285.4c-2.5,0-4.5,2-4.5,4.5
		c0,2.5,2,4.5,4.5,4.5s4.5-2,4.5-4.5C3825.9,287.4,3823.9,285.4,3821.4,285.4z M3890.7,285.4c-2.5,0-4.5,2-4.5,4.5
		c0,2.5,2,4.5,4.5,4.5c2.5,0,4.5-2,4.5-4.5C3895.1,287.4,3893.1,285.4,3890.7,285.4z"/>
	<path class="st8" d="M3756.9,142c8-11.6,39.4-58.2,45.8-70.5c0.2-0.4-0.4-0.7-0.7-0.4c-9.3,10.4-42,56.5-50,68.1
		c-16,23.2-32.4,46.3-46.3,70.9c-0.3,0.5,0.5,1.1,0.8,0.6C3724.8,189,3740.8,165.3,3756.9,142z"/>
	<path class="st11" d="M4069.3,121.4c-45.2,58.3-133.9,193.8-193.9,194.2c-12.6,0.1-28.9-5.4-46.9-14.1l237.3-264.4
		C4108,27.5,4107.9,71.5,4069.3,121.4z"/>
	<path class="st4" d="M3961.5,396.2l348.6,12.2c0,0-86.5-291.1-159.1-368.7c-33-35.3-65.3-29.9-92.7-7.2
		c-6.8,5.7-91.5,113.1-98.7,150.6c-6.3,33.1,20.6,69.8,20.6,69.8L3961.5,396.2z"/>
	<path class="st8" d="M4083.1,250.8c-14.8-1.1-29.7-1.8-44.6-0.7c-7.4,0.5-14.7,1.4-22,2.4c-3.6,0.5-7.3,0.9-11,1.3
		c-3.8,0.4-7.8,0.6-11.5,0.1c-0.3-0.1-0.4,0.5-0.1,0.5c3.6,0.8,7.1,1.5,10.8,1.8c3.5,0.3,7.1,0.1,10.6-0.1
		c7.5-0.5,14.9-1.3,22.4-1.8c15.1-1.1,30.2-2.2,45.3-2.2C4083.7,252,4083.8,250.9,4083.1,250.8z"/>
	<path class="st8" d="M4116.7,270.3c-11.7-3.4-23.8-6.3-35.8-8.3c-6.1-1-12.1-1.7-18.2-2.2c-2.9-0.2-5.8-0.4-8.8-0.6
		c-3.2-0.2-6.5,0.1-9.7-0.1c-0.3,0-0.4,0.5-0.1,0.5c3,0.3,6,1.1,9,1.6c3,0.5,6,0.9,9.1,1.4c6,0.9,12.1,2,18.1,2.9
		c12.1,1.8,24.2,3.7,36.2,5.9C4117.2,271.4,4117.3,270.4,4116.7,270.3z"/>
	<path class="st3" d="M4068.3,40.8c0,2.5-2,4.5-4.5,4.5s-4.5-2-4.5-4.5s2-4.5,4.5-4.5S4068.3,38.3,4068.3,40.8z M4133.1,36.3
		c-2.5,0-4.5,2-4.5,4.5s2,4.5,4.5,4.5c2.5,0,4.5-2,4.5-4.5S4135.6,36.3,4133.1,36.3z M3994.6,136.6c-2.5,0-4.5,2-4.5,4.5
		c0,2.5,2,4.5,4.5,4.5s4.5-2,4.5-4.5C3999,138.6,3997,136.6,3994.6,136.6z M4063.8,136.6c-2.5,0-4.5,2-4.5,4.5c0,2.5,2,4.5,4.5,4.5
		s4.5-2,4.5-4.5C4068.3,138.6,4066.3,136.6,4063.8,136.6z M4133.1,136.6c-2.5,0-4.5,2-4.5,4.5c0,2.5,2,4.5,4.5,4.5
		c2.5,0,4.5-2,4.5-4.5C4137.6,138.6,4135.6,136.6,4133.1,136.6z M4202.4,136.6c-2.5,0-4.5,2-4.5,4.5c0,2.5,2,4.5,4.5,4.5
		c2.5,0,4.5-2,4.5-4.5C4206.8,138.6,4204.8,136.6,4202.4,136.6z M4029.2,84.8c-2.5,0-4.5,2-4.5,4.5s2,4.5,4.5,4.5s4.5-2,4.5-4.5
		S4031.7,84.8,4029.2,84.8z M4098.5,84.8c-2.5,0-4.5,2-4.5,4.5s2,4.5,4.5,4.5c2.5,0,4.5-2,4.5-4.5S4100.9,84.8,4098.5,84.8z
		 M4167.7,84.8c-2.5,0-4.5,2-4.5,4.5s2,4.5,4.5,4.5c2.5,0,4.5-2,4.5-4.5S4170.2,84.8,4167.7,84.8z M3994.6,236.9
		c-2.5,0-4.5,2-4.5,4.5c0,2.5,2,4.5,4.5,4.5s4.5-2,4.5-4.5C3999,238.9,3997,236.9,3994.6,236.9z M4063.8,236.9c-2.5,0-4.5,2-4.5,4.5
		c0,2.5,2,4.5,4.5,4.5s4.5-2,4.5-4.5C4068.3,238.9,4066.3,236.9,4063.8,236.9z M4133.1,236.9c-2.5,0-4.5,2-4.5,4.5
		c0,2.5,2,4.5,4.5,4.5c2.5,0,4.5-2,4.5-4.5C4137.6,238.9,4135.6,236.9,4133.1,236.9z M4202.4,236.9c-2.5,0-4.5,2-4.5,4.5
		c0,2.5,2,4.5,4.5,4.5c2.5,0,4.5-2,4.5-4.5C4206.8,238.9,4204.8,236.9,4202.4,236.9z M3959.9,185.1c-0.2,0-0.4,0-0.6,0.1
		c-0.5,2.9-0.6,5.8-0.6,8.6c0.3,0.1,0.8,0.2,1.2,0.2c2.5,0,4.5-2,4.5-4.5C3964.4,187.1,3962.4,185.1,3959.9,185.1z M4029.2,185.1
		c-2.5,0-4.5,2-4.5,4.5s2,4.5,4.5,4.5s4.5-2,4.5-4.5S4031.7,185.1,4029.2,185.1z M4098.5,185.1c-2.5,0-4.5,2-4.5,4.5s2,4.5,4.5,4.5
		c2.5,0,4.5-2,4.5-4.5S4100.9,185.1,4098.5,185.1z M4167.7,185.1c-2.5,0-4.5,2-4.5,4.5s2,4.5,4.5,4.5c2.5,0,4.5-2,4.5-4.5
		S4170.2,185.1,4167.7,185.1z M4232.6,188.8c-0.1,0.2-0.1,0.5-0.1,0.7c0,1.6,0.7,2.8,1.9,3.6
		C4233.7,191.8,4233.2,190.3,4232.6,188.8z M3994.6,337.2c-2.5,0-4.5,2-4.5,4.5c0,2.5,2,4.5,4.5,4.5s4.5-2,4.5-4.5
		C3999,339.2,3997,337.2,3994.6,337.2z M4063.8,337.2c-2.5,0-4.5,2-4.5,4.5c0,2.5,2,4.5,4.5,4.5s4.5-2,4.5-4.5
		C4068.3,339.2,4066.3,337.2,4063.8,337.2z M4133.1,337.2c-2.5,0-4.5,2-4.5,4.5c0,2.5,2,4.5,4.5,4.5c2.5,0,4.5-2,4.5-4.5
		C4137.6,339.2,4135.6,337.2,4133.1,337.2z M4202.4,337.2c-2.5,0-4.5,2-4.5,4.5c0,2.5,2,4.5,4.5,4.5c2.5,0,4.5-2,4.5-4.5
		C4206.8,339.2,4204.8,337.2,4202.4,337.2z M4271.6,337.2c-2.5,0-4.5,2-4.5,4.5c0,2.5,2,4.5,4.5,4.5c2.5,0,4.5-2,4.5-4.5
		C4276.1,339.2,4274.1,337.2,4271.6,337.2z M4029.2,285.4c-2.5,0-4.5,2-4.5,4.5c0,2.5,2,4.5,4.5,4.5s4.5-2,4.5-4.5
		C4033.7,287.4,4031.7,285.4,4029.2,285.4z M4098.5,285.4c-2.5,0-4.5,2-4.5,4.5c0,2.5,2,4.5,4.5,4.5c2.5,0,4.5-2,4.5-4.5
		C4102.9,287.4,4100.9,285.4,4098.5,285.4z M4167.7,285.4c-2.5,0-4.5,2-4.5,4.5c0,2.5,2,4.5,4.5,4.5c2.5,0,4.5-2,4.5-4.5
		C4172.2,287.4,4170.2,285.4,4167.7,285.4z M4237,285.4c-2.5,0-4.5,2-4.5,4.5c0,2.5,2,4.5,4.5,4.5s4.5-2,4.5-4.5
		C4241.5,287.4,4239.5,285.4,4237,285.4z M3962.7,386.7l-0.9,7.6c1.6-0.7,2.6-2.3,2.6-4.1C3964.4,388.7,3963.7,387.5,3962.7,386.7z
		 M4029.2,385.7c-2.5,0-4.5,2-4.5,4.5c0,2.5,2,4.5,4.5,4.5s4.5-2,4.5-4.5C4033.7,387.7,4031.7,385.7,4029.2,385.7z M4098.5,385.7
		c-2.5,0-4.5,2-4.5,4.5c0,2.5,2,4.5,4.5,4.5c2.5,0,4.5-2,4.5-4.5C4102.9,387.7,4100.9,385.7,4098.5,385.7z M4167.7,385.7
		c-2.5,0-4.5,2-4.5,4.5c0,2.5,2,4.5,4.5,4.5c2.5,0,4.5-2,4.5-4.5C4172.2,387.7,4170.2,385.7,4167.7,385.7z M4237,385.7
		c-2.5,0-4.5,2-4.5,4.5c0,2.5,2,4.5,4.5,4.5s4.5-2,4.5-4.5C4241.5,387.7,4239.5,385.7,4237,385.7z M4303.4,386.7
		c-1,0.8-1.6,2.1-1.6,3.4c0,2.4,1.8,4.3,4.1,4.5C4305.2,392.3,4304.4,389.6,4303.4,386.7z"/>
	<path class="st8" d="M4003.8,103.9c-7.5,10-14.2,20.4-20.6,31c2.6-6,5-12.1,7.2-18.4c0.1-0.3-0.3-0.4-0.4-0.2
		c-2.2,4.4-4.5,8.8-6.3,13.4c-1.7,4.1-3.3,8.2-4.8,12.4c0,0.1-0.1,0.1-0.1,0.2c-7.2,12.6-15.5,25.3-19.1,39.5
		c-3.2,12.7-2.6,26.2,0.8,38.8c1.8,6.5,4.4,12.8,7.5,18.8c2.7,5.2,5.7,10.6,9.9,14.8c-2.3,13.3-3.9,26.7-5.6,40.1
		c-1.7,12.9-4,26.2-4.1,39.3c0,0.8,1.2,0.9,1.4,0.2c0.3-0.9,0.6-1.9,0.9-2.8c0.1-0.2,0-0.3-0.1-0.4c2.9-12,4.1-24.6,5.7-36.9
		c1.7-12.7,4.9-39.2,4.9-39.3c0.1-0.6-6-11.1-8.4-16.1c-2.9-6.1-5.2-12.6-7-19.2c-3.4-12.5-4.2-25.5-0.8-38
		c3.7-13.4,11.2-26.2,17.9-38.2c7.2-12.8,14.6-25.6,22-38.3C4004.9,104,4004.1,103.4,4003.8,103.9z"/>
	
		<rect x="3921" y="274.9" transform="matrix(-0.8552 0.5182 -0.5182 -0.8552 7701.6055 -1308.5452)" class="st8" width="225" height="292.9"/>
	
		<rect x="3904.1" y="281.4" transform="matrix(-0.8546 0.5192 -0.5192 -0.8546 7494.127 -1502.8617)" class="st7" width="106.7" height="32.3"/>
	<polygon class="st7" points="3924.2,298.9 3935.4,292.1 3927.7,279.3 3954.9,262.7 3962.7,275.5 3973.9,268.7 3959.8,245.5 
		3909.9,275.8 	"/>
	<path class="st10" d="M4156,43.3c78,64.6,236,224.1,208.8,274.6c-44.8,83-178,178.1-221.2,200.6c-18.8,9.8-121.7-118.3-105.6-134.3
		c19.3-19.2,165.9-107.1,162.1-120.4c-2.1-7.6-34.6-67.7-68.6-146.7C4092.1,25.4,4118.8,12.5,4156,43.3z"/>
	<path class="st10" d="M3885.8,458.5c1.6,18,19.8,22.1,19.8,22.1s-6.9,12.7-3.2,26c4.2,15.3,30.1,15.3,30.1,15.3s-4.4,14.3,1,28
		c5.5,14.2,31.6,18,31.6,18s3.2,15.5,16.4,24.1c22.4,14.6,59.5-2.6,83.2-13.3c23.7-10.7,80.8-63.3,92.7-72.2l-67.4-152.6
		c0,0-119.9,17.8-145.9,34.4C3922.1,402.2,3884,438.3,3885.8,458.5z"/>
	<path class="st8" d="M3905.6,477.7c19.8-20.4,44.5-33.9,68.5-48.7c0.5-0.3,1,0.5,0.5,0.8c-24,14.5-44.8,33.5-68.1,48.9
		C3905.8,479.1,3905,478.2,3905.6,477.7z"/>
	<path class="st8" d="M3932.1,519.7c4.6-4.5,10.7-7.4,16.3-10.5c6-3.3,12.1-6.5,18.2-9.7c12.2-6.3,24.6-12.2,37.2-17.8
		c0.6-0.2,1.1,0.5,0.5,0.8c-12.2,6.3-24.3,12.7-36.2,19.4c-6,3.4-11.9,6.8-17.8,10.3c-5.5,3.2-11,7.1-17.2,9
		C3932.2,521.6,3931.4,520.4,3932.1,519.7z"/>
	<path class="st8" d="M3965.6,567.6c3.9-4.1,10.2-6.3,15.2-8.7c5.6-2.7,11.3-5.5,16.9-8.3c11.2-5.6,22.4-11.2,33.4-17.2
		c0.5-0.3,1.1,0.5,0.5,0.8c-11.2,6.1-22.2,12.4-33.4,18.4c-5.5,3-11,5.9-16.6,8.8c-4.7,2.5-10.3,6.1-15.7,6.6
		C3965.5,568.2,3965.4,567.8,3965.6,567.6z"/>
	<path class="st4" d="M4085.1,346.9l110.4,150c0,0,160.7-123.6,176.5-186.9c14.2-56.8-164.5-229.8-204.1-262.4
		c-39.6-32.5-70.8-32-51,33.9c19.8,65.9,77.5,180.2,77.9,182.1C4195.3,265.5,4085.1,346.9,4085.1,346.9z"/>
	<path class="st3" d="M4137.6,40.8c0,2.5-2,4.5-4.5,4.5c-2.5,0-4.5-2-4.5-4.5s2-4.5,4.5-4.5C4135.6,36.3,4137.6,38.3,4137.6,40.8z
		 M4202.4,136.6c-2.5,0-4.5,2-4.5,4.5c0,2.5,2,4.5,4.5,4.5c2.5,0,4.5-2,4.5-4.5C4206.8,138.6,4204.8,136.6,4202.4,136.6z
		 M4167.7,84.8c-2.5,0-4.5,2-4.5,4.5s2,4.5,4.5,4.5c2.5,0,4.5-2,4.5-4.5S4170.2,84.8,4167.7,84.8z M4202.4,236.9
		c-2.5,0-4.5,2-4.5,4.5c0,2.5,2,4.5,4.5,4.5c2.5,0,4.5-2,4.5-4.5C4206.8,238.9,4204.8,236.9,4202.4,236.9z M4271.6,236.9
		c-2.5,0-4.5,2-4.5,4.5c0,2.5,2,4.5,4.5,4.5c2.5,0,4.5-2,4.5-4.5C4276.1,238.9,4274.1,236.9,4271.6,236.9z M4340.9,236.9
		c-2.5,0-4.5,2-4.5,4.5c0,2.5,2,4.5,4.5,4.5c2.5,0,4.5-2,4.5-4.5C4345.4,238.9,4343.4,236.9,4340.9,236.9z M4167.7,185.1
		c-2.5,0-4.5,2-4.5,4.5s2,4.5,4.5,4.5c2.5,0,4.5-2,4.5-4.5S4170.2,185.1,4167.7,185.1z M4237,185.1c-2.5,0-4.5,2-4.5,4.5
		s2,4.5,4.5,4.5s4.5-2,4.5-4.5S4239.5,185.1,4237,185.1z M4309.6,192.5c-0.8,0.9-2,1.6-3.4,1.6c-2.5,0-4.5-2-4.5-4.5
		c0-1.6,0.9-3.1,2.2-3.8L4309.6,192.5z M4133.1,337.2c-2.5,0-4.5,2-4.5,4.5c0,2.5,2,4.5,4.5,4.5c2.5,0,4.5-2,4.5-4.5
		C4137.6,339.2,4135.6,337.2,4133.1,337.2z M4202.4,337.2c-2.5,0-4.5,2-4.5,4.5c0,2.5,2,4.5,4.5,4.5c2.5,0,4.5-2,4.5-4.5
		C4206.8,339.2,4204.8,337.2,4202.4,337.2z M4271.6,337.2c-2.5,0-4.5,2-4.5,4.5c0,2.5,2,4.5,4.5,4.5c2.5,0,4.5-2,4.5-4.5
		C4276.1,339.2,4274.1,337.2,4271.6,337.2z M4340.9,337.2c-2.5,0-4.5,2-4.5,4.5c0,2.5,2,4.5,4.5,4.5c2.5,0,4.5-2,4.5-4.5
		C4345.4,339.2,4343.4,337.2,4340.9,337.2z M4167.7,285.4c-2.5,0-4.5,2-4.5,4.5c0,2.5,2,4.5,4.5,4.5c2.5,0,4.5-2,4.5-4.5
		C4172.2,287.4,4170.2,285.4,4167.7,285.4z M4237,285.4c-2.5,0-4.5,2-4.5,4.5c0,2.5,2,4.5,4.5,4.5s4.5-2,4.5-4.5
		C4241.5,287.4,4239.5,285.4,4237,285.4z M4306.3,285.4c-2.5,0-4.5,2-4.5,4.5c0,2.5,2,4.5,4.5,4.5c2.5,0,4.5-2,4.5-4.5
		C4310.7,287.4,4308.7,285.4,4306.3,285.4z M4202.4,437.5c-2.5,0-4.5,2-4.5,4.5c0,2.5,2,4.5,4.5,4.5c2.5,0,4.5-2,4.5-4.5
		C4206.8,439.5,4204.8,437.5,4202.4,437.5z M4167.7,385.7c-2.5,0-4.5,2-4.5,4.5c0,2.5,2,4.5,4.5,4.5c2.5,0,4.5-2,4.5-4.5
		C4172.2,387.7,4170.2,385.7,4167.7,385.7z M4237,385.7c-2.5,0-4.5,2-4.5,4.5c0,2.5,2,4.5,4.5,4.5s4.5-2,4.5-4.5
		C4241.5,387.7,4239.5,385.7,4237,385.7z M4306.3,385.7c-2.5,0-4.5,2-4.5,4.5c0,2.5,2,4.5,4.5,4.5c2.5,0,4.5-2,4.5-4.5
		C4310.7,387.7,4308.7,385.7,4306.3,385.7z"/>
	<path class="st8" d="M4176.2,391c-8.2-11.5-41.3-56.8-50.7-67c-0.3-0.3-0.8,0.2-0.6,0.5c6.7,12.3,38.8,58.7,47,70.2
		c16.4,22.9,32.5,46.2,51,67.6c0.4,0.4,1.2-0.1,0.9-0.6C4209.5,437.2,4192.6,414.2,4176.2,391z"/>
	<path class="st8" d="M4163.3,192.7c-11.1-24.2-21.7-48.6-32.4-73c-0.2-0.5-1-0.1-0.8,0.3c4.8,14.1,10,28,15.6,41.8
		c-4.2-6.8-8.1-13.7-12-20.7c-0.3-0.5-1-0.1-0.8,0.5c4.1,9.5,9.5,18.3,15.5,26.8c3.5,8.3,7,16.7,10.7,24.9
		c5.4,12.1,30.4,64.8,33.7,70.6c-19.5,12.6-36.2,26.4-55,40.1c-9.2,6.7-18.3,13.5-27.4,20.4c-8.9,6.8-20.1,13.5-27.8,21.2
		c-0.5,0.5,2.1,2.7,3,3.8c0.4,0.5,1.4,0.2,1-0.4c0,0-0.7-1.2-1-1.7c4.7-2.6,22.9-16.2,27.6-19.6c9.2-6.7,18.4-13.4,27.5-20.2
		c18.6-13.7,57.3-42,57.2-42.4C4196,259.4,4168.9,204.9,4163.3,192.7z"/>
	<path class="st10" d="M4121.1,30.5c-1.4,6.2-30.6,46.8-58.9,45.8c-9.2-0.3-9.6-50.9-9.6-50.9l-0.9-3.7l-12.3-52.2l61-40.1l8.8-5.3
		c0,0,2.4,14.5,5.2,32.6c0.1,0.8,0.3,1.7,0.4,2.6c0.2,1,0.4,2,0.5,2.9c0.5,2.7,0.9,5.4,1.3,8.2c0.3,2.1,0.6,4.1,0.9,6.3
		c0.3,2.2,0.6,4.4,0.9,6.6C4120.9,5.2,4121.7,27.9,4121.1,30.5z"/>
	<path class="st8" d="M4114.4-43.3c-14.5,41.8-47.6,59.1-62.8,65l-12.3-52.2l61-40.1l8.8-5.3C4109.2-75.8,4111.6-61.3,4114.4-43.3z"
		/>
	<path class="st10" d="M3962-127c-26.8,90.1,24.1,116.4,43.6,122.1c17.6,5.2,78.4,20.8,114.4-66.1c36-86.9,2.6-127.8-37.2-141.9
		C4043-227,3988.8-217.1,3962-127z"/>
	<path class="st8" d="M3979.3-138.8c2.2,0.3,4.3,0.3,6.5,0.4c2.5,0.1,4.5,0.5,6.7-0.9c1.2-0.7,1.7-2.7,1.1-3.9
		c-1.4-2.9-4.4-3.8-7.4-4c-3.2-0.3-5.8,0.3-8.5,2.1C3975.1-143.3,3976.4-139.2,3979.3-138.8z"/>
	<path class="st8" d="M4041.6-121.9c-2.1-0.8-3.8-1.9-5.8-3c-2.2-1.2-4.1-1.9-5.3-4.2c-0.7-1.2,0-3.2,1.1-3.9c2.6-1.8,5.7-1,8.4,0.3
		c2.9,1.4,4.8,3.2,6.2,6.2C4047.5-123.7,4044.3-120.8,4041.6-121.9z"/>
	<path class="st8" d="M4021.1-103.6c0.1-0.2,0.4,0.4,0.3,0.7c-2,6.1-3.3,13.4,1.6,17.1c0.2,0.1,0,0.4-0.2,0.3
		C4016.4-88.5,4018.2-98.2,4021.1-103.6z"/>
	<path class="st8" d="M4028.5-108.4c10.1,2.2,4.9,22.2-4.4,20.2C4014.9-90.2,4020-110.2,4028.5-108.4z"/>
	<path class="st8" d="M4032.1-106.3c1.5,1.6,2.7,4,4.7,4.8c2.4,0.9,4.8-0.8,6.9-2.4c0.2-0.2,0.3,0.1,0.3,0.3
		c-0.9,3.9-3.4,7.4-7.7,6.9c-3.9-0.4-5.7-4.5-5.7-8.6C4030.7-106.1,4031.6-106.9,4032.1-106.3z"/>
	<path class="st8" d="M3987-113.8c0-0.2-0.6,0.2-0.6,0.4c-1.3,6.3-3.9,13.2-10.1,13.9c-0.2,0-0.3,0.3,0,0.4
		C3983.3-98.4,3986.7-107.6,3987-113.8z"/>
	<path class="st8" d="M3983-121.6c-9.8-3.2-15.6,16.6-6.5,19.6C3985.5-99.1,3991.2-118.9,3983-121.6z"/>
	<path class="st8" d="M3978.5-121.5c-1.9,0.6-4,2.1-5.9,1.6c-2.2-0.5-3.2-3.1-4-5.6c-0.1-0.3-0.3-0.1-0.4,0.1
		c-1.2,3.8-1.1,8.1,2.3,9.9c3.1,1.6,6.5-0.9,8.5-4.4C3979.5-120.6,3979.3-121.8,3978.5-121.5z"/>
	<path class="st8" d="M4008.7-52.5c-1.8,1.2-3.7,2.9-6,2.6c-2.2-0.3-4.6-1.8-6.4-3c-0.2-0.1-0.4,0-0.3,0.3c1.1,2.7,4.2,5,7.2,5.1
		c2.9,0.1,4.9-2.1,6.1-4.5C4009.5-52.5,4009-52.7,4008.7-52.5z"/>
	<path class="st8" d="M3987.5-69.1c0,0,2.3,7,7.3,11c1.9,1.5,4,2.5,6.6,2.7c5.3,0.4,7-4.1,7.4-8.2c0.3-3.4-0.2-6.6-0.2-6.6
		S3999.2-65.9,3987.5-69.1z"/>
	<path class="st12" d="M3994.8-58c1.9,1.5,4,2.5,6.6,2.7c5.3,0.4,7-4.1,7.4-8.2C4003.4-64.8,3997-63,3994.8-58z"/>
	<path class="st8" d="M3988.9-81.8c0,0-3.8,8.9-4.9,13.2c-0.1,0.4,0.9,0.9,2.3,1.4c0.1,0,0.1,0.1,0.2,0.1c7.4,3.3,15.8,2.7,22.2-2.3
		c0.4-0.3,0-0.9-0.5-0.8c-6.9,2.7-13.5,2-20.4,0.3c0-1.3,7-15,6.3-15.2c-2.3-0.8-7.5-0.5-10.5-0.4c7.3-18.7,17.6-36.2,24.5-54.9
		c0.2-0.7-0.7-1.1-1.1-0.6c-12,17.5-20.9,38.9-28.9,58C3977.1-80.7,3987-81.6,3988.9-81.8z"/>
	<path class="st8" d="M4114.3-73.1c-21.6-4.4-14.2-38.4-14.2-38.4s-24-7.5-17.3-47.3c0,0-16.9,21.3-51.1,19.1
		c-7.2-0.5,20.2-13.6,20.2-13.6s-33.7,19.5-83.9-1.4c-3.6-1.5,16.2-55,61.3-65c45.1-10,79.8,8.6,99.7,39.9c0,0,27.1,20.3,24.4,49.5
		C4150.6-101.2,4122.7-71.4,4114.3-73.1z"/>
	<path class="st10" d="M4110.2-37.7c-1.6,0.3-3.1,0.3-4.5,0.2c-1.6,0-3.1-0.3-4.4-0.8c-2-0.6-3.7-1.6-5-2.8c-1.2-1-2.2-2.2-2.9-3.4
		c-1.9-3-2.4-5.9-2.4-5.9l10.2-23.6c0,0,26-24.6,37.6-14.8C4150.4-78.8,4126.7-40.2,4110.2-37.7z"/>
	<path class="st8" d="M4131.7-77.8c0.3,0,0.2,0.4,0,0.4c-11.6,2.1-19.3,10.9-25.4,20.5c4-3.3,8.8-4.6,13.3,0.3
		c0.2,0.3-0.1,0.6-0.4,0.5c-4.2-1.8-7.5-1.7-11.2,1.2c-2.6,2.1-4.7,4.9-6.8,7.5c-0.7,0.9-2.3,0-1.7-1c0-0.1,0.1-0.2,0.1-0.2
		C4102.2-62.4,4116.8-79.4,4131.7-77.8z"/>
	<circle class="st3" cx="4105.7" cy="-43.5" r="4.4"/>
	<circle class="st3" cx="4117" cy="-47.7" r="3.1"/>
	<polygon class="st3" points="4052.9,36.6 4022.3,88.8 4060,75.7 4089.9,106.7 4121.1,30.5 4060.5,74.3 	"/>
	<g id="XMLID_1_">
		<g id="XMLID_80_">
			<rect id="XMLID_81_" x="3527.8" y="1186.9" class="st13" width="18.1" height="144.5"/>
		</g>
		<g id="XMLID_78_">
			<rect id="XMLID_79_" x="3311" y="1186.9" class="st13" width="18.1" height="144.5"/>
		</g>
		<g id="XMLID_76_">
			<path id="XMLID_77_" class="st13" d="M3545.6,1357.7v-8h-9.8c-4.4,0-8.2,3.3-8.2,7.8v10.2h-6v8h24v-8h-10v-10H3545.6z"/>
		</g>
		<g id="XMLID_67_">
			<g id="XMLID_74_">
				<path id="XMLID_75_" class="st13" d="M3473.6,1187.7v116.2c0,5.2-4.2,9.8-9.4,9.8h-26.6v-91h-19v91h-36v-91h-18v91h0.2
					c0,30-24.2,53.8-53.2,53.8v18.1c31,0,60.7-21.9,68.8-53.9h2.9h36.1h18.1h36.1c10,0,18-8.4,18-18.4v-125.6H3473.6z"/>
			</g>
			<g id="XMLID_72_">
				<circle id="XMLID_73_" class="st13" cx="3374.2" cy="1195.9" r="9"/>
			</g>
			<g id="XMLID_70_">
				<circle id="XMLID_71_" class="st13" cx="3414.4" cy="1195.9" r="9"/>
			</g>
			<g id="XMLID_68_">
				<circle id="XMLID_69_" class="st13" cx="3440.5" cy="1195.9" r="9"/>
			</g>
		</g>
		<g id="XMLID_62_">
			<g id="XMLID_65_">
				<path id="XMLID_66_" class="st13" d="M3258.9,1223.9c-22-4-42.7,8.6-46.3,28.2l-1,5.5c-0.4,2-2.2,3.5-4.2,3.5h-12.5
					c-10.3,0-19.2,7.4-21.1,17.6l0,0c0,0.2-0.1,0.3-0.1,0.5c-15.5,83.5-65.8,154.5-135.2,197.9c-4.4,2.7-9.9,2.7-14.3,0
					c-28.5-17.8-53.8-40.2-74.8-66.3c-1.5-1.9-1.4-4.7,0.4-6.4c0,0,42.9-42.9,57.2-57.2c5.3-5.3,7.7-13,6.1-20.4
					c-0.7-3.4-2-6.4-4-7.3c-16.7-7.3-28.2-24.5-27-44.2c1.3-22.5,19.7-40.9,42.2-42.3c26.2-1.6,48,19.2,48,45.1
					c0,15.7-8,29.6-20.2,37.7c-2.5,1.7-3.5,6.4-3.8,11.1c-0.4,6.4,2,12.7,6.5,17.2l41.1,41.1c3.7,3.7,9.9,3.5,13.4-0.7
					c3-3.6,2.5-9.1-0.9-12.4l-37-37c-3.2-3.2-3.3-8.5-0.1-11.7c12.5-12.2,19.9-29.5,19-48.5c-1.6-31.7-27-57.7-58.7-59.9
					c-36.9-2.5-67.7,26.7-67.7,63.1c0,20.1,9.4,38,24,49.6c3.9,3.1,4.2,8.8,0.7,12.3l-55.1,55.1c-6.8,6.8-6.8,17.7,0,24.5
					c22.2,28.1,49,52.3,79.3,71.5c0,0,0.1,0,0.1,0.1c0,0-0.1,0-0.1,0.1l0.1,0.1c11.1,7,25.2,7,36.3,0l0.3-0.2
					c72.5-45.9,125-120.4,141.6-207.7c0.5-2.5,2.7-4.4,5.2-4.4h6.2c2.7,0,4.7,2.4,4.2,5.1l-0.6,3.4c-3.6,19.6,11.3,38.8,33.3,42.8
					l0,0c22,4,42.7-8.6,46.3-28.2l6.5-35.5C3295.8,1247.1,3280.9,1227.9,3258.9,1223.9z M3272.3,1263.1l-6.5,35.5
					c-1.8,9.8-12.2,16.1-23.2,14.1s-18.4-11.6-16.6-21.4l6.5-35.5c1.8-9.8,12.2-16.1,23.2-14.1
					C3266.7,1243.7,3274.1,1253.3,3272.3,1263.1z"/>
			</g>
			<g id="XMLID_63_">
				<path id="XMLID_64_" class="st13" d="M3184,1232.9c2.3-3.6,1.6-8.4-1.5-11.3c-1.3-1.2-2.6-2.5-3.9-3.7
					c-30.8-28.3-67.3-50.6-107.5-64.9c-9.6-3.4-19.4-6.4-29.5-8.9c-7.8-1.9-16-1.9-23.8,0.2c-10,2.6-19.7,5.8-29.3,9.4
					c-39.3,14.7-74.9,37-105.1,65.1l-0.3,0.3c-11.7,11-17.4,26.8-15.5,42.7v0.2c4.6,38.3,16,74.5,33.1,107.3
					c2.2,4.2,7.2,6.3,11.5,4.5c5-2,7.1-7.8,4.6-12.5c-16.9-32.6-28.1-68.7-31.9-106.9c-0.7-7,1.8-13.9,6.8-18.8
					c36.9-35.8,83-62.1,134.4-75c2.3-0.6,4.8-0.6,7.2-0.1c52.2,12.3,99,38.3,136.6,74C3174.3,1238.6,3181,1237.8,3184,1232.9
					L3184,1232.9z"/>
			</g>
		</g>
		<g id="XMLID_60_">
			<path id="XMLID_61_" class="st14" d="M2950.9,1368.5c-1,0-1.9-0.5-2.5-1.3c-23-33.4-34.6-69.9-34.6-108.5c0-8.6,2.8-15.6,8-20.2
				c17.4-15.5,54.6-42.2,108.1-47.9h0.5l0.4,0.1c2.8,0.5,68.9,13.8,106,46.6c5.3,4.7,8.2,11.7,8.2,19.8c0,38.3-10.3,73.3-30.7,104
				c-0.9,1.4-2.8,1.8-4.2,0.8c-1.4-0.9-1.8-2.8-0.8-4.2c19.7-29.7,29.7-63.6,29.7-100.7c0-6.4-2.2-11.8-6.1-15.3
				c-34.3-30.3-96.8-43.9-102.7-45.1c-51.6,5.6-87.4,31.4-104.2,46.3c-5,4.4-6,11-6,15.7c0,37.4,11.3,72.7,33.6,105.1
				c0.9,1.4,0.6,3.2-0.8,4.2C2952.1,1368.3,2951.5,1368.5,2950.9,1368.5z"/>
		</g>
		<g id="XMLID_58_">
			<path id="XMLID_59_" class="st14" d="M3022.9,1437.1l-1.3-0.7c-1.1-0.6-26.1-14.7-52-42.7c-1.1-1.2-1.1-3.1,0.2-4.3
				c1.2-1.1,3.1-1.1,4.3,0.2c22.1,23.8,43.9,37.6,49.3,40.8c6.9-3,34.2-15.8,60.7-42c1.2-1.2,3.1-1.2,4.3,0c1.2,1.2,1.2,3.1,0,4.3
				c-29.7,29.4-60.6,42.5-64,43.9L3022.9,1437.1z"/>
		</g>
		<g id="XMLID_2_">
			<g id="XMLID_56_">
				<path id="XMLID_57_" class="st15" d="M3148.1,1443.9c1,0,2-0.4,2.7-1.2c0.8-0.8,1.2-1.7,1.2-2.7c0-1.1-0.4-2-1.2-2.8
					c-0.8-0.8-1.7-1.2-2.7-1.2c-1.1,0-2.1,0.4-2.9,1.2s-1.2,1.7-1.2,2.8c0,1,0.4,2,1.2,2.7C3146,1443.5,3147,1443.9,3148.1,1443.9z"
					/>
			</g>
			<g id="XMLID_54_">
				<path id="XMLID_55_" class="st15" d="M3178.3,1482.4c-1,0-2,0.4-2.7,1.2c-0.8,0.8-1.2,1.7-1.2,2.8c0,1,0.4,2,1.2,2.7
					c0.8,0.8,1.7,1.2,2.7,1.2c1.1,0,2-0.4,2.8-1.2c0.8-0.8,1.1-1.7,1.1-2.7c0-1.1-0.4-2-1.1-2.8
					C3180.3,1482.8,3179.4,1482.4,3178.3,1482.4z"/>
			</g>
			<g id="XMLID_52_">
				<path id="XMLID_53_" class="st15" d="M3188.3,1482.4c-1,0-2,0.4-2.7,1.2c-0.8,0.8-1.2,1.7-1.2,2.8c0,1,0.4,2,1.2,2.7
					c0.8,0.8,1.7,1.2,2.7,1.2c1.1,0,2-0.4,2.8-1.2c0.8-0.8,1.1-1.7,1.1-2.7c0-1.1-0.4-2-1.1-2.8
					C3190.3,1482.8,3189.4,1482.4,3188.3,1482.4z"/>
			</g>
			<g id="XMLID_50_">
				<path id="XMLID_51_" class="st15" d="M3219.4,1445.5c-1.9-0.9-4.3-1.3-7.2-1.3c-4,0-6.6,0.8-8.8,2.4c-2.2,1.6-2.8,4.4-2.8,8.4
					v17.7h-5.7l0,0h-6.8c-0.8,0-1.1-0.8-1.4-1.8c-0.2-1-0.2-2.6-0.2-4.3v-19.3c0-2-1-3.1-3-3.1s-3,1-3,3.1v24c0,0.5-2.9,1.3-4.3,1.3
					h-4.6l0,0h-5.2v-26.1c0-1.1-0.3-1.8-0.9-2.2c-0.7-0.4-1.3-0.5-2.1-0.5c-0.7,0-1.4,0.2-2.1,0.5c-0.7,0.4-1,1.1-1,2.2v25.8
					c0,2.7-0.2,5.1-0.7,7.3c-0.4,2.2-1.5,4.1-3.1,5.8c-1.6,1.7-4.1,2.5-7.4,2.5c-2.1,0-4.2-0.4-6.3-1.1c-2.1-0.8-3.9-2.1-5.3-4
					c-1.5-1.9-2.2-4.4-2.2-7.6c0-3.4,0.6-6.3,1.8-8.6c1.2-2.3,2.4-3.9,3.4-4.9c-1.2-0.7-2.3-1.1-3.5-1.1c-1.6,0-3,0.7-4.3,2.1
					c-1.3,1.4-2.2,3.2-2.9,5.4s-1,4.4-1,6.7c0,3.1,0.7,6,2,8.7s3.4,4.9,6.3,6.6c2.9,1.7,6.6,2.6,11.1,2.6c5.9,0,10.3-1.5,13.3-4.5
					s4.5-7.3,4.7-12.9c0.6,0.5,1.3,1.4,2,1.6c0.7,0.2,1.7,0.8,3,0.8h0.1l0,0h4.6c2.1,0,4-1.1,5.7-2.1c0.8,0.6,1.7,1.2,2.7,1.5
					s2.2,0.6,3.7,0.6h6.5l0,0h5c1.5,0,2.7-0.5,3.5-0.8c0.8-0.3,1.5-0.8,2.2-1.1c2.1,1,4.5,1.4,7.2,1.4c4.5,0,7.8-1.4,9.7-4
					c1.9-2.6,2.8-6.7,2.8-12.3c0-4.5-0.5-8-1.6-10.4C3222.7,1448,3221.3,1446.4,3219.4,1445.5z M3217.5,1468.7c-1.1,2.5-3.5,4-7.1,4
					h-3.9v-16.1c0-5.1,1.6-7.6,5.7-7.6c4.9,0,7.1,4,7.1,11.9C3219.4,1463.5,3218.6,1466.2,3217.5,1468.7z"/>
			</g>
			<g id="XMLID_48_">
				<path id="XMLID_49_" class="st15" d="M3242.2,1431c0.2,0,0.3-0.1,0.5-0.4c0.1-0.2,0.2-0.5,0.2-0.8c0-0.9-0.5-1.3-1.4-1.3
					c-0.5,0.2-1.2,0.3-2.3,0.3c-3.7,0-5.6-1.8-5.6-5.3c0-1.2,0.2-2.2,0.6-2.9c0.4-0.7,0.9-1.1,1.5-1.3c0.7,0.1,1.4,0.5,1.9,1
					c0.6,0.5,0.8,1.2,0.8,2c0.2,0.2,0.5,0.3,0.9,0.3c0.5,0,1-0.2,1.4-0.5c0.4-0.4,0.6-0.9,0.6-1.6c0-1.8-1.4-2.7-4.2-2.7
					c-2.3,0-4.1,0.6-5.4,1.8s-1.9,2.7-1.9,4.6c0,1.1,0.2,2.2,0.7,3.3s1,1.9,1.5,2.5c-0.3-0.1-0.6-0.2-1-0.2c-0.5,0-1,0.2-1.4,0.5
					s-0.6,0.8-0.6,1.3c0,0.4,0.2,0.8,0.5,1.4c0.3-0.3,1.7-0.6,4.3-1C3236.4,1431.6,3239.2,1431.3,3242.2,1431z"/>
			</g>
			<g id="XMLID_46_">
				<path id="XMLID_47_" class="st15" d="M3265.4,1439.4c1.1,0,2-0.4,2.8-1.2c0.8-0.8,1.1-1.7,1.1-2.7c0-1.1-0.4-2-1.1-2.8
					s-1.7-1.2-2.8-1.2c-1,0-2,0.4-2.7,1.2c-0.8,0.8-1.2,1.7-1.2,2.8c0,1,0.4,2,1.2,2.7C3263.4,1439.1,3264.3,1439.4,3265.4,1439.4z"
					/>
			</g>
			<g id="XMLID_44_">
				<path id="XMLID_45_" class="st15" d="M3255.4,1439.4c1.1,0,2-0.4,2.8-1.2c0.7-0.8,1.1-1.7,1.1-2.7c0-1.1-0.4-2-1.1-2.8
					c-0.8-0.8-1.7-1.2-2.8-1.2c-1,0-2,0.4-2.7,1.2c-0.8,0.8-1.2,1.7-1.2,2.8c0,1,0.4,2,1.2,2.7
					C3253.5,1439.1,3254.4,1439.4,3255.4,1439.4z"/>
			</g>
			<g id="XMLID_42_">
				<path id="XMLID_43_" class="st15" d="M3280.9,1431.6c-1,0-1.9,0.2-2.8,0.6c-0.9,0.4-1.5,0.8-1.7,1.1c1,0.6,2.1,1.7,2.8,3.2
					c0.8,1.5,1.4,3.2,1.4,5.2v22.1c0,1.7-0.3,3.1-0.4,4.2c-0.1,1.1-0.6,2.4-1.1,3.2s-1.5,1.5-2.7,1.5h-4.4l0,0h-6.8
					c-0.8,0-0.2-0.9-0.4-2c-0.2-1,0.8-2.8,0.8-4.4V1447c0-2-1.5-3.1-3.5-3.1s-3.5,1-3.5,3.1v24c-2,0.5-3.9,1.7-5.2,1.7h-3.9l0,0
					h-2.1c-2,0-2.3-1.2-3.3-2.9c-1-1.6-0.4-3.9-0.4-6v-20.5c0-2.7-1.7-4.7-2.7-5.8c-1-1.2-2.9-1.7-4.4-1.7c-1,0-2.2,0.2-3.1,0.6
					c-0.9,0.4-1.6,0.8-1.9,1.1c1,0.6,2.5,1.7,3.2,3.2c0.8,1.5,1.8,3.2,1.8,5.2v17.5c0,4.4,0.3,8.3,2.2,10.5c2,2.2,3.7,3.9,6.7,3.9h4
					l0,0h3.9c2.1,0,4-1.3,5.7-2.3c0.8,0.6,1.7,1.3,2.7,1.6c1,0.3,2.2,0.7,3.7,0.7h6.5l0,0h3.9c3,0,6.2-1.6,8.1-3.9
					c2-2.2,3.7-6.1,3.7-10.4v-24.2c0-2.7-1.2-4.7-2.2-5.8C3284.3,1432.2,3282.4,1431.6,3280.9,1431.6z"/>
			</g>
			<g id="XMLID_40_">
				<path id="XMLID_41_" class="st15" d="M3296.8,1431.6c-1,0-1.9,0.2-2.8,0.6c-0.9,0.4-1.5,0.8-1.7,1.1c1,0.6,2.6,1.7,3.4,3.2
					c0.8,1.5,1.9,3.2,1.9,5.2v30.6c0,1.5-0.6,2.6-0.2,3.3c0.3,0.7,0.8,1.1,2.1,1.1c1.3,0,2.2-0.4,2.6-1.1c0.4-0.7,0.6-1.8,0.6-3.3
					v-33.1c0-2.7-0.7-4.7-1.8-5.8C3299.8,1432.2,3298.3,1431.6,3296.8,1431.6z"/>
			</g>
			<g id="XMLID_38_">
				<path id="XMLID_39_" class="st15" d="M3343.2,1439.4c1.1,0,2-0.4,2.8-1.2c0.8-0.8,1.1-1.7,1.1-2.7c0-1.1-0.4-2-1.1-2.8
					c-0.8-0.8-1.7-1.2-2.8-1.2c-1,0-2,0.4-2.7,1.2c-0.8,0.8-1.2,1.7-1.2,2.8c0,1,0.4,2,1.2,2.7
					C3341.3,1439.1,3342.2,1439.4,3343.2,1439.4z"/>
			</g>
			<g id="XMLID_36_">
				<path id="XMLID_37_" class="st15" d="M3333.3,1439.4c1.1,0,2-0.4,2.8-1.2c0.8-0.8,1.1-1.7,1.1-2.7c0-1.1-0.4-2-1.1-2.8
					s-1.7-1.2-2.8-1.2c-1,0-2,0.4-2.7,1.2c-0.8,0.8-1.2,1.7-1.2,2.8c0,1,0.4,2,1.2,2.7C3331.3,1439.1,3332.2,1439.4,3333.3,1439.4z"
					/>
			</g>
			<g id="XMLID_34_">
				<path id="XMLID_35_" class="st15" d="M3396.7,1445.8c-2.8-1.3-5.7-1.9-8.7-1.9s-5.8,0.6-8.3,1.9s-3.6,2.8-5.3,4.7
					c-1.7,1.9-2.8,3.8-2.8,5.8v-17.1c0-2.7-1.6-4.7-2.6-5.8c-1-1.2-2.8-1.7-4.3-1.7c-1,0-2.1,0.2-3,0.6c-0.9,0.4-1.6,0.8-1.9,1.1
					c1,0.6,2.4,1.7,3.1,3.2c0.8,1.5,1.7,3.2,1.7,5.2v31h-9l0,0h-5v-18c0-4-0.9-6.9-3.2-8.4c-2.2-1.6-5.3-2.4-9.3-2.4
					c-2.9,0-5.3,0.4-7.1,1.3c-1.8,0.9-3.3,2.5-4.3,4.9s-1.6,5.9-1.6,10.4c0,5.6,0.9,9.7,2.8,12.3c1.9,2.6,5.1,3.9,9.7,3.9
					c2.7,0,5.1-0.5,7.2-1.5c0.6,0.4,1.4,1.2,2.2,1.5c0.8,0.3,2,0.9,3.5,0.9h5l0,0h36.2c5.1,0,8.8-2,11-4.8c2.2-2.9,3.3-6.7,3.3-10.9
					c0-4-0.9-7.4-2.7-10.1C3401.7,1449.2,3399.4,1447.1,3396.7,1445.8z M3345.6,1472.7h-5.6c-3.6,0-6-1.7-7.1-4.1
					c-1.1-2.5-1.6-5.3-1.6-8c0-7.8,2.9-11.8,7.8-11.8c4.1,0,6.5,2.4,6.5,7.5L3345.6,1472.7L3345.6,1472.7z M3397.4,1469.1
					c-1.7,2.1-4.4,3.6-8.2,3.6h-17.6v-11.4c0-3.1,2.7-6,5.6-8.6c2.9-2.7,5.8-4,9.7-4c2.2,0,4.1,0.5,6.2,1.4c2.1,1,3.6,2.4,5,4.3
					c1.3,1.9,1.9,4.4,1.9,7.2C3400.1,1464.4,3399.2,1467,3397.4,1469.1z"/>
			</g>
			<g id="XMLID_32_">
				<path id="XMLID_33_" class="st15" d="M3480.2,1443.9c-1.5,0-2.8,0.5-3.8,1.4c2.4,2,3.9,4.3,4.7,6.9c0.8,2.6,1.1,5.3,1.1,8.2
					c0,2.4-0.5,5.4-1.4,8c-0.9,2.7-3,4.4-6.1,4.4h-4.2c-1.9,0-3.2-1.3-3.9-3.2c-0.7-1.8-1-4.3-1-6.6v-13.7c0-2.1-1-3.2-2.9-3.2
					c-1,0-1.8,0.3-2.3,0.9c-0.6,0.6-0.8,1.4-0.8,2.4v17.5c0,1.6-0.5,3.3-1.4,4.2s-2.6,1.8-4.9,1.8h-5.2c-1.3,0-1.9-1-2.2-2.1
					c-0.3-1.1-0.3-3.4-0.3-6.1v-13.8c0-1.1-0.5-1.9-1-2.4s-1.1-0.7-2.1-0.7c-2,0-2.9,1-2.9,3.1v15.6c0,1.2-0.4,2.1-0.7,2.9
					c-0.3,0.8-1,1.8-1.8,2.3c-0.9,0.5-2.4,1.2-4.2,1.2h-2.6h-2.1c-2,0-2.7-1.2-3.8-2.8c-1-1.6-0.8-3.9-0.8-6.1v-24.6
					c0-2.7-1.3-4.7-2.3-5.8c-1-1.2-2.7-1.7-4.2-1.7c-1,0-2.1,0.2-2.9,0.6c-0.9,0.4-1.6,0.8-1.8,1.1c1,0.6,2.1,1.7,2.9,3.2
					s1.4,3.2,1.4,5.2v21.7c0,4.4,0.7,8.2,2.7,10.4s4.1,3.9,7.1,3.9h3.9h4.7c2.5,0,4.8-0.8,6.8-2.5c2,1.6,4.5,2.5,7.4,2.5h6.4
					c1.4,0,2.7-0.9,4-1.7c1.3-0.8,2.4-2,3.3-3.1c1.5,1.5,3,2.9,4.5,3.5s3.6,1.3,6.1,1.3h0.8c5.1,0,8.8-2.4,10.9-6
					c2.1-3.6,3.2-8.2,3.2-13.2c0-3.9-0.6-7.4-1.9-10.2C3485.1,1445.4,3483,1443.9,3480.2,1443.9z"/>
			</g>
			<g id="XMLID_30_">
				<path id="XMLID_31_" class="st15" d="M3540.4,1433.3c-1-1.2-2.6-1.7-4.1-1.7c-1,0-2,0.2-2.9,0.6c-0.9,0.4-1.5,0.8-1.8,1.1
					c1,0.6,2,1.7,2.7,3.2c0.8,1.5,1.3,3.2,1.3,5.2v22.1c0,1.7-0.2,3.1-0.3,4.2c-0.1,1.1-0.5,2.4-1.1,3.2c-0.5,0.8-1.5,1.5-2.7,1.5
					h-4.4l0,0h-5.5v-18c0-4-1.3-6.9-3.5-8.4c-2.2-1.6-5.4-2.4-9.4-2.4c-2.9,0-5.3,0.4-7.2,1.3c-1.9,0.9-3.3,2.5-4.4,4.9
					c-1,2.4-1.6,5.9-1.6,10.4c0,5.6,0.9,9.7,2.8,12.3c1.9,2.6,5.1,3.9,9.7,3.9l7.2-0.1l-0.1,5.4c0,2-0.8,3.7-2.3,5.1
					c-1.5,1.3-3.5,2-6,2c-1.2,0-2.6-0.2-4.2-0.5c0.6,1,1.6,1.8,3.1,2.6s3.3,1.1,5.3,1.1c2.6,0,4.7-0.6,6.2-1.8s2.7-2.7,3.3-4.3
					s1-3.3,1-4.8v-3.6h5.5l0,0h3.9c3,0,6.1-1.6,8-3.9c2-2.2,3.6-6.1,3.6-10.4v-24.2C3542.6,1436.4,3541.5,1434.5,3540.4,1433.3z
					 M3515.6,1472.7h-5.3c-3.6,0-6-1.7-7.1-4.1c-1.1-2.5-1.6-5.3-1.6-8c0-7.8,2.7-11.8,7.6-11.8c4.1,0,6.4,2.4,6.4,7.5
					L3515.6,1472.7L3515.6,1472.7z"/>
			</g>
		</g>
	</g>
</g>
</svg>
